<svg version="1.1" viewBox="0 0 518 434" fill="none" stroke="none" stroke-linecap="square" stroke-miterlimit="10" xmlns:xlink="http://www.w3.org/1999/xlink" xmlns="http://www.w3.org/2000/svg" id="el_EkIyC0yd8"><style>@-webkit-keyframes el_NCTPPd_fSi_kYxIze5Hv_Animation{0%{-webkit-transform: rotate(0deg);transform: rotate(0deg);}11.11%{-webkit-transform: rotate(3deg);transform: rotate(3deg);}22.22%{-webkit-transform: rotate(-3deg);transform: rotate(-3deg);}33.33%{-webkit-transform: rotate(3deg);transform: rotate(3deg);}44.44%{-webkit-transform: rotate(-3deg);transform: rotate(-3deg);}55.56%{-webkit-transform: rotate(3deg);transform: rotate(3deg);}66.67%{-webkit-transform: rotate(-3deg);transform: rotate(-3deg);}77.78%{-webkit-transform: rotate(3deg);transform: rotate(3deg);}88.89%{-webkit-transform: rotate(-3deg);transform: rotate(-3deg);}100%{-webkit-transform: rotate(3deg);transform: rotate(3deg);}}@keyframes el_NCTPPd_fSi_kYxIze5Hv_Animation{0%{-webkit-transform: rotate(0deg);transform: rotate(0deg);}11.11%{-webkit-transform: rotate(3deg);transform: rotate(3deg);}22.22%{-webkit-transform: rotate(-3deg);transform: rotate(-3deg);}33.33%{-webkit-transform: rotate(3deg);transform: rotate(3deg);}44.44%{-webkit-transform: rotate(-3deg);transform: rotate(-3deg);}55.56%{-webkit-transform: rotate(3deg);transform: rotate(3deg);}66.67%{-webkit-transform: rotate(-3deg);transform: rotate(-3deg);}77.78%{-webkit-transform: rotate(3deg);transform: rotate(3deg);}88.89%{-webkit-transform: rotate(-3deg);transform: rotate(-3deg);}100%{-webkit-transform: rotate(3deg);transform: rotate(3deg);}}@-webkit-keyframes el_y0EeKETBgE_Animation{0%{opacity: 1;}100%{opacity: 0;}}@keyframes el_y0EeKETBgE_Animation{0%{opacity: 1;}100%{opacity: 0;}}@-webkit-keyframes el_y0EeKETBgE_h98SjWCnI_Animation{0%{-webkit-transform: rotate(0deg);transform: rotate(0deg);}100%{-webkit-transform: rotate(90deg);transform: rotate(90deg);}}@keyframes el_y0EeKETBgE_h98SjWCnI_Animation{0%{-webkit-transform: rotate(0deg);transform: rotate(0deg);}100%{-webkit-transform: rotate(90deg);transform: rotate(90deg);}}@-webkit-keyframes el_y0EeKETBgE_7CdSSD1e2_Animation{0%{-webkit-transform: translate(0px, 0px);transform: translate(0px, 0px);}100%{-webkit-transform: translate(20px, -20px);transform: translate(20px, -20px);}}@keyframes el_y0EeKETBgE_7CdSSD1e2_Animation{0%{-webkit-transform: translate(0px, 0px);transform: translate(0px, 0px);}100%{-webkit-transform: translate(20px, -20px);transform: translate(20px, -20px);}}@-webkit-keyframes el_whUwO3rroY_Animation{0%{opacity: 1;}100%{opacity: 0;}}@keyframes el_whUwO3rroY_Animation{0%{opacity: 1;}100%{opacity: 0;}}@-webkit-keyframes el_whUwO3rroY_6xK9em1kL_Animation{0%{-webkit-transform: rotate(0deg);transform: rotate(0deg);}100%{-webkit-transform: rotate(-180deg);transform: rotate(-180deg);}}@keyframes el_whUwO3rroY_6xK9em1kL_Animation{0%{-webkit-transform: rotate(0deg);transform: rotate(0deg);}100%{-webkit-transform: rotate(-180deg);transform: rotate(-180deg);}}@-webkit-keyframes el_whUwO3rroY_bZAVEoi7h_Animation{0%{-webkit-transform: translate(0px, 0px);transform: translate(0px, 0px);}100%{-webkit-transform: translate(0px, -30px);transform: translate(0px, -30px);}}@keyframes el_whUwO3rroY_bZAVEoi7h_Animation{0%{-webkit-transform: translate(0px, 0px);transform: translate(0px, 0px);}100%{-webkit-transform: translate(0px, -30px);transform: translate(0px, -30px);}}@-webkit-keyframes el_uRWbq-nnbF_Animation{0%{opacity: 1;}100%{opacity: 0;}}@keyframes el_uRWbq-nnbF_Animation{0%{opacity: 1;}100%{opacity: 0;}}@-webkit-keyframes el_uRWbq-nnbF_ume64Shcd_Animation{0%{-webkit-transform: rotate(0deg);transform: rotate(0deg);}100%{-webkit-transform: rotate(-90deg);transform: rotate(-90deg);}}@keyframes el_uRWbq-nnbF_ume64Shcd_Animation{0%{-webkit-transform: rotate(0deg);transform: rotate(0deg);}100%{-webkit-transform: rotate(-90deg);transform: rotate(-90deg);}}@-webkit-keyframes el_uRWbq-nnbF_K9H24aXyN_Animation{0%{-webkit-transform: translate(0px, 0px);transform: translate(0px, 0px);}100%{-webkit-transform: translate(-20px, -20px);transform: translate(-20px, -20px);}}@keyframes el_uRWbq-nnbF_K9H24aXyN_Animation{0%{-webkit-transform: translate(0px, 0px);transform: translate(0px, 0px);}100%{-webkit-transform: translate(-20px, -20px);transform: translate(-20px, -20px);}}@-webkit-keyframes el_PtMCJWgRJ6_EvUiWWBI-_Animation{0%{-webkit-transform: rotate(0deg);transform: rotate(0deg);}11.11%{-webkit-transform: rotate(3deg);transform: rotate(3deg);}22.22%{-webkit-transform: rotate(-3deg);transform: rotate(-3deg);}33.33%{-webkit-transform: rotate(3deg);transform: rotate(3deg);}44.44%{-webkit-transform: rotate(-3deg);transform: rotate(-3deg);}55.56%{-webkit-transform: rotate(3deg);transform: rotate(3deg);}66.67%{-webkit-transform: rotate(-3deg);transform: rotate(-3deg);}77.78%{-webkit-transform: rotate(3deg);transform: rotate(3deg);}88.89%{-webkit-transform: rotate(-3deg);transform: rotate(-3deg);}100%{-webkit-transform: rotate(3deg);transform: rotate(3deg);}}@keyframes el_PtMCJWgRJ6_EvUiWWBI-_Animation{0%{-webkit-transform: rotate(0deg);transform: rotate(0deg);}11.11%{-webkit-transform: rotate(3deg);transform: rotate(3deg);}22.22%{-webkit-transform: rotate(-3deg);transform: rotate(-3deg);}33.33%{-webkit-transform: rotate(3deg);transform: rotate(3deg);}44.44%{-webkit-transform: rotate(-3deg);transform: rotate(-3deg);}55.56%{-webkit-transform: rotate(3deg);transform: rotate(3deg);}66.67%{-webkit-transform: rotate(-3deg);transform: rotate(-3deg);}77.78%{-webkit-transform: rotate(3deg);transform: rotate(3deg);}88.89%{-webkit-transform: rotate(-3deg);transform: rotate(-3deg);}100%{-webkit-transform: rotate(3deg);transform: rotate(3deg);}}#el_EkIyC0yd8 *{-webkit-animation-duration: 300ms;animation-duration: 300ms;-webkit-animation-iteration-count: infinite;animation-iteration-count: infinite;-webkit-animation-timing-function: cubic-bezier(0, 0, 1, 1);animation-timing-function: cubic-bezier(0, 0, 1, 1);}#el_kL9v3kGBiz{fill: #000000;fill-opacity: 0.0;}#el_WOtPclOAAJ{fill: #434343;}#el_ZjN_ifSXUa{fill: #434343;}#el_NCTPPd_fSi{fill: #434343;}#el_PtMCJWgRJ6{fill: #434343;}#el_Gp_7nUkNkw{fill: url(#p.1);}#el_B-e-JF24Pi{fill: #ffffff;}#el_eB9t7aomY-{fill: #ffffff;}#el_lHMoAVL3be{fill: #434343;}#el_c1dSInhtGx{fill: #434343;}#el_whUwO3rroY{fill: #6fa8dc;-webkit-animation-name: el_whUwO3rroY_Animation;animation-name: el_whUwO3rroY_Animation;}#el_y0EeKETBgE{fill: #6fa8dc;-webkit-animation-name: el_y0EeKETBgE_Animation;animation-name: el_y0EeKETBgE_Animation;}#el_uRWbq-nnbF{fill: #6fa8dc;-webkit-animation-name: el_uRWbq-nnbF_Animation;animation-name: el_uRWbq-nnbF_Animation;}#el_IEr5cefpK1{fill: #6fa8dc;}#el_W1B2ipej8Km{fill: #6fa8dc;}#el_NCTPPd_fSi_kYxIze5Hv{-webkit-transform-origin: 100% 100%;transform-origin: 100% 100%;transform-box: fill-box;-webkit-transform: rotate(0deg);transform: rotate(0deg);-webkit-animation-name: el_NCTPPd_fSi_kYxIze5Hv_Animation;animation-name: el_NCTPPd_fSi_kYxIze5Hv_Animation;-webkit-animation-timing-function: cubic-bezier(0.42, 0, 0.58, 1);animation-timing-function: cubic-bezier(0.42, 0, 0.58, 1);}#el_PtMCJWgRJ6_EvUiWWBI-{-webkit-animation-name: el_PtMCJWgRJ6_EvUiWWBI-_Animation;animation-name: el_PtMCJWgRJ6_EvUiWWBI-_Animation;-webkit-transform-origin: 0% 100%;transform-origin: 0% 100%;transform-box: fill-box;-webkit-animation-timing-function: cubic-bezier(0.42, 0, 0.58, 1);animation-timing-function: cubic-bezier(0.42, 0, 0.58, 1);}#el_uRWbq-nnbF_K9H24aXyN{-webkit-animation-name: el_uRWbq-nnbF_K9H24aXyN_Animation;animation-name: el_uRWbq-nnbF_K9H24aXyN_Animation;-webkit-transform-origin: 0% 100%;transform-origin: 0% 100%;transform-box: fill-box;-webkit-animation-timing-function: cubic-bezier(0, 0, 0.58, 1);animation-timing-function: cubic-bezier(0, 0, 0.58, 1);}#el_uRWbq-nnbF_ume64Shcd{-webkit-animation-name: el_uRWbq-nnbF_ume64Shcd_Animation;animation-name: el_uRWbq-nnbF_ume64Shcd_Animation;-webkit-transform-origin: 0% 100%;transform-origin: 0% 100%;transform-box: fill-box;-webkit-animation-timing-function: cubic-bezier(0, 0, 0.58, 1);animation-timing-function: cubic-bezier(0, 0, 0.58, 1);}#el_whUwO3rroY_bZAVEoi7h{-webkit-transform-origin: 0% 50%;transform-origin: 0% 50%;transform-box: fill-box;-webkit-animation-name: el_whUwO3rroY_bZAVEoi7h_Animation;animation-name: el_whUwO3rroY_bZAVEoi7h_Animation;-webkit-animation-timing-function: cubic-bezier(0, 0, 0.58, 1);animation-timing-function: cubic-bezier(0, 0, 0.58, 1);}#el_whUwO3rroY_6xK9em1kL{-webkit-animation-name: el_whUwO3rroY_6xK9em1kL_Animation;animation-name: el_whUwO3rroY_6xK9em1kL_Animation;-webkit-transform-origin: 0% 50%;transform-origin: 0% 50%;transform-box: fill-box;-webkit-animation-timing-function: cubic-bezier(0, 0, 0.58, 1);animation-timing-function: cubic-bezier(0, 0, 0.58, 1);}#el_y0EeKETBgE_7CdSSD1e2{-webkit-transform-origin: 100% 100%;transform-origin: 100% 100%;transform-box: fill-box;-webkit-animation-name: el_y0EeKETBgE_7CdSSD1e2_Animation;animation-name: el_y0EeKETBgE_7CdSSD1e2_Animation;-webkit-animation-timing-function: cubic-bezier(0, 0, 0.58, 1);animation-timing-function: cubic-bezier(0, 0, 0.58, 1);}#el_y0EeKETBgE_h98SjWCnI{-webkit-animation-name: el_y0EeKETBgE_h98SjWCnI_Animation;animation-name: el_y0EeKETBgE_h98SjWCnI_Animation;-webkit-transform-origin: 100% 100%;transform-origin: 100% 100%;transform-box: fill-box;-webkit-animation-timing-function: cubic-bezier(0, 0, 0.58, 1);animation-timing-function: cubic-bezier(0, 0, 0.58, 1);}</style><clipPath id="p.0"><path d="m0 0l518.3753 0l0 434.41733l-518.3753 0l0 -434.41733z" clip-rule="nonzero"/></clipPath><g clip-path="url(#p.0)" id="el_LT9Db5Y5Cf"><path d="m0 0l518.3753 0l0 434.41733l-518.3753 0z" fill-rule="evenodd" id="el_kL9v3kGBiz"/><path d="m166.68373 230.53264l0 0c0 -51.0885 41.41542 -92.50394 92.50392 -92.50394l0 0c24.53357 0 48.062317 9.745926 65.41019 27.09378c17.34784 17.347855 27.09375 40.876587 27.09375 65.41016l0 0c0 51.088516 -41.415405 92.50395 -92.50394 92.50395l0 0c-51.0885 0 -92.50392 -41.415436 -92.50392 -92.50395z" fill-rule="evenodd" id="el_WOtPclOAAJ"/><path d="m166.68373 229.41191l185.00786 0l0 122.92912l-185.00786 0z" fill-rule="evenodd" id="el_ZjN_ifSXUa"/><g id="el_NCTPPd_fSi_kYxIze5Hv" data-animator-group="true" data-animator-type="1"><path d="m162.37233 239.79797l-36.188972 16.125977l-58.29921 -131.02362l36.188972 -16.125984z" fill-rule="evenodd" id="el_NCTPPd_fSi"/></g><g id="el_PtMCJWgRJ6_EvUiWWBI-" data-animator-group="true" data-animator-type="1"><path d="m390.17853 262.6572l-34.173218 -20.031494l72.50394 -123.71654l34.173218 20.031494z" fill-rule="evenodd" id="el_PtMCJWgRJ6"/></g><defs><linearGradient id="p.1" gradientUnits="userSpaceOnUse" gradientTransform="matrix(8.931977649885232 0.0 0.0 8.931977649885232 0.0 0.0)" spreadMethod="pad" x1="18.661458141497086" y1="39.39986999481818" x2="18.66142600152741" y2="48.33184764464559"><stop offset="0.0" stop-color="#434343"/><stop offset="0.99999994" stop-color="#434343" stop-opacity="0.0"/><stop offset="1.0" stop-color="#ffffff" stop-opacity="0.0"/></linearGradient></defs><path d="m166.68373 351.91943l185.00786 0l0 79.77951l-185.00786 0z" fill-rule="evenodd" id="el_Gp_7nUkNkw"/><path d="m197.8622 208.72162l0 0c0 -13.376602 10.843887 -24.220474 24.220474 -24.220474l0 0c6.4236755 0 12.584244 2.5518036 17.126465 7.0940094c4.542221 4.542221 7.0940094 10.702805 7.0940094 17.126465l0 0c0 13.376602 -10.843872 24.220474 -24.220474 24.220474l0 0c-13.376587 0 -24.220474 -10.843872 -24.220474 -24.220474z" fill-rule="evenodd" id="el_B-e-JF24Pi"/><path d="m272.07132 208.72162l0 0c0 -13.376602 10.843872 -24.220474 24.22049 -24.220474l0 0c6.423645 0 12.5842285 2.5518036 17.126434 7.0940094c4.5422363 4.542221 7.0940247 10.702805 7.0940247 17.126465l0 0c0 13.376602 -10.843872 24.220474 -24.220459 24.220474l0 0c-13.376617 0 -24.22049 -10.843872 -24.22049 -24.220474z" fill-rule="evenodd" id="el_eB9t7aomY-"/><path d="m181.4726 187.25351l53.070877 -23.181107l13.196838 30.236221l-53.07086 23.181107z" fill-rule="evenodd" id="el_lHMoAVL3be"/><path d="m336.74033 187.25351l-53.07086 -23.181107l-13.196869 30.236221l53.07086 23.181107z" fill-rule="evenodd" id="el_c1dSInhtGx"/><g id="el_whUwO3rroY_bZAVEoi7h" data-animator-group="true" data-animator-type="0"><g id="el_whUwO3rroY_6xK9em1kL" data-animator-group="true" data-animator-type="1"><path d="m238.73097 127.396324l0 0c0 -4.0790787 3.2996979 -7.385826 7.3700714 -7.385826l0 0c1.9546661 0 3.8292847 0.77814484 5.211441 2.1632614c1.3821564 1.385109 2.1586456 3.2637253 2.1586456 5.2225647l0 0c0 4.0790787 -3.2996979 7.385826 -7.3700867 7.385826l0 0c-4.0703735 0 -7.3700714 -3.3067474 -7.3700714 -7.385826z" fill-rule="evenodd" id="el_whUwO3rroY"/></g></g><g id="el_y0EeKETBgE_7CdSSD1e2" data-animator-group="true" data-animator-type="0"><g id="el_y0EeKETBgE_h98SjWCnI" data-animator-group="true" data-animator-type="1"><path d="m320.91733 143.09914l0 0c0 -2.8005676 2.2632446 -5.070877 5.0551147 -5.070877l0 0c1.3406982 0 2.6264954 0.534256 3.5744934 1.4852295c0.94802856 0.9509735 1.4806213 2.2407684 1.4806213 3.5856476l0 0c0 2.8005524 -2.2632446 5.070862 -5.0551147 5.070862l0 0c-2.79187 0 -5.0551147 -2.2703094 -5.0551147 -5.070862z" fill-rule="evenodd" id="el_y0EeKETBgE"/></g></g><g id="el_uRWbq-nnbF_K9H24aXyN" data-animator-group="true" data-animator-type="0"><g id="el_uRWbq-nnbF_ume64Shcd" data-animator-group="true" data-animator-type="1"><path d="m164.9462 151.1181l0 0c0 -3.4876556 2.8202515 -6.3149567 6.2992096 -6.3149567l0 0c1.6706543 0 3.2728882 0.665329 4.4542084 1.8496094c1.1813354 1.1842804 1.8450012 2.7905273 1.8450012 4.4653473l0 0c0 3.487671 -2.8202515 6.314972 -6.2992096 6.314972l0 0c-3.4789581 0 -6.2992096 -2.827301 -6.2992096 -6.314972z" fill-rule="evenodd" id="el_uRWbq-nnbF"/></g></g><path d="m191.52625 182.34908l0 0c0 -2.7918549 2.26326 -5.0551147 5.0551147 -5.0551147l0 0c1.3406982 0 2.6264954 0.5325928 3.5745087 1.4806061c0.94802856 0.94802856 1.4806213 2.2338104 1.4806213 3.5745087l0 0c0 2.79187 -2.26326 5.05513 -5.05513 5.05513l0 0c-2.7918549 0 -5.0551147 -2.26326 -5.0551147 -5.05513z" fill-rule="evenodd" id="el_IEr5cefpK1"/><path d="m185.60236 194.56693l0 0c0 -1.6351013 1.325531 -2.9606323 2.9606323 -2.9606323l0 0c0.7852173 0 1.5382538 0.31193542 2.0934906 0.867157c0.55522156 0.55522156 0.8671417 1.3082733 0.8671417 2.0934753l0 0c0 1.6351166 -1.3255157 2.9606323 -2.9606323 2.9606323l0 0c-1.6351013 0 -2.9606323 -1.3255157 -2.9606323 -2.9606323z" fill-rule="evenodd" id="el_W1B2ipej8Km"/></g><script>(function(){var a=document.querySelector('#el_EkIyC0yd8'),b=a.querySelectorAll('style'),c=function(d){b.forEach(function(f){var g=f.textContent;g&amp;&amp;(f.textContent=g.replace(/transform-box:[^;\r\n]*/gi,'transform-box: '+d))})};c('initial'),window.requestAnimationFrame(function(){return c('fill-box')})})();</script></svg>