<svg version="1.1" viewBox="0.0 0.0 446.0 340.0" fill="none" stroke="none" stroke-linecap="square" stroke-miterlimit="10" xmlns:xlink="http://www.w3.org/1999/xlink" xmlns="http://www.w3.org/2000/svg"><clipPath id="p.0"><path d="m0 0l446.0 0l0 340.0l-446.0 0l0 -340.0z" clip-rule="nonzero"/></clipPath><g clip-path="url(#p.0)"><path fill="#000000" fill-opacity="0.0" d="m0 0l446.0 0l0 340.0l-446.0 0z" fill-rule="evenodd"/><path fill="#434343" d="m357.78503 8.970794l0 0c16.66507 0 30.174774 13.509711 30.174774 30.174782l0 0c0 8.002853 -3.1791077 15.677925 -8.837982 21.336796c-5.6588745 5.6588707 -13.333954 8.837994 -21.336792 8.837994l0 0c-16.66507 0 -30.174774 -13.509716 -30.174774 -30.17479l0 0c0 -16.665071 13.509705 -30.174782 30.174774 -30.174782z" fill-rule="evenodd"/><path fill="#434343" d="m358.1506 8.970794l0 60.34957l-40.099487 0l0 -60.34957z" fill-rule="evenodd"/><path fill="#000000" d="m323.44287 36.810036l9.14386 -9.143873l33.072083 33.07206l-9.14389 9.143875z" fill-rule="evenodd"/><defs><linearGradient id="p.1" gradientUnits="userSpaceOnUse" gradientTransform="matrix(0.0 5.10140164274907 -5.10140164274907 0.0 0.0 0.0)" spreadMethod="pad" x1="1.7584959478332183" y1="-62.34587421604462" x2="1.7584774831061158" y2="-57.24447257332897"><stop offset="0.0" stop-color="#434343"/><stop offset="0.99999994" stop-color="#434343" stop-opacity="0.0"/><stop offset="1.0" stop-color="#ffffff" stop-opacity="0.0"/></linearGradient></defs><path fill="url(#p.1)" d="m318.05112 8.970794l0 60.34957l-26.024078 0l0 -60.34957z" fill-rule="evenodd"/><path fill="#ffffff" d="m361.8251 30.810816l0 0c-1.1291504 -4.2159176 1.373169 -8.54896 5.589081 -9.678122l0 0c2.0245667 -0.54224396 4.1815796 -0.25802612 5.996582 0.7901268c1.8150024 1.0481529 3.1392822 2.7743816 3.681549 4.798937l0 0c1.1291504 4.2159176 -1.373169 8.54896 -5.589081 9.678122l0 0c-4.215912 1.1291656 -8.54895 -1.373146 -9.678131 -5.5890636z" fill-rule="evenodd"/><path fill="#efefef" d="m435.81818 69.73577l0 0c0 -5.3575974 -4.3432007 -9.700787 -9.700806 -9.700787c-5.3575745 0 -9.700775 4.3431892 -9.700775 9.700787l4.850403 0c0 -2.6788025 2.1715698 -4.850395 4.8503723 -4.850395c2.6788025 0 4.850403 2.1715927 4.850403 4.850395z" fill-rule="evenodd"/><path fill="#434343" d="m354.8488 25.428156l14.771637 -11.779528l6.708679 8.409449l-14.7716675 11.779528z" fill-rule="evenodd"/><path fill="#b45f06" d="m425.3773 65.02828l-24.97638 0.03149414l0 4.598427l24.97638 -0.03150177z" fill-rule="evenodd"/><path fill="#000000" d="m355.74258 70.00282l0 -12.944878l46.771637 0l0 12.944878z" fill-rule="evenodd"/><path fill="#783f04" d="m353.22757 7.120693l0 64.62993l-9.322815 0l0 -64.62993z" fill-rule="evenodd"/><path fill="#783f04" d="m333.51697 7.120097l0 64.62992l-9.322815 0l0 -64.62992z" fill-rule="evenodd"/><path fill="#783f04" d="m400.3968 70.94698l0 -14.834644l-9.322845 0l0 14.834644z" fill-rule="evenodd"/><path fill="#b45f06" d="m354.8492 37.10078l-32.75592 0.03149414l0 4.598427l32.75592 -0.031497955z" fill-rule="evenodd"/><path fill="#efefef" d="m111.90551 99.88613l0 0c0 -5.3575974 4.343193 -9.700783 9.70079 -9.700783c5.3575974 0 9.700783 4.3431854 9.700783 9.700783l-4.8503876 0c0 -2.6787949 -2.1716003 -4.8503876 -4.850395 -4.8503876c-2.6788025 0 -4.850395 2.1715927 -4.850395 4.8503876z" fill-rule="evenodd"/><path fill="#b45f06" d="m120.51117 95.35054l14.393707 -20.409454l3.7795258 2.645668l-14.3937 20.409454z" fill-rule="evenodd"/><path fill="#434343" d="m149.46698 35.17312l0 0c0 -16.664215 13.509018 -30.17323 30.173233 -30.17323l0 0c8.002426 0 15.677109 3.1789565 21.335693 8.837534c5.6585693 5.658577 8.837524 13.333256 8.837524 21.335695l0 0c0 16.664211 -13.509018 30.173225 -30.173218 30.173225l0 0c-16.664215 0 -30.173233 -13.509014 -30.173233 -30.173225z" fill-rule="evenodd"/><path fill="#efefef" d="m281.76782 98.12046l0 0c0 -5.3575974 -4.3432007 -9.70079 -9.700806 -9.70079c-5.3575745 0 -9.700775 4.343193 -9.700775 9.70079l4.850403 0c0 -2.6788025 2.1715698 -4.850395 4.8503723 -4.850395c2.6788025 0 4.850403 2.1715927 4.850403 4.850395z" fill-rule="evenodd"/><path fill="#434343" d="m149.46698 34.80909l60.34645 0l0 40.09449l-60.34645 0z" fill-rule="evenodd"/><path fill="#b45f06" d="m269.97684 94.64052l-24.598434 -24.409447l-3.275589 3.275589l24.59842 24.409454z" fill-rule="evenodd"/><path fill="#434343" d="m135.13557 38.342495l12.913391 0l0 46.771656l-12.913391 0z" fill-rule="evenodd"/><path fill="#434343" d="m212.58401 40.217075l11.181107 -6.4566917l23.40158 40.503937l-11.181107 6.4566956z" fill-rule="evenodd"/><defs><linearGradient id="p.2" gradientUnits="userSpaceOnUse" gradientTransform="matrix(5.100585109879898 0.0 0.0 5.100585109879898 0.0 0.0)" spreadMethod="pad" x1="29.30389030447448" y1="14.686228207283836" x2="29.30387020359497" y2="19.786813317124125"><stop offset="0.0" stop-color="#434343"/><stop offset="0.99999994" stop-color="#434343" stop-opacity="0.0"/><stop offset="1.0" stop-color="#ffffff" stop-opacity="0.0"/></linearGradient></defs><path fill="url(#p.2)" d="m149.46698 74.90857l60.34645 0l0 26.015755l-60.34645 0z" fill-rule="evenodd"/><path fill="#ffffff" d="m152.64554 36.61461l0 0c0 -4.3660927 3.5394287 -7.905512 7.9055176 -7.905512l0 0c2.0966644 0 4.1074677 0.8328991 5.590042 2.3154716c1.4825745 1.4825687 2.3154755 3.4933681 2.3154755 5.59004l0 0c0 4.3660927 -3.5394287 7.90551 -7.9055176 7.90551l0 0c-4.366089 0 -7.9055176 -3.5394173 -7.9055176 -7.90551z" fill-rule="evenodd"/><path fill="#ffffff" d="m176.85255 36.61461l0 0c0 -4.3660927 3.5394287 -7.905512 7.9055176 -7.905512l0 0c2.0966644 0 4.1074677 0.8328991 5.590042 2.3154716c1.4825745 1.4825687 2.3154602 3.4933681 2.3154602 5.59004l0 0c0 4.3660927 -3.5394135 7.90551 -7.9055023 7.90551l0 0c-4.366089 0 -7.9055176 -3.5394173 -7.9055176 -7.90551z" fill-rule="evenodd"/><path fill="#434343" d="m149.77977 32.245377l16.18898 -7.0866127l2.9606323 6.740156l-16.18898 7.0866146z" fill-rule="evenodd"/><path fill="#434343" d="m197.94759 29.606916l-17.322845 -7.5590553l-4.3149567 9.858269l17.322845 7.5590534z" fill-rule="evenodd"/><path fill="#783f04" d="m134.13676 71.53469l14.8346405 0l0 9.322838l-14.8346405 0z" fill-rule="evenodd"/><path fill="#783f04" d="m241.2382 62.000626l-12.850403 7.401573l4.6614227 8.062996l12.850388 -7.401573z" fill-rule="evenodd"/><path fill="#b45f06" d="m123.54934 94.820366l24.566933 -4.629921l0.8503876 4.535431l-24.566925 4.629921z" fill-rule="evenodd"/><path fill="#783f04" d="m147.88756 87.29568l63.496063 0l0 9.322838l-63.496063 0z" fill-rule="evenodd"/><path fill="#efefef" d="m201.3874 133.73398l0 0c0 -5.3575897 4.3431854 -9.700783 9.70079 -9.700783c5.3575897 0 9.70079 4.343193 9.70079 9.700783l-4.850403 0c0 -2.6788025 -2.171585 -4.8503876 -4.8503876 -4.8503876c-2.6788025 0 -4.850403 2.171585 -4.850403 4.8503876z" fill-rule="evenodd"/><path fill="#b45f06" d="m209.34944 127.28579l16.18898 -16.125984l3.2440948 3.2440948l-16.18898 16.125992z" fill-rule="evenodd"/><path fill="#434343" d="m257.11908 69.022514l0 0c0 -16.665073 13.509705 -30.174782 30.174774 -30.174782l0 0c8.002869 0 15.6779175 3.179119 21.336792 8.83799c5.6588745 5.6588707 8.838013 13.333942 8.838013 21.336792l0 0c0 16.665077 -13.509735 30.17479 -30.174805 30.17479l0 0c-16.66507 0 -30.174774 -13.509712 -30.174774 -30.17479z" fill-rule="evenodd"/><path fill="#434343" d="m257.11908 68.65693l60.34958 0l0 40.099487l-60.34958 0z" fill-rule="evenodd"/><path fill="#434343" d="m244.73903 72.3629l10.92128 6.9144135l-25.03778 39.513863l-10.92128 -6.9144135z" fill-rule="evenodd"/><defs><linearGradient id="p.3" gradientUnits="userSpaceOnUse" gradientTransform="matrix(5.101401642752157 0.0 0.0 5.101401642752157 0.0 0.0)" spreadMethod="pad" x1="50.401652719942746" y1="21.318886544140756" x2="50.401632622280594" y2="26.420288186853323"><stop offset="0.0" stop-color="#434343"/><stop offset="0.99999994" stop-color="#434343" stop-opacity="0.0"/><stop offset="1.0" stop-color="#ffffff" stop-opacity="0.0"/></linearGradient></defs><path fill="url(#p.3)" d="m257.11908 108.75642l60.34958 0l0 26.024086l-60.34958 0z" fill-rule="evenodd"/><path fill="#ffffff" d="m294.05997 61.90776l0 0c0 -4.3634453 3.537262 -7.9007187 7.9007263 -7.9007187l0 0c2.095398 0 4.1049805 0.83239365 5.5866394 2.3140678c1.4816895 1.4816704 2.3140564 3.491249 2.3140564 5.586651l0 0c0 4.363449 -3.537262 7.9007187 -7.900696 7.9007187l0 0c-4.3634644 0 -7.9007263 -3.5372696 -7.9007263 -7.9007187z" fill-rule="evenodd"/><path fill="#434343" d="m323.8774 85.79846l-3.4829102 -12.4418335l45.04129 -12.626762l3.4829102 12.4418335z" fill-rule="evenodd"/><path fill="#783f04" d="m224.96666 101.302765l12.850388 7.401573l-4.6614075 8.09449l-12.850403 -7.401573z" fill-rule="evenodd"/><path fill="#434343" d="m288.71378 54.904854l17.322845 -7.5590553l4.314972 9.858269l-17.322845 7.5590553z" fill-rule="evenodd"/><path fill="#434343" d="m288.6733 54.904854l17.322845 -7.5590553l4.3149414 9.858269l-17.322815 7.5590553z" fill-rule="evenodd"/><path fill="#efefef" d="m163.57742 204.59216l0 0c0 -5.3575897 4.3432007 -9.700775 9.70079 -9.700775c5.357605 0 9.70079 4.3431854 9.70079 9.700775l-4.8503876 0c0 -2.6787872 -2.1716003 -4.8503876 -4.850403 -4.8503876c-2.6788025 0 -4.8503876 2.1716003 -4.8503876 4.8503876z" fill-rule="evenodd"/><path fill="#b45f06" d="m172.18309 200.05658l14.393692 -20.409454l3.779541 2.6456757l-14.393707 20.40944z" fill-rule="evenodd"/><path fill="#434343" d="m201.1389 139.87915l0 0c0 -16.664207 13.509003 -30.173225 30.173218 -30.173225l0 0c8.002441 0 15.677124 3.178955 21.335693 8.837532c5.6585846 5.658577 8.83754 13.333252 8.83754 21.335693l0 0c0 16.664215 -13.509018 30.173233 -30.173233 30.173233l0 0c-16.664215 0 -30.173218 -13.509018 -30.173218 -30.173233z" fill-rule="evenodd"/><path fill="#efefef" d="m333.43973 202.82649l0 0c0 -5.3575897 -4.3432007 -9.70079 -9.700775 -9.70079c-5.357605 0 -9.700806 4.3432007 -9.700806 9.70079l4.850403 0c0 -2.6788025 2.1716003 -4.8503876 4.850403 -4.8503876c2.6788025 0 4.8503723 2.171585 4.8503723 4.8503876z" fill-rule="evenodd"/><path fill="#434343" d="m201.1389 139.51512l60.34645 0l0 40.094498l-60.34645 0z" fill-rule="evenodd"/><path fill="#b45f06" d="m321.64874 199.34656l-24.59842 -24.409454l-3.2756042 3.275589l24.59842 24.409454z" fill-rule="evenodd"/><path fill="#434343" d="m186.8075 143.04854l12.913391 0l0 46.771652l-12.913391 0z" fill-rule="evenodd"/><path fill="#434343" d="m264.25592 144.92311l11.181122 -6.4566956l23.40158 40.503937l-11.181122 6.4566956z" fill-rule="evenodd"/><defs><linearGradient id="p.4" gradientUnits="userSpaceOnUse" gradientTransform="matrix(5.100585612394731 0.0 0.0 5.100585612394731 0.0 0.0)" spreadMethod="pad" x1="39.43446838045932" y1="35.21446603104071" x2="39.4344522997573" y2="40.315051643410094"><stop offset="0.0" stop-color="#434343"/><stop offset="0.99999994" stop-color="#434343" stop-opacity="0.0"/><stop offset="1.0" stop-color="#ffffff" stop-opacity="0.0"/></linearGradient></defs><path fill="url(#p.4)" d="m201.1389 179.61461l60.34645 0l0 26.015747l-60.34645 0z" fill-rule="evenodd"/><path fill="#ffffff" d="m204.31746 141.32065l0 0c0 -4.366089 3.5394135 -7.9055176 7.9055176 -7.9055176l0 0c2.0966644 0 4.1074677 0.832901 5.590042 2.3154755c1.4825592 1.4825745 2.3154602 3.4933624 2.3154602 5.590042l0 0c0 4.366089 -3.5394135 7.9055023 -7.9055023 7.9055023l0 0c-4.366104 0 -7.9055176 -3.5394135 -7.9055176 -7.9055023z" fill-rule="evenodd"/><path fill="#ffffff" d="m228.52448 141.32065l0 0c0 -4.366089 3.5394135 -7.9055176 7.9055176 -7.9055176l0 0c2.0966644 0 4.1074677 0.832901 5.590027 2.3154755c1.4825745 1.4825745 2.3154755 3.4933624 2.3154755 5.590042l0 0c0 4.366089 -3.5394135 7.9055023 -7.9055023 7.9055023l0 0c-4.366104 0 -7.9055176 -3.5394135 -7.9055176 -7.9055023z" fill-rule="evenodd"/><path fill="#434343" d="m201.45169 136.95142l16.18898 -7.086609l2.960617 6.740143l-16.188965 7.086624z" fill-rule="evenodd"/><path fill="#434343" d="m249.61949 134.31296l-17.32283 -7.559059l-4.3149567 9.858269l17.32283 7.5590515z" fill-rule="evenodd"/><path fill="#783f04" d="m185.80869 176.24074l14.8346405 0l0 9.32283l-14.8346405 0z" fill-rule="evenodd"/><path fill="#783f04" d="m292.91013 166.70667l-12.850403 7.4015656l4.6614075 8.063004l12.850403 -7.401581z" fill-rule="evenodd"/><path fill="#b45f06" d="m175.22125 199.5264l24.56694 -4.6299133l0.8503876 4.535431l-24.566925 4.6299133z" fill-rule="evenodd"/><path fill="#783f04" d="m199.55948 192.00171l63.496063 0l0 9.322845l-63.496063 0z" fill-rule="evenodd"/><path fill="#efefef" d="m8.246719 100.00424l0 0c0 -5.3575974 4.34319 -9.700783 9.700787 -9.700783c5.3575974 0 9.7007885 4.3431854 9.7007885 9.700783l-4.8503933 0c0 -2.6787949 -2.1715965 -4.850395 -4.850395 -4.850395c-2.6787977 0 -4.8503933 2.1716003 -4.8503933 4.850395z" fill-rule="evenodd"/><path fill="#b45f06" d="m16.85238 95.46864l14.3937 -20.409447l3.7795277 2.645668l-14.3937 20.409454z" fill-rule="evenodd"/><path fill="#434343" d="m45.808186 35.29278l0 0c0 -16.665071 13.509712 -30.174782 30.174786 -30.174782l0 0c8.002846 0 15.677925 3.17912 21.336792 8.83799c5.658867 5.6588697 8.83799 13.333943 8.83799 21.336792l0 0c0 16.665073 -13.509712 30.174786 -30.174782 30.174786l0 0c-16.665073 0 -30.174786 -13.509712 -30.174786 -30.174786z" fill-rule="evenodd"/><path fill="#434343" d="m45.808186 34.9272l60.349567 0l0 40.09948l-60.349567 0z" fill-rule="evenodd"/><path fill="#434343" d="m31.47679 38.460606l12.924711 0l0 46.77759l-12.924711 0z" fill-rule="evenodd"/><path fill="#434343" d="m107.56444 38.460606l12.924713 0l0 46.77759l-12.924713 0z" fill-rule="evenodd"/><defs><linearGradient id="p.5" gradientUnits="userSpaceOnUse" gradientTransform="matrix(5.101401642748396 0.0 0.0 5.101401642748396 0.0 0.0)" spreadMethod="pad" x1="8.979528932039514" y1="14.707029024254103" x2="8.979510844143578" y2="19.80843066697043"><stop offset="0.0" stop-color="#434343"/><stop offset="0.99999994" stop-color="#434343" stop-opacity="0.0"/><stop offset="1.0" stop-color="#ffffff" stop-opacity="0.0"/></linearGradient></defs><path fill="url(#p.5)" d="m45.808186 75.02668l60.349567 0l0 26.024086l-60.349567 0z" fill-rule="evenodd"/><path fill="#ffffff" d="m55.978603 28.178028l0 0c0 -4.363447 3.5372734 -7.9007187 7.9007187 -7.9007187l0 0c2.0954018 0 4.1049767 0.83239555 5.586651 2.314066c1.4816742 1.4816723 2.314064 3.491251 2.314064 5.5866528l0 0c0 4.3634453 -3.5372696 7.9007187 -7.900715 7.9007187l0 0c-4.3634453 0 -7.9007187 -3.5372734 -7.9007187 -7.9007187z" fill-rule="evenodd"/><path fill="#ffffff" d="m80.18562 28.178028l0 0c0 -4.363447 3.5372696 -7.9007187 7.900711 -7.9007187l0 0c2.0954056 0 4.1049805 0.83239555 5.5866547 2.314066c1.4816742 1.4816723 2.314064 3.491251 2.314064 5.5866528l0 0c0 4.3634453 -3.5372696 7.9007187 -7.9007187 7.9007187l0 0c-4.3634415 0 -7.900711 -3.5372734 -7.900711 -7.9007187z" fill-rule="evenodd"/><path fill="#434343" d="m50.632317 21.175129l17.311714 -7.561675l4.304817 9.863055l-17.311722 7.561676z" fill-rule="evenodd"/><path fill="#434343" d="m101.28065 21.175129l-17.311722 -7.561675l-4.3048096 9.863055l17.311714 7.561676z" fill-rule="evenodd"/><path fill="#783f04" d="m30.47797 71.6528l14.834644 0l0 9.322838l-14.834644 0z" fill-rule="evenodd"/><path fill="#efefef" d="m143.71916 100.00424l0 0c0 -5.3575974 -4.3431854 -9.700783 -9.70079 -9.700783c-5.3575897 0 -9.700783 4.3431854 -9.700783 9.700783l4.850395 0c0 -2.6787949 2.1716003 -4.850395 4.8503876 -4.850395c2.6788025 0 4.850403 2.1716003 4.850403 4.850395z" fill-rule="evenodd"/><path fill="#b45f06" d="m135.11351 95.46864l-14.393707 -20.409447l-3.7795258 2.645668l14.393692 20.409454z" fill-rule="evenodd"/><path fill="#783f04" d="m121.487915 71.6528l-14.834648 0l0 9.322838l14.834648 0z" fill-rule="evenodd"/><path fill="#b45f06" d="m19.890549 94.93848l24.566929 -4.629921l0.8503952 4.535431l-24.56693 4.629921z" fill-rule="evenodd"/><path fill="#783f04" d="m44.22877 87.41379l63.496067 0l0 9.32283l-63.496067 0z" fill-rule="evenodd"/><path fill="#efefef" d="m9.857222 174.99907l0 0c0 -5.3575897 4.34319 -9.70079 9.700787 -9.70079c5.3575974 0 9.7007885 4.3432007 9.7007885 9.70079l-4.850395 0c0 -2.6788025 -2.1715946 -4.8503876 -4.8503933 -4.8503876c-2.6787987 0 -4.8503933 2.171585 -4.8503933 4.8503876z" fill-rule="evenodd"/><path fill="#b45f06" d="m17.819258 168.55089l16.188978 -16.125992l3.244091 3.2440948l-16.188974 16.125992z" fill-rule="evenodd"/><path fill="#434343" d="m65.58889 110.287605l0 0c0 -16.66507 13.509712 -30.174782 30.17479 -30.174782l0 0c8.002846 0 15.677925 3.179123 21.336792 8.83799c5.658867 5.658867 8.83799 13.333946 8.83799 21.336792l0 0c0 16.665077 -13.509712 30.174782 -30.174782 30.174782l0 0c-16.665077 0 -30.17479 -13.509705 -30.17479 -30.174782z" fill-rule="evenodd"/><path fill="#434343" d="m65.58889 109.92203l60.34957 0l0 40.099487l-60.34957 0z" fill-rule="evenodd"/><path fill="#434343" d="m53.208847 113.62799l10.92128 6.9144135l-25.037777 39.51387l-10.921278 -6.9144135z" fill-rule="evenodd"/><defs><linearGradient id="p.6" gradientUnits="userSpaceOnUse" gradientTransform="matrix(5.101403652514215 0.0 0.0 5.101403652514215 0.0 0.0)" spreadMethod="pad" x1="12.85702812863675" y1="29.407844324352038" x2="12.857010040747939" y2="34.50924797683419"><stop offset="0.0" stop-color="#434343"/><stop offset="0.99999994" stop-color="#434343" stop-opacity="0.0"/><stop offset="1.0" stop-color="#ffffff" stop-opacity="0.0"/></linearGradient></defs><path fill="url(#p.6)" d="m65.58889 150.02151l60.34957 0l0 26.024078l-60.34957 0z" fill-rule="evenodd"/><path fill="#ffffff" d="m102.529785 103.17285l0 0c0 -4.363449 3.5372696 -7.9007187 7.9007187 -7.9007187l0 0c2.095398 0 4.1049805 0.83239746 5.586647 2.314064c1.4816742 1.4816742 2.3140717 3.4912567 2.3140717 5.5866547l0 0c0 4.363449 -3.5372772 7.9007187 -7.9007187 7.9007187l0 0c-4.363449 0 -7.9007187 -3.5372696 -7.9007187 -7.9007187z" fill-rule="evenodd"/><path fill="#434343" d="m132.34721 127.06355l-3.482895 -12.441826l45.04129 -12.62677l3.482895 12.4418335z" fill-rule="evenodd"/><path fill="#783f04" d="m33.436474 142.56786l12.850395 7.401581l-4.661419 8.094482l-12.850393 -7.401581z" fill-rule="evenodd"/><path fill="#434343" d="m97.1836 96.169945l17.32283 -7.5590515l4.3149643 9.858261l-17.322838 7.559059z" fill-rule="evenodd"/><path fill="#434343" d="m97.14313 96.169945l17.32283 -7.5590515l4.3149643 9.858261l-17.322838 7.559059z" fill-rule="evenodd"/><path fill="#efefef" d="m307.57742 204.59216l0 0c0 -5.3575897 4.3432007 -9.700775 9.700806 -9.700775c5.3575745 0 9.700775 4.3431854 9.700775 9.700775l-4.850403 0c0 -2.6787872 -2.1716003 -4.8503876 -4.8503723 -4.8503876c-2.6788025 0 -4.850403 2.1716003 -4.850403 4.8503876z" fill-rule="evenodd"/><path fill="#434343" d="m345.1389 139.8807l0 0c0 -16.66507 13.509705 -30.174782 30.174805 -30.174782l0 0c8.002838 0 15.6779175 3.179123 21.336792 8.83799c5.6588745 5.658867 8.837982 13.333939 8.837982 21.336792l0 0c0 16.66507 -13.509705 30.17479 -30.174774 30.17479l0 0c-16.6651 0 -30.174805 -13.50972 -30.174805 -30.17479z" fill-rule="evenodd"/><path fill="#434343" d="m345.1389 139.51512l60.34958 0l0 40.099487l-60.34958 0z" fill-rule="evenodd"/><path fill="#434343" d="m330.8075 143.04854l12.924713 0l0 46.777588l-12.924713 0z" fill-rule="evenodd"/><path fill="#434343" d="m406.89514 143.04854l12.924713 0l0 46.777588l-12.924713 0z" fill-rule="evenodd"/><defs><linearGradient id="p.7" gradientUnits="userSpaceOnUse" gradientTransform="matrix(5.101401642745031 0.0 0.0 5.101401642745031 0.0 0.0)" spreadMethod="pad" x1="67.6557006739305" y1="35.20883305503464" x2="67.65568459580078" y2="40.31023469775433"><stop offset="0.0" stop-color="#434343"/><stop offset="0.99999994" stop-color="#434343" stop-opacity="0.0"/><stop offset="1.0" stop-color="#ffffff" stop-opacity="0.0"/></linearGradient></defs><path fill="url(#p.7)" d="m345.1389 179.61461l60.34958 0l0 26.024078l-60.34958 0z" fill-rule="evenodd"/><path fill="#ffffff" d="m355.30933 132.76596l0 0c0 -4.363449 3.537262 -7.9007263 7.900696 -7.9007263l0 0c2.095398 0 4.1049805 0.83239746 5.58667 2.3140717c1.4816589 1.4816742 2.3140564 3.4912415 2.3140564 5.5866547l0 0c0 4.363434 -3.537262 7.900711 -7.9007263 7.900711l0 0c-4.363434 0 -7.900696 -3.5372772 -7.900696 -7.900711z" fill-rule="evenodd"/><path fill="#ffffff" d="m379.51633 132.76596l0 0c0 -4.363449 3.537262 -7.9007263 7.9007263 -7.9007263l0 0c2.095398 0 4.1049805 0.83239746 5.5866394 2.3140717c1.4816895 1.4816742 2.314087 3.4912415 2.314087 5.5866547l0 0c0 4.363434 -3.5372925 7.900711 -7.9007263 7.900711l0 0c-4.3634644 0 -7.9007263 -3.5372772 -7.9007263 -7.900711z" fill-rule="evenodd"/><path fill="#434343" d="m349.963 125.763054l17.311737 -7.561676l4.3048096 9.86306l-17.311737 7.561676z" fill-rule="evenodd"/><path fill="#434343" d="m400.61136 125.763054l-17.311737 -7.561676l-4.3048096 9.86306l17.311737 7.561676z" fill-rule="evenodd"/><path fill="#b45f06" d="m319.22125 199.5264l24.566925 -4.6299133l0.85040283 4.535431l-24.566925 4.6299133z" fill-rule="evenodd"/><path fill="#783f04" d="m343.55948 192.00171l63.496063 0l0 9.322845l-63.496063 0z" fill-rule="evenodd"/><path fill="#efefef" d="m36.90814 264.52094l0 0c0 -5.357605 4.3431892 -9.700806 9.700787 -9.700806c5.3575974 0 9.700787 4.3432007 9.700787 9.700806l-4.850395 0c0 -2.6788025 -2.1715927 -4.850403 -4.8503914 -4.850403c-2.6787987 0 -4.850395 2.1716003 -4.850395 4.850403z" fill-rule="evenodd"/><path fill="#b45f06" d="m44.870174 258.07272l16.188976 -16.125977l3.2440948 3.2440948l-16.188976 16.125992z" fill-rule="evenodd"/><path fill="#434343" d="m92.63981 199.80946l0 0c0 -16.665085 13.509712 -30.17479 30.174782 -30.17479l0 0c8.002853 0 15.677933 3.179123 21.336792 8.837997c5.6588745 5.6588593 8.837997 13.333939 8.837997 21.336792l0 0c0 16.66507 -13.50972 30.174774 -30.17479 30.174774l0 0c-16.66507 0 -30.174782 -13.509705 -30.174782 -30.174774z" fill-rule="evenodd"/><path fill="#434343" d="m92.63981 199.44388l60.34957 0l0 40.099487l-60.34957 0z" fill-rule="evenodd"/><path fill="#434343" d="m80.259766 203.14984l10.92128 6.9144135l-25.03778 39.51387l-10.921276 -6.9144135z" fill-rule="evenodd"/><defs><linearGradient id="p.8" gradientUnits="userSpaceOnUse" gradientTransform="matrix(5.101401642748396 0.0 0.0 5.101401642748396 0.0 0.0)" spreadMethod="pad" x1="18.159676747215748" y1="46.95633863393764" x2="18.15965865931981" y2="52.057740276653966"><stop offset="0.0" stop-color="#434343"/><stop offset="0.99999994" stop-color="#434343" stop-opacity="0.0"/><stop offset="1.0" stop-color="#ffffff" stop-opacity="0.0"/></linearGradient></defs><path fill="url(#p.8)" d="m92.63981 239.54337l60.34957 0l0 26.024078l-60.34957 0z" fill-rule="evenodd"/><path fill="#ffffff" d="m129.5807 192.6947l0 0c0 -4.363449 3.537262 -7.900711 7.900711 -7.900711l0 0c2.095398 0 4.1049805 0.8323822 5.5866547 2.3140564c1.4816742 1.4816742 2.3140717 3.4912567 2.3140717 5.5866547l0 0c0 4.363449 -3.5372772 7.9007263 -7.9007263 7.9007263l0 0c-4.363449 0 -7.900711 -3.5372772 -7.900711 -7.9007263z" fill-rule="evenodd"/><path fill="#434343" d="m154.39606 202.97728l12.924713 0l0 46.777588l-12.924713 0z" fill-rule="evenodd"/><path fill="#783f04" d="m60.48739 232.0897l12.850395 7.401581l-4.661415 8.094482l-12.850395 -7.401581z" fill-rule="evenodd"/><path fill="#434343" d="m124.23451 185.6918l17.32283 -7.559067l4.314972 9.858276l-17.322845 7.5590515z" fill-rule="evenodd"/><path fill="#434343" d="m124.19404 185.6918l17.322838 -7.559067l4.3149567 9.858276l-17.32283 7.5590515z" fill-rule="evenodd"/><path fill="#efefef" d="m201.3874 251.7156l0 0c0 -5.3575897 4.3431854 -9.70079 9.70079 -9.70079c5.3575897 0 9.70079 4.3432007 9.70079 9.70079l-4.850403 0c0 -2.6788025 -2.171585 -4.8503876 -4.8503876 -4.8503876c-2.6788025 0 -4.850403 2.171585 -4.850403 4.8503876z" fill-rule="evenodd"/><path fill="#b45f06" d="m209.34944 245.26743l16.18898 -16.125992l3.2440948 3.2440948l-16.18898 16.125992z" fill-rule="evenodd"/><path fill="#434343" d="m257.11908 187.00415l0 0c0 -16.665085 13.509705 -30.17479 30.174774 -30.17479l0 0c8.002869 0 15.6779175 3.179123 21.336792 8.837982c5.6588745 5.6588745 8.838013 13.333954 8.838013 21.336807l0 0c0 16.66507 -13.509735 30.174774 -30.174805 30.174774l0 0c-16.66507 0 -30.174774 -13.509705 -30.174774 -30.174774z" fill-rule="evenodd"/><path fill="#434343" d="m257.11908 186.63857l60.34958 0l0 40.099472l-60.34958 0z" fill-rule="evenodd"/><path fill="#434343" d="m244.73903 190.34453l10.92128 6.9144135l-25.03778 39.513855l-10.92128 -6.914398z" fill-rule="evenodd"/><defs><linearGradient id="p.9" gradientUnits="userSpaceOnUse" gradientTransform="matrix(5.101401642752157 0.0 0.0 5.101401642752157 0.0 0.0)" spreadMethod="pad" x1="50.401652719942746" y1="44.44618082640655" x2="50.401632622280594" y2="49.547582469119114"><stop offset="0.0" stop-color="#434343"/><stop offset="0.99999994" stop-color="#434343" stop-opacity="0.0"/><stop offset="1.0" stop-color="#ffffff" stop-opacity="0.0"/></linearGradient></defs><path fill="url(#p.9)" d="m257.11908 226.73804l60.34958 0l0 26.024094l-60.34958 0z" fill-rule="evenodd"/><path fill="#ffffff" d="m294.05997 179.88939l0 0c0 -4.363449 3.537262 -7.9007263 7.9007263 -7.9007263l0 0c2.095398 0 4.1049805 0.83239746 5.5866394 2.3140717c1.4816895 1.4816742 2.3140564 3.4912567 2.3140564 5.5866547l0 0c0 4.363449 -3.537262 7.900711 -7.900696 7.900711l0 0c-4.3634644 0 -7.9007263 -3.537262 -7.9007263 -7.900711z" fill-rule="evenodd"/><path fill="#434343" d="m323.8774 203.78009l-3.4829102 -12.4418335l45.04129 -12.62677l3.4829102 12.4418335z" fill-rule="evenodd"/><path fill="#783f04" d="m224.96666 219.2844l12.850388 7.4015656l-4.6614075 8.094498l-12.850403 -7.401581z" fill-rule="evenodd"/><path fill="#434343" d="m288.71378 172.88647l17.322845 -7.5590515l4.314972 9.858276l-17.322845 7.5590515z" fill-rule="evenodd"/><path fill="#434343" d="m288.6733 172.88647l17.322845 -7.5590515l4.3149414 9.858276l-17.322815 7.5590515z" fill-rule="evenodd"/><path fill="#efefef" d="m271.57742 306.1722l0 0c0 -5.3575745 4.3432007 -9.700775 9.700806 -9.700775c5.3575745 0 9.700775 4.3432007 9.700775 9.700775l-4.850403 0c0 -2.678772 -2.1716003 -4.8503723 -4.8503723 -4.8503723c-2.6788025 0 -4.850403 2.1716003 -4.850403 4.8503723z" fill-rule="evenodd"/><path fill="#b45f06" d="m280.18307 301.63663l14.393707 -20.409454l3.779541 2.6456604l-14.393707 20.409454z" fill-rule="evenodd"/><path fill="#434343" d="m309.1389 241.46077l0 0c0 -16.665085 13.509705 -30.17479 30.174805 -30.17479l0 0c8.002838 0 15.6779175 3.179123 21.336792 8.837982c5.6588745 5.6588745 8.837982 13.333954 8.837982 21.336807l0 0c0 16.665054 -13.509705 30.17479 -30.174774 30.17479l0 0c-16.6651 0 -30.174805 -13.509735 -30.174805 -30.17479z" fill-rule="evenodd"/><path fill="#efefef" d="m441.43973 304.40656l0 0c0 -5.357605 -4.3432007 -9.700806 -9.700775 -9.700806c-5.357605 0 -9.700806 4.3432007 -9.700806 9.700806l4.850403 0c0 -2.6788025 2.1716003 -4.850403 4.850403 -4.850403c2.6788025 0 4.8503723 2.1716003 4.8503723 4.850403z" fill-rule="evenodd"/><path fill="#434343" d="m309.1389 241.09518l60.34958 0l0 40.099487l-60.34958 0z" fill-rule="evenodd"/><path fill="#b45f06" d="m429.64874 300.9266l-24.59842 -24.409454l-3.2756042 3.2756042l24.59842 24.409454z" fill-rule="evenodd"/><path fill="#434343" d="m294.8075 244.62859l12.924713 0l0 46.777603l-12.924713 0z" fill-rule="evenodd"/><path fill="#434343" d="m372.25592 246.50316l11.181122 -6.4566803l23.40158 40.503937l-11.181122 6.4566956z" fill-rule="evenodd"/><defs><linearGradient id="p.10" gradientUnits="userSpaceOnUse" gradientTransform="matrix(5.101401642745031 0.0 0.0 5.101401642745031 0.0 0.0)" spreadMethod="pad" x1="60.598812581920164" y1="55.121017902879466" x2="60.598796503790446" y2="60.22241954559916"><stop offset="0.0" stop-color="#434343"/><stop offset="0.99999994" stop-color="#434343" stop-opacity="0.0"/><stop offset="1.0" stop-color="#ffffff" stop-opacity="0.0"/></linearGradient></defs><path fill="url(#p.10)" d="m309.1389 281.19467l60.34958 0l0 26.024078l-60.34958 0z" fill-rule="evenodd"/><path fill="#ffffff" d="m312.31744 242.9007l0 0c0 -4.366089 3.5394287 -7.9055023 7.9055176 -7.9055023l0 0c2.0966797 0 4.107483 0.83288574 5.5900574 2.3154602c1.4825745 1.4825745 2.3154602 3.4933777 2.3154602 5.590042l0 0c0 4.366089 -3.5394287 7.9055176 -7.9055176 7.9055176l0 0c-4.366089 0 -7.9055176 -3.5394287 -7.9055176 -7.9055176z" fill-rule="evenodd"/><path fill="#ffffff" d="m336.52448 242.9007l0 0c0 -4.366089 3.5394287 -7.9055023 7.9055176 -7.9055023l0 0c2.0966797 0 4.1074524 0.83288574 5.590027 2.3154602c1.4825745 1.4825745 2.3154907 3.4933777 2.3154907 5.590042l0 0c0 4.366089 -3.5394287 7.9055176 -7.9055176 7.9055176l0 0c-4.366089 0 -7.9055176 -3.5394287 -7.9055176 -7.9055176z" fill-rule="evenodd"/><path fill="#434343" d="m309.4517 238.53146l16.188965 -7.086609l2.9606323 6.740158l-16.188965 7.086609z" fill-rule="evenodd"/><path fill="#434343" d="m357.6195 235.893l-17.322845 -7.5590515l-4.314972 9.858261l17.322845 7.5590515z" fill-rule="evenodd"/><path fill="#783f04" d="m293.8087 277.82077l14.834625 0l0 9.322845l-14.834625 0z" fill-rule="evenodd"/><path fill="#783f04" d="m400.91013 268.2867l-12.850403 7.401581l4.6614075 8.062988l12.850403 -7.401581z" fill-rule="evenodd"/><path fill="#b45f06" d="m283.22125 301.10645l24.566925 -4.6299133l0.85040283 4.535431l-24.566925 4.6299133z" fill-rule="evenodd"/><path fill="#783f04" d="m307.55948 293.58176l63.496063 0l0 9.322845l-63.496063 0z" fill-rule="evenodd"/><path fill="#434343" d="m83.49369 261.27264l0 0c16.665077 0 30.17479 13.509705 30.17479 30.174774l0 0c0 8.002838 -3.179123 15.6779175 -8.83799 21.336792c-5.6588745 5.6588745 -13.333946 8.837982 -21.3368 8.837982l0 0c-16.66507 0 -30.174782 -13.509705 -30.174782 -30.174774l0 0c0 -16.66507 13.509712 -30.174774 30.174782 -30.174774z" fill-rule="evenodd"/><path fill="#434343" d="m83.859276 261.27264l0 60.34955l-40.099483 0l0 -60.34955z" fill-rule="evenodd"/><path fill="#000000" d="m49.15153 289.11188l9.143871 -9.14389l33.07206 33.072083l-9.143875 9.14386z" fill-rule="evenodd"/><defs><linearGradient id="p.11" gradientUnits="userSpaceOnUse" gradientTransform="matrix(0.0 5.101401768362543 -5.101401768362543 0.0 0.0 0.0)" spreadMethod="pad" x1="51.21585196751506" y1="-8.578036719118927" x2="51.215831869853396" y2="-3.476634950795973"><stop offset="0.0" stop-color="#434343"/><stop offset="0.99999994" stop-color="#434343" stop-opacity="0.0"/><stop offset="1.0" stop-color="#ffffff" stop-opacity="0.0"/></linearGradient></defs><path fill="url(#p.11)" d="m43.759792 261.27264l0 60.34955l-26.02408 0l0 -60.34955z" fill-rule="evenodd"/><path fill="#ffffff" d="m87.533775 283.11264l0 0c-1.129158 -4.215912 1.3731537 -8.54895 5.5890656 -9.678101l0 0c2.024559 -0.54226685 4.181595 -0.25802612 5.9965973 0.7901306c1.8150024 1.0481262 3.1392822 2.7743835 3.6815262 4.7989197l0 0c1.1291656 4.215912 -1.373146 8.548981 -5.5890656 9.678131l0 0c-4.215912 1.1291504 -8.548958 -1.3731384 -9.678123 -5.589081z" fill-rule="evenodd"/><path fill="#efefef" d="m161.52682 322.0376l0 0c0 -5.3575745 -4.3431854 -9.700775 -9.70079 -9.700775c-5.3575897 0 -9.700775 4.3432007 -9.700775 9.700775l4.8503876 0c0 -2.6788025 2.1716003 -4.8503723 4.8503876 -4.8503723c2.6788025 0 4.850403 2.1715698 4.850403 4.8503723z" fill-rule="evenodd"/><path fill="#434343" d="m80.557434 277.72998l14.771652 -11.7795105l6.708664 8.409454l-14.771652 11.7795105z" fill-rule="evenodd"/><path fill="#b45f06" d="m151.08595 317.3301l-24.97638 0.03149414l0 4.598419l24.97638 -0.03149414z" fill-rule="evenodd"/><path fill="#000000" d="m81.45124 322.30466l0 -12.944885l46.77166 0l0 12.944885z" fill-rule="evenodd"/><path fill="#783f04" d="m78.93623 259.42252l0 64.629944l-9.32283 0l0 -64.629944z" fill-rule="evenodd"/><path fill="#783f04" d="m59.22564 259.42194l0 64.62991l-9.322838 0l0 -64.62991z" fill-rule="evenodd"/><path fill="#783f04" d="m126.10544 323.2488l0 -14.834625l-9.322838 0l0 14.834625z" fill-rule="evenodd"/><path fill="#b45f06" d="m80.55786 289.40262l-32.755905 0.03149414l0 4.598419l32.755905 -0.03149414z" fill-rule="evenodd"/><path fill="#efefef" d="m169.52756 332.1722l0 0c0 -5.3575745 4.3431854 -9.700775 9.70079 -9.700775c5.3575897 0 9.70079 4.3432007 9.70079 9.700775l-4.850403 0c0 -2.678772 -2.171585 -4.8503723 -4.8503876 -4.8503723c-2.6788025 0 -4.8503876 2.1716003 -4.8503876 4.8503723z" fill-rule="evenodd"/><path fill="#434343" d="m207.08902 267.46075l0 0c0 -16.66507 13.50972 -30.174774 30.17479 -30.174774l0 0c8.002853 0 15.6779175 3.179123 21.336807 8.837982c5.658844 5.6588745 8.837982 13.333954 8.837982 21.336792l0 0c0 16.66507 -13.50972 30.174805 -30.17479 30.174805l0 0c-16.66507 0 -30.17479 -13.509735 -30.17479 -30.174805z" fill-rule="evenodd"/><path fill="#434343" d="m207.08902 267.09518l60.34958 0l0 40.099487l-60.34958 0z" fill-rule="evenodd"/><path fill="#434343" d="m192.75763 270.62857l12.924713 0l0 46.77762l-12.924713 0z" fill-rule="evenodd"/><path fill="#434343" d="m268.84528 270.62857l12.924713 0l0 46.77762l-12.924713 0z" fill-rule="evenodd"/><defs><linearGradient id="p.12" gradientUnits="userSpaceOnUse" gradientTransform="matrix(5.101401642752157 0.0 0.0 5.101401642752157 0.0 0.0)" spreadMethod="pad" x1="40.59453622650429" y1="60.21765639958494" x2="40.59451612884214" y2="65.31905804229751"><stop offset="0.0" stop-color="#434343"/><stop offset="0.99999994" stop-color="#434343" stop-opacity="0.0"/><stop offset="1.0" stop-color="#ffffff" stop-opacity="0.0"/></linearGradient></defs><path fill="url(#p.12)" d="m207.08902 307.19467l60.34958 0l0 26.024078l-60.34958 0z" fill-rule="evenodd"/><path fill="#ffffff" d="m217.25945 260.346l0 0c0 -4.363449 3.5372772 -7.9007263 7.900711 -7.9007263l0 0c2.0954132 0 4.1049805 0.83239746 5.5866547 2.3140717c1.4816742 1.4816742 2.3140717 3.4912567 2.3140717 5.5866547l0 0c0 4.363434 -3.5372772 7.9007263 -7.9007263 7.9007263l0 0c-4.363434 0 -7.900711 -3.5372925 -7.900711 -7.9007263z" fill-rule="evenodd"/><path fill="#ffffff" d="m241.46646 260.346l0 0c0 -4.363449 3.5372772 -7.9007263 7.900711 -7.9007263l0 0c2.0954132 0 4.1049805 0.83239746 5.5866547 2.3140717c1.4816589 1.4816742 2.3140564 3.4912567 2.3140564 5.5866547l0 0c0 4.363434 -3.537262 7.9007263 -7.900711 7.9007263l0 0c-4.363434 0 -7.900711 -3.5372925 -7.900711 -7.9007263z" fill-rule="evenodd"/><path fill="#434343" d="m211.91316 253.34311l17.311707 -7.561676l4.3048096 9.863052l-17.311707 7.5616913z" fill-rule="evenodd"/><path fill="#434343" d="m262.5615 253.34311l-17.311722 -7.561676l-4.3048096 9.863052l17.311722 7.5616913z" fill-rule="evenodd"/><path fill="#b45f06" d="m181.17139 327.10645l24.566925 -4.6299133l0.85040283 4.535431l-24.566925 4.6299133z" fill-rule="evenodd"/><path fill="#783f04" d="m205.50961 319.58176l63.496063 0l0 9.322845l-63.496063 0z" fill-rule="evenodd"/></g></svg>