<svg version="1.1" viewBox="0.0 0.0 960.0 720.0" fill="none" stroke="none" stroke-linecap="square" stroke-miterlimit="10" xmlns:xlink="http://www.w3.org/1999/xlink" xmlns="http://www.w3.org/2000/svg"><clipPath id="p.0"><path d="m0 0l960.0 0l0 720.0l-960.0 0l0 -720.0z" clip-rule="nonzero"/></clipPath><g clip-path="url(#p.0)"><path fill="#000000" fill-opacity="0.0" d="m0 0l960.0 0l0 720.0l-960.0 0z" fill-rule="evenodd"/><path fill="#1a3c1b" d="m8.108881 246.96317l0 0c0 -20.204056 16.378622 -36.582687 36.58268 -36.582687l253.44882 0c9.702332 0 19.007263 3.854248 25.867859 10.7148285c6.860565 6.8605804 10.714813 16.165527 10.714813 25.867859l0 0l0 0c0 20.20404 -16.378632 36.582672 -36.582672 36.582672l-253.44882 0c-20.204056 0 -36.58268 -16.378632 -36.58268 -36.582672z" fill-rule="evenodd"/><path fill="#1a3c1b" d="m157.47023 303.4867l0 0c0 -20.204071 16.378616 -36.582703 36.582672 -36.582703l253.4488 0c9.702332 0 19.007294 3.854248 25.867859 10.714844c6.8605957 6.860565 10.714813 16.165527 10.714813 25.867859l0 0l0 0c0 20.20404 -16.378601 36.582672 -36.582672 36.582672l-253.4488 0c-20.204056 0 -36.582672 -16.378632 -36.582672 -36.582672z" fill-rule="evenodd"/><path fill="#1a3c1b" d="m644.3047 230.71599l0 0c0 -26.457474 21.447998 -47.905502 47.905518 -47.905502l163.52753 0l0 0c12.705322 0 24.89032 5.047165 33.87433 14.031189c8.984009 8.984039 14.031189 21.168991 14.031189 33.874313l0 0l0 0c0 26.457474 -21.44806 47.905502 -47.905518 47.905502l-163.52753 0c-26.45752 0 -47.905518 -21.448029 -47.905518 -47.905502z" fill-rule="evenodd"/><path fill="#1a3c1b" d="m717.9886 523.8844l0 0c0 -20.20404 -16.378601 -36.58264 -36.58264 -36.58264l-253.44885 0c-9.702332 0 -19.007263 3.8542175 -25.867859 10.714813c-6.860565 6.860565 -10.714813 16.165497 -10.714813 25.867828l0 0l0 0c0 20.204102 16.378632 36.582703 36.582672 36.582703l253.44885 0c20.20404 0 36.58264 -16.378601 36.58264 -36.582703z" fill-rule="evenodd"/><path fill="#1a3c1b" d="m568.62726 580.40796l0 0c0 -20.204102 -16.378601 -36.582703 -36.582703 -36.582703l-253.44879 0c-9.702332 0 -19.007294 3.854248 -25.867859 10.714844c-6.8605957 6.8605957 -10.7148285 16.165527 -10.7148285 25.867859l0 0l0 0c0 20.20404 16.378616 36.58264 36.582687 36.58264l253.44879 0c20.204102 0 36.582703 -16.378601 36.582703 -36.58264z" fill-rule="evenodd"/><path fill="#1a3c1b" d="m997.7153 719.5196l0 0c0 -20.20404 -16.378662 -36.582703 -36.582703 -36.582703l-253.44879 0c-9.702332 0 -19.007324 3.854248 -25.867859 10.714844c-6.8605957 6.8605957 -10.714844 16.165527 -10.714844 25.867859l0 0l0 0c0 20.20404 16.378601 36.582703 36.582703 36.582703l253.44879 0c20.20404 0 36.582703 -16.378662 36.582703 -36.582703z" fill-rule="evenodd"/><path fill="#1a3c1b" d="m297.4778 64.35171l0 0c0 -20.204056 16.378632 -36.58268 36.582703 -36.58268l142.51968 0l0 0c9.702332 0 19.007263 3.8542347 25.867859 10.714819c6.860565 6.8605804 10.714783 16.165527 10.714783 25.867859l0 0l0 0c0 20.204056 -16.378601 36.582672 -36.58264 36.582672l-142.51968 0c-20.204071 0 -36.582703 -16.378616 -36.582703 -36.582672z" fill-rule="evenodd"/><path fill="#1a3c1b" d="m35.3718 719.5188l0 0c0 -20.20404 -16.378624 -36.582703 -36.58268 -36.582703l-253.44882 0c-9.702332 0 -19.007263 3.854248 -25.867859 10.714844c-6.8605957 6.8605957 -10.714813 16.165527 -10.714813 25.867859l0 0l0 0c0 20.20404 16.378632 36.58264 36.582672 36.58264l253.44882 0c20.204054 0 36.58268 -16.378601 36.58268 -36.58264z" fill-rule="evenodd"/><path fill="#1a3c1b" d="m163.70213 480.77942l0 0c0 -20.20404 -16.378632 -36.582672 -36.58268 -36.582672l-253.44882 0c-9.702324 0 -19.00727 3.854248 -25.867851 10.714813c-6.8605804 6.8605957 -10.7148285 16.165558 -10.7148285 25.867859l0 0l0 0c0 20.204071 16.378632 36.582703 36.58268 36.582703l253.44882 0c20.204048 0 36.58268 -16.378632 36.58268 -36.582703z" fill-rule="evenodd"/><path fill="#1a3c1b" d="m1123.8582 480.77942l0 0c0 -20.20404 -16.378662 -36.582672 -36.582764 -36.582672l-253.44879 0c-9.702332 0 -19.007263 3.854248 -25.867859 10.714813c-6.8605347 6.8605957 -10.714783 16.165558 -10.714783 25.867859l0 0l0 0c0 20.204071 16.378601 36.582703 36.58264 36.582703l253.44879 0c20.204102 0 36.582764 -16.378632 36.582764 -36.582703z" fill-rule="evenodd"/><path fill="#1a3c1b" d="m997.7153 -0.30193123l0 0c0 -20.204054 -16.378662 -36.58268 -36.582703 -36.58268l-253.44879 0c-9.702332 0 -19.007324 3.8542366 -25.867859 10.714819c-6.8605957 6.8605824 -10.714844 16.165531 -10.714844 25.867859l0 0l0 0c0 20.204056 16.378601 36.582676 36.582703 36.582676l253.44879 0c20.20404 0 36.582703 -16.378622 36.582703 -36.582676z" fill-rule="evenodd"/><path fill="#1a3c1b" d="m35.37142 -0.30193123l0 0c0 -20.204054 -16.378622 -36.58268 -36.582676 -36.58268l-253.44882 0c-9.702316 0 -19.007278 3.8542366 -25.867844 10.714819c-6.8605957 6.8605824 -10.714813 16.165531 -10.714813 25.867859l0 0l0 0c0 20.204056 16.378601 36.582676 36.582657 36.582676l253.44882 0c20.204056 0 36.582676 -16.378622 36.582676 -36.582676z" fill-rule="evenodd"/></g></svg>