<svg version="1.1" viewBox="0.0 0.0 299.4776902887139 294.09711286089237" fill="none" stroke="none" stroke-linecap="square" stroke-miterlimit="10" xmlns:xlink="http://www.w3.org/1999/xlink" xmlns="http://www.w3.org/2000/svg"><clipPath id="p.0"><path d="m0 0l299.4777 0l0 294.0971l-299.4777 0l0 -294.0971z" clip-rule="nonzero"/></clipPath><g clip-path="url(#p.0)"><path fill="#000000" fill-opacity="0.0" d="m0 0l299.4777 0l0 294.0971l-299.4777 0z" fill-rule="evenodd"/><path fill="#434343" d="m58.102364 92.50378l0 0c0 -51.088516 41.41542 -92.503944 92.50393 -92.503944l0 0c24.53357 0 48.062317 9.745922 65.41017 27.093777c17.347855 17.34785 27.093765 40.876595 27.093765 65.410164l0 0c0 51.08851 -41.41542 92.50393 -92.50394 92.50393l0 0c-51.08851 0 -92.50393 -41.41542 -92.50393 -92.50393z" fill-rule="evenodd"/><path fill="#434343" d="m58.102364 91.38304l185.00787 0l0 122.92912l-185.00787 0z" fill-rule="evenodd"/><path fill="#434343" d="m5.3490815 102.215225l48.440945 0l0 122.92914l-48.440945 0z" fill-rule="evenodd"/><path fill="#434343" d="m247.42184 109.832954l39.338593 -4.7873993l9.606293 79.21259l-39.338593 4.7873993z" fill-rule="evenodd"/><defs><linearGradient id="p.1" gradientUnits="userSpaceOnUse" gradientTransform="matrix(8.931976502030139 0.0 0.0 8.931976502030139 0.0 0.0)" spreadMethod="pad" x1="6.504983772798595" y1="23.99373701823684" x2="6.504951058896685" y2="32.92571352020707"><stop offset="0.0" stop-color="#434343"/><stop offset="0.99999994" stop-color="#434343" stop-opacity="0.0"/><stop offset="1.0" stop-color="#ffffff" stop-opacity="0.0"/></linearGradient></defs><path fill="url(#p.1)" d="m58.102364 214.31216l185.00787 0l0 79.77954l-185.00787 0z" fill-rule="evenodd"/><path fill="#ffffff" d="m89.28084 78.15753l0 0c0 -17.499165 10.84388 -31.68504 24.220474 -31.68504l0 0c6.423668 0 12.584244 3.338234 17.126465 9.280331c4.542221 5.9421005 7.0940094 14.001312 7.0940094 22.404709l0 0c0 17.49916 -10.84388 31.685036 -24.220474 31.685036l0 0c-13.376595 0 -24.220474 -14.185875 -24.220474 -31.685036z" fill-rule="evenodd"/><path fill="#999999" d="m163.48996 70.69275l0 0c0 -13.376598 10.843872 -24.22047 24.220474 -24.22047l0 0c6.4236603 0 12.584244 2.5517921 17.126465 7.0940094c4.542221 4.542221 7.0940094 10.702793 7.0940094 17.126461l0 0c0 13.376595 -10.843872 24.220474 -24.220474 24.220474l0 0c-13.376602 0 -24.220474 -10.84388 -24.220474 -24.220474z" fill-rule="evenodd"/><path fill="#434343" d="m72.891235 49.22464l53.07086 -23.181105l13.196854 30.23622l-53.07087 23.181107z" fill-rule="evenodd"/><path fill="#cc0000" d="m-2.0997375E-6 126.60105l0 0c0 -3.5659332 2.89076 -6.4566956 6.4566927 -6.4566956l0 0c1.7124214 0 3.3547068 0.6802597 4.565572 1.8911209c1.2108641 1.2108688 1.8911209 2.8531494 1.8911209 4.5655746l0 0c0 3.5659256 -2.8907595 6.456688 -6.4566927 6.456688l0 0c-3.565933 0 -6.4566927 -2.8907623 -6.4566927 -6.456688z" fill-rule="evenodd"/><path fill="#b45f06" d="m211.4672 98.215225l0 0c0 -3.5659332 2.8907623 -6.4566956 6.4566956 -6.4566956l0 0c1.7124176 0 3.3547058 0.6802597 4.565567 1.8911209c1.2108612 1.2108688 1.8911133 2.8531494 1.8911133 4.5655746l0 0c0 3.5659332 -2.890747 6.456688 -6.4566803 6.456688l0 0c-3.5659332 0 -6.4566956 -2.8907547 -6.4566956 -6.456688z" fill-rule="evenodd"/><path fill="#cc0000" d="m-2.0997375E-6 168.01312l0 0c0 -3.5659332 2.89076 -6.4566956 6.4566927 -6.4566956l0 0c1.7124214 0 3.3547068 0.68026733 4.565572 1.8911285c1.2108641 1.2108612 1.8911209 2.8531494 1.8911209 4.565567l0 0c0 3.5659332 -2.8907595 6.4566956 -6.4566927 6.4566956l0 0c-3.565933 0 -6.4566927 -2.8907623 -6.4566927 -6.4566956z" fill-rule="evenodd"/><path fill="#000000" fill-opacity="0.0" d="m6.5039372 200.84251c4.8002286 -3.199112 7.25596 -9.00528 10.312336 -13.897629c2.0185356 -3.231079 8.340078 0.26712036 11.20735 -2.2414703c4.1249294 -3.6089478 2.272461 -12.341309 7.1732273 -14.795273" fill-rule="evenodd"/><path stroke="#cc0000" stroke-width="3.0" stroke-linejoin="round" stroke-linecap="butt" d="m6.5039372 200.84251c4.8002286 -3.199112 7.25596 -9.00528 10.312336 -13.897629c2.0185356 -3.231079 8.340078 0.26712036 11.20735 -2.2414703c4.1249294 -3.6089478 2.272461 -12.341309 7.1732273 -14.795273" fill-rule="evenodd"/><path fill="#cc0000" d="m115.078735 30.519684l0 0c0 -3.5659313 2.8907623 -6.4566917 6.4566956 -6.4566917l0 0c1.7124252 0 3.3547058 0.6802559 4.5655746 1.8911209c1.2108612 1.210865 1.8911209 2.8531494 1.8911209 4.565571l0 0c0 3.5659332 -2.8907623 6.4566956 -6.4566956 6.4566956l0 0c-3.5659332 0 -6.4566956 -2.8907623 -6.4566956 -6.4566956z" fill-rule="evenodd"/><path fill="#cc0000" d="m172.2336 26.346457l0 0c0 -3.5659332 2.8907623 -6.4566936 6.4566956 -6.4566936l0 0c1.7124176 0 3.3547058 0.6802578 4.565567 1.8911228c1.2108612 1.210865 1.8911133 2.8531494 1.8911133 4.565571l0 0c0 3.5659332 -2.890747 6.4566936 -6.4566803 6.4566936l0 0c-3.5659332 0 -6.4566956 -2.8907604 -6.4566956 -6.4566936z" fill-rule="evenodd"/><path fill="#b45f06" d="m79.9685 130.80315l0 0c0 -3.5659332 2.8907623 -6.456688 6.4566956 -6.456688l0 0c1.7124252 0 3.3547058 0.6802521 4.5655746 1.8911209c1.2108612 1.2108612 1.8911209 2.8531494 1.8911209 4.565567l0 0c0 3.5659332 -2.8907623 6.4566956 -6.4566956 6.4566956l0 0c-3.5659332 0 -6.4566956 -2.8907623 -6.4566956 -6.4566956z" fill-rule="evenodd"/><path fill="#000000" fill-opacity="0.0" d="m26.231258 186.04724c-1.8629303 -13.018723 -10.066702 -31.553253 0.4488182 -39.451447" fill-rule="evenodd"/><path stroke="#cc0000" stroke-width="3.0" stroke-linejoin="round" stroke-linecap="butt" d="m26.231258 186.04724c-1.8629303 -13.018723 -10.066702 -31.553253 0.4488182 -39.451447" fill-rule="evenodd"/><path fill="#000000" fill-opacity="0.0" d="m59.855644 196.35957c14.216499 0 21.930367 -19.265503 35.41732 -23.761154c15.9615555 -5.320511 35.85263 -0.6667023 49.314957 -10.75853" fill-rule="evenodd"/><path stroke="#cc0000" stroke-width="3.0" stroke-linejoin="round" stroke-linecap="butt" d="m59.855644 196.35957c14.216499 0 21.930367 -19.265503 35.41732 -23.761154c15.9615555 -5.320511 35.85263 -0.6667023 49.314957 -10.75853" fill-rule="evenodd"/><path fill="#000000" fill-opacity="0.0" d="m120.826775 169.45932c9.624825 0 16.3778 12.5538025 26.002617 12.5538025" fill-rule="evenodd"/><path stroke="#cc0000" stroke-width="3.0" stroke-linejoin="round" stroke-linecap="butt" d="m120.826775 169.45932c9.624825 0 16.3778 12.5538025 26.002617 12.5538025" fill-rule="evenodd"/><path fill="#b45f06" d="m243.2168 157.35391l0 28.692276l-31.638794 0c0 -14.34613 -12.054962 -14.34613 -5.205551 -28.692276z" fill-rule="evenodd"/><path fill="#cc0000" d="m296.74274 184.3983l-39.911804 4.9606323l-1.6640167 -13.398407c19.955917 -2.4803162 19.321884 -7.5853577 39.638046 -7.165085z" fill-rule="evenodd"/><path fill="#cc0000" d="m177.69789 123.36565l0 0c-3.01799 -3.0179977 -3.01799 -7.9111404 0 -10.929138q2.7322845 -2.732277 5.464569 -5.4645615q2.7322845 2.7322845 5.464569 5.4645615l0 0c3.01799 3.0179977 3.01799 7.9111404 0 10.929138l0 0c-3.0180054 3.0179977 -7.911133 3.0179977 -10.929138 0z" fill-rule="evenodd"/></g></svg>