<svg version="1.1" viewBox="0 0 478 374" fill="none" stroke="none" stroke-linecap="square" stroke-miterlimit="10" xmlns:xlink="http://www.w3.org/1999/xlink" xmlns="http://www.w3.org/2000/svg" id="el_tc2pygKyW"><style>@-webkit-keyframes el_FambrfWAo1_869mMpTvh_Animation{0%{-webkit-transform: translate(0px, 0px);transform: translate(0px, 0px);}20%{-webkit-transform: translate(0px, 40px);transform: translate(0px, 40px);}80%{-webkit-transform: translate(0px, 0px);transform: translate(0px, 0px);}100%{-webkit-transform: translate(0px, 0px);transform: translate(0px, 0px);}}@keyframes el_FambrfWAo1_869mMpTvh_Animation{0%{-webkit-transform: translate(0px, 0px);transform: translate(0px, 0px);}20%{-webkit-transform: translate(0px, 40px);transform: translate(0px, 40px);}80%{-webkit-transform: translate(0px, 0px);transform: translate(0px, 0px);}100%{-webkit-transform: translate(0px, 0px);transform: translate(0px, 0px);}}@-webkit-keyframes el_tijKyXFVwX_UI_vGzOxe_Animation{0%{-webkit-transform: translate(0px, 0px);transform: translate(0px, 0px);}20%{-webkit-transform: translate(0px, 40px);transform: translate(0px, 40px);}80%{-webkit-transform: translate(0px, 0px);transform: translate(0px, 0px);}100%{-webkit-transform: translate(0px, 0px);transform: translate(0px, 0px);}}@keyframes el_tijKyXFVwX_UI_vGzOxe_Animation{0%{-webkit-transform: translate(0px, 0px);transform: translate(0px, 0px);}20%{-webkit-transform: translate(0px, 40px);transform: translate(0px, 40px);}80%{-webkit-transform: translate(0px, 0px);transform: translate(0px, 0px);}100%{-webkit-transform: translate(0px, 0px);transform: translate(0px, 0px);}}@-webkit-keyframes el_l7VFkkmhgj_XQ5Gplia2_Animation{0%{-webkit-transform: translate(0px, 0px);transform: translate(0px, 0px);}20%{-webkit-transform: translate(0px, 40px);transform: translate(0px, 40px);}80%{-webkit-transform: translate(0px, 0px);transform: translate(0px, 0px);}100%{-webkit-transform: translate(0px, 0px);transform: translate(0px, 0px);}}@keyframes el_l7VFkkmhgj_XQ5Gplia2_Animation{0%{-webkit-transform: translate(0px, 0px);transform: translate(0px, 0px);}20%{-webkit-transform: translate(0px, 40px);transform: translate(0px, 40px);}80%{-webkit-transform: translate(0px, 0px);transform: translate(0px, 0px);}100%{-webkit-transform: translate(0px, 0px);transform: translate(0px, 0px);}}@-webkit-keyframes el_-f8f7rbPfw_P1nLixLxd_Animation{0%{-webkit-transform: translate(0px, 0px);transform: translate(0px, 0px);}20%{-webkit-transform: translate(0px, 40px);transform: translate(0px, 40px);}80%{-webkit-transform: translate(0px, 0px);transform: translate(0px, 0px);}100%{-webkit-transform: translate(0px, 0px);transform: translate(0px, 0px);}}@keyframes el_-f8f7rbPfw_P1nLixLxd_Animation{0%{-webkit-transform: translate(0px, 0px);transform: translate(0px, 0px);}20%{-webkit-transform: translate(0px, 40px);transform: translate(0px, 40px);}80%{-webkit-transform: translate(0px, 0px);transform: translate(0px, 0px);}100%{-webkit-transform: translate(0px, 0px);transform: translate(0px, 0px);}}@-webkit-keyframes el_pC1s8ZyNr1_IYUR4OsGu_Animation{0%{-webkit-transform: translate(0px, 0px);transform: translate(0px, 0px);}20%{-webkit-transform: translate(0px, 40px);transform: translate(0px, 40px);}80%{-webkit-transform: translate(0px, 0px);transform: translate(0px, 0px);}100%{-webkit-transform: translate(0px, 0px);transform: translate(0px, 0px);}}@keyframes el_pC1s8ZyNr1_IYUR4OsGu_Animation{0%{-webkit-transform: translate(0px, 0px);transform: translate(0px, 0px);}20%{-webkit-transform: translate(0px, 40px);transform: translate(0px, 40px);}80%{-webkit-transform: translate(0px, 0px);transform: translate(0px, 0px);}100%{-webkit-transform: translate(0px, 0px);transform: translate(0px, 0px);}}@-webkit-keyframes el_2wYSEMHYaU_ZkI4NunNt_Animation{0%{-webkit-transform: translate(0px, 0px);transform: translate(0px, 0px);}20%{-webkit-transform: translate(0px, 40px);transform: translate(0px, 40px);}80%{-webkit-transform: translate(0px, 0px);transform: translate(0px, 0px);}100%{-webkit-transform: translate(0px, 0px);transform: translate(0px, 0px);}}@keyframes el_2wYSEMHYaU_ZkI4NunNt_Animation{0%{-webkit-transform: translate(0px, 0px);transform: translate(0px, 0px);}20%{-webkit-transform: translate(0px, 40px);transform: translate(0px, 40px);}80%{-webkit-transform: translate(0px, 0px);transform: translate(0px, 0px);}100%{-webkit-transform: translate(0px, 0px);transform: translate(0px, 0px);}}#el_tc2pygKyW *{-webkit-animation-duration: 2.5s;animation-duration: 2.5s;-webkit-animation-iteration-count: infinite;animation-iteration-count: infinite;-webkit-animation-timing-function: cubic-bezier(0, 0, 1, 1);animation-timing-function: cubic-bezier(0, 0, 1, 1);}#el_hJpZn7pyXF{fill: #000000;fill-opacity: 0.0;}#el_2wYSEMHYaU{fill: #efefef;}#el_pC1s8ZyNr1{fill: #999999;}#el_-f8f7rbPfw{fill: #880000;}#el_l7VFkkmhgj{fill: #880000;}#el_tijKyXFVwX{fill: #660000;}#el_FambrfWAo1{fill: #cc0000;}#el_wpygYrZgKm{fill: #880000;}#el_OoIcPqlSCg{fill: #880000;}#el_zD98gzm6Lu{fill: #880000;}#el_VDVrLI4eTe{fill: #880000;}#el_dGJxCS84P7{fill: #660000;}#el_-EJOle2ZDB{fill: #efefef;}#el_byMBhXY6KZ{fill: #660000;}#el_aoYcDULS9w7{fill: #990000;}#el_oUO8B_6au0E{fill: #660000;}#el_RvOSqKWBnIE{fill: #efefef;}#el_Ujr-ou7EQqT{fill: #ffffff;}#el_StLhz2hAWqe{fill: #660000;}#el_xUcUQ45UTIe{fill: #000000;}#el_8cbeQ7Fh9zW{fill: #000000;}#el_AU_7tfk_rFz{fill: #660000;}#el_vinQwLuj_uh{fill: #660000;}#el_SQRV_rjqIQZ{fill: #880000;}#el_MgpHh5XZ_eI{fill: #880000;}#el_EtMN4mccYcn{fill: #660000;}#el_oER_Hf9f3dn{fill: #434343;}#el_aXOfyxmriJy{fill: #434343;}#el_PkAQpaP7WUo{fill: #434343;}#el_ceGasUba610{fill: #434343;}#el_k-0UOTDrJBT{fill: url(#p.1);}#el_eFDijhFLXIP{fill: #ffffff;}#el_tz9_XJ6Ok2Z{fill: #434343;}#el_SFR44EfLOnr{fill: #cc0000;}#el_istjjbGWomz{fill: #cc0000;}#el_uqauIINY031{fill: #cc0000;}#el__1Cwrs-sFes{fill: #cc0000;}#el_2wYSEMHYaU_ZkI4NunNt{-webkit-animation-name: el_2wYSEMHYaU_ZkI4NunNt_Animation;animation-name: el_2wYSEMHYaU_ZkI4NunNt_Animation;-webkit-transform-origin: 50% 50%;transform-origin: 50% 50%;transform-box: fill-box;-webkit-transform: translate(0px, 0px);transform: translate(0px, 0px);-webkit-animation-timing-function: cubic-bezier(0.42, 0, 0.58, 1);animation-timing-function: cubic-bezier(0.42, 0, 0.58, 1);}#el_pC1s8ZyNr1_IYUR4OsGu{-webkit-animation-name: el_pC1s8ZyNr1_IYUR4OsGu_Animation;animation-name: el_pC1s8ZyNr1_IYUR4OsGu_Animation;-webkit-transform-origin: 50% 50%;transform-origin: 50% 50%;transform-box: fill-box;-webkit-transform: translate(0px, 0px);transform: translate(0px, 0px);-webkit-animation-timing-function: cubic-bezier(0.42, 0, 0.58, 1);animation-timing-function: cubic-bezier(0.42, 0, 0.58, 1);}#el_-f8f7rbPfw_P1nLixLxd{-webkit-animation-name: el_-f8f7rbPfw_P1nLixLxd_Animation;animation-name: el_-f8f7rbPfw_P1nLixLxd_Animation;-webkit-transform-origin: 50% 50%;transform-origin: 50% 50%;transform-box: fill-box;-webkit-transform: translate(0px, 0px);transform: translate(0px, 0px);-webkit-animation-timing-function: cubic-bezier(0.42, 0, 0.58, 1);animation-timing-function: cubic-bezier(0.42, 0, 0.58, 1);}#el_l7VFkkmhgj_XQ5Gplia2{-webkit-animation-name: el_l7VFkkmhgj_XQ5Gplia2_Animation;animation-name: el_l7VFkkmhgj_XQ5Gplia2_Animation;-webkit-transform-origin: 50% 50%;transform-origin: 50% 50%;transform-box: fill-box;-webkit-transform: translate(0px, 0px);transform: translate(0px, 0px);-webkit-animation-timing-function: cubic-bezier(0.42, 0, 0.58, 1);animation-timing-function: cubic-bezier(0.42, 0, 0.58, 1);}#el_tijKyXFVwX_UI_vGzOxe{-webkit-animation-name: el_tijKyXFVwX_UI_vGzOxe_Animation;animation-name: el_tijKyXFVwX_UI_vGzOxe_Animation;-webkit-transform-origin: 50% 50%;transform-origin: 50% 50%;transform-box: fill-box;-webkit-transform: translate(0px, 0px);transform: translate(0px, 0px);-webkit-animation-timing-function: cubic-bezier(0.42, 0, 0.58, 1);animation-timing-function: cubic-bezier(0.42, 0, 0.58, 1);}#el_FambrfWAo1_869mMpTvh{-webkit-animation-name: el_FambrfWAo1_869mMpTvh_Animation;animation-name: el_FambrfWAo1_869mMpTvh_Animation;-webkit-transform-origin: 50% 50%;transform-origin: 50% 50%;transform-box: fill-box;-webkit-transform: translate(0px, 0px);transform: translate(0px, 0px);-webkit-animation-timing-function: cubic-bezier(0.42, 0, 0.58, 1);animation-timing-function: cubic-bezier(0.42, 0, 0.58, 1);}</style><clipPath id="p.0"><path d="m0 0l478.021 0l0 374.9344l-478.021 0l0 -374.9344z" clip-rule="nonzero"/></clipPath><g clip-path="url(#p.0)" id="el_hX56eRk2So"><path d="m0 0l478.021 0l0 374.9344l-478.021 0z" fill-rule="evenodd" id="el_hJpZn7pyXF"/><g id="el_2wYSEMHYaU_ZkI4NunNt" data-animator-group="true" data-animator-type="0"><path d="m230.32808 237.52756l-211.22835 0l-9.149606 -9.149597l9.149606 -9.149612l211.22835 0z" fill-rule="evenodd" id="el_2wYSEMHYaU"/></g><g id="el_pC1s8ZyNr1_IYUR4OsGu" data-animator-group="true" data-animator-type="0"><path d="m249.5064 209.03937l0 38.67717l-19.338593 19.338577l0 -77.354324z" fill-rule="evenodd" id="el_pC1s8ZyNr1"/></g><g id="el_-f8f7rbPfw_P1nLixLxd" data-animator-group="true" data-animator-type="0"><path d="m342.0352 123.90517l0 0c0.7554321 -2.3144379 -0.5079956 -4.8041916 -2.821991 -5.56102l-16.758911 -5.481247l0 0c-1.1112366 -0.36344147 -2.321045 -0.27048492 -3.3633423 0.25843048c-1.0422668 0.5289078 -1.831604 1.4504471 -2.194397 2.561882l-21.300812 65.25804c-0.75546265 2.3144379 0.5079651 4.804184 2.8219604 5.56102l16.758942 5.481247c2.3139648 0.7568207 4.802246 -0.50587463 5.5577087 -2.8203125z" fill-rule="evenodd" id="el_-f8f7rbPfw"/></g><g id="el_l7VFkkmhgj_XQ5Gplia2" data-animator-group="true" data-animator-type="0"><path d="m317.88016 192.69873l0 0c1.9013977 -1.5206909 2.2099304 -4.2947693 0.68911743 -6.1960754l-11.014252 -13.770096l0 0c-0.73031616 -0.91304016 -1.793457 -1.4985962 -2.9555054 -1.6278381c-1.1620483 -0.12924194 -2.3278503 0.20840454 -3.2409363 0.93865967l-47.286957 37.81877c-1.9013977 1.5206909 -2.2099457 4.2947693 -0.6891327 6.1960754l11.014267 13.770096c1.520813 1.9013214 4.295044 2.2098694 6.1964417 0.68917847z" fill-rule="evenodd" id="el_l7VFkkmhgj"/></g><g id="el_tijKyXFVwX_UI_vGzOxe" data-animator-group="true" data-animator-type="0"><path d="m242.07828 213.01817l0 0c7.6980743 -5.974701 18.782074 -4.5776367 24.756775 3.120453l0 0c2.8691711 3.6967468 4.1522827 8.381866 3.5670776 13.024658c-0.5852051 4.6427917 -2.9907837 8.862961 -6.6875305 11.732132l0 0c-7.6980896 5.974701 -18.782059 4.5776215 -24.756775 -3.120453l0 0c-5.974716 -7.6980896 -4.5776367 -18.782074 3.120453 -24.75679z" fill-rule="evenodd" id="el_tijKyXFVwX"/></g><g id="el_FambrfWAo1_869mMpTvh" data-animator-group="true" data-animator-type="0"><path d="m124.33596 237.52756l-105.244095 0l-9.149607 -9.149597l9.149607 -9.149612l105.244095 0z" fill-rule="evenodd" id="el_FambrfWAo1"/></g><path d="m321.02536 226.30591l0 0c0.91693115 -2.255249 3.488739 -3.3408203 5.7443237 -2.4246674l16.335785 6.6351013l0 0c1.0831604 0.43995667 1.947052 1.292099 2.4016113 2.368988c0.4545288 1.0769043 0.4625244 2.2903137 0.022216797 3.3733215l-25.876343 63.64406c-0.91693115 2.255249 -3.4887695 3.3407898 -5.7443237 2.424652l-16.335815 -6.6351013c-2.2555542 -0.9161377 -3.3407288 -3.4870605 -2.4237976 -5.7423096z" fill-rule="evenodd" id="el_wpygYrZgKm"/><path d="m294.18915 294.25925l0 0c-0.60354614 -2.356903 0.8179016 -4.7564087 3.1749573 -5.359436l17.070679 -4.367401l0 0c1.131897 -0.2895813 2.3325806 -0.1177063 3.3378906 0.47784424c1.00531 0.59555054 1.7329407 1.565979 2.0227966 2.697815l15.042603 58.74048c0.60357666 2.356903 -0.8179016 4.7564087 -3.1749268 5.359436l-17.07071 4.3674316c-2.3570251 0.60302734 -4.75708 -0.8187866 -5.3606567 -3.1756897z" fill-rule="evenodd" id="el_OoIcPqlSCg"/><path d="m383.44843 229.8221l0 0c0.28302002 -2.4177094 2.4725952 -4.1496735 4.8905334 -3.868454l17.511627 2.036728l0 0c1.1611328 0.13504028 2.2207031 0.7257843 2.9456482 1.6422424c0.72491455 0.91645813 1.0558167 2.0835876 0.91989136 3.2446136l-7.9828796 68.189575c-0.28305054 2.417694 -2.4726257 4.149658 -4.8905334 3.8684387l-17.511627 -2.0367126c-2.4179382 -0.28121948 -4.14859 -2.4691467 -3.86557 -4.886841z" fill-rule="evenodd" id="el_zD98gzm6Lu"/><path d="m376.57352 302.4093l0 0c-1.090271 -2.1772156 -0.20904541 -4.825897 1.9682312 -5.915985l15.76889 -7.894928l0 0c1.0455627 -0.523468 2.2562866 -0.610199 3.3658447 -0.24105835c1.1095276 0.36917114 2.027008 1.1639099 2.5505676 2.2094421l27.106934 54.13138c1.090271 2.1772156 0.20904541 4.825897 -1.9682312 5.915985l-15.76889 7.894928c-2.1772766 1.0900879 -4.826172 0.20883179 -5.9164124 -1.9683838z" fill-rule="evenodd" id="el_VDVrLI4eTe"/><path d="m289.26706 370.44632l0 0c-2.4353333 0 -4.4118958 -1.9742126 -4.414795 -4.409546l-0.020996094 -17.637604l0 0c-0.0014038086 -1.1694946 0.46185303 -2.2910767 1.2878113 -3.1180115c0.82595825 -0.82696533 1.946991 -1.2915344 3.1164856 -1.2915344l41.32263 0c2.4353333 0 4.4118958 1.9742126 4.414795 4.409546l0.020996094 17.637604c0.00289917 2.4353333 -1.9689636 4.409546 -4.404297 4.409546z" fill-rule="evenodd" id="el_dGJxCS84P7"/><path d="m312.5751 6.0931544l0 0c-11.6719055 15.011707 -9.92334 35.888634 3.9055176 46.62992c13.828857 10.741287 34.501312 7.2794228 46.17325 -7.7322845l0 0c-12.563049 3.9642067 -25.75467 1.7938042 -35.606323 -5.8582687c-9.851654 -7.652071 -15.21347 -19.892673 -14.472443 -33.039368z" fill-rule="evenodd" id="el_-EJOle2ZDB"/><path d="m383.004 370.44632l0 0c-2.4353333 0 -4.4118958 -1.9742126 -4.414795 -4.409546l-0.020996094 -17.637604l0 0c-0.001373291 -1.1694946 0.46185303 -2.2910767 1.2878113 -3.1180115c0.82595825 -0.82696533 1.946991 -1.2915344 3.1164856 -1.2915344l41.322662 0c2.4353027 0 4.4118958 1.9742126 4.414795 4.409546l0.020996094 17.637604c0.00289917 2.4353333 -1.9689941 4.409546 -4.404297 4.409546z" fill-rule="evenodd" id="el_byMBhXY6KZ"/><path d="m317.41177 119.674416l0 0c0 -8.543922 6.926239 -15.477188 15.470154 -15.485886l61.87863 -0.06298828l0 0c4.102936 -0.004180908 8.037811 1.6217041 10.939026 4.5199585c2.9012146 2.898262 4.5310974 6.8314896 4.5310974 10.934425l0 113.43768c0 8.543915 -6.9262085 15.477188 -15.470123 15.485886l-61.87863 0.06298828c-8.543915 0.00869751 -15.470154 -6.9104614 -15.470154 -15.454376z" fill-rule="evenodd" id="el_aoYcDULS9w7"/><path d="m392.9779 17.75147l-33.385834 124.34646l-91.08661 -90.96063z" fill-rule="evenodd" id="el_oUO8B_6au0E"/><path d="m379.90298 3.2598426E-4l0 0c11.6719055 15.011708 9.92337 35.888638 -3.9055176 46.629925c-13.828857 10.741283 -34.501312 7.2794228 -46.173218 -7.7322845l0 0c12.563019 3.9642067 25.754639 1.7938042 35.606293 -5.8582687c9.851654 -7.652071 15.213501 -19.892677 14.472443 -33.03937z" fill-rule="evenodd" id="el_RvOSqKWBnIE"/><path d="m331.8999 62.206337l0 0c-6.4849854 -3.74411 -14.777283 -1.5222015 -18.521393 4.962776l0 0c-1.7980042 3.1141891 -2.2852173 6.8150864 -1.3545227 10.288521c0.9306946 3.4734344 3.2030945 6.4348907 6.3172913 8.232872l0 0c6.4849854 3.74411 14.777283 1.5222015 18.521393 -4.962776l0 0c3.74411 -6.48497 1.5222168 -14.777283 -4.9627686 -18.521393z" fill-rule="evenodd" id="el_Ujr-ou7EQqT"/><path d="m326.07962 48.25173l-26.092743 19.240364l10.964722 14.860954l26.092743 -19.240368z" fill-rule="evenodd" id="el_StLhz2hAWqe"/><path d="m329.16302 111.642334l20.756927 -2.6938095l5.954376 -5.9649887l-31.307098 4.062996z" fill-rule="evenodd" id="el_xUcUQ45UTIe"/><path d="m355.8013 103.022545l5.976776 -6.1166534l-1.2958069 -7.2489014l-14.803131 15.149605z" fill-rule="evenodd" id="el_8cbeQ7Fh9zW"/><path d="m379.26245 52.060486l0 0c-4.6165466 2.6331024 -10.338715 2.4848137 -14.928253 -0.3868599c-4.589508 -2.8716774 -7.3169556 -8.010338 -7.1154175 -13.405949c0.20150757 -5.395607 3.2999268 -10.190626 8.083313 -12.509438l2.0666504 4.2138176c-3.2443237 1.566906 -5.3366394 4.832241 -5.4581604 8.518223c-0.121520996 3.6859818 1.7470703 7.206505 4.874542 9.183929c3.127472 1.9774246 7.0165405 2.0973167 10.145355 0.31276703z" fill-rule="evenodd" id="el_AU_7tfk_rFz"/><path d="m326.6135 38.40648l31.118103 -9.984251l8.503937 26.456694l-31.118103 9.984253z" fill-rule="evenodd" id="el_vinQwLuj_uh"/><path d="m397.37048 104.58726l0 0c-2.2650146 -0.89208984 -4.8254395 0.22045898 -5.718872 2.4849472l-6.470642 16.400421l0 0c-0.42904663 1.0874481 -0.40841675 2.300537 0.05731201 3.372406c0.46575928 1.0718613 1.3384705 1.9147034 2.426178 2.3430939l63.864624 25.153473c2.2650146 0.89208984 4.8254395 -0.22045898 5.718872 -2.4849548l6.470642 -16.400421c0.8934326 -2.2644958 -0.21847534 -4.82341 -2.48349 -5.7155z" fill-rule="evenodd" id="el_SQRV_rjqIQZ"/><path d="m470.04343 154.06337l0 0c2.1479797 -1.144516 2.960968 -3.8133392 1.8158264 -5.9609833l-8.29361 -15.5542145l0 0c-0.54992676 -1.0313416 -1.4870605 -1.8020935 -2.6052856 -2.1427307c-1.1182556 -0.3406372 -2.3259583 -0.22322083 -3.3574524 0.3263855l-53.43924 28.473984c-2.1479797 1.144516 -2.960968 3.8133392 -1.8158264 5.9609833l8.29361 15.5542145c1.1451416 2.147644 3.8147583 2.9608612 5.962738 1.8163452z" fill-rule="evenodd" id="el_MgpHh5XZ_eI"/><path d="m389.0908 186.31874l0 0c-5.5042725 -8.039993 -3.448639 -19.01979 4.591339 -24.524048l0 0c3.860962 -2.6432495 8.6138 -3.6444702 13.212952 -2.783432c4.5991516 0.86105347 8.667877 3.5138397 11.311127 7.374771l0 0c5.5042725 8.040009 3.448639 19.019806 -4.5913696 24.524063l0 0c-8.039978 5.5042725 -19.019775 3.4486542 -24.524048 -4.5913544z" fill-rule="evenodd" id="el_EtMN4mccYcn"/><path d="m24.594147 249.4833l0 0c0 -28.59935 23.184353 -51.783707 51.783707 -51.783707l0 0c13.733887 0 26.905273 5.455765 36.616608 15.167099c9.711327 9.711319 15.167099 22.882706 15.167099 36.616608l0 0c0 28.599335 -23.184357 51.78369 -51.783707 51.78369l0 0c-28.599354 0 -51.783707 -23.184357 -51.783707 -51.78369z" fill-rule="evenodd" id="el_oER_Hf9f3dn"/><path d="m24.594147 248.85591l103.56741 0l0 68.81572l-103.56741 0z" fill-rule="evenodd" id="el_aXOfyxmriJy"/><path d="m-3.215223E-4 254.91968l22.180424 0l0 80.276215l-22.180424 0z" fill-rule="evenodd" id="el_PkAQpaP7WUo"/><path d="m130.5756 254.91968l22.18042 0l0 80.276215l-22.18042 0z" fill-rule="evenodd" id="el_ceGasUba610"/><defs><linearGradient id="p.1" gradientUnits="userSpaceOnUse" gradientTransform="matrix(6.682886068731159 0.0 0.0 6.682886068731159 0.0 0.0)" spreadMethod="pad" x1="3.680168189777237" y1="47.53504048630805" x2="3.6801440267379575" y2="54.21792655499552"><stop offset="0.0" stop-color="#434343"/><stop offset="0.99999994" stop-color="#434343" stop-opacity="0.0"/><stop offset="1.0" stop-color="#ffffff" stop-opacity="0.0"/></linearGradient></defs><path d="m24.594147 317.67163l103.56741 0l0 44.660583l-103.56741 0z" fill-rule="evenodd" id="el_k-0UOTDrJBT"/><path d="m86.30196 237.27348l0 0c0 -7.488205 6.070404 -13.558609 13.558624 -13.558609l0 0c3.5959702 0 7.044655 1.428482 9.587387 3.971222c2.5427399 2.5427399 3.9712296 5.9914246 3.9712296 9.587387l0 0c0 7.48822 -6.0703964 13.558624 -13.558617 13.558624l0 0c-7.48822 0 -13.558624 -6.070404 -13.558624 -13.558624z" fill-rule="evenodd" id="el_eFDijhFLXIP"/><path d="m77.12707 225.25565l29.709068 -12.976791l7.387596 16.926239l-29.709068 12.976791z" fill-rule="evenodd" id="el_tz9_XJ6Ok2Z"/><path d="m89.94226 265.2126l0 0c0 -2.5309448 -2.051735 -4.582672 -4.5826797 -4.582672l0 0l0 0c-1.2154007 0 -2.3810272 0.4828186 -3.2404404 1.3422546c-0.8594208 0.8594055 -1.3422394 2.0250244 -1.3422394 3.2404175l0 53.57483c0 2.5309448 2.051735 4.582672 4.5826797 4.582672l0 0l0 0c2.5309448 0 4.5826797 -2.0517273 4.5826797 -4.582672z" fill-rule="evenodd" id="el_SFR44EfLOnr"/><path d="m55.68504 276.44095l0 0c0 -2.5309448 -2.051735 -4.582672 -4.582676 -4.582672l0 0l0 0c-1.2154045 0 -2.3810234 0.4828186 -3.2404442 1.3422241c-0.85941696 0.85943604 -1.3422356 2.025055 -1.3422356 3.240448l0 31.118103c0 2.5309448 2.051735 4.582672 4.5826797 4.582672l0 0l0 0c2.530941 0 4.582676 -2.0517273 4.582676 -4.582672z" fill-rule="evenodd" id="el_istjjbGWomz"/><path d="m112.88976 264.458l0 0c0 -2.5309448 2.051735 -4.582672 4.5826797 -4.582672l0 0l0 0c1.2154007 0 2.3810196 0.4828186 3.2404404 1.3422241c0.8594208 0.85943604 1.3422318 2.025055 1.3422318 3.240448l0 31.118103c0 2.5309448 -2.0517273 4.582672 -4.582672 4.582672l0 0l0 0c-2.5309448 0 -4.5826797 -2.0517273 -4.5826797 -4.582672z" fill-rule="evenodd" id="el_uqauIINY031"/><path d="m54.050804 227.44214l0 0c-1.5797806 -1.9768219 -1.2599564 -4.8625793 0.71435547 -6.445511l0 0l0 0c0.9480934 -0.7601471 2.1587296 -1.1120453 3.365574 -0.97828674c1.2068443 0.13374329 2.311039 0.74220276 3.0696793 1.6915131l12.074375 15.108994c1.5797806 1.9768219 1.2599564 4.8625793 -0.71435547 6.445511l0 0l0 0c-1.9743118 1.5829163 -4.8554688 1.2635956 -6.4352493 -0.7132263z" fill-rule="evenodd" id="el__1Cwrs-sFes"/></g><script>(function(){var a=document.querySelector('#el_tc2pygKyW'),b=a.querySelectorAll('style'),c=function(d){b.forEach(function(f){var g=f.textContent;g&amp;&amp;(f.textContent=g.replace(/transform-box:[^;\r\n]*/gi,'transform-box: '+d))})};c('initial'),window.requestAnimationFrame(function(){return c('fill-box')})})();</script></svg>