<svg version="1.1" viewBox="0 0 297 497" fill="none" stroke="none" stroke-linecap="square" stroke-miterlimit="10" xmlns:xlink="http://www.w3.org/1999/xlink" xmlns="http://www.w3.org/2000/svg" id="el_CC9nYHg9i5M"><style>@-webkit-keyframes el_QGwSlULRfbq_9cb9C7cUh_Animation{0%{-webkit-transform: scale(1, 1);transform: scale(1, 1);}50%{-webkit-transform: scale(0.95, 0.95);transform: scale(0.95, 0.95);}100%{-webkit-transform: scale(1, 1);transform: scale(1, 1);}}@keyframes el_QGwSlULRfbq_9cb9C7cUh_Animation{0%{-webkit-transform: scale(1, 1);transform: scale(1, 1);}50%{-webkit-transform: scale(0.95, 0.95);transform: scale(0.95, 0.95);}100%{-webkit-transform: scale(1, 1);transform: scale(1, 1);}}@-webkit-keyframes el_vXhCEIH1rkK_UwTfYtaQt_Animation{0%{-webkit-transform: translate(0px, 0px);transform: translate(0px, 0px);}16.67%{-webkit-transform: translate(10px, 0px);transform: translate(10px, 0px);}33.33%{-webkit-transform: translate(10px, 0px);transform: translate(10px, 0px);}50%{-webkit-transform: translate(5px, 10px);transform: translate(5px, 10px);}66.67%{-webkit-transform: translate(5px, 10px);transform: translate(5px, 10px);}83.33%{-webkit-transform: translate(0px, 0px);transform: translate(0px, 0px);}100%{-webkit-transform: translate(0px, 0px);transform: translate(0px, 0px);}}@keyframes el_vXhCEIH1rkK_UwTfYtaQt_Animation{0%{-webkit-transform: translate(0px, 0px);transform: translate(0px, 0px);}16.67%{-webkit-transform: translate(10px, 0px);transform: translate(10px, 0px);}33.33%{-webkit-transform: translate(10px, 0px);transform: translate(10px, 0px);}50%{-webkit-transform: translate(5px, 10px);transform: translate(5px, 10px);}66.67%{-webkit-transform: translate(5px, 10px);transform: translate(5px, 10px);}83.33%{-webkit-transform: translate(0px, 0px);transform: translate(0px, 0px);}100%{-webkit-transform: translate(0px, 0px);transform: translate(0px, 0px);}}@-webkit-keyframes el_GOQFuNFQP8f_AXauzY3sk_Animation{0%{-webkit-transform: translate(0px, 0px);transform: translate(0px, 0px);}16.67%{-webkit-transform: translate(10px, 0px);transform: translate(10px, 0px);}33.33%{-webkit-transform: translate(10px, 0px);transform: translate(10px, 0px);}50%{-webkit-transform: translate(5px, 10px);transform: translate(5px, 10px);}66.67%{-webkit-transform: translate(5px, 10px);transform: translate(5px, 10px);}83.33%{-webkit-transform: translate(0px, 0px);transform: translate(0px, 0px);}100%{-webkit-transform: translate(0px, 0px);transform: translate(0px, 0px);}}@keyframes el_GOQFuNFQP8f_AXauzY3sk_Animation{0%{-webkit-transform: translate(0px, 0px);transform: translate(0px, 0px);}16.67%{-webkit-transform: translate(10px, 0px);transform: translate(10px, 0px);}33.33%{-webkit-transform: translate(10px, 0px);transform: translate(10px, 0px);}50%{-webkit-transform: translate(5px, 10px);transform: translate(5px, 10px);}66.67%{-webkit-transform: translate(5px, 10px);transform: translate(5px, 10px);}83.33%{-webkit-transform: translate(0px, 0px);transform: translate(0px, 0px);}100%{-webkit-transform: translate(0px, 0px);transform: translate(0px, 0px);}}@-webkit-keyframes el_L-8-aUBUzwJ_PpeH8r0gL_Animation{0%{-webkit-transform: translate(0px, 0px);transform: translate(0px, 0px);}16.67%{-webkit-transform: translate(10px, 0px);transform: translate(10px, 0px);}33.33%{-webkit-transform: translate(10px, 0px);transform: translate(10px, 0px);}50%{-webkit-transform: translate(5px, 10px);transform: translate(5px, 10px);}66.67%{-webkit-transform: translate(5px, 10px);transform: translate(5px, 10px);}83.33%{-webkit-transform: translate(0px, 0px);transform: translate(0px, 0px);}100%{-webkit-transform: translate(0px, 0px);transform: translate(0px, 0px);}}@keyframes el_L-8-aUBUzwJ_PpeH8r0gL_Animation{0%{-webkit-transform: translate(0px, 0px);transform: translate(0px, 0px);}16.67%{-webkit-transform: translate(10px, 0px);transform: translate(10px, 0px);}33.33%{-webkit-transform: translate(10px, 0px);transform: translate(10px, 0px);}50%{-webkit-transform: translate(5px, 10px);transform: translate(5px, 10px);}66.67%{-webkit-transform: translate(5px, 10px);transform: translate(5px, 10px);}83.33%{-webkit-transform: translate(0px, 0px);transform: translate(0px, 0px);}100%{-webkit-transform: translate(0px, 0px);transform: translate(0px, 0px);}}@-webkit-keyframes el_edSQoDwSoUp_YQ1Ytqc6V_Animation{0%{-webkit-transform: translate(0px, 0px);transform: translate(0px, 0px);}16.67%{-webkit-transform: translate(10px, 0px);transform: translate(10px, 0px);}33.33%{-webkit-transform: translate(10px, 0px);transform: translate(10px, 0px);}50%{-webkit-transform: translate(5px, 10px);transform: translate(5px, 10px);}66.67%{-webkit-transform: translate(5px, 10px);transform: translate(5px, 10px);}83.33%{-webkit-transform: translate(0px, 0px);transform: translate(0px, 0px);}100%{-webkit-transform: translate(0px, 0px);transform: translate(0px, 0px);}}@keyframes el_edSQoDwSoUp_YQ1Ytqc6V_Animation{0%{-webkit-transform: translate(0px, 0px);transform: translate(0px, 0px);}16.67%{-webkit-transform: translate(10px, 0px);transform: translate(10px, 0px);}33.33%{-webkit-transform: translate(10px, 0px);transform: translate(10px, 0px);}50%{-webkit-transform: translate(5px, 10px);transform: translate(5px, 10px);}66.67%{-webkit-transform: translate(5px, 10px);transform: translate(5px, 10px);}83.33%{-webkit-transform: translate(0px, 0px);transform: translate(0px, 0px);}100%{-webkit-transform: translate(0px, 0px);transform: translate(0px, 0px);}}#el_CC9nYHg9i5M *{-webkit-animation-duration: 3s;animation-duration: 3s;-webkit-animation-iteration-count: infinite;animation-iteration-count: infinite;-webkit-animation-timing-function: cubic-bezier(0, 0, 1, 1);animation-timing-function: cubic-bezier(0, 0, 1, 1);}#el_PCBeuKgvoJn{fill: #000000;fill-opacity: 0.0;}#el_6KNBN8TGhXt{fill: #000000;}#el_VLw0c-xJo4D{fill: #b1a78d;}#el_ww3QMyIB_vI{fill: #434343;}#el_SF3WR6cE6z5{fill: #b8ae93;}#el_67fYAOyd8Ax{fill: #b1a78d;}#el_lweEyTtjxss{fill: #b8ae93;}#el_91bfXzNN33f{fill: #b1a78d;}#el_dN4jg1Dah_e{fill: #b8ae93;}#el_OrLscwHp5cj{fill: #b1a78d;}#el_4mCW-s5wHZz{fill: #b8ae93;}#el_YedEAitocCa{fill: #660000;}#el_WJjZ4xo_UTz{fill: #f3f3f3;}#el_gsGUBJHz05W{fill: #f3f3f3;}#el_lbpoiibDsY1{fill: #f3f3f3;}#el_H1fMenszDLS{fill: #f3f3f3;}#el_BoKB-VDubfy{fill: #f3f3f3;}#el_fz70m6e-XlW{fill: #873d3d;}#el_QGwSlULRfbq{fill: #990000;}#el_IzSMHU5Ddoh{fill: #873d3d;}#el_edSQoDwSoUp{fill: #ea5454;}#el_L-8-aUBUzwJ{fill: #ea5454;}#el_GOQFuNFQP8f{fill: #ffffff;}#el_vXhCEIH1rkK{fill: #ffffff;}#el_edSQoDwSoUp_YQ1Ytqc6V{-webkit-animation-name: el_edSQoDwSoUp_YQ1Ytqc6V_Animation;animation-name: el_edSQoDwSoUp_YQ1Ytqc6V_Animation;-webkit-transform-origin: 50% 50%;transform-origin: 50% 50%;transform-box: fill-box;-webkit-transform: translate(0px, 0px);transform: translate(0px, 0px);-webkit-animation-timing-function: cubic-bezier(0.42, 0, 0.58, 1);animation-timing-function: cubic-bezier(0.42, 0, 0.58, 1);}#el_L-8-aUBUzwJ_PpeH8r0gL{-webkit-animation-name: el_L-8-aUBUzwJ_PpeH8r0gL_Animation;animation-name: el_L-8-aUBUzwJ_PpeH8r0gL_Animation;-webkit-transform-origin: 50% 50%;transform-origin: 50% 50%;transform-box: fill-box;-webkit-transform: translate(0px, 0px);transform: translate(0px, 0px);-webkit-animation-timing-function: cubic-bezier(0.42, 0, 0.58, 1);animation-timing-function: cubic-bezier(0.42, 0, 0.58, 1);}#el_GOQFuNFQP8f_AXauzY3sk{-webkit-animation-name: el_GOQFuNFQP8f_AXauzY3sk_Animation;animation-name: el_GOQFuNFQP8f_AXauzY3sk_Animation;-webkit-transform-origin: 50% 50%;transform-origin: 50% 50%;transform-box: fill-box;-webkit-transform: translate(0px, 0px);transform: translate(0px, 0px);-webkit-animation-timing-function: cubic-bezier(0.42, 0, 0.58, 1);animation-timing-function: cubic-bezier(0.42, 0, 0.58, 1);}#el_vXhCEIH1rkK_UwTfYtaQt{-webkit-animation-name: el_vXhCEIH1rkK_UwTfYtaQt_Animation;animation-name: el_vXhCEIH1rkK_UwTfYtaQt_Animation;-webkit-transform-origin: 50% 50%;transform-origin: 50% 50%;transform-box: fill-box;-webkit-transform: translate(0px, 0px);transform: translate(0px, 0px);-webkit-animation-timing-function: cubic-bezier(0.42, 0, 0.58, 1);animation-timing-function: cubic-bezier(0.42, 0, 0.58, 1);}#el_QGwSlULRfbq_9cb9C7cUh{-webkit-transform-origin: 50% 50%;transform-origin: 50% 50%;transform-box: fill-box;-webkit-animation-name: el_QGwSlULRfbq_9cb9C7cUh_Animation;animation-name: el_QGwSlULRfbq_9cb9C7cUh_Animation;-webkit-animation-timing-function: cubic-bezier(0.42, 0, 0.58, 1);animation-timing-function: cubic-bezier(0.42, 0, 0.58, 1);}</style><clipPath id="p.0"><path d="m0 0l297.38583 0l0 497.63516l-297.38583 0l0 -497.63516z" clip-rule="nonzero"/></clipPath><g clip-path="url(#p.0)" id="el_wJYKbvM3Tgm"><path d="m0 0l297.38583 0l0 497.63516l-297.38583 0z" fill-rule="evenodd" id="el_PCBeuKgvoJn"/><path d="m22.019371 422.05478l250.01575 0l0 48.81891l-250.01575 0z" fill-rule="evenodd" id="el_6KNBN8TGhXt"/><path d="m122.66184 468.608l0 0c6.5324783 -23.536804 29.033562 -38.975586 53.344414 -36.6015c24.310852 2.374115 43.399918 21.87445 45.25537 46.230377l-46.367325 3.5322876c-0.13970947 -1.8339844 -1.5771179 -3.3023682 -3.4077148 -3.4811401c-1.8306122 -0.17877197 -3.5249481 0.98376465 -4.0168457 2.7561035z" fill-rule="evenodd" id="el_VLw0c-xJo4D"/><path d="m-0.0011566929 446.01608l0 0c0 -27.448975 66.459274 -49.700775 148.44095 -49.700775l0 0c81.981674 0 148.44095 22.2518 148.44095 49.700775l0 0c0 27.449005 -66.459274 49.700806 -148.44095 49.700806l0 0c-81.981674 0 -148.44095 -22.2518 -148.44095 -49.700806zm27.05512 0c0 12.506866 54.346283 22.64569 121.385826 22.64569c67.039536 0 121.38583 -10.138824 121.38583 -22.64569l0 0c0 -12.506836 -54.3463 -22.64566 -121.38583 -22.64566l0 0c-67.03954 0 -121.385826 10.138824 -121.385826 22.64566z" fill-rule="evenodd" id="el_ww3QMyIB_vI"/><path d="m140.58499 410.09354l0 0c0 -27.77948 22.51973 -50.299194 50.29921 -50.299194l0 0c13.340179 0 26.133987 5.299347 35.566925 14.7323c9.432922 9.432922 14.732285 22.226715 14.732285 35.566895l0 0c0 27.77951 -22.519714 50.299225 -50.29921 50.299225l0 0c-27.77948 0 -50.29921 -22.519714 -50.29921 -50.299225z" fill-rule="evenodd" id="el_SF3WR6cE6z5"/><path d="m140.58499 349.8363l0 0c0 -27.77948 22.51973 -50.299194 50.29921 -50.299194l0 0c13.340179 0 26.133987 5.299347 35.566925 14.7323c9.432922 9.432922 14.732285 22.226715 14.732285 35.566895l0 0c0 27.77948 -22.519714 50.299225 -50.29921 50.299225l0 0c-27.77948 0 -50.29921 -22.519745 -50.29921 -50.299225z" fill-rule="evenodd" id="el_67fYAOyd8Ax"/><path d="m116.96488 290.6717l0 0c0 -27.77948 22.519722 -50.29921 50.299217 -50.29921l0 0c13.340179 0 26.133987 5.2993774 35.56691 14.7323c9.432938 9.432938 14.7323 22.22673 14.7323 35.56691l0 0c0 27.77951 -22.51973 50.299225 -50.29921 50.299225l0 0c-27.779495 0 -50.299217 -22.519714 -50.299217 -50.299225z" fill-rule="evenodd" id="el_lweEyTtjxss"/><path d="m82.12962 234.80597l0 0c0 -27.77948 22.51973 -50.29921 50.29921 -50.29921l0 0c13.340179 0 26.133987 5.2993774 35.566925 14.7323c9.432922 9.432938 14.7323 22.22673 14.7323 35.56691l0 0c0 27.77951 -22.51973 50.299225 -50.299225 50.299225l0 0c-27.77948 0 -50.29921 -22.519714 -50.29921 -50.299225z" fill-rule="evenodd" id="el_91bfXzNN33f"/><path d="m76.45639 176.7944l0 0c0 -27.779495 22.519722 -50.299217 50.29921 -50.299217l0 0c13.340179 0 26.133987 5.29937 35.56691 14.732307c9.432938 9.432922 14.7323 22.22673 14.7323 35.56691l0 0c0 27.77948 -22.519714 50.29921 -50.29921 50.29921l0 0c-27.779488 0 -50.29921 -22.51973 -50.29921 -50.29921z" fill-rule="evenodd" id="el_dN4jg1Dah_e"/><path d="m96.95359 123.95178l0 0c0 -27.779488 22.519722 -50.29921 50.299217 -50.29921l0 0c13.340179 0 26.133972 5.299362 35.56691 14.7323c9.432922 9.43293 14.7323 22.22673 14.7323 35.56691l0 0c0 27.779495 -22.51973 50.29921 -50.29921 50.29921l0 0c-27.779495 0 -50.299217 -22.519714 -50.299217 -50.29921z" fill-rule="evenodd" id="el_OrLscwHp5cj"/><path d="m131.84663 74.787575l0 0c0 -41.303944 33.48346 -74.78741 74.7874 -74.78741l0 0c19.834854 0 38.857315 7.8793645 52.88269 21.904722c14.02533 14.02536 21.904694 33.04783 21.904694 52.882683l0 0c0 41.30394 -33.483444 74.78739 -74.787384 74.78739l0 0c-41.30394 0 -74.7874 -33.48345 -74.7874 -74.78739z" fill-rule="evenodd" id="el_4mCW-s5wHZz"/><path d="m210.6529 111.54983l0 0c-7.7145996 -13.080887 -4.711029 -29.149284 6.708664 -35.889763l0 0c5.483917 -3.2369003 12.21492 -3.8458328 18.712234 -1.6928558c6.4973297 2.152977 12.2287445 6.8915024 15.933426 13.173164l0 0c7.7145844 13.080887 4.711014 29.149284 -6.708664 35.88977l0 0c-11.419678 6.740486 -26.931076 1.6005707 -34.64566 -11.480316z" fill-rule="evenodd" id="el_YedEAitocCa"/><path d="m229.35785 69.505585l-0.18896484 20.09449l-12.598434 -15.622047z" fill-rule="evenodd" id="el_WJjZ4xo_UTz"/><path d="m211.72049 77.213036l12.0 16.0l-19.496063 -4.7873993z" fill-rule="evenodd" id="el_gsGUBJHz05W"/><path d="m228.37798 128.90642l4.1417236 -19.637794l9.244095 17.842514z" fill-rule="evenodd" id="el_lbpoiibDsY1"/><path d="m244.3313 125.22699l-7.559067 -18.566933l17.637802 9.527557z" fill-rule="evenodd" id="el_H1fMenszDLS"/><path d="m256.29068 114.08529l-16.440948 -11.574799l20.031494 -1.433075z" fill-rule="evenodd" id="el_BoKB-VDubfy"/><path d="m157.43924 69.946l0 0c0 -12.933033 10.484283 -23.417324 23.417328 -23.417324l0 0c6.2106476 0 12.166946 2.4671745 16.558533 6.8587723c4.3916016 4.3916016 6.85878 10.347889 6.85878 16.558552l0 0c0 12.933029 -10.484283 23.41732 -23.417313 23.41732l0 0c-12.933044 0 -23.417328 -10.484291 -23.417328 -23.41732z" fill-rule="evenodd" id="el_fz70m6e-XlW"/><g id="el_QGwSlULRfbq_9cb9C7cUh" data-animator-group="true" data-animator-type="2"><path d="m206.5781 113.11701l0 0c-8.697403 -15.655312 -4.664444 -34.515762 9.007874 -42.125984l0 0c6.565674 -3.6545563 14.521591 -4.172943 22.117554 -1.4411087c7.5959625 2.7318268 14.209747 8.490089 18.386383 16.008041l0 0c8.697388 15.655312 4.6644287 34.515762 -9.007874 42.125984l0 0c-13.6723175 7.610214 -31.80655 1.0883789 -40.503937 -14.566933zm7.2094116 -4.012871l0 0c6.484375 11.671875 19.596832 16.761116 29.28749 11.367142c9.690659 -5.3939743 12.289856 -19.228577 5.805496 -30.900452c-6.484375 -11.671867 -19.596832 -16.761116 -29.28749 -11.367142l0 0c-9.690659 5.3939743 -12.289871 19.228577 -5.805496 30.900452z" fill-rule="evenodd" id="el_QGwSlULRfbq"/></g><path d="m207.94156 38.110153l0 0c0 -12.933033 10.484299 -23.417324 23.417328 -23.417324l0 0c6.210663 0 12.166946 2.4671755 16.558548 6.858775c4.3916016 4.3915997 6.85878 10.347887 6.85878 16.55855l0 0c0 12.933029 -10.484299 23.41732 -23.417328 23.41732l0 0c-12.933029 0 -23.417328 -10.484291 -23.417328 -23.41732z" fill-rule="evenodd" id="el_IzSMHU5Ddoh"/><g id="el_edSQoDwSoUp_YQ1Ytqc6V" data-animator-group="true" data-animator-type="0"><path d="m165.6523 65.54649l0 0c0 -4.7052956 3.814392 -8.519688 8.519684 -8.519688l0 0c2.2595673 0 4.4265747 0.8976059 6.024338 2.4953575c1.5977478 1.5977516 2.495346 3.7647667 2.495346 6.02433l0 0c0 4.7052917 -3.814392 8.519684 -8.519684 8.519684l0 0c-4.7052917 0 -8.519684 -3.814392 -8.519684 -8.519684z" fill-rule="evenodd" id="el_edSQoDwSoUp"/></g><g id="el_L-8-aUBUzwJ_PpeH8r0gL" data-animator-group="true" data-animator-type="0"><path d="m217.53879 32.85441l0 0c0 -4.7052937 3.814392 -8.519688 8.519684 -8.519688l0 0c2.2595673 0 4.4265747 0.8976078 6.024338 2.4953594c1.5977478 1.5977497 2.495346 3.7647648 2.495346 6.024328l0 0c0 4.7052917 -3.814392 8.519684 -8.519684 8.519684l0 0c-4.7052917 0 -8.519684 -3.814392 -8.519684 -8.519684z" fill-rule="evenodd" id="el_L-8-aUBUzwJ"/></g><g id="el_GOQFuNFQP8f_AXauzY3sk" data-animator-group="true" data-animator-type="0"><path d="m167.93735 64.678215l0 0c0 -1.7568703 1.4242401 -3.181099 3.1811066 -3.181099l0 0c0.84368896 0 1.6528015 0.33515167 2.2493744 0.93172073c0.5965729 0.5965729 0.9317322 1.4057007 0.9317322 2.2493782l0 0c0 1.7568741 -1.4242249 3.1811066 -3.1811066 3.1811066l0 0c-1.7568665 0 -3.1811066 -1.4242325 -3.1811066 -3.1811066z" fill-rule="evenodd" id="el_GOQFuNFQP8f"/></g><g id="el_vXhCEIH1rkK_UwTfYtaQt" data-animator-group="true" data-animator-type="0"><path d="m220.21257 31.340014l0 0c0 -1.756876 1.4242249 -3.1811028 3.1811066 -3.1811028l0 0c0.8436737 0 1.6528015 0.33514977 2.2493744 0.93172264c0.5965729 0.5965729 0.9317169 1.4056988 0.9317169 2.24938l0 0c0 1.7568722 -1.4242249 3.1811008 -3.1810913 3.1811008l0 0c-1.7568817 0 -3.1811066 -1.4242287 -3.1811066 -3.1811008z" fill-rule="evenodd" id="el_vXhCEIH1rkK"/></g></g><script>(function(){var a=document.querySelector('#el_CC9nYHg9i5M'),b=a.querySelectorAll('style'),c=function(d){b.forEach(function(f){var g=f.textContent;g&amp;&amp;(f.textContent=g.replace(/transform-box:[^;\r\n]*/gi,'transform-box: '+d))})};c('initial'),window.requestAnimationFrame(function(){return c('fill-box')})})();</script></svg>