<svg version="1.1" viewBox="0.0 0.0 152.60629921259843 178.1286089238845" fill="none" stroke="none" stroke-linecap="square" stroke-miterlimit="10" xmlns:xlink="http://www.w3.org/1999/xlink" xmlns="http://www.w3.org/2000/svg"><clipPath id="p.0"><path d="m0 0l152.6063 0l0 178.12862l-152.6063 0l0 -178.12862z" clip-rule="nonzero"/></clipPath><g clip-path="url(#p.0)"><path fill="#000000" fill-opacity="0.0" d="m0 0l152.6063 0l0 178.12862l-152.6063 0z" fill-rule="evenodd"/><path fill="#cc0000" d="m94.82415 74.114174l0 0c0 -2.5309448 2.051735 -4.5826797 4.582672 -4.5826797l0 0l0 0c1.2154007 0 2.3810272 0.4828186 3.2404404 1.3422394c0.8594208 0.85941315 1.3422394 2.0250397 1.3422394 3.2404404l0 31.11811c0 2.5309448 -2.051735 4.5826797 -4.5826797 4.5826797l0 0l0 0c-2.5309372 0 -4.582672 -2.051735 -4.582672 -4.5826797z" fill-rule="evenodd"/><path fill="#222222" d="m76.88126 107.226074l-11.118111 -19.2126l69.51181 -40.157482l11.118103 19.212597z" fill-rule="evenodd"/><path fill="#434343" d="m6.528529 59.135292l0 0c0 -28.597042 23.182484 -51.779526 51.779526 -51.779526l0 0c13.732784 0 26.90311 5.4553275 36.61366 15.165873c9.710541 9.710543 15.165871 22.880869 15.165871 36.613655l0 0c0 28.597046 -23.182487 51.779526 -51.77953 51.779526l0 0c-28.597042 0 -51.779526 -23.18248 -51.779526 -51.779526z" fill-rule="evenodd"/><path fill="#434343" d="m6.528529 58.51208l103.55906 0l0 68.81889l-103.55906 0z" fill-rule="evenodd"/><path fill="#383838" d="m72.10418 111.44302l-8.409447 -20.53543l74.267715 -30.425201l8.409454 20.53543z" fill-rule="evenodd"/><defs><linearGradient id="p.1" gradientUnits="userSpaceOnUse" gradientTransform="matrix(6.682947434898549 0.0 0.0 6.682947434898549 0.0 0.0)" spreadMethod="pad" x1="0.9768937903692848" y1="19.05258709790823" x2="0.9768695316676859" y2="25.73553453276275"><stop offset="0.0" stop-color="#434343"/><stop offset="0.99999994" stop-color="#434343" stop-opacity="0.0"/><stop offset="1.0" stop-color="#ffffff" stop-opacity="0.0"/></linearGradient></defs><path fill="url(#p.1)" d="m6.528529 127.32781l103.55906 0l0 44.661415l-103.55906 0z" fill-rule="evenodd"/><path fill="#ffffff" d="m68.23635 46.93009l0 0c0 -7.4884567 6.070595 -13.559055 13.5590515 -13.559055l0 0c3.5960846 0 7.0448837 1.4285393 9.5877 3.9713554c2.5428162 2.5428162 3.9713593 5.9916153 3.9713593 9.5877l0 0c0 7.4884605 -6.0706024 13.559055 -13.559059 13.559055l0 0c-7.4884567 0 -13.5590515 -6.070595 -13.5590515 -13.559055z" fill-rule="evenodd"/><path fill="#434343" d="m59.061447 34.91181l29.70079 -12.976379l7.401573 16.913387l-29.70079 12.976376z" fill-rule="evenodd"/><path fill="#cc0000" d="m35.719162 48.3937l0 0c0 -2.530941 -2.051735 -4.582676 -4.5826797 -4.582676l0 0l0 0c-1.2154007 0 -2.3810234 0.4828148 -3.2404423 1.3422356c-0.85941696 0.85941696 -1.3422337 2.0250397 -1.3422337 3.2404404l0 31.11811c0 2.5309448 2.051733 4.5826797 4.582676 4.5826797l0 0l0 0c2.5309448 0 4.5826797 -2.051735 4.5826797 -4.5826797z" fill-rule="evenodd"/><path fill="#cc0000" d="m54.29134 58.923885l0 0c0 -2.5309448 -2.051735 -4.5826797 -4.5826797 -4.5826797l0 0l0 0c-1.2154007 0 -2.3810234 0.4828186 -3.2404404 1.3422356c-0.8594208 0.8594208 -1.3422356 2.0250435 -1.3422356 3.2404442l0 14.173229c0 2.5309448 2.051735 4.582672 4.582676 4.582672l0 0l0 0c2.5309448 0 4.5826797 -2.0517273 4.5826797 -4.582672z" fill-rule="evenodd"/><path fill="#cc0000" d="m137.73601 60.107708l8.656998 21.072758l-17.312897 7.1106567c-4.3285065 -10.536377 -10.925041 -7.8270874 -11.505516 -19.902832z" fill-rule="evenodd"/><path fill="#cc0000" d="m6.528372 119.75178l0 -22.779213l18.717762 0c0 11.389603 7.131811 11.389603 3.0796452 22.779213z" fill-rule="evenodd"/></g></svg>