<svg version="1.1" viewBox="0 0 200 600" fill="none" stroke="none" stroke-linecap="square" stroke-miterlimit="10" xmlns:xlink="http://www.w3.org/1999/xlink" xmlns="http://www.w3.org/2000/svg" id="el_a8ctlPVA0LV"><style>@-webkit-keyframes el_cNmVq4Ve5Au_NNnga2u3g_Animation{0%{-webkit-transform: scale(1, 1);transform: scale(1, 1);}50%{-webkit-transform: scale(0.95, 0.95);transform: scale(0.95, 0.95);}100%{-webkit-transform: scale(1, 1);transform: scale(1, 1);}}@keyframes el_cNmVq4Ve5Au_NNnga2u3g_Animation{0%{-webkit-transform: scale(1, 1);transform: scale(1, 1);}50%{-webkit-transform: scale(0.95, 0.95);transform: scale(0.95, 0.95);}100%{-webkit-transform: scale(1, 1);transform: scale(1, 1);}}@-webkit-keyframes el_ekRxNbjhxdJ_4gf3bewVD_Animation{0%{-webkit-transform: translate(0px, 0px);transform: translate(0px, 0px);}16.67%{-webkit-transform: translate(10px, 0px);transform: translate(10px, 0px);}33.33%{-webkit-transform: translate(10px, 0px);transform: translate(10px, 0px);}50%{-webkit-transform: translate(5px, 10px);transform: translate(5px, 10px);}66.67%{-webkit-transform: translate(5px, 10px);transform: translate(5px, 10px);}83.33%{-webkit-transform: translate(0px, 0px);transform: translate(0px, 0px);}100%{-webkit-transform: translate(0px, 0px);transform: translate(0px, 0px);}}@keyframes el_ekRxNbjhxdJ_4gf3bewVD_Animation{0%{-webkit-transform: translate(0px, 0px);transform: translate(0px, 0px);}16.67%{-webkit-transform: translate(10px, 0px);transform: translate(10px, 0px);}33.33%{-webkit-transform: translate(10px, 0px);transform: translate(10px, 0px);}50%{-webkit-transform: translate(5px, 10px);transform: translate(5px, 10px);}66.67%{-webkit-transform: translate(5px, 10px);transform: translate(5px, 10px);}83.33%{-webkit-transform: translate(0px, 0px);transform: translate(0px, 0px);}100%{-webkit-transform: translate(0px, 0px);transform: translate(0px, 0px);}}@-webkit-keyframes el__-owuOJHG6W_XLPC4WO66_Animation{0%{-webkit-transform: translate(0px, 0px);transform: translate(0px, 0px);}16.67%{-webkit-transform: translate(10px, 0px);transform: translate(10px, 0px);}33.33%{-webkit-transform: translate(10px, 0px);transform: translate(10px, 0px);}50%{-webkit-transform: translate(5px, 10px);transform: translate(5px, 10px);}66.67%{-webkit-transform: translate(5px, 10px);transform: translate(5px, 10px);}83.33%{-webkit-transform: translate(0px, 0px);transform: translate(0px, 0px);}100%{-webkit-transform: translate(0px, 0px);transform: translate(0px, 0px);}}@keyframes el__-owuOJHG6W_XLPC4WO66_Animation{0%{-webkit-transform: translate(0px, 0px);transform: translate(0px, 0px);}16.67%{-webkit-transform: translate(10px, 0px);transform: translate(10px, 0px);}33.33%{-webkit-transform: translate(10px, 0px);transform: translate(10px, 0px);}50%{-webkit-transform: translate(5px, 10px);transform: translate(5px, 10px);}66.67%{-webkit-transform: translate(5px, 10px);transform: translate(5px, 10px);}83.33%{-webkit-transform: translate(0px, 0px);transform: translate(0px, 0px);}100%{-webkit-transform: translate(0px, 0px);transform: translate(0px, 0px);}}@-webkit-keyframes el_40HvbLyQ_Dv_1aJ0n245sLW_Animation{0%{-webkit-transform: translate(0px, 0px);transform: translate(0px, 0px);}16.67%{-webkit-transform: translate(10px, 0px);transform: translate(10px, 0px);}33.33%{-webkit-transform: translate(10px, 0px);transform: translate(10px, 0px);}50%{-webkit-transform: translate(5px, 10px);transform: translate(5px, 10px);}66.67%{-webkit-transform: translate(5px, 10px);transform: translate(5px, 10px);}83.33%{-webkit-transform: translate(0px, 0px);transform: translate(0px, 0px);}100%{-webkit-transform: translate(0px, 0px);transform: translate(0px, 0px);}}@keyframes el_40HvbLyQ_Dv_1aJ0n245sLW_Animation{0%{-webkit-transform: translate(0px, 0px);transform: translate(0px, 0px);}16.67%{-webkit-transform: translate(10px, 0px);transform: translate(10px, 0px);}33.33%{-webkit-transform: translate(10px, 0px);transform: translate(10px, 0px);}50%{-webkit-transform: translate(5px, 10px);transform: translate(5px, 10px);}66.67%{-webkit-transform: translate(5px, 10px);transform: translate(5px, 10px);}83.33%{-webkit-transform: translate(0px, 0px);transform: translate(0px, 0px);}100%{-webkit-transform: translate(0px, 0px);transform: translate(0px, 0px);}}@-webkit-keyframes el_2qS9WT-DSnn_g_1YY7dJK_Animation{0%{-webkit-transform: translate(0px, 0px);transform: translate(0px, 0px);}16.67%{-webkit-transform: translate(10px, 0px);transform: translate(10px, 0px);}33.33%{-webkit-transform: translate(10px, 0px);transform: translate(10px, 0px);}50%{-webkit-transform: translate(5px, 10px);transform: translate(5px, 10px);}66.67%{-webkit-transform: translate(5px, 10px);transform: translate(5px, 10px);}83.33%{-webkit-transform: translate(0px, 0px);transform: translate(0px, 0px);}100%{-webkit-transform: translate(0px, 0px);transform: translate(0px, 0px);}}@keyframes el_2qS9WT-DSnn_g_1YY7dJK_Animation{0%{-webkit-transform: translate(0px, 0px);transform: translate(0px, 0px);}16.67%{-webkit-transform: translate(10px, 0px);transform: translate(10px, 0px);}33.33%{-webkit-transform: translate(10px, 0px);transform: translate(10px, 0px);}50%{-webkit-transform: translate(5px, 10px);transform: translate(5px, 10px);}66.67%{-webkit-transform: translate(5px, 10px);transform: translate(5px, 10px);}83.33%{-webkit-transform: translate(0px, 0px);transform: translate(0px, 0px);}100%{-webkit-transform: translate(0px, 0px);transform: translate(0px, 0px);}}#el_a8ctlPVA0LV *{-webkit-animation-duration: 3s;animation-duration: 3s;-webkit-animation-iteration-count: infinite;animation-iteration-count: infinite;-webkit-animation-timing-function: cubic-bezier(0, 0, 1, 1);animation-timing-function: cubic-bezier(0, 0, 1, 1);}#el_QCVSLH6qYzB{fill: #000000;fill-opacity: 0.0;}#el_5lDAsJdU6I-{fill: #b1a78d;}#el__JqLuPY0KcL{fill: #b8ae93;}#el__UsWJevCbOc{fill: #b1a78d;}#el_jLDBD_phGv4{fill: #b8ae93;}#el_wfZ_ECMHFVo{fill: #b1a78d;}#el_AnTeCIFh41j{fill: #b8ae93;}#el_zaKVjScbN_J{fill: #b1a78d;}#el_Ci_7ekFz2AL{fill: #b8ae93;}#el_R7sIyOCEPqN{fill: #b1a78d;}#el_fIri52cvU-H{fill: #b8ae93;}#el_w-kC1S-MECo{fill: #b1a78d;}#el_7Iyqp9KAzZr{fill: #b8ae93;}#el_cQDoANviiEe{fill: #b1a78d;}#el_s6_cyVzdb-i{fill: #b8ae93;}#el_4ZeSK5oQwGx{fill: #b1a78d;}#el_Qh7Fo7ija5J{fill: #b8ae93;}#el_jhfCmFze4Tr{fill: #b1a78d;}#el_gcaxLpGPcFo{fill: #b8ae93;}#el_1e4umygGE3u{fill: #660000;}#el_Kl6XQu6SjqY{fill: #f3f3f3;}#el_gQAHcVg2w11{fill: #f3f3f3;}#el_YiYZ67cq_lz{fill: #f3f3f3;}#el_RcRk1hdNceY{fill: #f3f3f3;}#el_i58cLydNcqo{fill: #f3f3f3;}#el_4jx86xXK1kt{fill: #873d3d;}#el_cNmVq4Ve5Au{fill: #990000;}#el_2hvT6EhNlKa{fill: #873d3d;}#el_2qS9WT-DSnn{fill: #ea5454;}#el_40HvbLyQ_Dv{fill: #ea5454;}#el__-owuOJHG6W{fill: #ffffff;}#el_ekRxNbjhxdJ{fill: #ffffff;}#el_2qS9WT-DSnn_g_1YY7dJK{-webkit-animation-name: el_2qS9WT-DSnn_g_1YY7dJK_Animation;animation-name: el_2qS9WT-DSnn_g_1YY7dJK_Animation;-webkit-transform-origin: 50% 50%;transform-origin: 50% 50%;transform-box: fill-box;-webkit-transform: translate(0px, 0px);transform: translate(0px, 0px);-webkit-animation-timing-function: cubic-bezier(0.42, 0, 0.58, 1);animation-timing-function: cubic-bezier(0.42, 0, 0.58, 1);}#el_40HvbLyQ_Dv_1aJ0n245sLW{-webkit-animation-name: el_40HvbLyQ_Dv_1aJ0n245sLW_Animation;animation-name: el_40HvbLyQ_Dv_1aJ0n245sLW_Animation;-webkit-transform-origin: 50% 50%;transform-origin: 50% 50%;transform-box: fill-box;-webkit-transform: translate(0px, 0px);transform: translate(0px, 0px);-webkit-animation-timing-function: cubic-bezier(0.42, 0, 0.58, 1);animation-timing-function: cubic-bezier(0.42, 0, 0.58, 1);}#el__-owuOJHG6W_XLPC4WO66{-webkit-animation-name: el__-owuOJHG6W_XLPC4WO66_Animation;animation-name: el__-owuOJHG6W_XLPC4WO66_Animation;-webkit-transform-origin: 50% 50%;transform-origin: 50% 50%;transform-box: fill-box;-webkit-transform: translate(0px, 0px);transform: translate(0px, 0px);-webkit-animation-timing-function: cubic-bezier(0.42, 0, 0.58, 1);animation-timing-function: cubic-bezier(0.42, 0, 0.58, 1);}#el_ekRxNbjhxdJ_4gf3bewVD{-webkit-animation-name: el_ekRxNbjhxdJ_4gf3bewVD_Animation;animation-name: el_ekRxNbjhxdJ_4gf3bewVD_Animation;-webkit-transform-origin: 50% 50%;transform-origin: 50% 50%;transform-box: fill-box;-webkit-transform: translate(0px, 0px);transform: translate(0px, 0px);-webkit-animation-timing-function: cubic-bezier(0.42, 0, 0.58, 1);animation-timing-function: cubic-bezier(0.42, 0, 0.58, 1);}#el_cNmVq4Ve5Au_NNnga2u3g{-webkit-animation-name: el_cNmVq4Ve5Au_NNnga2u3g_Animation;animation-name: el_cNmVq4Ve5Au_NNnga2u3g_Animation;-webkit-transform-origin: 50% 50%;transform-origin: 50% 50%;transform-box: fill-box;}</style><clipPath id="p.0"><path d="m0 0l200.0 0l0 600.0l-200.0 0l0 -600.0z" clip-rule="nonzero"/></clipPath><g clip-path="url(#p.0)" id="el_WBVL-cHIJZd"><path d="m0 0l200.0 0l0 600.0l-200.0 0z" fill-rule="evenodd" id="el_QCVSLH6qYzB"/><path d="m35.001064 564.2999l0 0c0 -15.881409 12.874458 -28.75592 28.755905 -28.75592l0 0c7.6265373 0 14.940716 3.029663 20.3335 8.422424c5.3927765 5.392761 8.422409 12.70697 8.422409 20.333496l0 0c0 15.88147 -12.874458 28.75592 -28.755909 28.75592l0 0c-15.881447 0 -28.755905 -12.874451 -28.755905 -28.75592z" fill-rule="evenodd" id="el_5lDAsJdU6I-"/><path d="m52.18744 541.20544l0 0c0 -15.881409 12.874458 -28.75586 28.755905 -28.75586l0 0c7.626541 0 14.94072 3.029602 20.333496 8.422363c5.3927765 5.3928223 8.422409 12.70697 8.422409 20.333496l0 0c0 15.88147 -12.874458 28.75592 -28.755905 28.75592l0 0c-15.881447 0 -28.755905 -12.874451 -28.755905 -28.75592z" fill-rule="evenodd" id="el__JqLuPY0KcL"/><path d="m71.58354 517.1552l0 0c0 -15.88147 12.874458 -28.75592 28.755905 -28.75592l0 0c7.626541 0 14.94072 3.0296326 20.333496 8.422394c5.3927765 5.3927917 8.422409 12.70697 8.422409 20.333527l0 0c0 15.881409 -12.874458 28.75586 -28.755905 28.75586l0 0c-15.881447 0 -28.755905 -12.874451 -28.755905 -28.75586z" fill-rule="evenodd" id="el__UsWJevCbOc"/><path d="m82.87729 483.69745l0 0c0 -15.881439 12.874458 -28.75589 28.755905 -28.75589l0 0c7.626541 0 14.940712 3.0296326 20.333496 8.422394c5.3927765 5.3927917 8.422409 12.70697 8.422409 20.333496l0 0c0 15.88147 -12.874458 28.75592 -28.755905 28.75592l0 0c-15.881447 0 -28.755905 -12.874451 -28.755905 -28.75592z" fill-rule="evenodd" id="el_jLDBD_phGv4"/><path d="m82.87729 449.24252l0 0c0 -15.881439 12.874458 -28.75592 28.755905 -28.75592l0 0c7.626541 0 14.940712 3.0296326 20.333496 8.422424c5.3927765 5.3927917 8.422409 12.70697 8.422409 20.333496l0 0c0 15.881439 -12.874458 28.75589 -28.755905 28.75589l0 0c-15.881447 0 -28.755905 -12.874451 -28.755905 -28.75589z" fill-rule="evenodd" id="el_wfZ_ECMHFVo"/><path d="m69.37135 415.41235l0 0c0 -15.88147 12.874458 -28.75592 28.755905 -28.75592l0 0c7.626541 0 14.94072 3.0296326 20.333496 8.422424c5.3927765 5.392761 8.422409 12.70694 8.422409 20.333496l0 0c0 15.881439 -12.874458 28.75589 -28.755905 28.75589l0 0c-15.881447 0 -28.755905 -12.874451 -28.755905 -28.75589z" fill-rule="evenodd" id="el_AnTeCIFh41j"/><path d="m49.452614 383.46848l0 0c0 -15.88147 12.8744545 -28.75592 28.755905 -28.75592l0 0c7.626541 0 14.94072 3.0296326 20.333496 8.422424c5.3927765 5.392761 8.422409 12.70694 8.422409 20.333496l0 0c0 15.881439 -12.874458 28.75589 -28.755905 28.75589l0 0c-15.881451 0 -28.755905 -12.874451 -28.755905 -28.75589z" fill-rule="evenodd" id="el_zaKVjScbN_J"/><path d="m46.208664 350.29758l0 0c0 -15.881439 12.874458 -28.75589 28.755905 -28.75589l0 0c7.626541 0 14.94072 3.0296326 20.333496 8.422394c5.3927765 5.3927917 8.422409 12.70697 8.422409 20.333496l0 0c0 15.88147 -12.874458 28.75592 -28.755905 28.75592l0 0c-15.881447 0 -28.755905 -12.874451 -28.755905 -28.75592z" fill-rule="evenodd" id="el_Ci_7ekFz2AL"/><path d="m45.73943 323.48093l0 0c0 -15.88147 12.874458 -28.75592 28.755909 -28.75592l0 0c7.626541 0 14.940712 3.0296326 20.333496 8.422424c5.3927765 5.392761 8.422409 12.70694 8.422409 20.333496l0 0c0 15.881439 -12.874458 28.75589 -28.755905 28.75589l0 0c-15.881451 0 -28.755909 -12.874451 -28.755909 -28.75589z" fill-rule="evenodd" id="el_R7sIyOCEPqN"/><path d="m53.793987 298.93558l0 0c0 -15.881439 12.8744545 -28.75589 28.755909 -28.75589l0 0c7.6265335 0 14.940712 3.0296326 20.333496 8.422394c5.3927765 5.3927917 8.422409 12.70697 8.422409 20.333496l0 0c0 15.881439 -12.874458 28.75592 -28.755905 28.75592l0 0c-15.881454 0 -28.755909 -12.874481 -28.755909 -28.75592z" fill-rule="evenodd" id="el_fIri52cvU-H"/><path d="m73.19009 274.8853l0 0c0 -15.881439 12.874458 -28.755905 28.755913 -28.755905l0 0c7.6265335 0 14.940712 3.0296173 20.333488 8.422409c5.392784 5.392761 8.422417 12.70694 8.422417 20.333496l0 0c0 15.881439 -12.874458 28.75589 -28.755905 28.75589l0 0c-15.881454 0 -28.755913 -12.874451 -28.755913 -28.75589z" fill-rule="evenodd" id="el_w-kC1S-MECo"/><path d="m84.48383 241.42758l0 0c0 -15.881454 12.874458 -28.755905 28.755905 -28.755905l0 0c7.626541 0 14.940712 3.0296326 20.333488 8.422409c5.3927917 5.3927765 8.422424 12.706955 8.422424 20.333496l0 0c0 15.881439 -12.874466 28.75592 -28.755913 28.75592l0 0c-15.881447 0 -28.755905 -12.874481 -28.755905 -28.75592z" fill-rule="evenodd" id="el_7Iyqp9KAzZr"/><path d="m84.48383 206.97264l0 0c0 -15.881439 12.874458 -28.755905 28.755905 -28.755905l0 0c7.626541 0 14.940712 3.0296326 20.333488 8.422409c5.3927917 5.3927765 8.422424 12.706955 8.422424 20.333496l0 0c0 15.881454 -12.874466 28.755905 -28.755913 28.755905l0 0c-15.881447 0 -28.755905 -12.874451 -28.755905 -28.755905z" fill-rule="evenodd" id="el_cQDoANviiEe"/><path d="m70.9779 173.14247l0 0c0 -15.881454 12.874458 -28.755905 28.755905 -28.755905l0 0c7.626541 0 14.94072 3.0296173 20.333496 8.422409c5.3927765 5.3927765 8.422417 12.706955 8.422417 20.333496l0 0c0 15.881439 -12.874466 28.755905 -28.755913 28.755905l0 0c-15.881447 0 -28.755905 -12.874466 -28.755905 -28.755905z" fill-rule="evenodd" id="el_s6_cyVzdb-i"/><path d="m51.05916 141.19858l0 0c0 -15.881447 12.874458 -28.755905 28.755905 -28.755905l0 0c7.626541 0 14.94072 3.0296326 20.333496 8.422409c5.3927765 5.392784 8.422409 12.706955 8.422409 20.333496l0 0c0 15.881454 -12.874458 28.755905 -28.755905 28.755905l0 0c-15.881447 0 -28.755905 -12.874451 -28.755905 -28.755905z" fill-rule="evenodd" id="el_4ZeSK5oQwGx"/><path d="m47.815212 108.0277l0 0c0 -15.881447 12.874458 -28.755905 28.755909 -28.755905l0 0c7.6265335 0 14.940712 3.0296326 20.333488 8.422409c5.392784 5.392784 8.422417 12.706955 8.422417 20.333496l0 0c0 15.881447 -12.874458 28.755913 -28.755905 28.755913l0 0c-15.881451 0 -28.755909 -12.874466 -28.755909 -28.755913z" fill-rule="evenodd" id="el_Qh7Fo7ija5J"/><path d="m59.535473 77.81242l0 0c0 -15.881447 12.874462 -28.755905 28.755909 -28.755905l0 0c7.626541 0 14.940712 3.0296326 20.333496 8.422413c5.3927765 5.3927765 8.422409 12.706951 8.422409 20.333492l0 0c0 15.881447 -12.874458 28.755905 -28.755905 28.755905l0 0c-15.881447 0 -28.755909 -12.874458 -28.755909 -28.755905z" fill-rule="evenodd" id="el_jhfCmFze4Tr"/><path d="m79.48725 49.698162l0 0c0 -23.613434 19.142471 -42.755905 42.755905 -42.755905l0 0c11.339577 0 22.214699 4.5046268 30.232994 12.522915c8.01828 8.018288 12.522919 18.893421 12.522919 30.23299l0 0c0 23.613438 -19.142471 42.75591 -42.755913 42.75591l0 0c-23.613434 0 -42.755905 -19.142471 -42.755905 -42.75591z" fill-rule="evenodd" id="el_gcaxLpGPcFo"/><path d="m124.545616 70.72633l0 0c-4.4095764 -7.479759 -2.6892242 -16.666737 3.8425217 -20.519684l0 0c3.1366577 -1.8502502 6.986038 -2.1978378 10.701324 -0.96630096c3.7152863 1.2315407 6.9921417 3.9413223 9.109695 7.5332336l0 0c4.4095917 7.479759 2.6892242 16.666733 -3.842514 20.519684l0 0c-6.5317535 3.8529434 -15.4014435 0.91283417 -19.811028 -6.5669327z" fill-rule="evenodd" id="el_1e4umygGE3u"/><path d="m135.23279 46.69187l-0.09448242 11.480316l-7.2126007 -8.929134z" fill-rule="evenodd" id="el_Kl6XQu6SjqY"/><path d="m125.15581 51.08272l6.8661346 9.165356l-11.149597 -2.740158z" fill-rule="evenodd" id="el_gQAHcVg2w11"/><path d="m134.67377 80.643616l2.377945 -11.22834l5.275589 10.188972z" fill-rule="evenodd" id="el_YiYZ67cq_lz"/><path d="m143.81462 78.54596l-4.3307037 -10.614174l10.094482 5.448822z" fill-rule="evenodd" id="el_RcRk1hdNceY"/><path d="m150.64189 72.17398l-9.401581 -6.614174l11.448822 -0.81890106z" fill-rule="evenodd" id="el_i58cLydNcqo"/><path d="m94.12106 46.93297l0 0c0 -7.392788 5.9930344 -13.385826 13.385826 -13.385826l0 0c3.5501404 0 6.9548798 1.410286 9.46521 3.9206161c2.5103226 2.5103302 3.9206161 5.9150696 3.9206161 9.46521l0 0c0 7.392788 -5.993042 13.385826 -13.385826 13.385826l0 0c-7.3927917 0 -13.385826 -5.993038 -13.385826 -13.385826z" fill-rule="evenodd" id="el_4jx86xXK1kt"/><g id="el_cNmVq4Ve5Au_NNnga2u3g" data-animator-group="true" data-animator-type="2"><path d="m122.22175 71.618484l0 0c-4.9749146 -8.949627 -2.6693573 -19.730045 5.149605 -24.078743l0 0c3.7547913 -2.0883179 8.304855 -2.3838272 12.6492 -0.82151794c4.344345 1.5623131 8.127121 4.8544655 10.516159 9.1522255l0 0c4.9748993 8.949619 2.669342 19.730045 -5.1496124 24.07874l0 0c-7.8189545 4.3487015 -18.190445 0.61891174 -23.165352 -8.330704zm4.12294 -2.2930756l0 0c3.708992 6.6723022 11.208351 9.582596 16.750267 6.500328c5.541931 -3.0822754 7.0278015 -10.989914 3.3188171 -17.662216l0 0c-3.7089996 -6.6722984 -11.208359 -9.582596 -16.750275 -6.5003242l0 0c-5.5419235 3.0822716 -7.0278015 10.989914 -3.3188095 17.662212z" fill-rule="evenodd" id="el_cNmVq4Ve5Au"/></g><path d="m122.9982 28.729311l0 0c0 -7.392788 5.993042 -13.385827 13.385834 -13.385827l0 0c3.5501404 0 6.9548798 1.4102888 9.46521 3.920617c2.510315 2.5103302 3.9206085 5.9150677 3.9206085 9.46521l0 0c0 7.392786 -5.993042 13.385824 -13.3858185 13.385824l0 0c-7.3927917 0 -13.385834 -5.993038 -13.385834 -13.385824z" fill-rule="evenodd" id="el_2hvT6EhNlKa"/><g id="el_2qS9WT-DSnn_g_1YY7dJK" data-animator-group="true" data-animator-type="0"><path d="m98.817276 44.43184l0 0c0 -2.6961937 2.1856918 -4.8818893 4.8818893 -4.8818893l0 0c1.294754 0 2.5364838 0.51433945 3.4520187 1.4298706c0.91552734 0.91553116 1.4298706 2.157261 1.4298706 3.4520187l0 0c0 2.6961937 -2.1856995 4.8818893 -4.8818893 4.8818893l0 0c-2.6961975 0 -4.8818893 -2.1856956 -4.8818893 -4.8818893z" fill-rule="evenodd" id="el_2qS9WT-DSnn"/></g><g id="el_40HvbLyQ_Dv_1aJ0n245sLW" data-animator-group="true" data-animator-type="0"><path d="m128.48587 25.738585l0 0c0 -2.6961937 2.1856995 -4.8818893 4.881897 -4.8818893l0 0c1.294754 0 2.5364838 0.51433945 3.452011 1.4298706c0.9155426 0.91553307 1.4298859 2.157261 1.4298859 3.4520187l0 0c0 2.6961918 -2.1856995 4.8818893 -4.881897 4.8818893l0 0c-2.6961975 0 -4.881897 -2.1856976 -4.881897 -4.8818893z" fill-rule="evenodd" id="el_40HvbLyQ_Dv"/></g><g id="el__-owuOJHG6W_XLPC4WO66" data-animator-group="true" data-animator-type="0"><path d="m100.12386 43.93283l0 0c0 -1.0088959 0.8178787 -1.8267708 1.8267746 -1.8267708l0 0c0.48448944 0 0.9491348 0.19246292 1.2917175 0.53504944c0.34259033 0.34258652 0.53504944 0.8072319 0.53504944 1.2917213l0 0c0 1.0088997 -0.8178711 1.8267708 -1.826767 1.8267708l0 0c-1.0088959 0 -1.8267746 -0.8178711 -1.8267746 -1.8267708z" fill-rule="evenodd" id="el__-owuOJHG6W"/></g><g id="el_ekRxNbjhxdJ_4gf3bewVD" data-animator-group="true" data-animator-type="0"><path d="m130.01474 24.870127l0 0c0 -1.0088978 0.8178711 -1.8267708 1.826767 -1.8267708l0 0c0.48449707 0 0.94914246 0.19246292 1.2917328 0.53504944c0.34257507 0.34258652 0.53504944 0.8072319 0.53504944 1.2917213l0 0c0 1.0088997 -0.81788635 1.8267727 -1.8267822 1.8267727l0 0c-1.0088959 0 -1.826767 -0.817873 -1.826767 -1.8267727z" fill-rule="evenodd" id="el_ekRxNbjhxdJ"/></g></g><script>(function(){var a=document.querySelector('#el_a8ctlPVA0LV'),b=a.querySelectorAll('style'),c=function(d){b.forEach(function(f){var g=f.textContent;g&amp;&amp;(f.textContent=g.replace(/transform-box:[^;\r\n]*/gi,'transform-box: '+d))})};c('initial'),window.requestAnimationFrame(function(){return c('fill-box')})})();</script></svg>