<svg version="1.1" viewBox="0 0 600 575" fill="none" stroke="none" stroke-linecap="square" stroke-miterlimit="10" xmlns:xlink="http://www.w3.org/1999/xlink" xmlns="http://www.w3.org/2000/svg" id="el_CYwrzDtu9F"><style>@-webkit-keyframes el_-DwV3dT0Hj_dv1kblR_j_Animation{16.67%{-webkit-transform: scale(0.9, 0.9);transform: scale(0.9, 0.9);}0%{-webkit-transform: scale(0.9, 0.9);transform: scale(0.9, 0.9);}100%{-webkit-transform: scale(0.9, 0.9);transform: scale(0.9, 0.9);}}@keyframes el_-DwV3dT0Hj_dv1kblR_j_Animation{16.67%{-webkit-transform: scale(0.9, 0.9);transform: scale(0.9, 0.9);}0%{-webkit-transform: scale(0.9, 0.9);transform: scale(0.9, 0.9);}100%{-webkit-transform: scale(0.9, 0.9);transform: scale(0.9, 0.9);}}@-webkit-keyframes el_DjXkTfZF3Bc_INGIpbPIQ_Animation{0%{-webkit-transform: rotate(55deg);transform: rotate(55deg);}6.67%{-webkit-transform: rotate(165deg);transform: rotate(165deg);}66.67%{-webkit-transform: rotate(55deg);transform: rotate(55deg);}100%{-webkit-transform: rotate(55deg);transform: rotate(55deg);}}@keyframes el_DjXkTfZF3Bc_INGIpbPIQ_Animation{0%{-webkit-transform: rotate(55deg);transform: rotate(55deg);}6.67%{-webkit-transform: rotate(165deg);transform: rotate(165deg);}66.67%{-webkit-transform: rotate(55deg);transform: rotate(55deg);}100%{-webkit-transform: rotate(55deg);transform: rotate(55deg);}}@-webkit-keyframes el_X1HA6RepZqX_3a5UnKjLR_Animation{0%{-webkit-transform: scale(1, 1);transform: scale(1, 1);}6.67%{-webkit-transform: scale(1, 1);transform: scale(1, 1);}10%{-webkit-transform: scale(1.3, 1.3);transform: scale(1.3, 1.3);}66.67%{-webkit-transform: scale(1.3, 1.3);transform: scale(1.3, 1.3);}83.33%{-webkit-transform: scale(1, 1);transform: scale(1, 1);}100%{-webkit-transform: scale(1, 1);transform: scale(1, 1);}}@keyframes el_X1HA6RepZqX_3a5UnKjLR_Animation{0%{-webkit-transform: scale(1, 1);transform: scale(1, 1);}6.67%{-webkit-transform: scale(1, 1);transform: scale(1, 1);}10%{-webkit-transform: scale(1.3, 1.3);transform: scale(1.3, 1.3);}66.67%{-webkit-transform: scale(1.3, 1.3);transform: scale(1.3, 1.3);}83.33%{-webkit-transform: scale(1, 1);transform: scale(1, 1);}100%{-webkit-transform: scale(1, 1);transform: scale(1, 1);}}@-webkit-keyframes el_q_MhD2X_wOs_x2Zo7qUyz_Animation{0%{-webkit-transform: scale(1, 1);transform: scale(1, 1);}6.67%{-webkit-transform: scale(1, 1);transform: scale(1, 1);}10%{-webkit-transform: scale(1.3, 1.3);transform: scale(1.3, 1.3);}66.67%{-webkit-transform: scale(1.3, 1.3);transform: scale(1.3, 1.3);}83.33%{-webkit-transform: scale(1, 1);transform: scale(1, 1);}100%{-webkit-transform: scale(1, 1);transform: scale(1, 1);}}@keyframes el_q_MhD2X_wOs_x2Zo7qUyz_Animation{0%{-webkit-transform: scale(1, 1);transform: scale(1, 1);}6.67%{-webkit-transform: scale(1, 1);transform: scale(1, 1);}10%{-webkit-transform: scale(1.3, 1.3);transform: scale(1.3, 1.3);}66.67%{-webkit-transform: scale(1.3, 1.3);transform: scale(1.3, 1.3);}83.33%{-webkit-transform: scale(1, 1);transform: scale(1, 1);}100%{-webkit-transform: scale(1, 1);transform: scale(1, 1);}}@-webkit-keyframes el_Xah9_V6wdVG_zyRmVOgC0_Animation{0%{-webkit-transform: scale(1.15, 1.15);transform: scale(1.15, 1.15);}100%{-webkit-transform: scale(1.15, 1.15);transform: scale(1.15, 1.15);}}@keyframes el_Xah9_V6wdVG_zyRmVOgC0_Animation{0%{-webkit-transform: scale(1.15, 1.15);transform: scale(1.15, 1.15);}100%{-webkit-transform: scale(1.15, 1.15);transform: scale(1.15, 1.15);}}@-webkit-keyframes el_GWm3z5CAzF2_sPgbO6wLY_Animation{0%{-webkit-transform: scale(1, 1);transform: scale(1, 1);}6.67%{-webkit-transform: scale(1, 1);transform: scale(1, 1);}16.67%{-webkit-transform: scale(1.3, 1.3);transform: scale(1.3, 1.3);}26.67%{-webkit-transform: scale(1, 1);transform: scale(1, 1);}100%{-webkit-transform: scale(1, 1);transform: scale(1, 1);}}@keyframes el_GWm3z5CAzF2_sPgbO6wLY_Animation{0%{-webkit-transform: scale(1, 1);transform: scale(1, 1);}6.67%{-webkit-transform: scale(1, 1);transform: scale(1, 1);}16.67%{-webkit-transform: scale(1.3, 1.3);transform: scale(1.3, 1.3);}26.67%{-webkit-transform: scale(1, 1);transform: scale(1, 1);}100%{-webkit-transform: scale(1, 1);transform: scale(1, 1);}}#el_CYwrzDtu9F *{-webkit-animation-duration: 3s;animation-duration: 3s;-webkit-animation-iteration-count: infinite;animation-iteration-count: infinite;-webkit-animation-timing-function: cubic-bezier(0, 0, 1, 1);animation-timing-function: cubic-bezier(0, 0, 1, 1);}#el_lkiA7zQan8{fill: #000000;fill-opacity: 0.0;}#el_DjTa4ej7BZ{fill: #880000;}#el_5UnFGIttma{fill: #880000;}#el_D5ze692ilM{fill: #660000;}#el_Q6obaNDucF7{fill: #880000;}#el_Yi010rKFmHq{fill: #880000;}#el_5Y-aHsWC0XQ{fill: #880000;}#el_NVl9cJMvpEu{fill: #880000;}#el_gfLSmIhqEsF{fill: #660000;}#el_SCP_6pSg1NK{fill: #efefef;}#el_bUVmm3cxhKx{fill: #660000;}#el_ookma6AkQuT{fill: #990000;}#el_ZJiLcXknexx{fill: #660000;}#el_eWdJLT2nb6j{fill: #efefef;}#el_OcsjqvKYHvI{fill: #ffffff;}#el_O55UlEZWO50{fill: #660000;}#el_dONc7P5_a0d{fill: #000000;}#el_JdcQuEnO6pH{fill: #000000;}#el_ySgkq68vMUK{fill: #660000;}#el_PdcHWNfyEjB{fill: #660000;}#el_EAIFXXuyUGa{fill: #434343;}#el_8Y3ni8AhFQc{fill: #434343;}#el_oNGTBq1s3Gq{fill: #434343;}#el_yDIGaHhtMW4{fill: #434343;}#el_bRu4Ln74voj{fill: url(#p.1);}#el_GWm3z5CAzF2{fill: #ffffff;}#el_Xah9_V6wdVG{fill: #434343;visibility: hidden;}#el_q_MhD2X_wOs{fill: #000000;}#el_X1HA6RepZqX{fill: #2a2a2a;}#el_DqUVO1TcoHe{fill: #bf9000;}#el_hpq09yVzYnO{fill: #434343;}#el_3ITYu-ypH8O{fill: #783f04;}#el_8jGevTmM-MJ{fill: #b45f06;}#el_bzcCSTmpDKB{fill: #bf9000;}#el_wgaK3_xiE6d{fill: #b45f06;}#el_DjXkTfZF3Bc{fill: #880000;}#el_GWm3z5CAzF2_sPgbO6wLY{-webkit-animation-name: el_GWm3z5CAzF2_sPgbO6wLY_Animation;animation-name: el_GWm3z5CAzF2_sPgbO6wLY_Animation;-webkit-animation-timing-function: cubic-bezier(0.42, 0, 0.58, 1);animation-timing-function: cubic-bezier(0.42, 0, 0.58, 1);-webkit-transform-origin: 50% 50%;transform-origin: 50% 50%;transform-box: fill-box;}#el_Xah9_V6wdVG_zyRmVOgC0{-webkit-animation-name: el_Xah9_V6wdVG_zyRmVOgC0_Animation;animation-name: el_Xah9_V6wdVG_zyRmVOgC0_Animation;-webkit-transform-origin: 50% 50%;transform-origin: 50% 50%;transform-box: fill-box;}#el_q_MhD2X_wOs_x2Zo7qUyz{-webkit-animation-name: el_q_MhD2X_wOs_x2Zo7qUyz_Animation;animation-name: el_q_MhD2X_wOs_x2Zo7qUyz_Animation;-webkit-animation-timing-function: cubic-bezier(0.42, 0, 0.58, 1);animation-timing-function: cubic-bezier(0.42, 0, 0.58, 1);-webkit-transform-origin: 100% 50%;transform-origin: 100% 50%;transform-box: fill-box;}#el_X1HA6RepZqX_3a5UnKjLR{-webkit-animation-name: el_X1HA6RepZqX_3a5UnKjLR_Animation;animation-name: el_X1HA6RepZqX_3a5UnKjLR_Animation;-webkit-animation-timing-function: cubic-bezier(0.42, 0, 0.58, 1);animation-timing-function: cubic-bezier(0.42, 0, 0.58, 1);-webkit-transform-origin: 50% 50%;transform-origin: 50% 50%;transform-box: fill-box;}#el_DjXkTfZF3Bc_INGIpbPIQ{-webkit-animation-name: el_DjXkTfZF3Bc_INGIpbPIQ_Animation;animation-name: el_DjXkTfZF3Bc_INGIpbPIQ_Animation;-webkit-animation-timing-function: cubic-bezier(0.42, 0, 0.58, 1);animation-timing-function: cubic-bezier(0.42, 0, 0.58, 1);-webkit-transform-origin: 0% 50%;transform-origin: 0% 50%;transform-box: fill-box;}#el_-DwV3dT0Hj_dv1kblR_j{-webkit-animation-name: el_-DwV3dT0Hj_dv1kblR_j_Animation;animation-name: el_-DwV3dT0Hj_dv1kblR_j_Animation;-webkit-transform-origin: 50% 100%;transform-origin: 50% 100%;transform-box: fill-box;}</style><clipPath id="p.0"><path d="m0 0l649.0 0l0 575.0l-649.0 0l0 -575.0z" clip-rule="nonzero"/></clipPath><g id="el_-DwV3dT0Hj_dv1kblR_j" data-animator-group="true" data-animator-type="2"><g clip-path="url(#p.0)" id="el_-DwV3dT0Hj"><path d="m0 0l649.0 0l0 575.0l-649.0 0z" fill-rule="evenodd" id="el_lkiA7zQan8"/><path d="m296.32498 204.46481l0 0c3.7462463 0.5327301 7.2168274 -2.0720825 7.75177 -5.8180084l3.8743286 -27.129623l0 0c0.25689697 -1.7988586 -0.21139526 -3.6256714 -1.3018188 -5.0785522c-1.0904541 -1.4528809 -2.7137146 -2.4128265 -4.512726 -2.6686554l-105.62927 -15.020874c-3.7462616 -0.5327301 -7.2168427 2.0720825 -7.7518005 5.8180084l-3.8743286 27.129608c-0.5349426 3.7459412 2.0683289 7.2144775 5.814575 7.7472076z" fill-rule="evenodd" id="el_DjTa4ej7BZ"/><path d="m184.51485 186.0277l0 0c2.840042 2.500702 7.1694183 2.2254944 9.669952 -0.6147003l18.109879 -20.569809l0 0c1.2007904 -1.3639069 1.8106232 -3.149002 1.695343 -4.96257c-0.11529541 -1.8135834 -0.94625854 -3.50708 -2.310089 -4.707962l-70.63039 -62.19113c-2.840042 -2.500702 -7.1694183 -2.2254868 -9.669937 0.6146927l-18.109886 20.569824c-2.5005264 2.840187 -2.225296 7.1698227 0.61473846 9.670517z" fill-rule="evenodd" id="el_5UnFGIttma"/><path d="m132.98701 75.47385l0 0c11.219696 10.173454 12.067825 27.51603 1.8943787 38.735718l0 0c-4.8854675 5.387886 -11.711166 8.614357 -18.975525 8.96962c-7.2643585 0.35526276 -14.372314 -2.1897736 -19.7602 -7.075241l0 0c-11.219688 -10.173454 -12.067833 -27.51603 -1.8943787 -38.735725l0 0c10.173462 -11.219688 27.51603 -12.067833 38.735725 -1.894371z" fill-rule="evenodd" id="el_D5ze692ilM"/><path d="m289.15158 352.0093l0 0c1.4253235 -3.5043945 5.4222107 -5.191284 8.927338 -3.7677612l25.38556 10.309601l0 0c1.6832275 0.68359375 3.0256042 2.0076904 3.731842 3.6810303c0.7062378 1.6733398 0.71847534 3.558838 0.0340271 5.241699l-40.224365 98.900024c-1.4253235 3.5043945 -5.4222107 5.191284 -8.927338 3.7677917l-25.38556 -10.309601c-3.505127 -1.4234924 -5.191162 -5.4183655 -3.765854 -8.92276z" fill-rule="evenodd" id="el_Q6obaNDucF7"/><path d="m247.44173 457.63068l0 0c-0.9382782 -3.6648254 1.2718048 -7.397278 4.936386 -8.336609l26.540405 -6.80307l0 0c1.7597961 -0.45108032 3.6265259 -0.18457031 5.1894836 0.74090576c1.5629578 0.9254761 2.6941833 2.434143 3.1447449 4.1940613l23.37381 91.29535c0.93829346 3.664856 -1.2717896 7.397278 -4.936371 8.336609l-26.540405 6.8031006c-3.6645813 0.93933105 -7.395935 -1.2701416 -8.3342285 -4.9349976z" fill-rule="evenodd" id="el_Yi010rKFmHq"/><path d="m386.17288 357.47467l0 0c0.44030762 -3.7570496 3.8432007 -6.4478455 7.6005554 -6.010071l27.21231 3.1705627l0 0c1.8043518 0.2102356 3.4508057 1.1285706 4.5771484 2.5529785c1.1263428 1.424408 1.6403198 3.2382507 1.428894 5.04245l-12.421234 105.98505c-0.44030762 3.7570496 -3.8432007 6.4478455 -7.6005554 6.010071l-27.21231 -3.1705627c-3.7573547 -0.43777466 -6.44635 -3.8383484 -6.006012 -7.5954285z" fill-rule="evenodd" id="el_5Y-aHsWC0XQ"/><path d="m375.48593 470.29382l0 0c-1.6932983 -3.3832703 -0.3232422 -7.4985046 3.0601196 -9.19165l24.503693 -12.262329l0 0c1.6247559 -0.81307983 3.505951 -0.9474182 5.229828 -0.37350464c1.7238464 0.5739136 3.149109 1.809082 3.9622498 3.4337769l42.120026 84.15756c1.6932983 3.3832397 0.32321167 7.498474 -3.0601501 9.191589l-24.503662 12.26239c-3.3833618 1.6931152 -7.49881 0.32299805 -9.192108 -3.0603027z" fill-rule="evenodd" id="el_NVl9cJMvpEu"/><path d="m239.78812 576.042l0 0c-3.7834473 0 -6.85289 -3.0670776 -6.855789 -6.850525l-0.020996094 -27.401306l0 0c-0.0013885498 -1.8168945 0.71902466 -3.5593262 2.0027618 -4.844055c1.2837372 -1.284729 3.02565 -2.0064697 4.842514 -2.0064697l64.2202 0c3.7834473 0 6.8528748 3.0670776 6.855774 6.850525l0.020996094 27.401306c0.00289917 3.7834473 -3.0618286 6.850525 -6.845276 6.850525z" fill-rule="evenodd" id="el_gfLSmIhqEsF"/><path d="m276.0295 9.738438l0 0c-18.142761 23.343815 -15.428284 55.797886 6.0629883 72.48819c21.491272 16.690308 53.621002 11.296577 71.763794 -12.047241l0 0c-19.526123 6.1699905 -40.02826 2.8035278 -55.338593 -9.086613c-15.310333 -11.890144 -23.641876 -30.916174 -22.48819 -51.354332z" fill-rule="evenodd" id="el_SCP_6pSg1NK"/><path d="m385.47983 576.042l0 0c-3.7834473 0 -6.8529053 -3.0670776 -6.8558044 -6.850525l-0.020996094 -27.401306l0 0c-0.001373291 -1.8168945 0.71902466 -3.5593262 2.002777 -4.844055c1.2837524 -1.284729 3.0256348 -2.0064697 4.8425293 -2.0064697l64.220184 0c3.7834473 0 6.8528748 3.0670776 6.855774 6.850525l0.020996094 27.401306c0.00289917 3.7834473 -3.0618286 6.850525 -6.845276 6.850525z" fill-rule="evenodd" id="el_bUVmm3cxhKx"/><path d="m283.53543 186.27612l0 0c0 -13.278305 10.764191 -24.051895 24.04248 -24.063492l96.16702 -0.083984375l0 0c6.376465 -0.005569458 12.49176 2.5221252 17.00058 7.0270386c4.50885 4.504898 7.0419006 10.617981 7.0419006 16.994446l0 176.32448c0 13.27829 -10.764191 24.05188 -24.04248 24.063477l-96.16702 0.08401489c-13.27829 0.01159668 -24.04248 -10.743195 -24.04248 -24.021515z" fill-rule="evenodd" id="el_ookma6AkQuT"/><path d="m401.00705 27.87792l-51.921234 193.2441l-141.55907 -141.37007z" fill-rule="evenodd" id="el_ZJiLcXknexx"/><path d="m380.65155 0.26862153l0 0c18.142761 23.343815 15.428284 55.797882 -6.0629883 72.48819c-21.491272 16.6903 -53.621002 11.29657 -71.763794 -12.047245l0 0c19.526123 6.1699867 40.02826 2.8035278 55.338593 -9.0866165c15.310333 -11.890141 23.641876 -30.916172 22.48819 -51.35433z" fill-rule="evenodd" id="el_eWdJLT2nb6j"/><path d="m306.07004 96.94613l0 0c-10.079254 -5.818817 -22.967224 -2.3650436 -28.786041 7.714218l0 0c-2.794281 4.8402405 -3.551361 10.592262 -2.1046448 15.9906845c1.4466858 5.39843 4.9786377 10.001053 9.818878 12.795349l0 0c10.079254 5.818817 22.967224 2.3650513 28.786041 -7.714218l0 0c5.818817 -10.079269 2.3650208 -22.967209 -7.7142334 -28.786034z" fill-rule="evenodd" id="el_OcsjqvKYHvI"/><path d="m297.0233 75.257935l-40.552765 29.90512l17.042358 23.096573l40.552795 -29.905113z" fill-rule="evenodd" id="el_O55UlEZWO50"/><path d="m301.79984 173.79413l32.263 -4.1764374l9.25528 -9.2659l-48.661407 6.2992096z" fill-rule="evenodd" id="el_dONc7P5_a0d"/><path d="m343.19952 160.4013l9.295807 -9.511963l-2.00943 -11.267715l-23.02362 23.559052z" fill-rule="evenodd" id="el_JdcQuEnO6pH"/><path d="m379.6664 81.18644l0 0c-7.1748962 4.0933685 -16.06665 3.8638535 -23.197235 -0.5987778c-7.130554 -4.462631 -11.366669 -12.449112 -11.051331 -20.835491c0.31536865 -8.386379 5.132019 -15.839787 12.5659485 -19.444782l3.2104187 6.5504837l0 0c-5.042053 2.4360886 -8.294739 7.5115204 -8.485291 13.240215c-0.19055176 5.728695 2.7113342 11.199749 7.5701294 14.272266c4.8588257 3.0725174 10.9019165 3.2579422 15.764587 0.4837265z" fill-rule="evenodd" id="el_ySgkq68vMUK"/><path d="m297.83728 59.96699l48.346436 -15.496059l13.228363 41.102364l-48.346466 15.496063z" fill-rule="evenodd" id="el_PdcHWNfyEjB"/><path d="m38.22124 183.4528l0 0c0 -44.445755 36.0304 -80.47615 80.47615 -80.47615l0 0c21.343605 0 41.813026 8.478714 56.90522 23.570915c15.092209 15.092201 23.570923 35.561638 23.570923 56.905235l0 0c0 44.445755 -36.030396 80.47615 -80.47614 80.47615l0 0c-44.445755 0 -80.47615 -36.030396 -80.47615 -80.47615z" fill-rule="evenodd" id="el_EAIFXXuyUGa"/><path d="m38.22124 182.4778l160.9523 0l0 106.94533l-160.9523 0z" fill-rule="evenodd" id="el_8Y3ni8AhFQc"/><path d="m-5.905016E-4 191.90138l34.470207 0l0 124.755844l-34.470207 0z" fill-rule="evenodd" id="el_oNGTBq1s3Gq"/><path d="m202.92517 191.90138l34.4702 0l0 124.755844l-34.4702 0z" fill-rule="evenodd" id="el_yDIGaHhtMW4"/><defs><linearGradient id="p.1" gradientUnits="userSpaceOnUse" gradientTransform="matrix(8.33107334843101 0.0 0.0 8.33107334843101 0.0 0.0)" spreadMethod="pad" x1="4.5877931677307195" y1="34.74012519917207" x2="4.587763016837316" y2="43.07119854754852"><stop offset="0.0" stop-color="#434343"/><stop offset="0.99999994" stop-color="#434343" stop-opacity="0.0"/><stop offset="1.0" stop-color="#ffffff" stop-opacity="0.0"/></linearGradient></defs><path d="m38.22124 289.42313l160.9523 0l0 69.40622l-160.9523 0z" fill-rule="evenodd" id="el_bRu4Ln74voj"/><g id="el_GWm3z5CAzF2_sPgbO6wLY" data-animator-group="true" data-animator-type="2"><path d="m134.12029 164.47775l0 0c0 -11.637314 9.433899 -21.071213 21.071213 -21.071213l0 0c5.58844 0 10.947983 2.219986 14.899597 6.1716156c3.9516296 3.9516144 6.1716156 9.311157 6.1716156 14.899597l0 0c0 11.637314 -9.433899 21.071213 -21.071213 21.071213l0 0c-11.637314 0 -21.071213 -9.433899 -21.071213 -21.071213z" fill-rule="evenodd" id="el_GWm3z5CAzF2"/></g><g id="el_Xah9_V6wdVG_zyRmVOgC0" data-animator-group="true" data-animator-type="2"><path d="m119.86173 145.80103l46.17034 -20.166992l11.480942 26.304764l-46.17035 20.166992z" fill-rule="evenodd" id="el_Xah9_V6wdVG"/></g><g id="el_q_MhD2X_wOs_x2Zo7qUyz" data-animator-group="true" data-animator-type="2"><path d="m150.39633 229.63255l0 0c-7.3927917 0 -13.385834 -5.9859924 -13.385834 -13.370087c0 -7.384094 5.993042 -13.370071 13.385834 -13.370071l0 0c-4.217743 3.153366 -6.700821 8.107834 -6.700821 13.370071c0 5.2622375 2.483078 10.216705 6.700821 13.370087z" fill-rule="evenodd" id="el_q_MhD2X_wOs"/></g><g id="el_X1HA6RepZqX_3a5UnKjLR" data-animator-group="true" data-animator-type="2"><path d="m143.69554 216.26247l0 0c0 -11.3414 9.194031 -20.53543 20.53543 -20.53543l0 0c5.446335 0 10.669601 2.1635437 14.520737 6.014694c3.8511505 3.8511353 6.014694 9.074402 6.014694 14.520737l0 0c0 11.3414 -9.194031 20.53543 -20.53543 20.53543l0 0c-11.3414 0 -20.53543 -9.194031 -20.53543 -20.53543z" fill-rule="evenodd" id="el_X1HA6RepZqX"/></g><path d="m558.23096 362.34647l0 0c0 -11.784973 9.55365 -21.338593 21.338623 -21.338593l0 0c5.6593018 0 11.086853 2.248169 15.088623 6.249939c4.00177 4.0017395 6.249939 9.429291 6.249939 15.088654l0 0c0 11.784973 -9.553589 21.338562 -21.338562 21.338562l0 0c-11.784973 0 -21.338623 -9.553589 -21.338623 -21.338562z" fill-rule="evenodd" id="el_DqUVO1TcoHe"/><path d="m500.60428 398.02625l118.675995 0l0 0c7.8688965 0 15.415588 3.1259155 20.979736 8.6901245c5.564209 5.5641785 8.6901245 13.110809 8.6901245 20.979767l0 148.34586c0 7.9345703E-4 -6.713867E-4 0.0014648438 -0.0014648438 0.0014648438l-178.01428 -0.0014648438l0 0c-8.239746E-4 0 -0.0014953613 -6.713867E-4 -0.0014953613 -0.0014648438l0.0014953613 -148.34439l0 0c0 -16.38623 13.283661 -29.669891 29.669891 -29.669891z" fill-rule="evenodd" id="el_hpq09yVzYnO"/><path d="m529.55383 356.34647l0 0c0 -11.784973 9.553589 -21.338593 21.338562 -21.338593l0 0c5.659363 0 11.086914 2.248169 15.088623 6.249939c4.00177 4.0017395 6.249939 9.429291 6.249939 15.088654l0 0c0 11.784973 -9.553589 21.338562 -21.338562 21.338562l0 0c-11.784973 0 -21.338562 -9.553589 -21.338562 -21.338562z" fill-rule="evenodd" id="el_3ITYu-ypH8O"/><path d="m507.52493 378.88977l0 0c0 -11.784973 9.553619 -21.338593 21.338593 -21.338593l0 0c5.659363 0 11.086914 2.248169 15.088623 6.249939c4.00177 4.0017395 6.249939 9.429291 6.249939 15.088654l0 0c0 11.784973 -9.553589 21.338562 -21.338562 21.338562l0 0c-11.784973 0 -21.338593 -9.553589 -21.338593 -21.338562z" fill-rule="evenodd" id="el_8jGevTmM-MJ"/><path d="m538.6037 380.16797l0 0c0 -11.784973 9.553589 -21.338562 21.338562 -21.338562l0 0c5.659363 0 11.086914 2.248169 15.088623 6.2499084c4.00177 4.00177 6.249939 9.429321 6.249939 15.088654l0 0c0 11.784973 -9.553589 21.338593 -21.338562 21.338593l0 0c-11.784973 0 -21.338562 -9.553619 -21.338562 -21.338593z" fill-rule="evenodd" id="el_bzcCSTmpDKB"/><path d="m572.23096 378.88977l0 0c0 -11.784973 9.55365 -21.338593 21.338623 -21.338593l0 0c5.6593018 0 11.086853 2.248169 15.088623 6.249939c4.00177 4.0017395 6.249939 9.429291 6.249939 15.088654l0 0c0 11.784973 -9.553589 21.338562 -21.338562 21.338562l0 0c-11.784973 0 -21.338623 -9.553589 -21.338623 -21.338562z" fill-rule="evenodd" id="el_wgaK3_xiE6d"/><g id="el_DjXkTfZF3Bc_INGIpbPIQ" data-animator-group="true" data-animator-type="1"><path d="m406.44135 161.1798l0 0c-3.780548 0 -6.8476562 3.064743 -6.8505554 6.845276l-0.020996094 27.38031l0 0c-0.001373291 1.8154755 0.71847534 3.55661 2.0012207 4.8403473c1.2827759 1.2837372 3.023346 2.0049286 4.838806 2.0049286l227.34885 0c3.7805176 0 6.847595 -3.0647278 6.850525 -6.845276l0.020996094 -27.38031c0.0028686523 -3.7805328 -3.0595093 -6.845276 -6.840027 -6.845276z" fill-rule="evenodd" id="el_DjXkTfZF3Bc"/></g></g></g><script>(function(){var a=document.querySelector('#el_CYwrzDtu9F'),b=a.querySelectorAll('style'),c=function(d){b.forEach(function(f){var g=f.textContent;g&amp;&amp;(f.textContent=g.replace(/transform-box:[^;\r\n]*/gi,'transform-box: '+d))})};c('initial'),window.requestAnimationFrame(function(){return c('fill-box')})})();</script></svg>