<svg version="1.1" viewBox="0.0 0.0 322.8635170603674 281.38057742782155" fill="none" stroke="none" stroke-linecap="square" stroke-miterlimit="10" xmlns:xlink="http://www.w3.org/1999/xlink" xmlns="http://www.w3.org/2000/svg"><clipPath id="p.0"><path d="m0 0l322.86353 0l0 281.38058l-322.86353 0l0 -281.38058z" clip-rule="nonzero"/></clipPath><g clip-path="url(#p.0)"><path fill="#000000" fill-opacity="0.0" d="m0 0l322.86353 0l0 281.38058l-322.86353 0z" fill-rule="evenodd"/><path fill="#6aa84f" d="m2.9553807 115.833336l0 0c0 -7.888542 6.394925 -14.28347 14.283465 -14.28347l57.574806 0l0 0c3.788208 0 7.4212646 1.5048676 10.09993 4.1835327c2.6786728 2.6786728 4.1835327 6.311722 4.1835327 10.099937l0 0l0 0c0 7.8885345 -6.394928 14.283455 -14.283463 14.283455l-57.574806 0c-7.8885403 0 -14.283465 -6.3949203 -14.283465 -14.283455z" fill-rule="evenodd"/><path fill="#6aa84f" d="m8.824147 182.40945l0 0c0 -7.88855 6.394925 -14.283463 14.2834635 -14.283463l57.5748 0l0 0c3.7882156 0 7.4212723 1.5048523 10.099937 4.1835175c2.6786728 2.6786804 4.1835327 6.311722 4.1835327 10.099945l0 0l0 0c0 7.8885345 -6.394928 14.283463 -14.28347 14.283463l-57.5748 0c-7.8885384 0 -14.2834635 -6.394928 -14.2834635 -14.283463z" fill-rule="evenodd"/><path fill="#6aa84f" d="m235.31364 97.88976l0 0c0 -7.888542 6.394928 -14.283463 14.283463 -14.283463l57.5748 0l0 0c3.788208 0 7.4212646 1.5048599 10.099945 4.183525c2.6786804 2.6786728 4.1835327 6.3117294 4.1835327 10.099937l0 0l0 0c0 7.888542 -6.394928 14.283463 -14.283478 14.283463l-57.5748 0c-7.8885345 0 -14.283463 -6.3949203 -14.283463 -14.283463z" fill-rule="evenodd"/><path fill="#629c49" d="m206.38058 109.05118l0 0c0 -7.8885345 6.3949127 -14.283463 14.283463 -14.283463l57.574783 0l0 0c3.7882385 0 7.421295 1.5048599 10.099945 4.1835327c2.6786804 2.6786652 4.1835327 6.311722 4.1835327 10.09993l0 0l0 0c0 7.888542 -6.394928 14.28347 -14.283478 14.28347l-57.574783 0c-7.88855 0 -14.283463 -6.394928 -14.283463 -14.28347z" fill-rule="evenodd"/><path fill="#434343" d="m219.38693 38.93821l0 0c0 -16.664215 13.509003 -30.17323 30.173218 -30.17323l0 0c8.002441 0 15.677124 3.178956 21.335693 8.837533c5.6585693 5.658579 8.837524 13.333258 8.837524 21.335695l0 0c0 16.664215 -13.509003 30.173225 -30.173218 30.173225l0 0c-16.664215 0 -30.173218 -13.50901 -30.173218 -30.173225z" fill-rule="evenodd"/><path fill="#434343" d="m219.38693 38.57418l60.346436 0l0 40.09449l-60.346436 0z" fill-rule="evenodd"/><path fill="#434343" d="m205.05553 42.107586l12.913391 0l0 46.771656l-12.913391 0z" fill-rule="evenodd"/><defs><linearGradient id="p.1" gradientUnits="userSpaceOnUse" gradientTransform="matrix(5.100584104828694 0.0 0.0 5.100584104828694 0.0 0.0)" spreadMethod="pad" x1="43.01211567949177" y1="15.42439986498947" x2="43.01209959878499" y2="20.524983969792814"><stop offset="0.0" stop-color="#434343"/><stop offset="0.99999994" stop-color="#434343" stop-opacity="0.0"/><stop offset="1.0" stop-color="#ffffff" stop-opacity="0.0"/></linearGradient></defs><path fill="url(#p.1)" d="m219.38693 78.67367l60.346436 0l0 26.015747l-60.346436 0z" fill-rule="evenodd"/><path fill="#ffffff" d="m228.33977 40.3797l0 0c0 -4.3660927 3.5394135 -7.90551 7.9055176 -7.90551l0 0c2.0966644 0 4.1074677 0.8328972 5.590042 2.3154716c1.4825592 1.4825706 2.3154602 3.4933662 2.3154602 5.5900383l0 0c0 4.3660927 -3.5394135 7.905514 -7.9055023 7.905514l0 0c-4.366104 0 -7.9055176 -3.539421 -7.9055176 -7.905514z" fill-rule="evenodd"/><path fill="#ffffff" d="m252.54678 40.3797l0 0c0 -4.3660927 3.5394287 -7.90551 7.9055176 -7.90551l0 0c2.0966797 0 4.1074524 0.8328972 5.590027 2.3154716c1.4825745 1.4825706 2.3154907 3.4933662 2.3154907 5.5900383l0 0c0 4.3660927 -3.5394287 7.905514 -7.9055176 7.905514l0 0c-4.366089 0 -7.9055176 -3.539421 -7.9055176 -7.905514z" fill-rule="evenodd"/><path fill="#434343" d="m225.474 36.010468l16.18898 -7.0866127l2.9606323 6.740158l-16.18898 7.0866127z" fill-rule="evenodd"/><path fill="#434343" d="m273.6418 33.37201l-17.322845 -7.5590553l-4.3149567 9.858269l17.32283 7.5590553z" fill-rule="evenodd"/><path fill="#2c2c2c" d="m249.17351 58.740158l0 0c0 -4.3660927 3.5394135 -7.905514 7.9055023 -7.905514l0 0c2.0966797 0 4.107483 0.832901 5.5900574 2.3154716c1.4825745 1.4825706 2.3154602 3.49337 2.3154602 5.590042l0 0c0 4.3660927 -3.5393982 7.90551 -7.9055176 7.90551l0 0c-4.366089 0 -7.9055023 -3.5394173 -7.9055023 -7.90551z" fill-rule="evenodd"/><path fill="#2c2c2c" d="m231.0869 59.33858l0 0c0 -4.3660927 3.5394135 -7.90551 7.9055023 -7.90551l0 0c2.0966797 0 4.107483 0.832901 5.590042 2.3154716c1.4825745 1.4825706 2.3154755 3.4933662 2.3154755 5.5900383l0 0c0 4.3660965 -3.5394135 7.905514 -7.9055176 7.905514l0 0c-4.366089 0 -7.9055023 -3.5394173 -7.9055023 -7.905514z" fill-rule="evenodd"/><path fill="#434343" d="m281.15002 42.107586l12.913391 0l0 46.771656l-12.913391 0z" fill-rule="evenodd"/><path fill="#434343" d="m229.14723 45.66139l16.188965 -7.0866165l2.9606323 6.740158l-16.18898 7.0866165z" fill-rule="evenodd"/><path fill="#6aa84f" d="m231.3727 168.82283l0 0c0 -7.8885345 6.394928 -14.283463 14.283478 -14.283463l57.574783 0l0 0c3.7882385 0 7.4212646 1.5048676 10.099945 4.1835327c2.6786804 2.6786652 4.1835327 6.311722 4.1835327 10.09993l0 0l0 0c0 7.88855 -6.394928 14.283463 -14.283478 14.283463l-57.574783 0c-7.88855 0 -14.283478 -6.3949127 -14.283478 -14.283463z" fill-rule="evenodd"/><path fill="#434343" d="m250.06369 167.07108l0 0c-16.659958 -0.10218811 -30.082703 -13.690582 -29.98053 -30.350555l0 0c0.049072266 -8.000397 3.2742767 -15.653618 8.96611 -21.276062c5.691818 -5.6224365 13.384033 -8.753525 21.38443 -8.70446l0 0c16.659958 0.10218048 30.082718 13.690582 29.980545 30.350548l0 0c-0.10220337 16.659958 -13.690582 30.082703 -30.350555 29.98053z" fill-rule="evenodd"/><path fill="#434343" d="m249.69821 167.06883l0.37002563 -60.33107l40.08719 0.24585724l-0.37002563 60.331062z" fill-rule="evenodd"/><defs><linearGradient id="p.2" gradientUnits="userSpaceOnUse" gradientTransform="matrix(0.03128255163640653 -5.1006200613462935 5.1006200613462935 0.03128255163640653 0.0 0.0)" spreadMethod="pad" x1="-32.45314880532125" y1="57.01275612835198" x2="-32.453166895648614" y2="62.11337618966619"><stop offset="0.0" stop-color="#434343"/><stop offset="0.99999994" stop-color="#434343" stop-opacity="0.0"/><stop offset="1.0" stop-color="#ffffff" stop-opacity="0.0"/></linearGradient></defs><path fill="url(#p.2)" d="m289.7854 167.31468l0.37002563 -60.331062l26.016113 0.15956116l-0.37002563 60.331062z" fill-rule="evenodd"/><path fill="#ffffff" d="m243.17761 130.09789l0 0c-4.3621063 -0.026763916 -7.8766174 -3.5846329 -7.8498535 -7.946739l0 0c0.0128479 -2.0947647 0.8572998 -4.0986176 2.3476105 -5.570755c1.4902954 -1.4721298 3.504364 -2.291954 5.599121 -2.2791061l0 0c4.3621063 0.026756287 7.876602 3.5846329 7.8498535 7.946739l0 0c-0.026748657 4.3621063 -3.5846252 7.87661 -7.9467316 7.849861z" fill-rule="evenodd"/><path fill="#2c2c2c" d="m237.22179 57.75853l19.401566 0l0 2.5196838l-19.401566 0z" fill-rule="evenodd"/><path fill="#629c49" d="m41.74803 263.9344l0 0c0 -7.88855 6.394924 -14.283463 14.283466 -14.283463l57.574802 0l0 0c3.788208 0 7.4212646 1.5048523 10.09993 4.1835175c2.6786728 2.6786804 4.1835327 6.311737 4.1835327 10.099945l0 0l0 0c0 7.88855 -6.3949203 14.283447 -14.283463 14.283447l-57.574802 0c-7.888542 0 -14.283466 -6.3948975 -14.283466 -14.283447z" fill-rule="evenodd"/><path fill="#6aa84f" d="m103.314964 98.4042l0 0c0 -7.8885345 6.3949203 -14.283463 14.283463 -14.283463l57.574806 0l0 0c3.788208 0 7.4212646 1.5048599 10.09993 4.1835327c2.6786652 2.6786652 4.1835327 6.311722 4.1835327 10.09993l0 0l0 0c0 7.888542 -6.394928 14.28347 -14.283463 14.28347l-57.574806 0c-7.888542 0 -14.283463 -6.394928 -14.283463 -14.28347z" fill-rule="evenodd"/><path fill="#434343" d="m121.61921 30.173117l0 0c0 -16.664213 13.50901 -30.173227 30.173225 -30.173227l0 0c8.002441 0 15.677124 3.178956 21.335693 8.837534c5.6585846 5.658578 8.83754 13.333256 8.83754 21.335693l0 0c0 16.664213 -13.509018 30.173227 -30.173233 30.173227l0 0c-16.664215 0 -30.173225 -13.509014 -30.173225 -30.173227z" fill-rule="evenodd"/><path fill="#434343" d="m116.90267 114.33716l0 0c0 -16.664215 13.50901 -30.173225 30.173225 -30.173225l0 0c8.002441 0 15.677124 3.178955 21.335693 8.837532c5.6585846 5.658577 8.83754 13.33326 8.83754 21.335693l0 0c0 16.664215 -13.509018 30.173233 -30.173233 30.173233l0 0c-16.664215 0 -30.173225 -13.509018 -30.173225 -30.173233z" fill-rule="evenodd"/><path fill="#434343" d="m116.90267 113.97313l60.34646 0l0 40.094498l-60.34646 0z" fill-rule="evenodd"/><defs><linearGradient id="p.3" gradientUnits="userSpaceOnUse" gradientTransform="matrix(5.1005866174456385 0.0 0.0 5.1005866174456385 0.0 0.0)" spreadMethod="pad" x1="22.919458261285" y1="30.206798813264243" x2="22.919438160411435" y2="35.30738543067027"><stop offset="0.0" stop-color="#434343"/><stop offset="0.99999994" stop-color="#434343" stop-opacity="0.0"/><stop offset="1.0" stop-color="#ffffff" stop-opacity="0.0"/></linearGradient></defs><path fill="url(#p.3)" d="m116.90267 154.07262l60.34646 0l0 26.015747l-60.34646 0z" fill-rule="evenodd"/><path fill="#ffffff" d="m127.07309 107.22875l0 0c0 -4.3660965 3.5394287 -7.90551 7.9055176 -7.90551l0 0c2.0966644 0 4.1074677 0.832901 5.590042 2.3154678c1.4825745 1.4825745 2.3154602 3.49337 2.3154602 5.590042l0 0c0 4.3660965 -3.5394135 7.90551 -7.9055023 7.90551l0 0c-4.366089 0 -7.9055176 -3.5394135 -7.9055176 -7.90551z" fill-rule="evenodd"/><path fill="#ffffff" d="m151.2801 107.22875l0 0c0 -4.3660965 3.5394135 -7.90551 7.9055176 -7.90551l0 0c2.0966644 0 4.1074677 0.832901 5.590042 2.3154678c1.4825592 1.4825745 2.3154602 3.49337 2.3154602 5.590042l0 0c0 4.3660965 -3.5394135 7.90551 -7.9055023 7.90551l0 0c-4.366104 0 -7.9055176 -3.5394135 -7.9055176 -7.90551z" fill-rule="evenodd"/><path fill="#434343" d="m121.72681 100.22106l17.32283 -7.559059l4.3149567 9.858269l-17.32283 7.559059z" fill-rule="evenodd"/><path fill="#434343" d="m172.37514 100.22106l-17.322845 -7.559059l-4.3149567 9.858269l17.32283 7.559059z" fill-rule="evenodd"/><path fill="#434343" d="m108.001595 136.33989l0 0c0 -8.845245 7.170494 -16.01574 16.015747 -16.01574l0 0c4.2476425 0 8.321312 1.6873627 11.324852 4.6909027c3.0035248 3.0035324 4.6909027 7.077202 4.6909027 11.324837l0 0c0 8.845261 -7.1705017 16.015747 -16.015755 16.015747l0 0c-8.845253 0 -16.015747 -7.1704865 -16.015747 -16.015747z" fill-rule="evenodd"/><path fill="#434343" d="m157.1916 136.33989l0 0c0 -8.845245 7.1704865 -16.01574 16.015747 -16.01574l0 0c4.247635 0 8.321304 1.6873627 11.324844 4.6909027c3.00354 3.0035324 4.6909027 7.077202 4.6909027 11.324837l0 0c0 8.845261 -7.1705017 16.015747 -16.015747 16.015747l0 0c-8.845261 0 -16.015747 -7.1704865 -16.015747 -16.015747z" fill-rule="evenodd"/><path fill="#2c2c2c" d="m106.74398 124.404045l8.377953 -9.858261l35.653534 30.299217l-8.377945 9.858261z" fill-rule="evenodd"/><path fill="#2c2c2c" d="m187.63533 124.40142l-8.377945 -9.858261l-35.65355 30.299202l8.37796 9.858276z" fill-rule="evenodd"/><path fill="#434343" d="m121.61921 29.80909l60.34646 0l0 40.09449l-60.34646 0z" fill-rule="evenodd"/><path fill="#434343" d="m107.28781 33.342495l12.913391 0l0 46.771656l-12.913391 0z" fill-rule="evenodd"/><defs><linearGradient id="p.4" gradientUnits="userSpaceOnUse" gradientTransform="matrix(5.1005851098761354 0.0 0.0 5.1005851098761354 0.0 0.0)" spreadMethod="pad" x1="23.844167805684123" y1="13.705948515398415" x2="23.844149714892566" y2="18.806533625242466"><stop offset="0.0" stop-color="#434343"/><stop offset="0.99999994" stop-color="#434343" stop-opacity="0.0"/><stop offset="1.0" stop-color="#ffffff" stop-opacity="0.0"/></linearGradient></defs><path fill="url(#p.4)" d="m121.61921 69.90857l60.34646 0l0 26.015755l-60.34646 0z" fill-rule="evenodd"/><path fill="#ffffff" d="m124.797775 31.614609l0 0c0 -4.3660946 3.5394135 -7.905512 7.9055176 -7.905512l0 0c2.0966644 0 4.1074677 0.8328991 5.590027 2.3154716c1.4825745 1.4825706 2.3154755 3.4933681 2.3154755 5.59004l0 0c0 4.3660927 -3.5394135 7.90551 -7.9055023 7.90551l0 0c-4.366104 0 -7.9055176 -3.5394173 -7.9055176 -7.90551z" fill-rule="evenodd"/><path fill="#ffffff" d="m149.00479 31.614609l0 0c0 -4.3660946 3.5394135 -7.905512 7.9055023 -7.905512l0 0c2.0966797 0 4.107483 0.8328991 5.590042 2.3154716c1.4825745 1.4825706 2.3154755 3.4933681 2.3154755 5.59004l0 0c0 4.3660927 -3.5394135 7.90551 -7.9055176 7.90551l0 0c-4.366089 0 -7.9055023 -3.5394173 -7.9055023 -7.90551z" fill-rule="evenodd"/><path fill="#434343" d="m121.93201 27.245377l16.18898 -7.0866127l2.960617 6.740156l-16.188972 7.0866146z" fill-rule="evenodd"/><path fill="#434343" d="m170.09981 24.606916l-17.32283 -7.5590553l-4.3149567 9.858269l17.32283 7.5590534z" fill-rule="evenodd"/><path fill="#434343" d="m30.16474 186.21542l0 0c-16.659966 -0.10217285 -30.082703 -13.690582 -29.980526 -30.35054l0 0c0.04906714 -8.000397 3.2742698 -15.6536255 8.966101 -21.276062c5.6918306 -5.6224365 13.384045 -8.753532 21.384441 -8.70446l0 0c16.659966 0.10217285 30.082703 13.690575 29.980526 30.350533l0 0c-0.102176666 16.659973 -13.690578 30.082703 -30.350542 29.98053z" fill-rule="evenodd"/><path fill="#434343" d="m29.799267 186.21318l0.3700161 -60.331062l40.087196 0.24585724l-0.370018 60.33107z" fill-rule="evenodd"/><defs><linearGradient id="p.5" gradientUnits="userSpaceOnUse" gradientTransform="matrix(0.03128254865132562 -5.100619558833511 5.100619558833511 0.03128254865132562 0.0 0.0)" spreadMethod="pad" x1="-36.47075481133562" y1="13.925198698626472" x2="-36.47077089162819" y2="19.025818257434636"><stop offset="0.0" stop-color="#434343"/><stop offset="0.99999994" stop-color="#434343" stop-opacity="0.0"/><stop offset="1.0" stop-color="#ffffff" stop-opacity="0.0"/></linearGradient></defs><path fill="url(#p.5)" d="m69.88646 186.45905l0.370018 -60.33107l26.016098 0.15956116l-0.37001038 60.33107z" fill-rule="evenodd"/><path fill="#ffffff" d="m23.278656 149.24223l0 0c-4.362108 -0.026748657 -7.876608 -3.5846252 -7.8498545 -7.9467316l0 0c0.0128479 -2.094757 0.8573084 -4.0986176 2.3476114 -5.570755c1.4903011 -1.4721375 3.5043678 -2.2919464 5.599125 -2.2790985l0 0c4.36211 0.026748657 7.87661 3.5846252 7.8498554 7.9467316l0 0c-0.026752472 4.3621063 -3.5846272 7.8766174 -7.9467373 7.8498535z" fill-rule="evenodd"/><path fill="#434343" d="m16.255539 154.54329l-7.433071 -17.35434l9.889765 -4.2834625l7.433069 17.35434z" fill-rule="evenodd"/><path fill="#434343" d="m73.140915 210.27788l0 0c16.664215 0 30.173233 13.509018 30.173233 30.173233l0 0c0 8.002441 -3.178955 15.677124 -8.837532 21.335693c-5.6585846 5.6585693 -13.33326 8.837524 -21.335701 8.837524l0 0c-16.664211 0 -30.173225 -13.509003 -30.173225 -30.173218l0 0c0 -16.664215 13.509014 -30.173233 30.173225 -30.173233z" fill-rule="evenodd"/><path fill="#434343" d="m73.504944 210.27788l0 60.34645l-40.094486 0l0 -60.34645z" fill-rule="evenodd"/><path fill="#2c2c2c" d="m38.7972 238.11713l9.133858 -9.133865l33.070866 33.070877l-9.133858 9.13385z" fill-rule="evenodd"/><defs><linearGradient id="p.6" gradientUnits="userSpaceOnUse" gradientTransform="matrix(0.0 5.100584921434149 -5.100584921434149 0.0 0.0 0.0)" spreadMethod="pad" x1="41.22623000657404" y1="-6.549382373568622" x2="41.22620990569379" y2="-1.44879745217408"><stop offset="0.0" stop-color="#434343"/><stop offset="0.99999994" stop-color="#434343" stop-opacity="0.0"/><stop offset="1.0" stop-color="#ffffff" stop-opacity="0.0"/></linearGradient></defs><path fill="url(#p.6)" d="m33.405464 210.27788l0 60.34645l-26.01575 0l0 -60.34645z" fill-rule="evenodd"/><path fill="#ffffff" d="m77.18216 232.1221l0 0c-1.130661 -4.218231 1.3723145 -8.554367 5.5905533 -9.685028l0 0c2.025673 -0.54296875 4.184067 -0.2590027 6.0003586 0.7894287c1.8162994 1.0484314 3.141716 2.7754517 3.6846848 4.801117l0 0c1.130661 4.218231 -1.3723145 8.554382 -5.5905533 9.685043l0 0c-4.218239 1.130661 -8.554382 -1.3723145 -9.685043 -5.590561z" fill-rule="evenodd"/><path fill="#434343" d="m70.2031 226.73524l14.77166 -11.779526l6.7086563 8.409439l-14.771652 11.779526z" fill-rule="evenodd"/><path fill="#2c2c2c" d="m71.09691 270.40805l0 -12.944885l46.77166 0l0 12.944885z" fill-rule="evenodd"/><path fill="#434343" d="m17.960417 30.291227l0 0c0 -16.664213 13.509014 -30.173227 30.173227 -30.173227l0 0c8.002438 0 15.677116 3.1789558 21.335693 8.837534c5.658577 5.658578 8.837532 13.333257 8.837532 21.335693l0 0c0 16.664213 -13.50901 30.173227 -30.173225 30.173227l0 0c-16.664213 0 -30.173227 -13.509014 -30.173227 -30.173227z" fill-rule="evenodd"/><path fill="#434343" d="m17.960417 29.9272l60.34645 0l0 40.09449l-60.34645 0z" fill-rule="evenodd"/><defs><linearGradient id="p.7" gradientUnits="userSpaceOnUse" gradientTransform="matrix(5.100584104832509 0.0 0.0 5.100584104832509 0.0 0.0)" spreadMethod="pad" x1="3.521246886352361" y1="13.72910743384165" x2="3.5212285442961946" y2="18.82969153864118"><stop offset="0.0" stop-color="#434343"/><stop offset="0.99999994" stop-color="#434343" stop-opacity="0.0"/><stop offset="1.0" stop-color="#ffffff" stop-opacity="0.0"/></linearGradient></defs><path fill="url(#p.7)" d="m17.960417 70.02668l60.34645 0l0 26.015755l-60.34645 0z" fill-rule="evenodd"/><path fill="#ffffff" d="m28.130835 23.182821l0 0c0 -4.3660927 3.5394192 -7.905512 7.905512 -7.905512l0 0c2.096672 0 4.1074715 0.8328991 5.590042 2.3154716c1.4825706 1.4825706 2.3154716 3.4933681 2.3154716 5.59004l0 0c0 4.3660927 -3.539421 7.905512 -7.905514 7.905512l0 0c-4.3660927 0 -7.905512 -3.5394192 -7.905512 -7.905512z" fill-rule="evenodd"/><path fill="#ffffff" d="m52.33785 23.182821l0 0c0 -4.3660927 3.539421 -7.905512 7.905514 -7.905512l0 0c2.096672 0 4.1074677 0.8328991 5.590042 2.3154716c1.4825668 1.4825706 2.3154678 3.4933681 2.3154678 5.59004l0 0c0 4.3660927 -3.5394135 7.905512 -7.90551 7.905512l0 0c-4.3660927 0 -7.905514 -3.5394192 -7.905514 -7.905512z" fill-rule="evenodd"/><path fill="#434343" d="m22.784546 16.175129l17.322834 -7.5590544l4.3149605 9.858268l-17.322834 7.5590553z" fill-rule="evenodd"/><path fill="#434343" d="m73.43288 16.175129l-17.322834 -7.5590544l-4.3149643 9.858268l17.322834 7.5590553z" fill-rule="evenodd"/><path fill="#434343" d="m9.059337 52.293964l0 0c0 -8.845253 7.170495 -16.01575 16.015747 -16.01575l0 0c4.2476406 0 8.321308 1.6873703 11.324844 4.6909065c3.0035362 3.0035362 4.6909027 7.077202 4.6909027 11.324844l0 0c0 8.845253 -7.170494 16.015743 -16.015747 16.015743l0 0c-8.845253 0 -16.015747 -7.1704903 -16.015747 -16.015743z" fill-rule="evenodd"/><path fill="#434343" d="m58.249344 52.293964l0 0c0 -8.845253 7.170494 -16.01575 16.015747 -16.01575l0 0c4.2476425 0 8.321312 1.6873703 11.324844 4.6909065c3.0035324 3.0035362 4.6909027 7.077202 4.6909027 11.324844l0 0c0 8.845253 -7.170494 16.015743 -16.015747 16.015743l0 0c-8.845253 0 -16.015747 -7.1704903 -16.015747 -16.015743z" fill-rule="evenodd"/><path fill="#2c2c2c" d="m7.801721 40.358116l8.377953 -9.858267l35.65354 30.299212l-8.377953 9.858273z" fill-rule="evenodd"/><path fill="#2c2c2c" d="m88.69308 40.35549l-8.377953 -9.858267l-35.65354 30.299212l8.377953 9.858265z" fill-rule="evenodd"/><path fill="#2c2c2c" d="m145.63152 49.975067l0 0c0 -4.3660965 3.5394135 -7.905514 7.9055176 -7.905514l0 0c2.0966644 0 4.1074677 0.832901 5.590042 2.3154716c1.4825592 1.4825706 2.3154602 3.49337 2.3154602 5.590042l0 0c0 4.3660927 -3.5394135 7.90551 -7.9055023 7.90551l0 0c-4.366104 0 -7.9055176 -3.5394173 -7.9055176 -7.90551z" fill-rule="evenodd"/><path fill="#2c2c2c" d="m127.5449 50.57349l0 0c0 -4.3660927 3.539421 -7.90551 7.90551 -7.90551l0 0c2.0966797 0 4.1074677 0.8328972 5.590042 2.3154678c1.4825745 1.4825745 2.3154755 3.49337 2.3154755 5.590042l0 0c0 4.3660927 -3.5394135 7.905514 -7.9055176 7.905514l0 0c-4.366089 0 -7.90551 -3.539421 -7.90551 -7.905514z" fill-rule="evenodd"/><path fill="#2c2c2c" d="m133.6798 48.99344l19.401566 0l0 2.5196838l-19.401566 0z" fill-rule="evenodd"/><path fill="#434343" d="m183.3823 33.342495l12.913391 0l0 46.771656l-12.913391 0z" fill-rule="evenodd"/><path fill="#434343" d="m33.265903 131.87848l0 0c-0.6870918 -8.819168 7.0968056 -16.617165 17.38583 -17.417328l0 0c10.289021 -0.80016327 19.18692 5.7005234 19.874016 14.519684l0 0c0.68709564 8.819168 -7.0968056 16.617157 -17.38583 17.417328l0 0c-10.289021 0.80015564 -19.18692 -5.700531 -19.874016 -14.519684z" fill-rule="evenodd"/><path fill="#2c2c2c" d="m90.925476 248.60498l0 0c0 -4.366089 3.539421 -7.9055023 7.9055176 -7.9055023l0 0c2.096672 0 4.1074677 0.832901 5.5900345 2.3154602c1.4825745 1.4825745 2.3154755 3.4933777 2.3154755 5.590042l0 0c0 4.366104 -3.539421 7.9055176 -7.90551 7.9055176l0 0c-4.3660965 0 -7.9055176 -3.5394135 -7.9055176 -7.9055176z" fill-rule="evenodd"/><path fill="#629c49" d="m142.45145 240.30971l0 0c0 -7.8885345 6.394928 -14.283463 14.283463 -14.283463l57.5748 0l0 0c3.788208 0 7.4212646 1.5048676 10.099945 4.1835327c2.6786652 2.6786652 4.1835175 6.311722 4.1835175 10.09993l0 0l0 0c0 7.88855 -6.3949127 14.283463 -14.283463 14.283463l-57.5748 0c-7.8885345 0 -14.283463 -6.3949127 -14.283463 -14.283463z" fill-rule="evenodd"/><path fill="#6aa84f" d="m169.22047 223.22572l0 0c0 -7.8885345 6.394928 -14.283463 14.283463 -14.283463l57.5748 0l0 0c3.788208 0 7.4212646 1.5048523 10.099945 4.1835327c2.6786652 2.6786652 4.1835175 6.311722 4.1835175 10.09993l0 0l0 0c0 7.8885345 -6.3949127 14.283463 -14.283463 14.283463l-57.5748 0c-7.8885345 0 -14.283463 -6.394928 -14.283463 -14.283463z" fill-rule="evenodd"/><path fill="#434343" d="m203.1559 166.63506l0 0c0 -16.664215 -13.509018 -30.173218 -30.173233 -30.173218l0 0c-8.002441 0 -15.677124 3.178955 -21.335693 8.837524c-5.6585846 5.6585846 -8.83754 13.333267 -8.83754 21.335693l0 0c0 16.664215 13.509018 30.173233 30.173233 30.173233l0 0c16.664215 0 30.173233 -13.509018 30.173233 -30.173233z" fill-rule="evenodd"/><path fill="#434343" d="m203.1559 166.27103l-60.346466 0l0 40.094498l60.346466 0z" fill-rule="evenodd"/><path fill="#434343" d="m217.48729 169.80444l-12.913391 0l0 46.771652l12.913391 0z" fill-rule="evenodd"/><defs><linearGradient id="p.8" gradientUnits="userSpaceOnUse" gradientTransform="matrix(-5.1005856124018605 0.0 0.0 5.1005856124018605 0.0 0.0)" spreadMethod="pad" x1="-39.829912944024855" y1="40.46011565630233" x2="-39.82993304490238" y2="45.56070126866458"><stop offset="0.0" stop-color="#434343"/><stop offset="0.99999994" stop-color="#434343" stop-opacity="0.0"/><stop offset="1.0" stop-color="#ffffff" stop-opacity="0.0"/></linearGradient></defs><path fill="url(#p.8)" d="m203.1559 206.37051l-60.346466 0l0 26.015747l60.346466 0z" fill-rule="evenodd"/><path fill="#ffffff" d="m199.97733 168.07655l0 0c0 -4.366089 -3.5394135 -7.9055176 -7.9055176 -7.9055176l0 0c-2.0966644 0 -4.1074677 0.832901 -5.590027 2.3154755c-1.4825745 1.4825745 -2.3154755 3.4933624 -2.3154755 5.590042l0 0c0 4.366089 3.5394135 7.9055023 7.9055023 7.9055023l0 0c4.366104 0 7.9055176 -3.5394135 7.9055176 -7.9055023z" fill-rule="evenodd"/><path fill="#ffffff" d="m175.77031 168.07655l0 0c0 -4.366089 -3.5394135 -7.9055176 -7.9055023 -7.9055176l0 0c-2.0966797 0 -4.107483 0.832901 -5.590042 2.3154755c-1.4825745 1.4825745 -2.3154755 3.4933624 -2.3154755 5.590042l0 0c0 4.366089 3.5394135 7.9055023 7.9055176 7.9055023l0 0c4.366089 0 7.9055023 -3.5394135 7.9055023 -7.9055023z" fill-rule="evenodd"/><path fill="#434343" d="m202.8431 163.70732l-16.18898 -7.086609l-2.960617 6.740158l16.188965 7.086609z" fill-rule="evenodd"/><path fill="#434343" d="m154.6753 161.06886l17.32283 -7.5590515l4.3149567 9.858261l-17.32283 7.5590515z" fill-rule="evenodd"/><path fill="#2c2c2c" d="m179.14359 186.43701l0 0c0 -4.366104 -3.5394135 -7.9055176 -7.9055176 -7.9055176l0 0c-2.0966644 0 -4.1074677 0.832901 -5.590042 2.3154755c-1.4825592 1.4825745 -2.3154602 3.4933624 -2.3154602 5.590042l0 0c0 4.366089 3.5394135 7.9055023 7.9055023 7.9055023l0 0c4.366104 0 7.9055176 -3.5394135 7.9055176 -7.9055023z" fill-rule="evenodd"/><path fill="#2c2c2c" d="m197.2302 187.03543l0 0c0 -4.366089 -3.5394135 -7.9055023 -7.9055023 -7.9055023l0 0c-2.0966797 0 -4.1074677 0.83288574 -5.590042 2.3154602c-1.4825745 1.4825745 -2.3154755 3.4933777 -2.3154755 5.590042l0 0c0 4.366089 3.5394135 7.9055176 7.9055176 7.9055176l0 0c4.366089 0 7.9055023 -3.5394287 7.9055023 -7.9055176z" fill-rule="evenodd"/><path fill="#2c2c2c" d="m191.0953 185.45538l-19.401566 0l0 2.5196838l19.401566 0z" fill-rule="evenodd"/><path fill="#434343" d="m141.3928 169.80444l-12.913391 0l0 46.771652l12.913391 0z" fill-rule="evenodd"/><path fill="#6aa84f" d="m229.14699 257.53806l0 0c0 -7.8885345 6.3949127 -14.283463 14.283463 -14.283463l57.5748 0l0 0c3.788208 0 7.4212646 1.5048676 10.099945 4.1835327c2.67865 2.6786652 4.1835327 6.311722 4.1835327 10.09993l0 0l0 0c0 7.88855 -6.394928 14.283478 -14.283478 14.283478l-57.5748 0c-7.88855 0 -14.283463 -6.394928 -14.283463 -14.283478z" fill-rule="evenodd"/><path fill="#434343" d="m241.09767 214.31331l0 0c-16.664215 0 -30.173218 13.509018 -30.173218 30.173233l0 0c0 8.002441 3.178955 15.677124 8.837524 21.335693c5.6585846 5.6585693 13.333267 8.837524 21.335693 8.837524l0 0c16.66423 0 30.173233 -13.509003 30.173233 -30.173218l0 0c0 -16.664215 -13.509003 -30.173233 -30.173233 -30.173233z" fill-rule="evenodd"/><path fill="#434343" d="m240.73364 214.31331l0 60.34645l40.094482 0l0 -60.34645z" fill-rule="evenodd"/><path fill="#2c2c2c" d="m275.4414 242.15256l-9.133881 -9.133865l-33.070847 33.070877l9.13385 9.13385z" fill-rule="evenodd"/><defs><linearGradient id="p.9" gradientUnits="userSpaceOnUse" gradientTransform="matrix(0.0 5.100583602306583 5.100583602306583 0.0 0.0 0.0)" spreadMethod="pad" x1="42.017407499762925" y1="55.058978564991726" x2="42.01739141905456" y2="60.15956216727296"><stop offset="0.0" stop-color="#434343"/><stop offset="0.99999994" stop-color="#434343" stop-opacity="0.0"/><stop offset="1.0" stop-color="#ffffff" stop-opacity="0.0"/></linearGradient></defs><path fill="url(#p.9)" d="m280.83313 214.31331l0 60.34645l26.015747 0l0 -60.34645z" fill-rule="evenodd"/><path fill="#ffffff" d="m237.05643 236.15753l0 0c1.130661 -4.218231 -1.3723145 -8.554367 -5.5905457 -9.685028l0 0c-2.0256653 -0.54296875 -4.184067 -0.2590027 -6.000366 0.7894287c-1.8162842 1.0484314 -3.1417084 2.7754517 -3.6846771 4.801117l0 0c-1.130661 4.218231 1.3723145 8.554382 5.590561 9.685043l0 0c4.218231 1.130661 8.554367 -1.3723145 9.685028 -5.590561z" fill-rule="evenodd"/><path fill="#434343" d="m244.03549 230.77068l-14.771652 -11.779526l-6.708664 8.409454l14.771652 11.779526z" fill-rule="evenodd"/><path fill="#2c2c2c" d="m243.14168 274.44348l0 -12.944885l-46.771652 0l0 12.944885z" fill-rule="evenodd"/><path fill="#2c2c2c" d="m223.31311 252.64043l0 0c0 -4.366104 -3.5394135 -7.9055176 -7.9055023 -7.9055176l0 0c-2.0966797 0 -4.1074677 0.832901 -5.590042 2.3154755c-1.4825745 1.4825592 -2.3154755 3.4933624 -2.3154755 5.590042l0 0c0 4.3660736 3.5394135 7.9055023 7.9055176 7.9055023l0 0c4.366089 0 7.9055023 -3.5394287 7.9055023 -7.9055023z" fill-rule="evenodd"/><path fill="#434343" d="m236.1545 135.39893l-7.433075 -17.354332l9.889755 -4.2834625l7.433075 17.354332z" fill-rule="evenodd"/><path fill="#6aa84f" d="m263.48557 126.291336l0 0l0 0c1.065033 0 2.0864563 -0.42308044 2.839569 -1.1761856c0.7530823 -0.75309753 1.176178 -1.7745209 1.176178 -2.8395615l0 -15.354332c0 -3.0517578E-5 -3.0517578E-5 -6.1035156E-5 -6.1035156E-5 -6.1035156E-5l-8.031433 6.1035156E-5l0 0c-3.0517578E-5 0 -6.1035156E-5 3.0517578E-5 -6.1035156E-5 6.866455E-5l6.1035156E-5 15.354263l0 0c0 2.2178345 1.7979126 4.015747 4.015747 4.015747z" fill-rule="evenodd"/><path fill="#629c49" d="m268.19684 149.67087l0 0l0 0c1.019104 0 1.99646 -0.40483093 2.7170715 -1.1254425c0.7206116 -0.7206116 1.1254578 -1.6979675 1.1254578 -2.7170715l0 -38.897636c0 -3.8146973E-5 -3.0517578E-5 -6.1035156E-5 -6.1035156E-5 -6.1035156E-5l-7.684967 6.1035156E-5l0 0c-3.0517578E-5 0 -6.1035156E-5 3.0517578E-5 -6.1035156E-5 6.1035156E-5l6.1035156E-5 38.897575l0 0c0 2.1221619 1.7203369 3.842514 3.8424988 3.842514z" fill-rule="evenodd"/></g></svg>