<svg version="1.1" viewBox="0.0 0.0 663.8713910761155 410.3228346456693" fill="none" stroke="none" stroke-linecap="square" stroke-miterlimit="10" xmlns:xlink="http://www.w3.org/1999/xlink" xmlns="http://www.w3.org/2000/svg"><clipPath id="p.0"><path d="m0 0l663.8714 0l0 410.32285l-663.8714 0l0 -410.32285z" clip-rule="nonzero"/></clipPath><g clip-path="url(#p.0)"><path fill="#000000" fill-opacity="0.0" d="m0 0l663.8714 0l0 410.32285l-663.8714 0z" fill-rule="evenodd"/><path fill="#990000" d="m215.70079 68.77304l0 0c0 -8.510445 6.8990784 -15.409523 15.409531 -15.409523l51.259674 0l0 0c4.086853 0 8.006348 1.623497 10.896179 4.513344c2.889862 2.8898468 4.5133667 6.8093185 4.5133667 10.896179l0 4.9604797l0 0c0 8.510445 -6.899109 15.409523 -15.409546 15.409523l-51.259674 0c-8.510452 0 -15.409531 -6.8990784 -15.409531 -15.409523z" fill-rule="evenodd"/><path fill="#990000" d="m183.25984 87.77304l0 0c0 -8.510445 6.8990784 -15.409523 15.409531 -15.409523l51.25969 0l0 0c4.086853 0 8.006332 1.623497 10.896164 4.513344c2.889862 2.8898468 4.5133667 6.8093185 4.5133667 10.896179l0 4.9604797l0 0c0 8.510445 -6.8990784 15.409523 -15.409531 15.409523l-51.25969 0c-8.510452 0 -15.409531 -6.8990784 -15.409531 -15.409523z" fill-rule="evenodd"/><path fill="#000000" d="m284.57214 60.380596l-1.8267822 -3.338581l29.259857 -15.842518l1.8267517 3.338581z" fill-rule="evenodd"/><path fill="#999999" d="m268.19757 41.281418l0 0c16.011932 -0.40008163 29.217773 8.265148 29.496063 19.354332l0 0c0.13366699 5.3252106 -2.7926636 10.508636 -8.135254 14.409988c-5.34256 3.9013443 -12.663727 6.2010345 -20.352905 6.393158l0 0c-16.011917 0.40008545 -29.217758 -8.265144 -29.496078 -19.354328l0 0c-0.2783203 -11.089184 12.476288 -20.403069 28.488174 -20.80315z" fill-rule="evenodd"/><path fill="#999999" d="m268.53796 41.280594l1.0078735 40.15748l-38.519684 0.9763794l-1.0078735 -40.157482z" fill-rule="evenodd"/><path fill="#000000" d="m252.54407 68.51656l2.0472412 -3.2126007l23.905518 15.023628l-2.0472412 3.212593z" fill-rule="evenodd"/><path fill="#990000" d="m190.99738 263.0924l0 0c0 -11.057602 8.9639435 -20.021545 20.02153 -20.021545l42.035675 0l0 0c5.3100433 0 10.402603 2.1094055 14.157364 5.8641815c3.7547607 3.7547607 5.8641663 8.847305 5.8641663 14.157364l0 6.4451294c0 11.057587 -8.963928 20.021515 -20.02153 20.021515l-42.035675 0c-11.057587 0 -20.02153 -8.963928 -20.02153 -20.021515z" fill-rule="evenodd"/><defs><linearGradient id="p.1" gradientUnits="userSpaceOnUse" gradientTransform="matrix(0.12551046860248893 5.000807723285286 -5.000807723285286 0.12551046860248893 0.0 0.0)" spreadMethod="pad" x1="9.597683289969632" y1="-45.75081284736749" x2="9.597664844034743" y2="-40.75000512411622"><stop offset="0.0" stop-color="#999999"/><stop offset="0.99999994" stop-color="#999999" stop-opacity="0.0"/><stop offset="1.0" stop-color="#ffffff" stop-opacity="0.0"/></linearGradient></defs><path fill="url(#p.1)" d="m229.99548 42.253963l1.0078735 40.157482l-25.007874 0.62992096l-1.0078735 -40.157482z" fill-rule="evenodd"/><path fill="#cccccc" d="m268.74686 57.502308l0 0c-0.10568237 -4.1935616 3.2082214 -7.6787834 7.4017944 -7.784458l0 0c2.013794 -0.050746918 3.9653015 0.70056915 5.425171 2.0886726c1.4598694 1.3881035 2.3085327 3.299282 2.3592834 5.3131027l0 0c0.10568237 4.1935616 -3.2082214 7.6787834 -7.4017944 7.784458l0 0c-4.1935425 0.10567474 -7.678772 -3.20821 -7.7844543 -7.4017754z" fill-rule="evenodd"/><path fill="#999999" d="m263.43912 50.901535l16.45459 -7.6865387l4.376068 9.374802l-16.45456 7.686535z" fill-rule="evenodd"/><path fill="#434343" d="m165.93176 227.68504l0 0c0 -18.81247 15.250519 -34.063004 34.06299 -34.063004l0 0c9.034073 0 17.69812 3.5887756 24.086166 9.976822c6.3880615 6.3880615 9.976822 15.052109 9.976822 24.086182l0 0c0 18.81247 -15.250519 34.062973 -34.06299 34.062973l0 0c-18.81247 0 -34.06299 -15.250504 -34.06299 -34.062973z" fill-rule="evenodd"/><path fill="#990000" d="m30.653543 259.96396l0 0c0 -13.911865 11.277811 -25.189682 25.189692 -25.189682l31.699352 0l0 0c6.680725 0 13.087822 2.6539154 17.811806 7.377899c4.723984 4.723984 7.3778915 11.131073 7.3778915 17.811783l0 8.108826l0 0c0 13.911865 -11.277809 25.189697 -25.189697 25.189697l-31.699352 0c-13.9118805 0 -25.189692 -11.277832 -25.189692 -25.189697z" fill-rule="evenodd"/><defs><linearGradient id="p.2" gradientUnits="userSpaceOnUse" gradientTransform="matrix(4.886811992090358 -1.5165968254334823 1.5165968254334823 4.886811992090358 0.0 0.0)" spreadMethod="pad" x1="24.337401413483285" y1="57.90259926921777" x2="24.33738538354123" y2="62.789411261281835"><stop offset="0.0" stop-color="#999999"/><stop offset="0.99999994" stop-color="#999999" stop-opacity="0.0"/><stop offset="1.0" stop-color="#ffffff" stop-opacity="0.0"/></linearGradient></defs><path fill="url(#p.2)" d="m206.74725 246.04922l38.362198 -11.905502l7.433075 23.874008l-38.362198 11.905518z" fill-rule="evenodd"/><path fill="#000000" d="m276.1523 83.54068l-0.28347778 -3.8110275l24.094482 -1.7637787l0.28347778 3.81102z" fill-rule="evenodd"/><path fill="#666666" d="m82.0105 196.24672l0 0c0 -32.902252 26.672546 -59.5748 59.5748 -59.5748l0 0c15.800232 0 30.953308 6.2766113 42.125748 17.44905c11.172455 11.17244 17.449066 26.325531 17.449066 42.125748l0 0c0 32.902252 -26.672546 59.5748 -59.574814 59.5748l0 0c-32.902252 0 -59.5748 -26.672546 -59.5748 -59.5748z" fill-rule="evenodd"/><path fill="#cccccc" d="m80.8399 234.10236l0 0c0 -18.81247 15.250519 -34.06299 34.06299 -34.06299l0 0c9.034065 0 17.698128 3.5887756 24.086174 9.976822c6.3880463 6.3880463 9.976822 15.052109 9.976822 24.086166l0 0c0 18.812485 -15.250519 34.06299 -34.062996 34.06299l0 0c-18.81247 0 -34.06299 -15.250504 -34.06299 -34.06299z" fill-rule="evenodd"/><path fill="#b7b7b7" d="m130.87401 243.10236l0 0c0 -18.81247 15.250534 -34.06299 34.063004 -34.06299l0 0c9.034058 0 17.69812 3.5887756 24.086166 9.976822c6.3880463 6.3880463 9.976822 15.052109 9.976822 24.086166l0 0c0 18.81247 -15.250519 34.06299 -34.06299 34.06299l0 0c-18.81247 0 -34.063004 -15.250519 -34.063004 -34.06299z" fill-rule="evenodd"/><path fill="#000000" d="m221.14177 206.26352l2.9606323 -2.393692l14.236221 17.165344l-2.9606323 2.3937073z" fill-rule="evenodd"/><path fill="#000000" d="m235.24567 223.22867l0.59843445 -3.7480316l17.385818 2.897644l-0.5984192 3.7480316z" fill-rule="evenodd"/><path fill="#999999" d="m195.39174 209.56447l0 0c-4.7487793 -15.298721 -0.010757446 -30.365921 10.582672 -33.65355l0 0c5.087143 -1.5787659 10.871841 -0.17440796 16.081512 3.9041443c5.209671 4.0785522 9.417572 10.497192 11.698013 17.843887l0 0c4.7487793 15.298737 0.010757446 30.365936 -10.582672 33.65355l0 0c-10.59343 3.287613 -23.030746 -6.4493103 -27.779526 -21.748032z" fill-rule="evenodd"/><path fill="#999999" d="m195.30171 209.23253l38.362198 -11.905518l11.433075 36.7874l-38.362213 11.905518z" fill-rule="evenodd"/><path fill="#000000" d="m221.17862 207.10283l3.5905457 -1.2283478l7.464569 21.007874l-3.590561 1.2283478z" fill-rule="evenodd"/><path fill="#cccccc" d="m209.51224 195.20195l0 0c-1.0861816 -4.051773 1.3179016 -8.216904 5.3696747 -9.303085l0 0c1.9457245 -0.5215912 4.0189667 -0.24890137 5.7636414 0.7581177c1.7446594 1.0070038 3.0178375 2.6658325 3.539444 4.6115723l0 0c1.0861816 4.051758 -1.3179169 8.216904 -5.36969 9.30307l0 0c-4.051773 1.0861816 -8.216904 -1.3179016 -9.30307 -5.3696747z" fill-rule="evenodd"/><path fill="#999999" d="m202.80461 190.03009l14.192856 -11.330902l6.4525146 8.08696l-14.192871 11.330917z" fill-rule="evenodd"/><path fill="#000000" d="m228.58789 227.88354l1.8582764 -3.3070831l15.338577 8.692917l-1.8582764 3.3070831z" fill-rule="evenodd"/><path fill="#3c78d8" d="m201.4532 197.69344l0 0c-1.2959137 -1.2959137 -1.2959137 -3.3970032 0 -4.692917q1.1732178 -1.173233 2.3464508 -2.3464508q1.173233 1.1732178 2.3464508 2.3464508l0 0c1.2959137 1.2959137 1.2959137 3.3970032 0 4.692917l0 0c-1.2959137 1.2959137 -3.396988 1.2959137 -4.6929016 0z" fill-rule="evenodd"/><defs><linearGradient id="p.3" gradientUnits="userSpaceOnUse" gradientTransform="matrix(-4.886809988363507 -1.516596203496616 -1.516596203496616 4.886809988363507 0.0 0.0)" spreadMethod="pad" x1="-32.2411859519189" y1="39.74032653677692" x2="-32.2412039856111" y2="44.62713652510715"><stop offset="0.0" stop-color="#999999"/><stop offset="0.99999994" stop-color="#999999" stop-opacity="0.0"/><stop offset="1.0" stop-color="#ffffff" stop-opacity="0.0"/></linearGradient></defs><path fill="url(#p.3)" d="m97.286476 243.10042l-38.3622 -11.905518l-7.433071 23.874023l38.362206 11.905502z" fill-rule="evenodd"/><path fill="#000000" d="m82.89195 203.31471l-2.9606323 -2.3937073l-14.236221 17.16536l2.9606323 2.393692z" fill-rule="evenodd"/><path fill="#000000" d="m68.788055 220.27985l-0.5984192 -3.7480316l-17.38583 2.897644l0.5984268 3.7480316z" fill-rule="evenodd"/><path fill="#999999" d="m108.642 206.61565l0 0c4.7487793 -15.298721 0.010749817 -30.365921 -10.58268 -33.653534l0 0c-5.087143 -1.5787811 -10.871834 -0.17440796 -16.081505 3.904129c-5.209671 4.0785522 -9.41758 10.497192 -11.698021 17.843903l0 0c-4.7487793 15.298721 -0.010757446 30.365921 10.582672 33.653534l0 0c10.593437 3.2876282 23.030754 -6.4493103 27.779533 -21.748032z" fill-rule="evenodd"/><path fill="#999999" d="m108.73202 206.2837l-38.362206 -11.905518l-11.433067 36.787415l38.362206 11.905502z" fill-rule="evenodd"/><path fill="#000000" d="m82.85512 204.154l-3.5905533 -1.2283478l-7.464569 21.007874l3.5905533 1.2283478z" fill-rule="evenodd"/><path fill="#ffffff" d="m94.5215 192.25313l0 0c1.0861816 -4.051773 -1.3179092 -8.216904 -5.3696823 -9.303085l0 0c-1.9457245 -0.5215912 -4.0189667 -0.24890137 -5.7636337 0.7581177c-1.744667 1.0070038 -3.0178452 2.6658325 -3.539444 4.6115723l0 0c-1.0861816 4.051773 1.3179016 8.216904 5.3696747 9.303085l0 0c4.051773 1.0861664 8.216904 -1.3179169 9.303085 -5.36969z" fill-rule="evenodd"/><path fill="#999999" d="m101.22912 187.08128l-14.192856 -11.330917l-6.452507 8.086975l14.192856 11.330902z" fill-rule="evenodd"/><path fill="#000000" d="m75.44584 224.93472l-1.8582687 -3.3070831l-15.338585 8.692917l1.8582687 3.3070831z" fill-rule="evenodd"/><path fill="#990000" d="m350.01822 188.64139l0 0c0 -8.510452 6.8990784 -15.409531 15.409515 -15.409531l51.259674 0l0 0c4.0868835 0 8.006348 1.6235046 10.896179 4.5133514c2.889862 2.8898468 4.5133667 6.809311 4.5133667 10.896179l0 4.9604797l0 0c0 8.510437 -6.8990784 15.409515 -15.409546 15.409515l-51.259674 0c-8.510437 0 -15.409515 -6.8990784 -15.409515 -15.409515z" fill-rule="evenodd"/><path fill="#990000" d="m331.17844 170.45677l0 0c0 -8.510452 6.8990784 -15.409531 15.409546 -15.409531l37.306915 0l0 0c4.086853 0 8.006348 1.6235046 10.896179 4.5133514c2.889862 2.8898468 4.5133667 6.809311 4.5133667 10.896179l0 4.9604797c0 8.510437 -6.8990784 15.409515 -15.409546 15.409515l-37.306915 0c-8.510468 0 -15.409546 -6.8990784 -15.409546 -15.409515z" fill-rule="evenodd"/><path fill="#990000" d="m310.51437 152.60376l0 0c0 -8.510452 6.8990784 -15.409531 15.409515 -15.409531l23.165222 0l0 0c4.086853 0 8.006317 1.6234894 10.896179 4.513336c2.8898315 2.8898468 4.513336 6.809326 4.513336 10.896194l0 4.9604645l0 0c0 8.510452 -6.8990784 15.409531 -15.409515 15.409531l-23.165222 0c-8.510437 0 -15.409515 -6.8990784 -15.409515 -15.409531z" fill-rule="evenodd"/><path fill="#3c78d8" d="m97.08185 210.90735l0 0c1.2959061 -1.2959137 1.2959061 -3.3970032 0 -4.692917q-1.173233 -1.173233 -2.3464584 -2.346466q-1.1732254 1.173233 -2.3464584 2.346466l0 0c-1.2959137 1.2959137 -1.2959137 3.3970032 0 4.692917l0 0c1.2959137 1.2958984 3.3970032 1.2958984 4.692917 0z" fill-rule="evenodd"/><path fill="#999999" d="m422.00876 158.99739l0 0c14.924744 5.8185577 23.759186 18.91159 19.7323 29.244095l0 0c-1.9337769 4.961853 -6.635498 8.610489 -13.070801 10.143265c-6.4353027 1.5327759 -14.077057 0.82414246 -21.244171 -1.9700317l0 0c-14.924713 -5.8185577 -23.759155 -18.91159 -19.73227 -29.244095l0 0c4.026886 -10.332504 19.390228 -13.991791 34.31494 -8.173233z" fill-rule="evenodd"/><path fill="#999999" d="m422.3269 159.12788l-14.582672 37.417313l-35.905518 -13.984238l14.582672 -37.417328z" fill-rule="evenodd"/><path fill="#000000" d="m397.05032 178.0672l3.118103 -2.1732178l16.251984 23.086609l-3.118103 2.173233z" fill-rule="evenodd"/><defs><linearGradient id="p.4" gradientUnits="userSpaceOnUse" gradientTransform="matrix(-1.8813507548508557 4.827310361369146 -4.827310361369146 -1.8813507548508557 0.0 0.0)" spreadMethod="pad" x1="-0.9822457481478329" y1="-79.66230835866163" x2="-0.9822631872237648" y2="-74.83499799732398"><stop offset="0.0" stop-color="#999999"/><stop offset="0.99999994" stop-color="#999999" stop-opacity="0.0"/><stop offset="1.0" stop-color="#ffffff" stop-opacity="0.0"/></linearGradient></defs><path fill="url(#p.4)" d="m386.40253 145.1311l-14.582672 37.417313l-23.307098 -9.070862l14.582672 -37.417328z" fill-rule="evenodd"/><path fill="#cccccc" d="m416.27057 174.1797l0 0c1.5236206 -3.9086456 5.927307 -5.842102 9.8359375 -4.318512l0 0c1.8770142 0.73165894 3.3864746 2.1789856 4.19635 4.023575c0.8098755 1.8445892 0.8538208 3.9353638 0.122161865 5.8123627l0 0c-1.5235901 3.9086456 -5.9272766 5.842102 -9.8359375 4.318512l0 0c-3.9086304 -1.5236053 -5.842102 -5.927292 -4.318512 -9.8359375z" fill-rule="evenodd"/><path fill="#999999" d="m413.92676 166.03995l18.147644 -0.7287445l0.41220093 10.338135l-18.147644 0.7287445z" fill-rule="evenodd"/><path fill="#000000" d="m413.01852 201.04741l1.1968384 -3.6220398l22.897644 7.6850433l-1.1968384 3.6220398z" fill-rule="evenodd"/><path fill="#990000" d="m34.43832 54.441025l0 0c0 -8.510448 6.8990784 -15.409527 15.409527 -15.409527l51.25969 0l0 0c4.0868607 0 8.006332 1.623497 10.896179 4.513344c2.8898468 2.8898468 4.513344 6.8093224 4.513344 10.896183l0 4.960472l0 0c0 8.510445 -6.8990784 15.409523 -15.409523 15.409523l-51.25969 0c-8.510448 0 -15.409527 -6.8990784 -15.409527 -15.409523z" fill-rule="evenodd"/><path fill="#990000" d="m1.9973754 73.441025l0 0c0 -8.510452 6.8990803 -15.409527 15.409527 -15.409527l51.259686 0l0 0c4.0868607 0 8.006332 1.623497 10.896179 4.513344c2.8898468 2.8898506 4.5133514 6.8093224 4.5133514 10.896183l0 4.960472l0 0c0 8.510445 -6.899086 15.409523 -15.409531 15.409523l-51.259686 0c-8.510447 0 -15.409527 -6.8990784 -15.409527 -15.409523z" fill-rule="evenodd"/><path fill="#999999" d="m45.921223 15.417929l0 0c-13.56794 -8.514753 -29.347258 -7.809689 -35.244095 1.5748024l0 0c-2.8317604 4.506592 -2.9592452 10.452927 -0.35440922 16.530878c2.6048365 6.0779495 7.7286177 11.789642 14.244172 15.878571l0 0c13.567942 8.514751 29.347261 7.8096886 35.244095 -1.5748024l0 0c5.8968353 -9.384491 -0.32182312 -23.894697 -13.889767 -32.409447z" fill-rule="evenodd"/><path fill="#999999" d="m45.620605 15.251595l-21.35433 33.984253l32.62992 20.503937l21.354328 -33.984253z" fill-rule="evenodd"/><path fill="#000000" d="m36.633186 38.23657l3.0866165 2.1417313l-16.062994 23.2126l-3.0866146 -2.141735z" fill-rule="evenodd"/><defs><linearGradient id="p.5" gradientUnits="userSpaceOnUse" gradientTransform="matrix(-2.8905785889051234 4.6001980787923085 4.6001980787923085 2.8905785889051234 0.0 0.0)" spreadMethod="pad" x1="-2.0912583468653816" y1="15.699835467435769" x2="-2.0912750949578216" y2="20.30003354619759"><stop offset="0.0" stop-color="#999999"/><stop offset="0.99999994" stop-color="#999999" stop-opacity="0.0"/><stop offset="1.0" stop-color="#ffffff" stop-opacity="0.0"/></linearGradient></defs><path fill="url(#p.5)" d="m78.26377 35.7673l-21.354332 33.984257l21.165352 13.291336l21.354332 -33.984253z" fill-rule="evenodd"/><path fill="#ffffff" d="m37.1053 29.069696l0 0c2.2312164 -3.552826 1.1598434 -8.241716 -2.3929825 -10.472933l0 0c-1.7061272 -1.0714684 -3.768013 -1.4212952 -5.732069 -0.97252464c-1.9640541 0.44877243 -3.6693935 1.65938 -4.740862 3.3655071l0 0c-2.2312164 3.552824 -1.1598415 8.241716 2.3929825 10.472933l0 0c3.552824 2.2312145 8.2417145 1.1598415 10.472931 -2.3929825z" fill-rule="evenodd"/><path fill="#999999" d="m45.03926 26.101551l-10.229012 -15.009121l-8.548487 5.829506l10.229013 15.009121z" fill-rule="evenodd"/><path fill="#000000" d="m21.651136 60.35431l2.614174 2.7716522l-17.858269 16.283463l-2.614173 -2.7716522z" fill-rule="evenodd"/><path fill="#999999" d="m33.54909 33.05372l-10.204727 -15.0236225l-8.535432 5.826771l10.204724 15.0236225z" fill-rule="evenodd"/><path fill="#990000" d="m174.04576 387.78574l0 0c0 -8.510437 6.8990936 -15.409515 15.409531 -15.409515l51.25969 0l0 0c4.086853 0 8.006332 1.6235046 10.896179 4.513336c2.8898468 2.889862 4.5133514 6.809326 4.5133514 10.896179l0 4.9604797l0 0c0 8.510437 -6.8990784 15.409515 -15.409531 15.409515l-51.25969 0c-8.510437 0 -15.409531 -6.8990784 -15.409531 -15.409515z" fill-rule="evenodd"/><path fill="#990000" d="m155.20601 369.60114l0 0c0 -8.510468 6.8990784 -15.409546 15.409531 -15.409546l37.30693 0l0 0c4.086853 0 8.006332 1.6235046 10.896179 4.5133667c2.8898468 2.8898315 4.513336 6.809326 4.513336 10.896179l0 4.9604797c0 8.510437 -6.8990784 15.409515 -15.409515 15.409515l-37.30693 0c-8.510452 0 -15.409531 -6.8990784 -15.409531 -15.409515z" fill-rule="evenodd"/><path fill="#990000" d="m134.54193 351.7481l0 0c0 -8.510437 6.8990784 -15.409515 15.409531 -15.409515l23.165207 0l0 0c4.086853 0 8.006332 1.6234741 10.896179 4.513336c2.8898468 2.8898315 4.513336 6.809326 4.513336 10.896179l0 4.9604797l0 0c0 8.510437 -6.8990784 15.409515 -15.409515 15.409515l-23.165207 0c-8.510452 0 -15.409531 -6.8990784 -15.409531 -15.409515z" fill-rule="evenodd"/><path fill="#999999" d="m235.00656 347.65674l0 0c15.690094 -3.235443 30.228516 2.9479675 32.472443 13.811035l0 0c1.0775757 5.216614 -0.8821411 10.836792 -5.4479675 15.624115c-4.565857 4.7873535 -11.363846 8.349731 -18.898499 9.903442l0 0c-15.690109 3.2354126 -30.228516 -2.947998 -32.472443 -13.811035l0 0c-2.243927 -10.863037 8.656357 -22.292114 24.346466 -25.527557z" fill-rule="evenodd"/><path fill="#999999" d="m235.34726 347.59436l8.125992 39.338562l-37.732285 7.811035l-8.125992 -39.338593z" fill-rule="evenodd"/><path fill="#000000" d="m224.43971 377.23602l1.448822 -3.5275574l26.204727 10.519684l-1.448822 3.5275574z" fill-rule="evenodd"/><defs><linearGradient id="p.6" gradientUnits="userSpaceOnUse" gradientTransform="matrix(1.0225689540846437 4.950343501748102 -4.950343501748102 1.0225689540846437 0.0 0.0)" spreadMethod="pad" x1="76.760753445237" y1="-24.058135292904318" x2="76.76073721905148" y2="-19.10779179118281"><stop offset="0.0" stop-color="#999999"/><stop offset="0.99999994" stop-color="#999999" stop-opacity="0.0"/><stop offset="1.0" stop-color="#ffffff" stop-opacity="0.0"/></linearGradient></defs><path fill="url(#p.6)" d="m197.58905 355.391l8.125992 39.338593l-24.503937 5.070862l-8.125992 -39.338593z" fill-rule="evenodd"/><path fill="#3c78d8" d="m247.14153 375.6169l0 0c-0.98280334 -0.9827881 -0.98280334 -2.576233 0 -3.5590515q0.88975525 -0.8897705 1.7795258 -1.7795105q0.8897705 0.88974 1.7795258 1.7795105l0 0c0.98280334 0.9828186 0.98280334 2.5762634 0 3.5590515l0 0c-0.98280334 0.9828186 -2.5762482 0.9828186 -3.5590515 0z" fill-rule="evenodd"/><path fill="#3c78d8" d="m253.27538 379.04736l0 0c-0.98280334 -0.9827881 -0.98280334 -2.576233 0 -3.5590515q0.8897705 -0.8897705 1.779541 -1.779541q0.88975525 0.8897705 1.7795258 1.779541l0 0c0.9827881 0.9828186 0.9827881 2.5762634 0 3.5590515l0 0c-0.98280334 0.9828186 -2.5762482 0.9828186 -3.5590668 0z" fill-rule="evenodd"/><path fill="#cccccc" d="m238.42398 363.5344l0 0c-0.84806824 -4.1079407 1.7945862 -8.12561 5.902542 -8.973694l0 0c1.972702 -0.40725708 4.0263977 -0.014160156 5.7092896 1.0927734c1.6828918 1.1069336 2.857132 2.8370667 3.264389 4.8097534l0 0c0.84806824 4.107971 -1.7945709 8.12561 -5.902527 8.973694l0 0c-4.107956 0.8480835 -8.12561 -1.7945557 -8.973694 -5.902527z" fill-rule="evenodd"/><path fill="#999999" d="m232.02966 357.98065l14.828384 -10.483612l5.9697266 8.448853l-14.828384 10.483612z" fill-rule="evenodd"/><path fill="#000000" d="m251.47253 386.88086l-3.7795258 -0.4409485l2.897644 -24.0l3.7795258 0.4409485z" fill-rule="evenodd"/><path fill="#990000" d="m431.40158 58.32554l0 0c0 -8.510448 6.8990784 -15.409527 15.409515 -15.409527l51.259705 0l0 0c4.086853 0 8.006317 1.623497 10.896179 4.513344c2.8898315 2.8898468 4.5133057 6.8093224 4.5133057 10.896183l0 4.960472l0 0c0 8.510445 -6.899048 15.409531 -15.409485 15.409531l-51.259705 0c-8.510437 0 -15.409515 -6.899086 -15.409515 -15.409531z" fill-rule="evenodd"/><path fill="#990000" d="m398.96063 77.32554l0 0c0 -8.510445 6.8990784 -15.409527 15.409515 -15.409527l51.259705 0l0 0c4.086853 0 8.006317 1.623497 10.896179 4.5133476c2.8898315 2.8898468 4.513336 6.8093185 4.513336 10.896179l0 4.960472l0 0c0 8.510445 -6.8990784 15.409531 -15.409515 15.409531l-51.259705 0c-8.510437 0 -15.409515 -6.899086 -15.409515 -15.409531z" fill-rule="evenodd"/><path fill="#999999" d="m480.44302 20.095112l0 0c15.098694 -5.348899 30.349213 -1.2172279 34.06302 9.228348l0 0c1.7833862 5.01614 0.61346436 10.847221 -3.2524414 16.210464c-3.8659058 5.363247 -10.1111145 9.819328 -17.361755 12.387959l0 0c-15.098694 5.3489 -30.349213 1.2172279 -34.06299 -9.228344l0 0c-3.7137756 -10.445576 5.515503 -23.249527 20.614166 -28.598427z" fill-rule="evenodd"/><path fill="#999999" d="m480.77457 20.005201l13.448822 37.826775l-36.31494 12.913387l-13.448822 -37.826775z" fill-rule="evenodd"/><path fill="#000000" d="m484.536 44.396477l-3.464569 1.4173203l10.614166 26.141731l3.464569 -1.4173203z" fill-rule="evenodd"/><defs><linearGradient id="p.7" gradientUnits="userSpaceOnUse" gradientTransform="matrix(1.7253559508123288 4.852816153091628 -4.852816153091628 1.7253559508123288 0.0 0.0)" spreadMethod="pad" x1="34.923335124249405" y1="-79.16643609605539" x2="34.92331919909635" y2="-74.31361994298989"><stop offset="0.0" stop-color="#999999"/><stop offset="0.99999994" stop-color="#999999" stop-opacity="0.0"/><stop offset="1.0" stop-color="#ffffff" stop-opacity="0.0"/></linearGradient></defs><path fill="url(#p.7)" d="m444.44458 32.912617l13.448822 37.82677l-23.559052 8.346458l-13.448822 -37.826775z" fill-rule="evenodd"/><path fill="#ffffff" d="m486.08124 35.330853l0 0c-1.4031982 -3.9541225 0.6647339 -8.297094 4.618866 -9.700298l0 0c1.8988342 -0.6738434 3.9875793 -0.5657768 5.806732 0.30042458c1.8191528 0.8662014 3.2197266 2.4195824 3.8935547 4.3184185l0 0c1.4031982 3.9541245 -0.66470337 8.297096 -4.6188354 9.700298l0 0c-3.954132 1.4032059 -8.297089 -0.6647186 -9.700317 -4.618843z" fill-rule="evenodd"/><path fill="#999999" d="m478.98447 30.70415l13.256073 -12.419468l7.072754 7.5534763l-13.2560425 12.419468z" fill-rule="evenodd"/><path fill="#000000" d="m494.33698 69.247986l-3.1495972 2.1417313l13.8897705 19.779526l3.1495972 -2.1417313z" fill-rule="evenodd"/><path fill="#999999" d="m488.67563 40.01046l13.228363 -12.440945l7.0551147 7.5590553l-13.228363 12.440945z" fill-rule="evenodd"/><path fill="#990000" d="m366.5538 285.93314l0 0c0 -8.510437 6.8990784 -15.409515 15.409515 -15.409515l51.259705 0l0 0c4.086853 0 8.006317 1.6235046 10.896179 4.513336c2.8898315 2.889862 4.513336 6.809326 4.513336 10.896179l0 4.9604797l0 0c0 8.510468 -6.8990784 15.409546 -15.409515 15.409546l-51.259705 0c-8.510437 0 -15.409515 -6.8990784 -15.409515 -15.409546z" fill-rule="evenodd"/><path fill="#990000" d="m334.11285 304.93314l0 0c0 -8.510437 6.8990784 -15.409515 15.409546 -15.409515l51.259674 0l0 0c4.086853 0 8.006348 1.6235046 10.896179 4.513336c2.889862 2.889862 4.513336 6.809326 4.513336 10.896179l0 4.9604797l0 0c0 8.510468 -6.8990784 15.409546 -15.409515 15.409546l-51.259674 0c-8.510468 0 -15.409546 -6.8990784 -15.409546 -15.409546z" fill-rule="evenodd"/><path fill="#000000" d="m428.6642 259.72736l-2.8661194 -2.4881592l21.952759 -25.007889l2.8661194 2.4881897z" fill-rule="evenodd"/><path fill="#999999" d="m406.67737 247.49808l0 0c14.881256 -5.9316254 30.272797 -2.3851624 34.37796 7.9212494l0 0c1.9713745 4.9493256 1.0231628 10.827469 -2.6359863 16.341354c-3.6591797 5.513855 -9.729584 10.211761 -16.875824 13.060242l0 0c-14.881256 5.93161 -30.272797 2.3851318 -34.37796 -7.9212646l0 0c-4.1051636 -10.306427 4.6305847 -23.469955 19.51181 -29.40158z" fill-rule="evenodd"/><path fill="#999999" d="m407.00037 247.37495l14.86615 37.32283l-35.77954 14.267731l-14.86615 -37.322845z" fill-rule="evenodd"/><path fill="#000000" d="m398.5868 279.93283l2.7401428 -2.6456604l19.559052 20.37793l-2.7401428 2.645691z" fill-rule="evenodd"/><defs><linearGradient id="p.8" gradientUnits="userSpaceOnUse" gradientTransform="matrix(1.920374204918142 4.82127845916309 -4.82127845916309 1.920374204918142 0.0 0.0)" spreadMethod="pad" x1="73.30688358986417" y1="-47.79063715505931" x2="73.30686778516612" y2="-42.969358695922125"><stop offset="0.0" stop-color="#999999"/><stop offset="0.99999994" stop-color="#999999" stop-opacity="0.0"/><stop offset="1.0" stop-color="#ffffff" stop-opacity="0.0"/></linearGradient></defs><path fill="url(#p.8)" d="m371.18848 261.65704l14.866119 37.322845l-23.24408 9.259827l-14.86615 -37.322815z" fill-rule="evenodd"/><path fill="#cccccc" d="m412.79904 262.50067l0 0c-1.5543518 -3.8966064 0.34439087 -8.315491 4.2409973 -9.869858l0 0c1.8712158 -0.74642944 3.9623108 -0.71894836 5.813263 0.07640076c1.8509521 0.79533386 3.3101501 2.293396 4.0565796 4.164612l0 0c1.5543823 3.8966064 -0.34439087 8.315491 -4.2409973 9.869843l0 0c-3.8966064 1.5543518 -8.315491 -0.3444214 -9.869843 -4.2409973z" fill-rule="evenodd"/><path fill="#999999" d="m405.53015 258.15146l12.7659 -12.919479l7.3576965 7.274338l-12.7659 12.919495z" fill-rule="evenodd"/><path fill="#000000" d="m417.9669 300.2952l-1.5747986 -3.464569l21.984253 -10.015747l1.5747986 3.464569z" fill-rule="evenodd"/><path fill="#990000" d="m366.5538 331.05652l0 0c0 -8.510468 6.8990784 -15.409546 15.409515 -15.409546l51.259705 0l0 0c4.086853 0 8.006317 1.6235046 10.896179 4.5133667c2.8898315 2.8898315 4.513336 6.8092957 4.513336 10.896179l0 4.960449l0 0c0 8.510468 -6.8990784 15.409546 -15.409515 15.409546l-51.259705 0c-8.510437 0 -15.409515 -6.8990784 -15.409515 -15.409546z" fill-rule="evenodd"/><path fill="#666666" d="m513.4803 218.66405l0 0c0 -24.29184 19.692444 -43.984253 43.984253 -43.984253l0 0c11.665405 0 22.852966 4.634033 31.101562 12.88269c8.248657 8.248642 12.88269 19.436203 12.88269 31.101562l0 0c0 24.291824 -19.692383 43.984238 -43.984253 43.984238l0 0c-24.29181 0 -43.984253 -19.692413 -43.984253 -43.984238z" fill-rule="evenodd"/><path fill="#990000" d="m579.8819 263.9113l0 0c0 -11.057571 8.963928 -20.021515 20.021545 -20.021515l42.035645 0l0 0c5.3100586 0 10.402588 2.1094055 14.157349 5.8641663c3.7547607 3.7547607 5.864197 8.847321 5.864197 14.157349l0 6.4451294c0 11.057587 -8.963928 20.021545 -20.021545 20.021545l-42.035645 0c-11.057617 0 -20.021545 -8.963959 -20.021545 -20.021545z" fill-rule="evenodd"/><defs><linearGradient id="p.9" gradientUnits="userSpaceOnUse" gradientTransform="matrix(4.886809988363623 -1.5165962035872542 1.5165962035872542 4.886809988363623 0.0 0.0)" spreadMethod="pad" x1="96.87721893902965" y1="80.58255174166918" x2="96.87719489410671" y2="85.46936172997364"><stop offset="0.0" stop-color="#999999"/><stop offset="0.99999994" stop-color="#999999" stop-opacity="0.0"/><stop offset="1.0" stop-color="#ffffff" stop-opacity="0.0"/></linearGradient></defs><path fill="url(#p.9)" d="m595.6318 246.86813l38.362183 -11.905518l7.4331055 23.874023l-38.362244 11.905518z" fill-rule="evenodd"/><path fill="#000000" d="m610.0263 207.08243l2.9606323 -2.3937073l14.236206 17.16536l-2.9606323 2.393692z" fill-rule="evenodd"/><path fill="#000000" d="m624.1302 224.04756l0.5984497 -3.7480316l17.385803 2.897644l-0.5984497 3.7480316z" fill-rule="evenodd"/><path fill="#999999" d="m584.27625 210.38336l0 0c-4.7487793 -15.298721 -0.0107421875 -30.365921 10.582703 -33.653534l0 0c5.087097 -1.5787659 10.871826 -0.17440796 16.081482 3.904129c5.209656 4.0785522 9.417603 10.497192 11.697998 17.843903l0 0c4.7487793 15.298721 0.010803223 30.365921 -10.582642 33.653534l0 0c-10.593445 3.2876282 -23.030762 -6.4493103 -27.779541 -21.748032z" fill-rule="evenodd"/><path fill="#999999" d="m584.1862 210.05142l38.362183 -11.905502l11.433105 36.7874l-38.362183 11.905502z" fill-rule="evenodd"/><path fill="#000000" d="m610.0631 207.92172l3.5905762 -1.2283478l7.4645386 21.007874l-3.5905151 1.2283478z" fill-rule="evenodd"/><path fill="#cccccc" d="m598.3967 196.02084l0 0c-1.0861816 -4.051758 1.3179321 -8.216904 5.36969 -9.30307l0 0c1.9457397 -0.52160645 4.018982 -0.24891663 5.763672 0.7581024c1.7446289 1.0070038 3.0178223 2.6658325 3.5394287 4.6115723l0 0c1.0861816 4.051773 -1.3179321 8.216904 -5.36969 9.303085l0 0c-4.051758 1.0861816 -8.216919 -1.3179169 -9.303101 -5.36969z" fill-rule="evenodd"/><path fill="#999999" d="m591.68915 190.849l14.19281 -11.330917l6.4525146 8.086975l-14.192871 11.330902z" fill-rule="evenodd"/><path fill="#000000" d="m617.4724 228.70244l1.8582764 -3.3070831l15.338562 8.692917l-1.8582764 3.3070831z" fill-rule="evenodd"/><path fill="#b7b7b7" d="m559.9029 252.03412l0 0c0 -12.663406 10.265747 -22.929138 22.929138 -22.929138l0 0c6.0811768 0 11.913269 2.415741 16.213318 6.71579c4.300049 4.300049 6.7158203 10.132172 6.7158203 16.213348l0 0c0 12.663422 -10.265747 22.929138 -22.929138 22.929138l0 0c-12.663391 0 -22.929138 -10.265717 -22.929138 -22.929138z" fill-rule="evenodd"/><path fill="#990000" d="m571.1942 296.79843l0 0c0 -11.057587 8.963928 -20.021515 20.021545 -20.021515l18.949036 0l0 0c5.3100586 0 10.402649 2.1094055 14.15741 5.8641663c3.7547607 3.7547607 5.8641357 8.847321 5.8641357 14.157349l0 6.4451294l0 0c0 11.057587 -8.963928 20.021545 -20.021545 20.021545l-18.949036 0c-11.057617 0 -20.021545 -8.963959 -20.021545 -20.021545z" fill-rule="evenodd"/><path fill="#990000" d="m603.1417 315.93396l0 0c0 -10.907745 8.842468 -19.750244 19.750244 -19.750244l6.357788 0l0 0c5.238098 0 10.261658 2.080841 13.965515 5.784729c3.7039185 3.703888 5.784729 8.727417 5.784729 13.965515l0 6.987732c0 10.907745 -8.842468 19.750214 -19.750244 19.750214l-6.357788 0c-10.907776 0 -19.750244 -8.842468 -19.750244 -19.750214z" fill-rule="evenodd"/><path fill="#990000" d="m617.4724 346.32294l0 0c0 -9.401947 7.621826 -17.023712 17.023743 -17.023712l5.4801025 0l0 0c4.5150146 0 8.845032 1.7935486 12.037598 4.9861145c3.192566 3.192566 4.986145 7.5226135 4.986145 12.037598l0 6.0155334c0 9.401947 -7.621765 17.023743 -17.023743 17.023743l-5.4801025 0c-9.4019165 0 -17.023743 -7.6217957 -17.023743 -17.023743z" fill-rule="evenodd"/></g></svg>