<svg version="1.1" viewBox="0 0 411 331" fill="none" stroke="none" stroke-linecap="square" stroke-miterlimit="10" xmlns:xlink="http://www.w3.org/1999/xlink" xmlns="http://www.w3.org/2000/svg" id="el_j73ZR7Xha"><style>@-webkit-keyframes el_-cW59_7c66_8NjdNJVN2_Animation{25.33%{-webkit-transform: translate(0px, 0px);transform: translate(0px, 0px);}64%{-webkit-transform: translate(0px, 0px);transform: translate(0px, 0px);}84%{-webkit-transform: translate(-200px, 0px);transform: translate(-200px, 0px);}0%{-webkit-transform: translate(0px, 0px);transform: translate(0px, 0px);}100%{-webkit-transform: translate(-200px, 0px);transform: translate(-200px, 0px);}}@keyframes el_-cW59_7c66_8NjdNJVN2_Animation{25.33%{-webkit-transform: translate(0px, 0px);transform: translate(0px, 0px);}64%{-webkit-transform: translate(0px, 0px);transform: translate(0px, 0px);}84%{-webkit-transform: translate(-200px, 0px);transform: translate(-200px, 0px);}0%{-webkit-transform: translate(0px, 0px);transform: translate(0px, 0px);}100%{-webkit-transform: translate(-200px, 0px);transform: translate(-200px, 0px);}}@-webkit-keyframes el_GXin-c0v-9_7g_MtWiHT_Animation{25.33%{-webkit-transform: translate(0px, 0px);transform: translate(0px, 0px);}64%{-webkit-transform: translate(0px, 0px);transform: translate(0px, 0px);}84%{-webkit-transform: translate(-200px, 0px);transform: translate(-200px, 0px);}0%{-webkit-transform: translate(0px, 0px);transform: translate(0px, 0px);}100%{-webkit-transform: translate(-200px, 0px);transform: translate(-200px, 0px);}}@keyframes el_GXin-c0v-9_7g_MtWiHT_Animation{25.33%{-webkit-transform: translate(0px, 0px);transform: translate(0px, 0px);}64%{-webkit-transform: translate(0px, 0px);transform: translate(0px, 0px);}84%{-webkit-transform: translate(-200px, 0px);transform: translate(-200px, 0px);}0%{-webkit-transform: translate(0px, 0px);transform: translate(0px, 0px);}100%{-webkit-transform: translate(-200px, 0px);transform: translate(-200px, 0px);}}@-webkit-keyframes el_4tjFko9Wl-a_Animation{28.67%{opacity: 0;}29.33%{opacity: 1;}55.33%{opacity: 1;}56.00%{opacity: 0;}0%{opacity: 0;}}@keyframes el_4tjFko9Wl-a_Animation{28.67%{opacity: 0;}29.33%{opacity: 1;}55.33%{opacity: 1;}56.00%{opacity: 0;}0%{opacity: 0;}}@-webkit-keyframes el_2-X2lRlZxmd_Animation{28.67%{opacity: 0;}29.33%{opacity: 1;}55.33%{opacity: 1;}56.00%{opacity: 0;}0%{opacity: 0;}}@keyframes el_2-X2lRlZxmd_Animation{28.67%{opacity: 0;}29.33%{opacity: 1;}55.33%{opacity: 1;}56.00%{opacity: 0;}0%{opacity: 0;}}@-webkit-keyframes el_WxpHPHmXkcg_Animation{25.33%{opacity: 0;}28.67%{opacity: 1;}56.00%{opacity: 1;}60%{opacity: 0;}0%{opacity: 0;}100%{opacity: 0;}}@keyframes el_WxpHPHmXkcg_Animation{25.33%{opacity: 0;}28.67%{opacity: 1;}56.00%{opacity: 1;}60%{opacity: 0;}0%{opacity: 0;}100%{opacity: 0;}}@-webkit-keyframes el_WxpHPHmXkcg_CFMZ7MOoC_Animation{25.33%{-webkit-transform: scale(0, 0);transform: scale(0, 0);}28.67%{-webkit-transform: scale(1, 1);transform: scale(1, 1);}56.00%{-webkit-transform: scale(1, 1);transform: scale(1, 1);}60%{-webkit-transform: scale(0, 0);transform: scale(0, 0);}0%{-webkit-transform: scale(0, 0);transform: scale(0, 0);}100%{-webkit-transform: scale(0, 0);transform: scale(0, 0);}}@keyframes el_WxpHPHmXkcg_CFMZ7MOoC_Animation{25.33%{-webkit-transform: scale(0, 0);transform: scale(0, 0);}28.67%{-webkit-transform: scale(1, 1);transform: scale(1, 1);}56.00%{-webkit-transform: scale(1, 1);transform: scale(1, 1);}60%{-webkit-transform: scale(0, 0);transform: scale(0, 0);}0%{-webkit-transform: scale(0, 0);transform: scale(0, 0);}100%{-webkit-transform: scale(0, 0);transform: scale(0, 0);}}@-webkit-keyframes el_GXin-c0v-9_9M8ZxBN1l_Animation{0%{-webkit-transform: scale(1, 0);transform: scale(1, 0);}25.33%{-webkit-transform: scale(1, 0);transform: scale(1, 0);}29.33%{-webkit-transform: scale(1, 1);transform: scale(1, 1);}100%{-webkit-transform: scale(1, 1);transform: scale(1, 1);}}@keyframes el_GXin-c0v-9_9M8ZxBN1l_Animation{0%{-webkit-transform: scale(1, 0);transform: scale(1, 0);}25.33%{-webkit-transform: scale(1, 0);transform: scale(1, 0);}29.33%{-webkit-transform: scale(1, 1);transform: scale(1, 1);}100%{-webkit-transform: scale(1, 1);transform: scale(1, 1);}}@-webkit-keyframes el_-cW59_7c66_1z7uU1bt0_Animation{0%{-webkit-transform: scale(1, 0);transform: scale(1, 0);}25.33%{-webkit-transform: scale(1, 0);transform: scale(1, 0);}29.33%{-webkit-transform: scale(1, 1);transform: scale(1, 1);}100%{-webkit-transform: scale(1, 1);transform: scale(1, 1);}}@keyframes el_-cW59_7c66_1z7uU1bt0_Animation{0%{-webkit-transform: scale(1, 0);transform: scale(1, 0);}25.33%{-webkit-transform: scale(1, 0);transform: scale(1, 0);}29.33%{-webkit-transform: scale(1, 1);transform: scale(1, 1);}100%{-webkit-transform: scale(1, 1);transform: scale(1, 1);}}@-webkit-keyframes el_5vsuWuDuyi_Xw9yx-mjq_Animation{0%{-webkit-transform: translate(-200px, 0px);transform: translate(-200px, 0px);}20%{-webkit-transform: translate(40px, 0px);transform: translate(40px, 0px);}24%{-webkit-transform: translate(0px, 0px);transform: translate(0px, 0px);}64%{-webkit-transform: translate(0px, 0px);transform: translate(0px, 0px);}84%{-webkit-transform: translate(-200px, 0px);transform: translate(-200px, 0px);}100%{-webkit-transform: translate(-200px, 0px);transform: translate(-200px, 0px);}}@keyframes el_5vsuWuDuyi_Xw9yx-mjq_Animation{0%{-webkit-transform: translate(-200px, 0px);transform: translate(-200px, 0px);}20%{-webkit-transform: translate(40px, 0px);transform: translate(40px, 0px);}24%{-webkit-transform: translate(0px, 0px);transform: translate(0px, 0px);}64%{-webkit-transform: translate(0px, 0px);transform: translate(0px, 0px);}84%{-webkit-transform: translate(-200px, 0px);transform: translate(-200px, 0px);}100%{-webkit-transform: translate(-200px, 0px);transform: translate(-200px, 0px);}}@-webkit-keyframes el_AVrKhd9eQe_nJkXmdVna_Animation{0%{-webkit-transform: translate(-200px, 0px);transform: translate(-200px, 0px);}20%{-webkit-transform: translate(40px, 0px);transform: translate(40px, 0px);}24%{-webkit-transform: translate(0px, 0px);transform: translate(0px, 0px);}64%{-webkit-transform: translate(0px, 0px);transform: translate(0px, 0px);}84%{-webkit-transform: translate(-200px, 0px);transform: translate(-200px, 0px);}100%{-webkit-transform: translate(-200px, 0px);transform: translate(-200px, 0px);}}@keyframes el_AVrKhd9eQe_nJkXmdVna_Animation{0%{-webkit-transform: translate(-200px, 0px);transform: translate(-200px, 0px);}20%{-webkit-transform: translate(40px, 0px);transform: translate(40px, 0px);}24%{-webkit-transform: translate(0px, 0px);transform: translate(0px, 0px);}64%{-webkit-transform: translate(0px, 0px);transform: translate(0px, 0px);}84%{-webkit-transform: translate(-200px, 0px);transform: translate(-200px, 0px);}100%{-webkit-transform: translate(-200px, 0px);transform: translate(-200px, 0px);}}@-webkit-keyframes el_sowyJeFxkc_qksO1kfdc_Animation{0%{-webkit-transform: translate(-200px, 0px);transform: translate(-200px, 0px);}20%{-webkit-transform: translate(40px, 0px);transform: translate(40px, 0px);}24%{-webkit-transform: translate(0px, 0px);transform: translate(0px, 0px);}64%{-webkit-transform: translate(0px, 0px);transform: translate(0px, 0px);}84%{-webkit-transform: translate(-200px, 0px);transform: translate(-200px, 0px);}100%{-webkit-transform: translate(-200px, 0px);transform: translate(-200px, 0px);}}@keyframes el_sowyJeFxkc_qksO1kfdc_Animation{0%{-webkit-transform: translate(-200px, 0px);transform: translate(-200px, 0px);}20%{-webkit-transform: translate(40px, 0px);transform: translate(40px, 0px);}24%{-webkit-transform: translate(0px, 0px);transform: translate(0px, 0px);}64%{-webkit-transform: translate(0px, 0px);transform: translate(0px, 0px);}84%{-webkit-transform: translate(-200px, 0px);transform: translate(-200px, 0px);}100%{-webkit-transform: translate(-200px, 0px);transform: translate(-200px, 0px);}}@-webkit-keyframes el_eJfN-ckj2X_XrOux4G74_Animation{0%{-webkit-transform: translate(-200px, 0px);transform: translate(-200px, 0px);}20%{-webkit-transform: translate(40px, 0px);transform: translate(40px, 0px);}24%{-webkit-transform: translate(0px, 0px);transform: translate(0px, 0px);}64%{-webkit-transform: translate(0px, 0px);transform: translate(0px, 0px);}84%{-webkit-transform: translate(-200px, 0px);transform: translate(-200px, 0px);}100%{-webkit-transform: translate(-200px, 0px);transform: translate(-200px, 0px);}}@keyframes el_eJfN-ckj2X_XrOux4G74_Animation{0%{-webkit-transform: translate(-200px, 0px);transform: translate(-200px, 0px);}20%{-webkit-transform: translate(40px, 0px);transform: translate(40px, 0px);}24%{-webkit-transform: translate(0px, 0px);transform: translate(0px, 0px);}64%{-webkit-transform: translate(0px, 0px);transform: translate(0px, 0px);}84%{-webkit-transform: translate(-200px, 0px);transform: translate(-200px, 0px);}100%{-webkit-transform: translate(-200px, 0px);transform: translate(-200px, 0px);}}@-webkit-keyframes el_N65crmd57d_duudSw8X7_Animation{0%{-webkit-transform: translate(-200px, 0px);transform: translate(-200px, 0px);}20%{-webkit-transform: translate(40px, 0px);transform: translate(40px, 0px);}24%{-webkit-transform: translate(0px, 0px);transform: translate(0px, 0px);}64%{-webkit-transform: translate(0px, 0px);transform: translate(0px, 0px);}84%{-webkit-transform: translate(-200px, 0px);transform: translate(-200px, 0px);}100%{-webkit-transform: translate(-200px, 0px);transform: translate(-200px, 0px);}}@keyframes el_N65crmd57d_duudSw8X7_Animation{0%{-webkit-transform: translate(-200px, 0px);transform: translate(-200px, 0px);}20%{-webkit-transform: translate(40px, 0px);transform: translate(40px, 0px);}24%{-webkit-transform: translate(0px, 0px);transform: translate(0px, 0px);}64%{-webkit-transform: translate(0px, 0px);transform: translate(0px, 0px);}84%{-webkit-transform: translate(-200px, 0px);transform: translate(-200px, 0px);}100%{-webkit-transform: translate(-200px, 0px);transform: translate(-200px, 0px);}}@-webkit-keyframes el_DqPSuBDMUe_cZy6Xl-vR_Animation{0%{-webkit-transform: translate(-200px, 0px);transform: translate(-200px, 0px);}20%{-webkit-transform: translate(40px, 0px);transform: translate(40px, 0px);}24%{-webkit-transform: translate(0px, 0px);transform: translate(0px, 0px);}64%{-webkit-transform: translate(0px, 0px);transform: translate(0px, 0px);}84%{-webkit-transform: translate(-200px, 0px);transform: translate(-200px, 0px);}100%{-webkit-transform: translate(-200px, 0px);transform: translate(-200px, 0px);}}@keyframes el_DqPSuBDMUe_cZy6Xl-vR_Animation{0%{-webkit-transform: translate(-200px, 0px);transform: translate(-200px, 0px);}20%{-webkit-transform: translate(40px, 0px);transform: translate(40px, 0px);}24%{-webkit-transform: translate(0px, 0px);transform: translate(0px, 0px);}64%{-webkit-transform: translate(0px, 0px);transform: translate(0px, 0px);}84%{-webkit-transform: translate(-200px, 0px);transform: translate(-200px, 0px);}100%{-webkit-transform: translate(-200px, 0px);transform: translate(-200px, 0px);}}@-webkit-keyframes el_mGBs1g6jMw_32HjOan3Z_Animation{0%{-webkit-transform: translate(-200px, 0px);transform: translate(-200px, 0px);}20%{-webkit-transform: translate(40px, 0px);transform: translate(40px, 0px);}24%{-webkit-transform: translate(0px, 0px);transform: translate(0px, 0px);}64%{-webkit-transform: translate(0px, 0px);transform: translate(0px, 0px);}84%{-webkit-transform: translate(-200px, 0px);transform: translate(-200px, 0px);}100%{-webkit-transform: translate(-200px, 0px);transform: translate(-200px, 0px);}}@keyframes el_mGBs1g6jMw_32HjOan3Z_Animation{0%{-webkit-transform: translate(-200px, 0px);transform: translate(-200px, 0px);}20%{-webkit-transform: translate(40px, 0px);transform: translate(40px, 0px);}24%{-webkit-transform: translate(0px, 0px);transform: translate(0px, 0px);}64%{-webkit-transform: translate(0px, 0px);transform: translate(0px, 0px);}84%{-webkit-transform: translate(-200px, 0px);transform: translate(-200px, 0px);}100%{-webkit-transform: translate(-200px, 0px);transform: translate(-200px, 0px);}}#el_j73ZR7Xha *{-webkit-animation-duration: 5s;animation-duration: 5s;-webkit-animation-iteration-count: infinite;animation-iteration-count: infinite;-webkit-animation-timing-function: cubic-bezier(0, 0, 1, 1);animation-timing-function: cubic-bezier(0, 0, 1, 1);}#el_flkmwXn6Zb{fill: #000000;fill-opacity: 0.0;}#el_mGBs1g6jMw{fill: #434343;}#el_DqPSuBDMUe{fill: #434343;}#el_N65crmd57d{fill: #434343;}#el_eJfN-ckj2X{fill: #434343;}#el_sowyJeFxkc{fill: url(#p.1);}#el_AVrKhd9eQe{fill: #ffffff;}#el_5vsuWuDuyi{fill: #ffffff;}#el_-cW59_7c66{fill: #434343;}#el_GXin-c0v-9{fill: #434343;}#el_aewwkKHHC9{fill: #999999;}#el_OWlZGpvldP{fill: #434343;}#el_tkB7w0RbSG{fill: #434343;}#el_gAxy67Ibhb{fill: #434343;}#el_vw1egq885yo{fill: #434343;}#el_BUG8JWr1yIj{fill: #434343;}#el_cQpQNst4bxy{fill: #999999;}#el_70eNdIOy0IL{fill: #999999;}#el_EahuJ_izA1R{fill: #434343;}#el_2zIWedufypr{fill: #434343;}#el_WxpHPHmXkcg{fill: #ffffff;-webkit-animation-name: el_WxpHPHmXkcg_Animation;animation-name: el_WxpHPHmXkcg_Animation;opacity: 0;-webkit-animation-timing-function: cubic-bezier(0, 0, 0.58, 1);animation-timing-function: cubic-bezier(0, 0, 0.58, 1);}#el_2-X2lRlZxmd{fill: #000000;-webkit-animation-name: el_2-X2lRlZxmd_Animation;animation-name: el_2-X2lRlZxmd_Animation;opacity: 0;}#el_4tjFko9Wl-a{fill: #000000;-webkit-animation-name: el_4tjFko9Wl-a_Animation;animation-name: el_4tjFko9Wl-a_Animation;opacity: 0;}#el_mGBs1g6jMw_32HjOan3Z{-webkit-animation-name: el_mGBs1g6jMw_32HjOan3Z_Animation;animation-name: el_mGBs1g6jMw_32HjOan3Z_Animation;-webkit-transform-origin: 50% 50%;transform-origin: 50% 50%;transform-box: fill-box;-webkit-transform: translate(-200px, 0px);transform: translate(-200px, 0px);-webkit-animation-timing-function: cubic-bezier(0.42, 0, 1, 1);animation-timing-function: cubic-bezier(0.42, 0, 1, 1);}#el_DqPSuBDMUe_cZy6Xl-vR{-webkit-animation-name: el_DqPSuBDMUe_cZy6Xl-vR_Animation;animation-name: el_DqPSuBDMUe_cZy6Xl-vR_Animation;-webkit-transform-origin: 50% 50%;transform-origin: 50% 50%;transform-box: fill-box;-webkit-transform: translate(-200px, 0px);transform: translate(-200px, 0px);-webkit-animation-timing-function: cubic-bezier(0.42, 0, 1, 1);animation-timing-function: cubic-bezier(0.42, 0, 1, 1);}#el_N65crmd57d_duudSw8X7{-webkit-animation-name: el_N65crmd57d_duudSw8X7_Animation;animation-name: el_N65crmd57d_duudSw8X7_Animation;-webkit-transform-origin: 50% 50%;transform-origin: 50% 50%;transform-box: fill-box;-webkit-transform: translate(-200px, 0px);transform: translate(-200px, 0px);-webkit-animation-timing-function: cubic-bezier(0.42, 0, 1, 1);animation-timing-function: cubic-bezier(0.42, 0, 1, 1);}#el_eJfN-ckj2X_XrOux4G74{-webkit-animation-name: el_eJfN-ckj2X_XrOux4G74_Animation;animation-name: el_eJfN-ckj2X_XrOux4G74_Animation;-webkit-transform-origin: 50% 50%;transform-origin: 50% 50%;transform-box: fill-box;-webkit-transform: translate(-200px, 0px);transform: translate(-200px, 0px);-webkit-animation-timing-function: cubic-bezier(0.42, 0, 1, 1);animation-timing-function: cubic-bezier(0.42, 0, 1, 1);}#el_sowyJeFxkc_qksO1kfdc{-webkit-animation-name: el_sowyJeFxkc_qksO1kfdc_Animation;animation-name: el_sowyJeFxkc_qksO1kfdc_Animation;-webkit-transform-origin: 50% 50%;transform-origin: 50% 50%;transform-box: fill-box;-webkit-transform: translate(-200px, 0px);transform: translate(-200px, 0px);-webkit-animation-timing-function: cubic-bezier(0.42, 0, 1, 1);animation-timing-function: cubic-bezier(0.42, 0, 1, 1);}#el_AVrKhd9eQe_nJkXmdVna{-webkit-animation-name: el_AVrKhd9eQe_nJkXmdVna_Animation;animation-name: el_AVrKhd9eQe_nJkXmdVna_Animation;-webkit-transform-origin: 50% 50%;transform-origin: 50% 50%;transform-box: fill-box;-webkit-transform: translate(-200px, 0px);transform: translate(-200px, 0px);-webkit-animation-timing-function: cubic-bezier(0.42, 0, 1, 1);animation-timing-function: cubic-bezier(0.42, 0, 1, 1);}#el_5vsuWuDuyi_Xw9yx-mjq{-webkit-animation-name: el_5vsuWuDuyi_Xw9yx-mjq_Animation;animation-name: el_5vsuWuDuyi_Xw9yx-mjq_Animation;-webkit-transform-origin: 50% 50%;transform-origin: 50% 50%;transform-box: fill-box;-webkit-transform: translate(-200px, 0px);transform: translate(-200px, 0px);-webkit-animation-timing-function: cubic-bezier(0.42, 0, 1, 1);animation-timing-function: cubic-bezier(0.42, 0, 1, 1);}#el_-cW59_7c66_8NjdNJVN2{-webkit-transform-origin: 50% 50%;transform-origin: 50% 50%;transform-box: fill-box;-webkit-transform: translate(0px, 0px);transform: translate(0px, 0px);-webkit-animation-name: el_-cW59_7c66_8NjdNJVN2_Animation;animation-name: el_-cW59_7c66_8NjdNJVN2_Animation;-webkit-animation-timing-function: cubic-bezier(0.42, 0, 1, 1);animation-timing-function: cubic-bezier(0.42, 0, 1, 1);}#el_-cW59_7c66_1z7uU1bt0{-webkit-animation-name: el_-cW59_7c66_1z7uU1bt0_Animation;animation-name: el_-cW59_7c66_1z7uU1bt0_Animation;-webkit-transform-origin: 50% 50%;transform-origin: 50% 50%;transform-box: fill-box;-webkit-transform: scale(1, 0);transform: scale(1, 0);}#el_GXin-c0v-9_9M8ZxBN1l{-webkit-animation-name: el_GXin-c0v-9_9M8ZxBN1l_Animation;animation-name: el_GXin-c0v-9_9M8ZxBN1l_Animation;-webkit-transform-origin: 50% 50%;transform-origin: 50% 50%;transform-box: fill-box;-webkit-transform: scale(1, 0);transform: scale(1, 0);}#el_WxpHPHmXkcg_CFMZ7MOoC{-webkit-animation-name: el_WxpHPHmXkcg_CFMZ7MOoC_Animation;animation-name: el_WxpHPHmXkcg_CFMZ7MOoC_Animation;-webkit-transform-origin: 100% 100%;transform-origin: 100% 100%;transform-box: fill-box;-webkit-transform: scale(0, 0);transform: scale(0, 0);-webkit-animation-timing-function: cubic-bezier(0, 0, 0.58, 1);animation-timing-function: cubic-bezier(0, 0, 0.58, 1);}#el_GXin-c0v-9_7g_MtWiHT{-webkit-animation-name: el_GXin-c0v-9_7g_MtWiHT_Animation;animation-name: el_GXin-c0v-9_7g_MtWiHT_Animation;-webkit-transform-origin: 50% 50%;transform-origin: 50% 50%;transform-box: fill-box;-webkit-transform: translate(0px, 0px);transform: translate(0px, 0px);-webkit-animation-timing-function: cubic-bezier(0.42, 0, 1, 1);animation-timing-function: cubic-bezier(0.42, 0, 1, 1);}</style><clipPath id="p.0"><path d="m0 0l411.18372 0l0 331.57217l-411.18372 0l0 -331.57217z" clip-rule="nonzero"/></clipPath><g clip-path="url(#p.0)" id="el_d70pYJMrmT"><path d="m0 0l411.18372 0l0 331.57217l-411.18372 0z" fill-rule="evenodd" id="el_flkmwXn6Zb"/><g id="el_mGBs1g6jMw_32HjOan3Z" data-animator-group="true" data-animator-type="0"><path d="m254.53244 284.1906l0 0c0 -10.9687195 8.891876 -19.860596 19.860596 -19.860596l0 0c5.2673645 0 10.31897 2.0924377 14.043549 5.8170166c3.7245789 3.7246094 5.817047 8.776215 5.817047 14.043579l0 0c0 10.968689 -8.891907 19.860596 -19.860596 19.860596l0 0c-10.9687195 0 -19.860596 -8.891907 -19.860596 -19.860596z" fill-rule="evenodd" id="el_mGBs1g6jMw"/></g><g id="el_DqPSuBDMUe_cZy6Xl-vR" data-animator-group="true" data-animator-type="0"><path d="m254.53244 283.94998l39.72119 0l0 26.392883l-39.72119 0z" fill-rule="evenodd" id="el_DqPSuBDMUe"/></g><g id="el_N65crmd57d_duudSw8X7" data-animator-group="true" data-animator-type="0"><path d="m244.13097 284.71463l8.506851 -0.0067749023l0 30.78833l-8.506851 0.0067443848z" fill-rule="evenodd" id="el_N65crmd57d"/></g><g id="el_eJfN-ckj2X_XrOux4G74" data-animator-group="true" data-animator-type="0"><path d="m296.14893 284.71136l8.500092 0l0 30.7883l-8.500092 0z" fill-rule="evenodd" id="el_eJfN-ckj2X"/></g><defs><linearGradient id="p.1" gradientUnits="userSpaceOnUse" gradientTransform="matrix(4.138694657889015 0.0 0.0 4.138694657889015 0.0 0.0)" spreadMethod="pad" x1="61.50065669118217" y1="74.9637845293899" x2="61.500641827619354" y2="79.10247918725221"><stop offset="0.0" stop-color="#434343"/><stop offset="0.99999994" stop-color="#434343" stop-opacity="0.0"/><stop offset="1.0" stop-color="#ffffff" stop-opacity="0.0"/></linearGradient></defs><g id="el_sowyJeFxkc_qksO1kfdc" data-animator-group="true" data-animator-type="0"><path d="m254.53244 310.25235l39.72119 0l0 17.128662l-39.72119 0z" fill-rule="evenodd" id="el_sowyJeFxkc"/></g><g id="el_AVrKhd9eQe_nJkXmdVna" data-animator-group="true" data-animator-type="0"><path d="m261.22644 279.50778l0 0c0 -2.8719482 2.328186 -5.2001343 5.2001343 -5.2001343l0 0c1.3791809 0 2.7018433 0.5478821 3.677063 1.5230713c0.9752197 0.9752197 1.5231018 2.2979126 1.5231018 3.677063l0 0c0 2.8719482 -2.328186 5.2001343 -5.200165 5.2001343l0 0c-2.8719482 0 -5.2001343 -2.328186 -5.2001343 -5.2001343z" fill-rule="evenodd" id="el_AVrKhd9eQe"/></g><g id="el_5vsuWuDuyi_Xw9yx-mjq" data-animator-group="true" data-animator-type="0"><path d="m277.15915 279.50778l0 0c0 -2.8719482 2.328186 -5.2001343 5.2001343 -5.2001343l0 0c1.3791504 0 2.7018433 0.5478821 3.677063 1.5230713c0.9752197 0.9752197 1.5230713 2.2979126 1.5230713 3.677063l0 0c0 2.8719482 -2.328186 5.2001343 -5.2001343 5.2001343l0 0c-2.8719482 0 -5.2001343 -2.328186 -5.2001343 -5.2001343z" fill-rule="evenodd" id="el_5vsuWuDuyi"/></g><g id="el_-cW59_7c66_8NjdNJVN2" data-animator-group="true" data-animator-type="0"><g id="el_-cW59_7c66_1z7uU1bt0" data-animator-group="true" data-animator-type="2"><path d="m257.7076 274.8986l11.394318 -4.9769897l2.8333435 6.491699l-11.394318 4.9769897z" fill-rule="evenodd" id="el_-cW59_7c66"/></g></g><g id="el_GXin-c0v-9_7g_MtWiHT" data-animator-group="true" data-animator-type="0"><g id="el_GXin-c0v-9_9M8ZxBN1l" data-animator-group="true" data-animator-type="2"><path d="m291.04358 274.8986l-11.394318 -4.9769897l-2.8333435 6.491699l11.394318 4.9769897z" fill-rule="evenodd" id="el_GXin-c0v-9"/></g></g><path d="m355.93964 24.485565l45.480316 0l0 307.0866l-45.480316 0z" fill-rule="evenodd" id="el_aewwkKHHC9"/><path d="m355.93964 24.485565l3.8110352 0l0 307.0866l-3.8110352 0z" fill-rule="evenodd" id="el_OWlZGpvldP"/><path d="m397.60892 24.485565l3.8110352 0l0 307.0866l-3.8110352 0z" fill-rule="evenodd" id="el_tkB7w0RbSG"/><path d="m376.7743 24.485565l3.8110046 0l0 307.0866l-3.8110046 0z" fill-rule="evenodd" id="el_gAxy67Ibhb"/><path d="m366.35696 24.485565l3.8110046 0l0 307.0866l-3.8110046 0z" fill-rule="evenodd" id="el_vw1egq885yo"/><path d="m387.1916 24.485565l3.8110352 0l0 307.0866l-3.8110352 0z" fill-rule="evenodd" id="el_BUG8JWr1yIj"/><path d="m346.17584 311.87665l65.00787 0l0 19.685028l-65.00787 0z" fill-rule="evenodd" id="el_cQpQNst4bxy"/><path d="m346.17584 4.8005247l65.00787 0l0 19.68504l-65.00787 0z" fill-rule="evenodd" id="el_70eNdIOy0IL"/><path d="m358.3491 308.0971l40.661407 0l0 3.779541l-40.661407 0z" fill-rule="evenodd" id="el_EahuJ_izA1R"/><path d="m358.3491 24.485565l40.661407 0l0 3.7795258l-40.661407 0z" fill-rule="evenodd" id="el_2zIWedufypr"/><g id="el_WxpHPHmXkcg_CFMZ7MOoC" data-animator-group="true" data-animator-type="2"><path d="m217.29659 219.09207l0 0c0 -3.8326569 3.1069794 -6.939636 6.939636 -6.939636l30.981628 0l0 0l16.251968 0l3.8950195 0c1.8404846 0 3.6056213 0.73114014 4.9070435 2.0325775c1.3014526 1.3014374 2.0325928 3.0665588 2.0325928 4.9070587l0 17.34909l0 0l0 10.409439l0 0c0 3.8326569 -3.1069946 6.939636 -6.939636 6.939636l-3.8950195 0l-4.9804688 4.651779l-11.2715 -4.651779l-30.981628 0c-3.8326569 0 -6.939636 -3.1069794 -6.939636 -6.939636l0 0l0 -10.409439l0 0z" fill-rule="evenodd" id="el_WxpHPHmXkcg"/></g><path d="m234.77554 230.65134l-1.09375 0l0 -2.53125l-2.703125 0l0 2.53125l-1.09375 0l0 -5.78125l1.09375 0l0 2.484375l2.703125 0l0 -2.484375l1.09375 0l0 5.78125zm1.1104279 0l0 -4.109375l0.59375 0q0.203125 0 0.265625 0.1875l0.0625 0.296875q0.109375 -0.109375 0.21875 -0.203125q0.125 -0.109375 0.25 -0.171875q0.140625 -0.078125 0.296875 -0.125q0.15625 -0.046875 0.328125 -0.046875q0.390625 0 0.640625 0.21875q0.25 0.203125 0.375 0.546875q0.09375 -0.203125 0.234375 -0.34375q0.15625 -0.140625 0.328125 -0.234375q0.171875 -0.09375 0.359375 -0.140625q0.203125 -0.046875 0.390625 -0.046875q0.34375 0 0.609375 0.109375q0.265625 0.109375 0.4375 0.3125q0.1875 0.1875 0.28125 0.484375q0.09375 0.28125 0.09375 0.65625l0 2.609375l-1.0 0l0 -2.609375q0 -0.390625 -0.171875 -0.59375q-0.171875 -0.203125 -0.5 -0.203125q-0.15625 0 -0.28125 0.0625q-0.125 0.046875 -0.234375 0.15625q-0.09375 0.09375 -0.15625 0.25q-0.046875 0.140625 -0.046875 0.328125l0 2.609375l-0.984375 0l0 -2.609375q0 -0.421875 -0.171875 -0.609375q-0.171875 -0.1875 -0.484375 -0.1875q-0.21875 0 -0.40625 0.109375q-0.1875 0.109375 -0.34375 0.296875l0 3.0l-0.984375 0zm8.423416 -4.171875q0.390625 0 0.71875 0.125q0.328125 0.125 0.5625 0.375q0.234375 0.234375 0.359375 0.578125q0.140625 0.34375 0.140625 0.78125q0 0.109375 -0.015625 0.1875q0 0.078125 -0.03125 0.125q-0.03125 0.03125 -0.078125 0.0625q-0.03125 0.015625 -0.109375 0.015625l-2.53125 0q0.046875 0.625 0.34375 0.921875q0.296875 0.296875 0.78125 0.296875q0.234375 0 0.40625 -0.046875q0.1875 -0.0625 0.3125 -0.125q0.125 -0.078125 0.21875 -0.125q0.109375 -0.0625 0.203125 -0.0625q0.0625 0 0.09375 0.03125q0.046875 0.015625 0.078125 0.0625l0.296875 0.359375q-0.171875 0.1875 -0.375 0.328125q-0.203125 0.125 -0.421875 0.203125q-0.21875 0.078125 -0.453125 0.109375q-0.234375 0.03125 -0.453125 0.03125q-0.421875 0 -0.796875 -0.140625q-0.359375 -0.140625 -0.640625 -0.421875q-0.265625 -0.28125 -0.421875 -0.6875q-0.15625 -0.40625 -0.15625 -0.953125q0 -0.421875 0.140625 -0.78125q0.140625 -0.375 0.390625 -0.640625q0.25 -0.28125 0.609375 -0.4375q0.375 -0.171875 0.828125 -0.171875zm0.03125 0.71875q-0.4375 0 -0.6875 0.25q-0.234375 0.234375 -0.3125 0.671875l1.859375 0q0 -0.1875 -0.046875 -0.359375q-0.046875 -0.171875 -0.15625 -0.296875q-0.109375 -0.125 -0.28125 -0.1875q-0.15625 -0.078125 -0.375 -0.078125zm2.55719 3.453125l0 -4.109375l0.578125 0q0.15625 0 0.203125 0.0625q0.0625 0.0625 0.09375 0.1875l0.046875 0.5q0.234375 -0.375 0.515625 -0.59375q0.296875 -0.234375 0.671875 -0.234375q0.296875 0 0.5 0.140625l-0.125 0.75q-0.015625 0.0625 -0.0625 0.09375q-0.03125 0.03125 -0.09375 0.03125q-0.0625 0 -0.171875 -0.015625q-0.09375 -0.03125 -0.265625 -0.03125q-0.3125 0 -0.53125 0.171875q-0.21875 0.15625 -0.375 0.484375l0 2.5625l-0.984375 0zm4.9554596 -4.171875q0.390625 0 0.71875 0.125q0.328125 0.125 0.5625 0.375q0.234375 0.234375 0.359375 0.578125q0.140625 0.34375 0.140625 0.78125q0 0.109375 -0.015625 0.1875q0 0.078125 -0.03125 0.125q-0.03125 0.03125 -0.078125 0.0625q-0.03125 0.015625 -0.109375 0.015625l-2.53125 0q0.046875 0.625 0.34375 0.921875q0.296875 0.296875 0.78125 0.296875q0.234375 0 0.40625 -0.046875q0.1875 -0.0625 0.3125 -0.125q0.125 -0.078125 0.21875 -0.125q0.109375 -0.0625 0.203125 -0.0625q0.0625 0 0.09375 0.03125q0.046875 0.015625 0.078125 0.0625l0.296875 0.359375q-0.171875 0.1875 -0.375 0.328125q-0.203125 0.125 -0.421875 0.203125q-0.21875 0.078125 -0.453125 0.109375q-0.234375 0.03125 -0.453125 0.03125q-0.421875 0 -0.796875 -0.140625q-0.359375 -0.140625 -0.640625 -0.421875q-0.265625 -0.28125 -0.421875 -0.6875q-0.15625 -0.40625 -0.15625 -0.953125q0 -0.421875 0.140625 -0.78125q0.140625 -0.375 0.390625 -0.640625q0.25 -0.28125 0.609375 -0.4375q0.375 -0.171875 0.828125 -0.171875zm0.03125 0.71875q-0.4375 0 -0.6875 0.25q-0.234375 0.234375 -0.3125 0.671875l1.859375 0q0 -0.1875 -0.046875 -0.359375q-0.046875 -0.171875 -0.15625 -0.296875q-0.109375 -0.125 -0.28125 -0.1875q-0.15625 -0.078125 -0.375 -0.078125zm5.5230255 -0.71875q0.265625 0 0.484375 0.0625q0.234375 0.046875 0.4375 0.140625l1.171875 0l0 0.375q0 0.09375 -0.046875 0.140625q-0.046875 0.046875 -0.15625 0.078125l-0.375 0.0625q0.046875 0.109375 0.0625 0.234375q0.015625 0.109375 0.015625 0.234375q0 0.296875 -0.125 0.546875q-0.109375 0.25 -0.328125 0.421875q-0.21875 0.171875 -0.515625 0.265625q-0.28125 0.09375 -0.625 0.09375q-0.234375 0 -0.453125 -0.046875q-0.203125 0.109375 -0.203125 0.265625q0 0.109375 0.109375 0.171875q0.125 0.0625 0.3125 0.09375q0.1875 0.015625 0.421875 0.03125q0.234375 0 0.484375 0.015625q0.25 0.015625 0.484375 0.078125q0.234375 0.046875 0.421875 0.15625q0.1875 0.109375 0.296875 0.296875q0.109375 0.171875 0.109375 0.46875q0 0.265625 -0.140625 0.515625q-0.125 0.265625 -0.375 0.46875q-0.25 0.203125 -0.625 0.3125q-0.359375 0.125 -0.84375 0.125q-0.46875 0 -0.8125 -0.09375q-0.34375 -0.078125 -0.5625 -0.234375q-0.21873474 -0.140625 -0.34373474 -0.34375q-0.109375 -0.1875 -0.109375 -0.40625q0 -0.28125 0.171875 -0.46875q0.1875 -0.203125 0.49998474 -0.328125q-0.15625 -0.078125 -0.25 -0.21875q-0.09373474 -0.140625 -0.09373474 -0.375q0 -0.078125 0.03125 -0.171875q0.03125 -0.109375 0.09373474 -0.203125q0.078125 -0.09375 0.171875 -0.171875q0.109375 -0.09375 0.234375 -0.171875q-0.3125 -0.15625 -0.49998474 -0.4375q-0.171875 -0.28125 -0.171875 -0.65625q0 -0.3125 0.125 -0.546875q0.12498474 -0.25 0.34373474 -0.421875q0.21875 -0.171875 0.515625 -0.265625q0.296875 -0.09375 0.65625 -0.09375zm1.078125 4.359375q0 -0.125 -0.078125 -0.203125q-0.0625 -0.078125 -0.1875 -0.109375q-0.125 -0.046875 -0.296875 -0.0625q-0.15625 -0.03125 -0.34375 -0.03125q-0.1875 -0.015625 -0.390625 -0.015625q-0.1875 -0.015625 -0.375 -0.046875q-0.171875 0.09375 -0.28125 0.21875q-0.09375 0.125 -0.09375 0.296875q0 0.109375 0.046875 0.203125q0.0625 0.09375 0.171875 0.15625q0.125 0.0625 0.3125 0.09375q0.1875 0.046875 0.453125 0.046875q0.28125 0 0.484375 -0.046875q0.203125 -0.03125 0.328125 -0.109375q0.125 -0.0625 0.1875 -0.171875q0.0625 -0.109375 0.0625 -0.21875zm-1.078125 -2.34375q0.171875 0 0.3125 -0.046875q0.140625 -0.046875 0.21875 -0.125q0.09375 -0.09375 0.140625 -0.21875q0.046875 -0.125 0.046875 -0.28125q0 -0.296875 -0.1875 -0.46875q-0.171875 -0.1875 -0.53125 -0.1875q-0.375 0 -0.5625 0.1875q-0.171875 0.171875 -0.171875 0.46875q0 0.140625 0.046875 0.265625q0.046875 0.125 0.125 0.21875q0.09375 0.09375 0.234375 0.140625q0.140625 0.046875 0.328125 0.046875zm2.7180786 2.15625l0 -4.109375l0.578125 0q0.15625 0 0.203125 0.0625q0.0625 0.0625 0.09375 0.1875l0.046875 0.5q0.234375 -0.375 0.515625 -0.59375q0.296875 -0.234375 0.671875 -0.234375q0.296875 0 0.5 0.140625l-0.125 0.75q-0.015625 0.0625 -0.0625 0.09375q-0.03125 0.03125 -0.09375 0.03125q-0.0625 0 -0.171875 -0.015625q-0.09375 -0.03125 -0.265625 -0.03125q-0.3125 0 -0.53125 0.171875q-0.21875 0.15625 -0.375 0.484375l0 2.5625l-0.984375 0zm3.2679749 0l0 -4.109375l0.59375 0q0.203125 0 0.265625 0.1875l0.0625 0.328125q0.125 -0.140625 0.265625 -0.234375q0.140625 -0.109375 0.28125 -0.1875q0.15625 -0.078125 0.328125 -0.109375q0.1875 -0.046875 0.390625 -0.046875q0.34375 0 0.59375 0.125q0.265625 0.109375 0.4375 0.3125q0.171875 0.203125 0.265625 0.5q0.09375 0.28125 0.09375 0.625l0 2.609375l-1.0 0l0 -2.609375q0 -0.375 -0.171875 -0.578125q-0.171875 -0.21875 -0.515625 -0.21875q-0.265625 0 -0.484375 0.125q-0.21875 0.109375 -0.421875 0.3125l0 2.96875l-0.984375 0zm5.938568 -5.78125l0 2.28125q0 0.375 -0.046875 0.71875q-0.03125 0.34375 -0.09375 0.734375l-0.65625 0q-0.0625 -0.390625 -0.109375 -0.734375q-0.03125 -0.34375 -0.03125 -0.71875l0 -2.28125l0.9375 0zm-1.078125 5.234375q0 -0.125 0.03125 -0.234375q0.046875 -0.109375 0.125 -0.1875q0.09375 -0.078125 0.203125 -0.125q0.109375 -0.046875 0.234375 -0.046875q0.125 0 0.234375 0.046875q0.125 0.046875 0.203125 0.125q0.078125 0.078125 0.125 0.1875q0.046875 0.109375 0.046875 0.234375q0 0.125 -0.046875 0.234375q-0.046875 0.109375 -0.125 0.203125q-0.078125 0.078125 -0.203125 0.125q-0.109375 0.046875 -0.234375 0.046875q-0.125 0 -0.234375 -0.046875q-0.109375 -0.046875 -0.203125 -0.125q-0.078125 -0.09375 -0.125 -0.203125q-0.03125 -0.109375 -0.03125 -0.234375z" fill-rule="nonzero" id="el_2-X2lRlZxmd"/><path d="m244.48654 240.65134l-0.828125 0q-0.140625 0 -0.234375 -0.0625q-0.09375 -0.078125 -0.140625 -0.1875l-0.421875 -1.171875l-2.40625 0l-0.421875 1.171875q-0.03125 0.09375 -0.125 0.171875q-0.09375 0.078125 -0.234375 0.078125l-0.828125 0l2.265625 -5.78125l1.09375 0l2.28125 5.78125zm-3.75 -2.1875l1.84375 0l-0.703125 -1.921875q-0.046875 -0.125 -0.109375 -0.296875q-0.046875 -0.171875 -0.109375 -0.375q-0.0625 0.203125 -0.109375 0.375q-0.046875 0.171875 -0.109375 0.3125l-0.703125 1.90625zm3.7893066 -1.921875l0.78125 0q0.109375 0 0.1875 0.0625q0.078125 0.046875 0.09375 0.125l0.59375 2.1875q0.046875 0.1875 0.078125 0.359375q0.03125 0.171875 0.046875 0.34375q0.046875 -0.171875 0.09375 -0.34375q0.0625 -0.171875 0.109375 -0.359375l0.6875 -2.1875q0.015625 -0.09375 0.09375 -0.140625q0.078125 -0.046875 0.171875 -0.046875l0.4375 0q0.109375 0 0.171875 0.046875q0.078125 0.046875 0.09375 0.140625l0.671875 2.234375q0.0625 0.171875 0.09375 0.34375q0.046875 0.15625 0.09375 0.3125q0.015625 -0.171875 0.046875 -0.34375q0.046875 -0.171875 0.09375 -0.359375l0.609375 -2.1875q0.015625 -0.078125 0.09375 -0.125q0.078125 -0.0625 0.171875 -0.0625l0.75 0l-1.296875 4.109375l-0.796875 0q-0.125 0 -0.1875 -0.171875l-0.734375 -2.375q-0.03125 -0.109375 -0.0625 -0.234375q-0.03125 -0.125 -0.0625 -0.234375q-0.015625 0.125 -0.046875 0.25q-0.03125 0.109375 -0.0625 0.21875l-0.75 2.375q-0.046875 0.171875 -0.21875 0.171875l-0.75 0l-1.296875 -4.109375zm8.515411 -0.0625q0.390625 0 0.71875 0.125q0.328125 0.125 0.5625 0.375q0.234375 0.234375 0.359375 0.578125q0.140625 0.34375 0.140625 0.78125q0 0.109375 -0.015625 0.1875q0 0.078125 -0.03125 0.125q-0.03125 0.03125 -0.078125 0.0625q-0.03125 0.015625 -0.109375 0.015625l-2.53125 0q0.046875 0.625 0.34375 0.921875q0.296875 0.296875 0.78125 0.296875q0.234375 0 0.40625 -0.046875q0.1875 -0.0625 0.3125 -0.125q0.125 -0.078125 0.21875 -0.125q0.109375 -0.0625 0.203125 -0.0625q0.0625 0 0.09375 0.03125q0.046875 0.015625 0.078125 0.0625l0.296875 0.359375q-0.171875 0.1875 -0.375 0.328125q-0.203125 0.125 -0.421875 0.203125q-0.21875 0.078125 -0.453125 0.109375q-0.234375 0.03125 -0.453125 0.03125q-0.421875 0 -0.796875 -0.140625q-0.359375 -0.140625 -0.640625 -0.421875q-0.265625 -0.28125 -0.421875 -0.6875q-0.15625 -0.40625 -0.15625 -0.953125q0 -0.421875 0.140625 -0.78125q0.140625 -0.375 0.390625 -0.640625q0.25 -0.28125 0.609375 -0.4375q0.375 -0.171875 0.828125 -0.171875zm0.03125 0.71875q-0.4375 0 -0.6875 0.25q-0.234375 0.234375 -0.3125 0.671875l1.859375 0q0 -0.1875 -0.046875 -0.359375q-0.046875 -0.171875 -0.15625 -0.296875q-0.109375 -0.125 -0.28125 -0.1875q-0.15625 -0.078125 -0.375 -0.078125zm2.729065 3.453125l0 -3.359375l-0.359375 -0.0625q-0.109375 -0.015625 -0.1875 -0.078125q-0.0625 -0.0625 -0.0625 -0.15625l0 -0.40625l0.609375 0l0 -0.3125q0 -0.34375 0.109375 -0.625q0.109375 -0.28125 0.296875 -0.46875q0.203125 -0.203125 0.484375 -0.3125q0.28125 -0.109375 0.640625 -0.109375q0.28125 0 0.53125 0.078125l-0.015625 0.5q-0.015625 0.109375 -0.125 0.140625q-0.09375 0.03125 -0.21875 0.03125q-0.171875 0 -0.3125 0.046875q-0.140625 0.03125 -0.234375 0.125q-0.09375 0.09375 -0.15625 0.25q-0.046875 0.15625 -0.046875 0.375l0 0.28125l1.078125 0l0 0.703125l-1.046875 0l0 3.359375l-0.984375 0zm4.0227356 -5.78125l0 2.28125q0 0.375 -0.046875 0.71875q-0.03125 0.34375 -0.09375 0.734375l-0.65625 0q-0.0625 -0.390625 -0.109375 -0.734375q-0.03125 -0.34375 -0.03125 -0.71875l0 -2.28125l0.9375 0zm-1.078125 5.234375q0 -0.125 0.03125 -0.234375q0.046875 -0.109375 0.125 -0.1875q0.09375 -0.078125 0.203125 -0.125q0.109375 -0.046875 0.234375 -0.046875q0.125 0 0.234375 0.046875q0.125 0.046875 0.203125 0.125q0.078125 0.078125 0.125 0.1875q0.046875 0.109375 0.046875 0.234375q0 0.125 -0.046875 0.234375q-0.046875 0.109375 -0.125 0.203125q-0.078125 0.078125 -0.203125 0.125q-0.109375 0.046875 -0.234375 0.046875q-0.125 0 -0.234375 -0.046875q-0.109375 -0.046875 -0.203125 -0.125q-0.078125 -0.09375 -0.125 -0.203125q-0.03125 -0.109375 -0.03125 -0.234375z" fill-rule="nonzero" id="el_4tjFko9Wl-a"/></g><script>(function(){var a=document.querySelector('#el_j73ZR7Xha'),b=a.querySelectorAll('style'),c=function(d){b.forEach(function(f){var g=f.textContent;g&amp;&amp;(f.textContent=g.replace(/transform-box:[^;\r\n]*/gi,'transform-box: '+d))})};c('initial'),window.requestAnimationFrame(function(){return c('fill-box')})})();</script></svg>