<svg version="1.1" viewBox="0.0 0.0 4000.0 4000.0" fill="none" stroke="none" stroke-linecap="square" stroke-miterlimit="10" xmlns:xlink="http://www.w3.org/1999/xlink" xmlns="http://www.w3.org/2000/svg"><clipPath id="p.0"><path d="m0 0l4000.0 0l0 4000.0l-4000.0 0l0 -4000.0z" clip-rule="nonzero"/></clipPath><g clip-path="url(#p.0)"><path fill="#000000" fill-opacity="0.0" d="m0 0l4000.0 0l0 4000.0l-4000.0 0z" fill-rule="evenodd"/><path fill="#000000" fill-opacity="0.902" d="m0 2000.0l0 0c0 -1104.5696 895.4305 -2000.0 2000.0 -2000.0l0 0c530.43286 0 1039.1409 210.71368 1414.2136 585.78644c375.07275 375.07275 585.7864 883.7806 585.7864 1414.2136l0 0c0 1104.5696 -895.4304 2000.0 -2000.0 2000.0l0 0c-1104.5696 0 -2000.0 -895.4304 -2000.0 -2000.0zm1823.32 0c0 97.57764 79.10242 176.67993 176.68005 176.67993c97.57764 0 176.67993 -79.102295 176.67993 -176.67993c0 -97.57764 -79.102295 -176.68005 -176.67993 -176.68005c-97.57764 0 -176.68005 79.10242 -176.68005 176.68005z" fill-rule="evenodd"/></g></svg>