<svg version="1.1" viewBox="0 0 548 329" fill="none" stroke="none" stroke-linecap="square" stroke-miterlimit="10" xmlns:xlink="http://www.w3.org/1999/xlink" xmlns="http://www.w3.org/2000/svg" id="el_pH1BgVVAz"><style>@-webkit-keyframes el_XMGRcG_8sJt_Animation{42%{opacity: 0;}44%{opacity: 1;}90%{opacity: 1;}92%{opacity: 0;}0%{opacity: 0;}100%{opacity: 0;}}@keyframes el_XMGRcG_8sJt_Animation{42%{opacity: 0;}44%{opacity: 1;}90%{opacity: 1;}92%{opacity: 0;}0%{opacity: 0;}100%{opacity: 0;}}@-webkit-keyframes el_YRFOwFnhLrL_Animation{40%{opacity: 0;}42%{opacity: 1;}90%{opacity: 1;}92%{opacity: 0;}0%{opacity: 0;}100%{opacity: 0;}}@keyframes el_YRFOwFnhLrL_Animation{40%{opacity: 0;}42%{opacity: 1;}90%{opacity: 1;}92%{opacity: 0;}0%{opacity: 0;}100%{opacity: 0;}}@-webkit-keyframes el_bPSnL2eQsqt_Animation{38%{opacity: 0;}40%{opacity: 1;}90%{opacity: 1;}92%{opacity: 0;}0%{opacity: 0;}100%{opacity: 0;}}@keyframes el_bPSnL2eQsqt_Animation{38%{opacity: 0;}40%{opacity: 1;}90%{opacity: 1;}92%{opacity: 0;}0%{opacity: 0;}100%{opacity: 0;}}@-webkit-keyframes el_12nDQ-Q84DH_YMFeq1pF1_Animation{24%{-webkit-transform: translate(0px, 0px);transform: translate(0px, 0px);}30%{-webkit-transform: translate(-3px, 0px);transform: translate(-3px, 0px);}36%{-webkit-transform: translate(3px, 0px);transform: translate(3px, 0px);}42%{-webkit-transform: translate(-3px, 0px);transform: translate(-3px, 0px);}48%{-webkit-transform: translate(3px, 0px);transform: translate(3px, 0px);}54%{-webkit-transform: translate(0px, 0px);transform: translate(0px, 0px);}0%{-webkit-transform: translate(0px, 0px);transform: translate(0px, 0px);}100%{-webkit-transform: translate(0px, 0px);transform: translate(0px, 0px);}}@keyframes el_12nDQ-Q84DH_YMFeq1pF1_Animation{24%{-webkit-transform: translate(0px, 0px);transform: translate(0px, 0px);}30%{-webkit-transform: translate(-3px, 0px);transform: translate(-3px, 0px);}36%{-webkit-transform: translate(3px, 0px);transform: translate(3px, 0px);}42%{-webkit-transform: translate(-3px, 0px);transform: translate(-3px, 0px);}48%{-webkit-transform: translate(3px, 0px);transform: translate(3px, 0px);}54%{-webkit-transform: translate(0px, 0px);transform: translate(0px, 0px);}0%{-webkit-transform: translate(0px, 0px);transform: translate(0px, 0px);}100%{-webkit-transform: translate(0px, 0px);transform: translate(0px, 0px);}}@-webkit-keyframes el_UeaCCRjQb8x_n8DhA4BlE_Animation{24%{-webkit-transform: translate(0px, 0px);transform: translate(0px, 0px);}30%{-webkit-transform: translate(-3px, 0px);transform: translate(-3px, 0px);}36%{-webkit-transform: translate(3px, 0px);transform: translate(3px, 0px);}42%{-webkit-transform: translate(-3px, 0px);transform: translate(-3px, 0px);}48%{-webkit-transform: translate(3px, 0px);transform: translate(3px, 0px);}54%{-webkit-transform: translate(0px, 0px);transform: translate(0px, 0px);}0%{-webkit-transform: translate(0px, 0px);transform: translate(0px, 0px);}100%{-webkit-transform: translate(0px, 0px);transform: translate(0px, 0px);}}@keyframes el_UeaCCRjQb8x_n8DhA4BlE_Animation{24%{-webkit-transform: translate(0px, 0px);transform: translate(0px, 0px);}30%{-webkit-transform: translate(-3px, 0px);transform: translate(-3px, 0px);}36%{-webkit-transform: translate(3px, 0px);transform: translate(3px, 0px);}42%{-webkit-transform: translate(-3px, 0px);transform: translate(-3px, 0px);}48%{-webkit-transform: translate(3px, 0px);transform: translate(3px, 0px);}54%{-webkit-transform: translate(0px, 0px);transform: translate(0px, 0px);}0%{-webkit-transform: translate(0px, 0px);transform: translate(0px, 0px);}100%{-webkit-transform: translate(0px, 0px);transform: translate(0px, 0px);}}@-webkit-keyframes el_ngTi0Jx0_x6_upo1HVpo7_Animation{24%{-webkit-transform: translate(0px, 0px);transform: translate(0px, 0px);}30%{-webkit-transform: translate(-3px, 0px);transform: translate(-3px, 0px);}36%{-webkit-transform: translate(3px, 0px);transform: translate(3px, 0px);}42%{-webkit-transform: translate(-3px, 0px);transform: translate(-3px, 0px);}48%{-webkit-transform: translate(3px, 0px);transform: translate(3px, 0px);}54%{-webkit-transform: translate(0px, 0px);transform: translate(0px, 0px);}0%{-webkit-transform: translate(0px, 0px);transform: translate(0px, 0px);}100%{-webkit-transform: translate(0px, 0px);transform: translate(0px, 0px);}}@keyframes el_ngTi0Jx0_x6_upo1HVpo7_Animation{24%{-webkit-transform: translate(0px, 0px);transform: translate(0px, 0px);}30%{-webkit-transform: translate(-3px, 0px);transform: translate(-3px, 0px);}36%{-webkit-transform: translate(3px, 0px);transform: translate(3px, 0px);}42%{-webkit-transform: translate(-3px, 0px);transform: translate(-3px, 0px);}48%{-webkit-transform: translate(3px, 0px);transform: translate(3px, 0px);}54%{-webkit-transform: translate(0px, 0px);transform: translate(0px, 0px);}0%{-webkit-transform: translate(0px, 0px);transform: translate(0px, 0px);}100%{-webkit-transform: translate(0px, 0px);transform: translate(0px, 0px);}}@-webkit-keyframes el_ZepVl45Uv-z_GqYjLSizV_Animation{24%{-webkit-transform: translate(0px, 0px);transform: translate(0px, 0px);}30%{-webkit-transform: translate(-3px, 0px);transform: translate(-3px, 0px);}36%{-webkit-transform: translate(3px, 0px);transform: translate(3px, 0px);}42%{-webkit-transform: translate(-3px, 0px);transform: translate(-3px, 0px);}48%{-webkit-transform: translate(3px, 0px);transform: translate(3px, 0px);}54%{-webkit-transform: translate(0px, 0px);transform: translate(0px, 0px);}0%{-webkit-transform: translate(0px, 0px);transform: translate(0px, 0px);}100%{-webkit-transform: translate(0px, 0px);transform: translate(0px, 0px);}}@keyframes el_ZepVl45Uv-z_GqYjLSizV_Animation{24%{-webkit-transform: translate(0px, 0px);transform: translate(0px, 0px);}30%{-webkit-transform: translate(-3px, 0px);transform: translate(-3px, 0px);}36%{-webkit-transform: translate(3px, 0px);transform: translate(3px, 0px);}42%{-webkit-transform: translate(-3px, 0px);transform: translate(-3px, 0px);}48%{-webkit-transform: translate(3px, 0px);transform: translate(3px, 0px);}54%{-webkit-transform: translate(0px, 0px);transform: translate(0px, 0px);}0%{-webkit-transform: translate(0px, 0px);transform: translate(0px, 0px);}100%{-webkit-transform: translate(0px, 0px);transform: translate(0px, 0px);}}@-webkit-keyframes el_g9gYfMd6jhZ_Animation{12%{opacity: 0;}16%{opacity: 1;}30%{opacity: 1;}34%{opacity: 0;}0%{opacity: 0;}100%{opacity: 0;}}@keyframes el_g9gYfMd6jhZ_Animation{12%{opacity: 0;}16%{opacity: 1;}30%{opacity: 1;}34%{opacity: 0;}0%{opacity: 0;}100%{opacity: 0;}}@-webkit-keyframes el_tGKAp4A2V5_Animation{11.33%{opacity: 0;}15.33%{opacity: 1;}30%{opacity: 1;}34%{opacity: 0;}0%{opacity: 0;}100%{opacity: 0;}}@keyframes el_tGKAp4A2V5_Animation{11.33%{opacity: 0;}15.33%{opacity: 1;}30%{opacity: 1;}34%{opacity: 0;}0%{opacity: 0;}100%{opacity: 0;}}@-webkit-keyframes el_bveXEfaeBi_Animation{10.67%{opacity: 0;}14.67%{opacity: 1;}30%{opacity: 1;}34%{opacity: 0;}0%{opacity: 0;}100%{opacity: 0;}}@keyframes el_bveXEfaeBi_Animation{10.67%{opacity: 0;}14.67%{opacity: 1;}30%{opacity: 1;}34%{opacity: 0;}0%{opacity: 0;}100%{opacity: 0;}}@-webkit-keyframes el_2WXvh320Ps_Animation{10%{opacity: 0;}14.00%{opacity: 1;}30%{opacity: 1;}34%{opacity: 0;}0%{opacity: 0;}100%{opacity: 0;}}@keyframes el_2WXvh320Ps_Animation{10%{opacity: 0;}14.00%{opacity: 1;}30%{opacity: 1;}34%{opacity: 0;}0%{opacity: 0;}100%{opacity: 0;}}@-webkit-keyframes el_yyWzrBmpz4_Animation{0%{opacity: 0;}10%{opacity: 1;}34%{opacity: 1;}44%{opacity: 0;}100%{opacity: 0;}}@keyframes el_yyWzrBmpz4_Animation{0%{opacity: 0;}10%{opacity: 1;}34%{opacity: 1;}44%{opacity: 0;}100%{opacity: 0;}}@-webkit-keyframes el_yyWzrBmpz4_7imzoGtvW_Animation{0%{-webkit-transform: scale(0, 0);transform: scale(0, 0);}10%{-webkit-transform: scale(1, 1);transform: scale(1, 1);}34%{-webkit-transform: scale(1, 1);transform: scale(1, 1);}44%{-webkit-transform: scale(0, 0);transform: scale(0, 0);}100%{-webkit-transform: scale(0, 0);transform: scale(0, 0);}}@keyframes el_yyWzrBmpz4_7imzoGtvW_Animation{0%{-webkit-transform: scale(0, 0);transform: scale(0, 0);}10%{-webkit-transform: scale(1, 1);transform: scale(1, 1);}34%{-webkit-transform: scale(1, 1);transform: scale(1, 1);}44%{-webkit-transform: scale(0, 0);transform: scale(0, 0);}100%{-webkit-transform: scale(0, 0);transform: scale(0, 0);}}@-webkit-keyframes el_1NI2hFiLeL_GcD0HQFvS_Animation{0%{-webkit-transform: rotate(0deg);transform: rotate(0deg);}4%{-webkit-transform: rotate(-20deg);transform: rotate(-20deg);}34%{-webkit-transform: rotate(-20deg);transform: rotate(-20deg);}38%{-webkit-transform: rotate(0deg);transform: rotate(0deg);}100%{-webkit-transform: rotate(0deg);transform: rotate(0deg);}}@keyframes el_1NI2hFiLeL_GcD0HQFvS_Animation{0%{-webkit-transform: rotate(0deg);transform: rotate(0deg);}4%{-webkit-transform: rotate(-20deg);transform: rotate(-20deg);}34%{-webkit-transform: rotate(-20deg);transform: rotate(-20deg);}38%{-webkit-transform: rotate(0deg);transform: rotate(0deg);}100%{-webkit-transform: rotate(0deg);transform: rotate(0deg);}}#el_pH1BgVVAz *{-webkit-animation-duration: 5s;animation-duration: 5s;-webkit-animation-iteration-count: infinite;animation-iteration-count: infinite;-webkit-animation-timing-function: cubic-bezier(0, 0, 1, 1);animation-timing-function: cubic-bezier(0, 0, 1, 1);}#el_Ov57Spveq8{fill: #000000;fill-opacity: 0.0;}#el_my3MDu99gT{fill: #434343;}#el_t3k8wBubsP{fill: #434343;}#el_cWcnYpolSb{fill: #434343;}#el_1NI2hFiLeL{fill: #434343;}#el_Wm_PsK9z1z{fill: url(#p.1);}#el_ncm8oBtY4f{fill: #ffffff;}#el__EnClBFPOW{fill: #ffffff;}#el_U1JRaJE7JV{fill: #434343;}#el_mRCe4QLIZm{fill: #434343;}#el_yyWzrBmpz4{fill: #ffffff;-webkit-animation-name: el_yyWzrBmpz4_Animation;animation-name: el_yyWzrBmpz4_Animation;-webkit-animation-timing-function: cubic-bezier(0, 0, 0.58, 1);animation-timing-function: cubic-bezier(0, 0, 0.58, 1);}#el_2WXvh320Ps{fill: #000000;-webkit-animation-name: el_2WXvh320Ps_Animation;animation-name: el_2WXvh320Ps_Animation;}#el_bveXEfaeBi{fill: #000000;-webkit-animation-name: el_bveXEfaeBi_Animation;animation-name: el_bveXEfaeBi_Animation;}#el_tGKAp4A2V5{fill: #000000;-webkit-animation-name: el_tGKAp4A2V5_Animation;animation-name: el_tGKAp4A2V5_Animation;}#el_g9gYfMd6jhZ{fill: #000000;-webkit-animation-name: el_g9gYfMd6jhZ_Animation;animation-name: el_g9gYfMd6jhZ_Animation;}#el_CW1n7WTXsrt{fill: #434343;}#el_SDEUKEJ3Tqi{fill: #434343;}#el_4NAJmX0nLLd{fill: #434343;}#el_rupIrB-ApqU{fill: #434343;}#el_hFztB-3VXf-{fill: url(#p.2);}#el_ZepVl45Uv-z{fill: #ffffff;}#el_ngTi0Jx0_x6{fill: #ffffff;}#el_UeaCCRjQb8x{fill: #434343;}#el_12nDQ-Q84DH{fill: #434343;}#el_SLQS119pcgc{fill: #000000;fill-opacity: 0.0;visibility: hidden;}#el_bPSnL2eQsqt{fill: #ffffff;-webkit-animation-name: el_bPSnL2eQsqt_Animation;animation-name: el_bPSnL2eQsqt_Animation;}#el_YGpJ45SkcGH{fill: #000000;fill-opacity: 0.0;visibility: hidden;}#el_YRFOwFnhLrL{fill: #ffffff;-webkit-animation-name: el_YRFOwFnhLrL_Animation;animation-name: el_YRFOwFnhLrL_Animation;}#el_6NoEkEQk9xN{fill: #000000;fill-opacity: 0.0;visibility: hidden;}#el_XMGRcG_8sJt{fill: #ffffff;-webkit-animation-name: el_XMGRcG_8sJt_Animation;animation-name: el_XMGRcG_8sJt_Animation;}#el_1NI2hFiLeL_GcD0HQFvS{-webkit-animation-name: el_1NI2hFiLeL_GcD0HQFvS_Animation;animation-name: el_1NI2hFiLeL_GcD0HQFvS_Animation;-webkit-transform-origin: 0% 0%;transform-origin: 0% 0%;transform-box: fill-box;-webkit-transform: rotate(0deg);transform: rotate(0deg);-webkit-animation-timing-function: cubic-bezier(0, 0, 0.58, 1);animation-timing-function: cubic-bezier(0, 0, 0.58, 1);}#el_yyWzrBmpz4_7imzoGtvW{-webkit-transform-origin: 0% 100%;transform-origin: 0% 100%;transform-box: fill-box;-webkit-animation-name: el_yyWzrBmpz4_7imzoGtvW_Animation;animation-name: el_yyWzrBmpz4_7imzoGtvW_Animation;-webkit-animation-timing-function: cubic-bezier(0, 0, 0.58, 1);animation-timing-function: cubic-bezier(0, 0, 0.58, 1);}#el_ZepVl45Uv-z_GqYjLSizV{-webkit-animation-name: el_ZepVl45Uv-z_GqYjLSizV_Animation;animation-name: el_ZepVl45Uv-z_GqYjLSizV_Animation;-webkit-transform-origin: 50% 50%;transform-origin: 50% 50%;transform-box: fill-box;-webkit-animation-timing-function: cubic-bezier(0.42, 0, 0.58, 1);animation-timing-function: cubic-bezier(0.42, 0, 0.58, 1);}#el_ngTi0Jx0_x6_upo1HVpo7{-webkit-animation-name: el_ngTi0Jx0_x6_upo1HVpo7_Animation;animation-name: el_ngTi0Jx0_x6_upo1HVpo7_Animation;-webkit-transform-origin: 50% 50%;transform-origin: 50% 50%;transform-box: fill-box;-webkit-animation-timing-function: cubic-bezier(0.42, 0, 0.58, 1);animation-timing-function: cubic-bezier(0.42, 0, 0.58, 1);}#el_UeaCCRjQb8x_n8DhA4BlE{-webkit-animation-name: el_UeaCCRjQb8x_n8DhA4BlE_Animation;animation-name: el_UeaCCRjQb8x_n8DhA4BlE_Animation;-webkit-transform-origin: 50% 50%;transform-origin: 50% 50%;transform-box: fill-box;-webkit-animation-timing-function: cubic-bezier(0.42, 0, 0.58, 1);animation-timing-function: cubic-bezier(0.42, 0, 0.58, 1);}#el_12nDQ-Q84DH_YMFeq1pF1{-webkit-animation-name: el_12nDQ-Q84DH_YMFeq1pF1_Animation;animation-name: el_12nDQ-Q84DH_YMFeq1pF1_Animation;-webkit-transform-origin: 50% 50%;transform-origin: 50% 50%;transform-box: fill-box;-webkit-animation-timing-function: cubic-bezier(0.42, 0, 0.58, 1);animation-timing-function: cubic-bezier(0.42, 0, 0.58, 1);}</style><clipPath id="p.0"><path d="m0 0l548.77954 0l0 329.82153l-548.77954 0l0 -329.82153z" clip-rule="nonzero"/></clipPath><g clip-path="url(#p.0)" id="el_iFco-Li5X0"><path d="m0 0l548.77954 0l0 329.82153l-548.77954 0z" fill-rule="evenodd" id="el_Ov57Spveq8"/><path d="m93.59211 207.56653l0 0c0 -30.06047 24.368835 -54.429306 54.429314 -54.429306l0 0c14.435547 0 28.279861 5.734497 38.487335 15.941971c10.207489 10.207474 15.941986 24.051788 15.941986 38.487335l0 0c0 30.060486 -24.368835 54.42932 -54.42932 54.42932l0 0c-30.060478 0 -54.429314 -24.368835 -54.429314 -54.42932z" fill-rule="evenodd" id="el_my3MDu99gT"/><path d="m93.59211 206.90709l108.858635 0l0 72.3315l-108.858635 0z" fill-rule="evenodd" id="el_t3k8wBubsP"/><path d="m65.08619 209.00261l23.313606 -0.01852417l0 84.37749l-23.313606 0.01852417z" fill-rule="evenodd" id="el_cWcnYpolSb"/><g id="el_1NI2hFiLeL_GcD0HQFvS" data-animator-group="true" data-animator-type="1"><path d="m207.64493 208.99367l23.295074 0l0 84.37749l-23.295074 0z" fill-rule="evenodd" id="el_1NI2hFiLeL"/></g><defs><linearGradient id="p.1" gradientUnits="userSpaceOnUse" gradientTransform="matrix(6.8514719092412015 0.0 0.0 6.8514719092412015 0.0 0.0)" spreadMethod="pad" x1="13.660144939248992" y1="40.71973740398269" x2="13.66012099665725" y2="47.57120931318205"><stop offset="0.0" stop-color="#434343"/><stop offset="0.99999994" stop-color="#434343" stop-opacity="0.0"/><stop offset="1.0" stop-color="#ffffff" stop-opacity="0.0"/></linearGradient></defs><path d="m93.59211 278.9905l108.858635 0l0 46.94229l-108.858635 0z" fill-rule="evenodd" id="el_Wm_PsK9z1z"/><path d="m111.93752 194.73293l0 0c0 -7.8707886 6.380539 -14.2513275 14.2513275 -14.2513275l0 0c3.779686 0 7.404564 1.5014801 10.077217 4.174118c2.672638 2.672638 4.174103 6.297531 4.174103 10.077209l0 0c0 7.8707886 -6.3805237 14.2513275 -14.25132 14.2513275l0 0c-7.8707886 0 -14.2513275 -6.380539 -14.2513275 -14.2513275z" fill-rule="evenodd" id="el_ncm8oBtY4f"/><path d="m155.60217 194.73293l0 0c0 -7.8707886 6.380539 -14.2513275 14.2513275 -14.2513275l0 0c3.7796783 0 7.4045715 1.5014801 10.077209 4.174118c2.672638 2.672638 4.174118 6.297531 4.174118 10.077209l0 0c0 7.8707886 -6.380539 14.2513275 -14.2513275 14.2513275l0 0c-7.8707886 0 -14.2513275 -6.380539 -14.2513275 -14.2513275z" fill-rule="evenodd" id="el__EnClBFPOW"/><path d="m102.293884 182.10109l31.226898 -13.639755l7.76503 17.790985l-31.226906 13.6397705z" fill-rule="evenodd" id="el_U1JRaJE7JV"/><path d="m193.65341 182.10109l-31.226898 -13.639755l-7.76503 17.790985l31.226898 13.6397705z" fill-rule="evenodd" id="el_mRCe4QLIZm"/><g id="el_yyWzrBmpz4_7imzoGtvW" data-animator-group="true" data-animator-type="2"><path d="m152.27968 42.423885l0 0c0 -10.39629 8.427856 -18.824148 18.824142 -18.824148l4.9606323 0l0 0l35.67717 0l64.42256 0c4.9924927 0 9.780487 1.9832535 13.310699 5.513466c3.5302124 3.5302105 5.5134583 8.318209 5.5134583 13.310682l0 47.060368l0 0l0 28.236221l0 0c0 10.396286 -8.427856 18.824142 -18.824158 18.824142l-64.42256 0l-17.838104 14.118118l-17.839066 -14.118118l-4.9606323 0l0 0c-10.396286 0 -18.824142 -8.427856 -18.824142 -18.824142l0 0l0 -28.236221l0 0z" fill-rule="evenodd" id="el_yyWzrBmpz4"/></g><path d="m180.4682 51.65093q0 1.265625 -0.421875 2.328125q-0.421875 1.0625 -1.1875 1.84375q-0.765625 0.765625 -1.859375 1.1875q-1.078125 0.421875 -2.390625 0.421875l-4.40625 0l0 -11.5625l4.40625 0q1.3125 0 2.390625 0.421875q1.09375 0.421875 1.859375 1.1875q0.765625 0.765625 1.1875 1.828125q0.421875 1.0625 0.421875 2.34375zm-2.203125 0q0 -0.953125 -0.25 -1.703125q-0.25 -0.765625 -0.734375 -1.28125q-0.46875 -0.53125 -1.140625 -0.8125q-0.671875 -0.28125 -1.53125 -0.28125l-2.234375 0l0 8.140625l2.234375 0q0.859375 0 1.53125 -0.265625q0.671875 -0.28125 1.140625 -0.796875q0.484375 -0.53125 0.734375 -1.28125q0.25 -0.765625 0.25 -1.71875zm7.178589 -2.546875q0.765625 0 1.421875 0.25q0.65625 0.234375 1.125 0.71875q0.46875 0.46875 0.734375 1.171875q0.265625 0.6875 0.265625 1.578125q0 0.21875 -0.03125 0.375q-0.015625 0.140625 -0.0625 0.234375q-0.046875 0.078125 -0.140625 0.109375q-0.078125 0.03125 -0.21875 0.03125l-5.078125 0q0.09375 1.265625 0.6875 1.859375q0.59375 0.59375 1.5625 0.59375q0.484375 0 0.828125 -0.109375q0.34375 -0.109375 0.609375 -0.25q0.265625 -0.140625 0.453125 -0.25q0.203125 -0.109375 0.375 -0.109375q0.125 0 0.203125 0.046875q0.09375 0.046875 0.171875 0.140625l0.5625 0.71875q-0.328125 0.375 -0.734375 0.640625q-0.40625 0.265625 -0.859375 0.421875q-0.4375 0.140625 -0.90625 0.203125q-0.453125 0.078125 -0.875 0.078125q-0.859375 0 -1.59375 -0.28125q-0.734375 -0.296875 -1.28125 -0.84375q-0.546875 -0.5625 -0.859375 -1.375q-0.3125 -0.828125 -0.3125 -1.90625q0 -0.84375 0.265625 -1.578125q0.28125 -0.734375 0.78125 -1.28125q0.515625 -0.5625 1.25 -0.875q0.734375 -0.3125 1.65625 -0.3125zm0.03125 1.40625q-0.859375 0 -1.359375 0.5q-0.484375 0.484375 -0.609375 1.375l3.703125 0q0 -0.390625 -0.109375 -0.71875q-0.09375 -0.34375 -0.3125 -0.59375q-0.21875 -0.265625 -0.546875 -0.40625q-0.328125 -0.15625 -0.765625 -0.15625zm11.046112 -1.4375q0.53125 0 1.0 0.109375q0.46875 0.109375 0.84375 0.328125l2.359375 0l0 0.734375q0 0.171875 -0.09375 0.28125q-0.09375 0.109375 -0.328125 0.140625l-0.734375 0.140625q0.078125 0.203125 0.125 0.4375q0.046875 0.234375 0.046875 0.484375q0 0.609375 -0.25 1.109375q-0.25 0.484375 -0.671875 0.828125q-0.421875 0.34375 -1.015625 0.53125q-0.59375 0.1875 -1.28125 0.1875q-0.453125 0 -0.90625 -0.078125q-0.375 0.234375 -0.375 0.515625q0 0.25 0.21875 0.375q0.234375 0.109375 0.609375 0.15625q0.375 0.046875 0.84375 0.0625q0.46875 0 0.96875 0.046875q0.5 0.046875 0.96875 0.140625q0.46875 0.09375 0.84375 0.3125q0.375 0.21875 0.59375 0.59375q0.234375 0.375 0.234375 0.953125q0 0.546875 -0.265625 1.046875q-0.265625 0.515625 -0.78125 0.921875q-0.515625 0.40625 -1.25 0.640625q-0.734375 0.25 -1.671875 0.25q-0.9375 0 -1.625 -0.1875q-0.6875 -0.171875 -1.140625 -0.484375q-0.453125 -0.296875 -0.6875 -0.6875q-0.21875 -0.390625 -0.21875 -0.8125q0 -0.578125 0.34375 -0.96875q0.359375 -0.390625 0.984375 -0.625q-0.296875 -0.171875 -0.484375 -0.4375q-0.1875 -0.28125 -0.1875 -0.734375q0 -0.1875 0.0625 -0.375q0.078125 -0.203125 0.203125 -0.390625q0.125 -0.203125 0.328125 -0.375q0.203125 -0.171875 0.46875 -0.296875q-0.609375 -0.34375 -0.96875 -0.890625q-0.359375 -0.5625 -0.359375 -1.328125q0 -0.59375 0.234375 -1.078125q0.25 -0.5 0.6875 -0.84375q0.4375 -0.359375 1.03125 -0.546875q0.59375 -0.1875 1.296875 -0.1875zm2.171875 8.734375q0 -0.25 -0.140625 -0.390625q-0.140625 -0.15625 -0.390625 -0.234375q-0.25 -0.09375 -0.59375 -0.125q-0.328125 -0.046875 -0.703125 -0.0625q-0.359375 -0.03125 -0.765625 -0.046875q-0.390625 -0.015625 -0.75 -0.0625q-0.34375 0.171875 -0.546875 0.4375q-0.203125 0.25 -0.203125 0.578125q0 0.21875 0.109375 0.40625q0.109375 0.1875 0.34375 0.3125q0.234375 0.140625 0.609375 0.21875q0.375 0.078125 0.921875 0.078125q0.546875 0 0.9375 -0.09375q0.40625 -0.078125 0.671875 -0.234375q0.265625 -0.140625 0.375 -0.34375q0.125 -0.203125 0.125 -0.4375zm-2.171875 -4.671875q0.375 0 0.640625 -0.09375q0.28125 -0.109375 0.453125 -0.28125q0.1875 -0.1875 0.28125 -0.4375q0.09375 -0.25 0.09375 -0.53125q0 -0.609375 -0.375 -0.96875q-0.359375 -0.359375 -1.09375 -0.359375q-0.71875 0 -1.09375 0.359375q-0.359375 0.359375 -0.359375 0.96875q0 0.28125 0.09375 0.53125q0.09375 0.25 0.265625 0.4375q0.1875 0.171875 0.453125 0.28125q0.28125 0.09375 0.640625 0.09375zm11.217392 4.296875q-0.375 0 -0.5 -0.359375l-0.15625 -0.796875q-0.265625 0.296875 -0.546875 0.53125q-0.265625 0.21875 -0.59375 0.390625q-0.328125 0.171875 -0.703125 0.265625q-0.375 0.09375 -0.796875 0.09375q-0.671875 0 -1.234375 -0.28125q-0.5625 -0.28125 -0.96875 -0.8125q-0.40625 -0.53125 -0.625 -1.3125q-0.21875 -0.796875 -0.21875 -1.796875q0 -0.90625 0.25 -1.6875q0.25 -0.796875 0.703125 -1.375q0.46875 -0.578125 1.109375 -0.890625q0.65625 -0.328125 1.46875 -0.328125q0.6875 0 1.171875 0.21875q0.5 0.21875 0.875 0.59375l0 -4.34375l1.984375 0l0 11.890625l-1.21875 0zm-2.625 -1.453125q0.609375 0 1.046875 -0.25q0.4375 -0.25 0.8125 -0.734375l0 -3.671875q-0.328125 -0.40625 -0.734375 -0.578125q-0.390625 -0.171875 -0.84375 -0.171875q-0.453125 0 -0.828125 0.171875q-0.359375 0.171875 -0.609375 0.515625q-0.25 0.328125 -0.390625 0.859375q-0.125 0.515625 -0.125 1.234375q0 0.71875 0.109375 1.21875q0.125 0.5 0.328125 0.8125q0.21875 0.3125 0.53125 0.453125q0.3125 0.140625 0.703125 0.140625zm10.838638 -5.15625q-0.078125 0.125 -0.171875 0.1875q-0.078125 0.046875 -0.21875 0.046875q-0.140625 0 -0.3125 -0.078125q-0.15625 -0.078125 -0.375 -0.171875q-0.21875 -0.109375 -0.5 -0.1875q-0.265625 -0.078125 -0.640625 -0.078125q-0.578125 0 -0.921875 0.25q-0.328125 0.234375 -0.328125 0.640625q0 0.265625 0.171875 0.453125q0.171875 0.171875 0.453125 0.3125q0.28125 0.125 0.640625 0.234375q0.359375 0.109375 0.734375 0.25q0.375 0.125 0.734375 0.296875q0.359375 0.15625 0.640625 0.40625q0.296875 0.25 0.46875 0.609375q0.171875 0.34375 0.171875 0.84375q0 0.578125 -0.21875 1.078125q-0.21875 0.5 -0.640625 0.875q-0.40625 0.359375 -1.03125 0.5625q-0.609375 0.203125 -1.390625 0.203125q-0.421875 0 -0.828125 -0.078125q-0.40625 -0.078125 -0.78125 -0.203125q-0.375 -0.140625 -0.6875 -0.3125q-0.3125 -0.1875 -0.546875 -0.40625l0.453125 -0.75q0.078125 -0.140625 0.203125 -0.203125q0.125 -0.078125 0.296875 -0.078125q0.1875 0 0.34375 0.109375q0.171875 0.09375 0.390625 0.21875q0.21875 0.109375 0.5 0.21875q0.296875 0.109375 0.75 0.109375q0.34375 0 0.59375 -0.078125q0.265625 -0.09375 0.421875 -0.234375q0.171875 -0.140625 0.234375 -0.3125q0.078125 -0.1875 0.078125 -0.375q0 -0.28125 -0.171875 -0.46875q-0.171875 -0.1875 -0.453125 -0.3125q-0.28125 -0.140625 -0.65625 -0.25q-0.359375 -0.109375 -0.734375 -0.234375q-0.375 -0.125 -0.75 -0.296875q-0.359375 -0.171875 -0.640625 -0.4375q-0.28125 -0.265625 -0.453125 -0.640625q-0.171875 -0.390625 -0.171875 -0.9375q0 -0.5 0.1875 -0.953125q0.203125 -0.46875 0.59375 -0.796875q0.390625 -0.34375 0.96875 -0.546875q0.578125 -0.203125 1.34375 -0.203125q0.84375 0 1.53125 0.28125q0.703125 0.265625 1.171875 0.734375l-0.453125 0.703125zm2.1325378 6.609375l0 -8.203125l1.203125 0q0.375 0 0.5 0.359375l0.140625 0.640625q0.25 -0.25 0.515625 -0.453125q0.28125 -0.21875 0.578125 -0.359375q0.3125 -0.15625 0.671875 -0.234375q0.359375 -0.078125 0.765625 -0.078125q0.671875 0 1.1875 0.234375q0.53125 0.21875 0.875 0.625q0.34375 0.40625 0.515625 0.984375q0.1875 0.578125 0.1875 1.265625l0 5.21875l-1.96875 0l0 -5.21875q0 -0.75 -0.359375 -1.15625q-0.34375 -0.421875 -1.03125 -0.421875q-0.515625 0 -0.96875 0.234375q-0.4375 0.234375 -0.84375 0.625l0 5.9375l-1.96875 0zm14.861511 0q-0.375 0 -0.5 -0.359375l-0.15625 -0.796875q-0.265625 0.296875 -0.546875 0.53125q-0.265625 0.21875 -0.59375 0.390625q-0.328125 0.171875 -0.703125 0.265625q-0.375 0.09375 -0.796875 0.09375q-0.671875 0 -1.234375 -0.28125q-0.5625 -0.28125 -0.96875 -0.8125q-0.40625 -0.53125 -0.625 -1.3125q-0.21875 -0.796875 -0.21875 -1.796875q0 -0.90625 0.25 -1.6875q0.25 -0.796875 0.703125 -1.375q0.46875 -0.578125 1.109375 -0.890625q0.65625 -0.328125 1.46875 -0.328125q0.6875 0 1.171875 0.21875q0.5 0.21875 0.875 0.59375l0 -4.34375l1.984375 0l0 11.890625l-1.21875 0zm-2.625 -1.453125q0.609375 0 1.046875 -0.25q0.4375 -0.25 0.8125 -0.734375l0 -3.671875q-0.328125 -0.40625 -0.734375 -0.578125q-0.390625 -0.171875 -0.84375 -0.171875q-0.453125 0 -0.828125 0.171875q-0.359375 0.171875 -0.609375 0.515625q-0.25 0.328125 -0.390625 0.859375q-0.125 0.515625 -0.125 1.234375q0 0.71875 0.109375 1.21875q0.125 0.5 0.328125 0.8125q0.21875 0.3125 0.53125 0.453125q0.3125 0.140625 0.703125 0.140625zm6.3230133 1.453125l0 -6.71875l-0.703125 -0.109375q-0.234375 -0.046875 -0.375 -0.15625q-0.140625 -0.125 -0.140625 -0.34375l0 -0.8125l1.21875 0l0 -0.609375q0 -0.703125 0.203125 -1.25q0.21875 -0.5625 0.609375 -0.953125q0.40625 -0.40625 0.96875 -0.609375q0.578125 -0.203125 1.28125 -0.203125q0.578125 0 1.0625 0.15625l-0.046875 0.984375q-0.015625 0.234375 -0.21875 0.296875q-0.1875 0.046875 -0.453125 0.046875q-0.359375 0 -0.640625 0.078125q-0.265625 0.078125 -0.46875 0.265625q-0.1875 0.1875 -0.296875 0.5q-0.09375 0.296875 -0.09375 0.75l0 0.546875l2.140625 0l0 1.40625l-2.0625 0l0 6.734375l-1.984375 0zm10.12355 -6.609375q-0.078125 0.125 -0.171875 0.1875q-0.078125 0.046875 -0.21875 0.046875q-0.140625 0 -0.3125 -0.078125q-0.15625 -0.078125 -0.375 -0.171875q-0.21875 -0.109375 -0.5 -0.1875q-0.265625 -0.078125 -0.640625 -0.078125q-0.578125 0 -0.921875 0.25q-0.328125 0.234375 -0.328125 0.640625q0 0.265625 0.171875 0.453125q0.171875 0.171875 0.453125 0.3125q0.28125 0.125 0.640625 0.234375q0.359375 0.109375 0.734375 0.25q0.375 0.125 0.734375 0.296875q0.359375 0.15625 0.640625 0.40625q0.296875 0.25 0.46875 0.609375q0.171875 0.34375 0.171875 0.84375q0 0.578125 -0.21875 1.078125q-0.21875 0.5 -0.640625 0.875q-0.40625 0.359375 -1.03125 0.5625q-0.609375 0.203125 -1.390625 0.203125q-0.421875 0 -0.828125 -0.078125q-0.40625 -0.078125 -0.78125 -0.203125q-0.375 -0.140625 -0.6875 -0.3125q-0.3125 -0.1875 -0.546875 -0.40625l0.453125 -0.75q0.078125 -0.140625 0.203125 -0.203125q0.125 -0.078125 0.296875 -0.078125q0.1875 0 0.34375 0.109375q0.171875 0.09375 0.390625 0.21875q0.21875 0.109375 0.5 0.21875q0.296875 0.109375 0.75 0.109375q0.34375 0 0.59375 -0.078125q0.265625 -0.09375 0.421875 -0.234375q0.171875 -0.140625 0.234375 -0.3125q0.078125 -0.1875 0.078125 -0.375q0 -0.28125 -0.171875 -0.46875q-0.171875 -0.1875 -0.453125 -0.3125q-0.28125 -0.140625 -0.65625 -0.25q-0.359375 -0.109375 -0.734375 -0.234375q-0.375 -0.125 -0.75 -0.296875q-0.359375 -0.171875 -0.640625 -0.4375q-0.28125 -0.265625 -0.453125 -0.640625q-0.171875 -0.390625 -0.171875 -0.9375q0 -0.5 0.1875 -0.953125q0.203125 -0.46875 0.59375 -0.796875q0.390625 -0.34375 0.96875 -0.546875q0.578125 -0.203125 1.34375 -0.203125q0.84375 0 1.53125 0.28125q0.703125 0.265625 1.171875 0.734375l-0.453125 0.703125zm5.5642548 6.609375l0 -6.71875l-0.703125 -0.109375q-0.234375 -0.046875 -0.375 -0.15625q-0.140625 -0.125 -0.140625 -0.34375l0 -0.8125l1.21875 0l0 -0.609375q0 -0.703125 0.203125 -1.25q0.21875 -0.5625 0.609375 -0.953125q0.40625 -0.40625 0.96875 -0.609375q0.578125 -0.203125 1.28125 -0.203125q0.578125 0 1.0625153 0.15625l-0.046875 0.984375q-0.015625 0.234375 -0.21875 0.296875q-0.1875 0.046875 -0.45314026 0.046875q-0.359375 0 -0.640625 0.078125q-0.265625 0.078125 -0.46875 0.265625q-0.1875 0.1875 -0.296875 0.5q-0.09375 0.296875 -0.09375 0.75l0 0.546875l2.1406403 0l0 1.40625l-2.0625153 0l0 6.734375l-1.984375 0zm11.0298 0q-0.375 0 -0.5 -0.359375l-0.15625 -0.796875q-0.265625 0.296875 -0.546875 0.53125q-0.265625 0.21875 -0.59375 0.390625q-0.328125 0.171875 -0.703125 0.265625q-0.375 0.09375 -0.796875 0.09375q-0.671875 0 -1.234375 -0.28125q-0.5625 -0.28125 -0.96875 -0.8125q-0.40625 -0.53125 -0.625 -1.3125q-0.21875 -0.796875 -0.21875 -1.796875q0 -0.90625 0.25 -1.6875q0.25 -0.796875 0.703125 -1.375q0.46875 -0.578125 1.109375 -0.890625q0.65625 -0.328125 1.46875 -0.328125q0.6875 0 1.171875 0.21875q0.5 0.21875 0.875 0.59375l0 -4.34375l1.984375 0l0 11.890625l-1.21875 0zm-2.625 -1.453125q0.609375 0 1.046875 -0.25q0.4375 -0.25 0.8125 -0.734375l0 -3.671875q-0.328125 -0.40625 -0.734375 -0.578125q-0.390625 -0.171875 -0.84375 -0.171875q-0.453125 0 -0.828125 0.171875q-0.359375 0.171875 -0.609375 0.515625q-0.25 0.328125 -0.390625 0.859375q-0.125 0.515625 -0.125 1.234375q0 0.71875 0.109375 1.21875q0.125 0.5 0.328125 0.8125q0.21875 0.3125 0.53125 0.453125q0.3125 0.140625 0.703125 0.140625zm8.073029 -6.75l0 8.484375q0 0.53125 -0.140625 1.0q-0.140625 0.484375 -0.453125 0.828125q-0.296875 0.359375 -0.796875 0.5625q-0.5 0.203125 -1.21875 0.203125q-0.28125 0 -0.53125 -0.03125q-0.234375 -0.03125 -0.484375 -0.109375l0.0625 -1.078125q0.03125 -0.15625 0.140625 -0.203125q0.09375 -0.03125 0.390625 -0.03125q0.296875 0 0.5 -0.0625q0.203125 -0.0625 0.328125 -0.203125q0.125 -0.125 0.171875 -0.34375q0.0625 -0.21875 0.0625 -0.53125l0 -8.484375l1.96875 0zm0.296875 -2.390625q0 0.25 -0.109375 0.484375q-0.09375 0.21875 -0.265625 0.390625q-0.171875 0.15625 -0.40625 0.265625q-0.234375 0.09375 -0.5 0.09375q-0.25 0 -0.484375 -0.09375q-0.21875 -0.109375 -0.390625 -0.265625q-0.171875 -0.171875 -0.28125 -0.390625q-0.09375 -0.234375 -0.09375 -0.484375q0 -0.265625 0.09375 -0.5q0.109375 -0.234375 0.28125 -0.390625q0.171875 -0.171875 0.390625 -0.265625q0.234375 -0.109375 0.484375 -0.109375q0.265625 0 0.5 0.109375q0.234375 0.09375 0.40625 0.265625q0.171875 0.15625 0.265625 0.390625q0.109375 0.234375 0.109375 0.5zm4.7414246 2.234375q0.53125 0 1.0 0.109375q0.46875 0.109375 0.84375 0.328125l2.359375 0l0 0.734375q0 0.171875 -0.09375 0.28125q-0.09375 0.109375 -0.328125 0.140625l-0.734375 0.140625q0.078125 0.203125 0.125 0.4375q0.046875 0.234375 0.046875 0.484375q0 0.609375 -0.25 1.109375q-0.25 0.484375 -0.671875 0.828125q-0.421875 0.34375 -1.015625 0.53125q-0.59375 0.1875 -1.28125 0.1875q-0.453125 0 -0.90625 -0.078125q-0.375 0.234375 -0.375 0.515625q0 0.25 0.21875 0.375q0.234375 0.109375 0.609375 0.15625q0.375 0.046875 0.84375 0.0625q0.46875 0 0.96875 0.046875q0.5 0.046875 0.96875 0.140625q0.46875 0.09375 0.84375 0.3125q0.375 0.21875 0.59375 0.59375q0.234375 0.375 0.234375 0.953125q0 0.546875 -0.265625 1.046875q-0.265625 0.515625 -0.78125 0.921875q-0.515625 0.40625 -1.25 0.640625q-0.734375 0.25 -1.671875 0.25q-0.9375 0 -1.625 -0.1875q-0.6875 -0.171875 -1.140625 -0.484375q-0.453125 -0.296875 -0.6875 -0.6875q-0.21875 -0.390625 -0.21875 -0.8125q0 -0.578125 0.34375 -0.96875q0.359375 -0.390625 0.984375 -0.625q-0.296875 -0.171875 -0.484375 -0.4375q-0.1875 -0.28125 -0.1875 -0.734375q0 -0.1875 0.0625 -0.375q0.078125 -0.203125 0.203125 -0.390625q0.125 -0.203125 0.328125 -0.375q0.203125 -0.171875 0.46875 -0.296875q-0.609375 -0.34375 -0.96875 -0.890625q-0.359375 -0.5625 -0.359375 -1.328125q0 -0.59375 0.234375 -1.078125q0.25 -0.5 0.6875 -0.84375q0.4375 -0.359375 1.03125 -0.546875q0.59375 -0.1875 1.296875 -0.1875zm2.171875 8.734375q0 -0.25 -0.140625 -0.390625q-0.140625 -0.15625 -0.390625 -0.234375q-0.25 -0.09375 -0.59375 -0.125q-0.328125 -0.046875 -0.703125 -0.0625q-0.359375 -0.03125 -0.765625 -0.046875q-0.390625 -0.015625 -0.75 -0.0625q-0.34375 0.171875 -0.546875 0.4375q-0.203125 0.25 -0.203125 0.578125q0 0.21875 0.109375 0.40625q0.109375 0.1875 0.34375 0.3125q0.234375 0.140625 0.609375 0.21875q0.375 0.078125 0.921875 0.078125q0.546875 0 0.9375 -0.09375q0.40625 -0.078125 0.671875 -0.234375q0.265625 -0.140625 0.375 -0.34375q0.125 -0.203125 0.125 -0.4375zm-2.171875 -4.671875q0.375 0 0.640625 -0.09375q0.28125 -0.109375 0.453125 -0.28125q0.1875 -0.1875 0.28125 -0.4375q0.09375 -0.25 0.09375 -0.53125q0 -0.609375 -0.375 -0.96875q-0.359375 -0.359375 -1.09375 -0.359375q-0.71875 0 -1.09375 0.359375q-0.359375 0.359375 -0.359375 0.96875q0 0.28125 0.09375 0.53125q0.09375 0.25 0.265625 0.4375q0.1875 0.171875 0.453125 0.28125q0.28125 0.09375 0.640625 0.09375z" fill-rule="nonzero" id="el_2WXvh320Ps"/><path d="m186.73068 76.43218q-0.375 0 -0.5 -0.359375l-0.15625 -0.796875q-0.265625 0.296875 -0.546875 0.53125q-0.265625 0.21875 -0.59375 0.390625q-0.328125 0.171875 -0.703125 0.265625q-0.375 0.09375 -0.796875 0.09375q-0.671875 0 -1.234375 -0.28125q-0.5625 -0.28125 -0.96875 -0.8125q-0.40625 -0.53125 -0.625 -1.3125q-0.21875 -0.796875 -0.21875 -1.796875q0 -0.90625 0.25 -1.6875q0.25 -0.796875 0.703125 -1.375q0.46875 -0.578125 1.109375 -0.890625q0.65625 -0.328125 1.46875 -0.328125q0.6875 0 1.171875 0.21875q0.5 0.21875 0.875 0.59375l0 -4.34375l1.984375 0l0 11.890625l-1.21875 0zm-2.625 -1.453125q0.609375 0 1.046875 -0.25q0.4375 -0.25 0.8125 -0.734375l0 -3.671875q-0.328125 -0.40625 -0.734375 -0.578125q-0.390625 -0.171875 -0.84375 -0.171875q-0.453125 0 -0.828125 0.171875q-0.359375 0.171875 -0.609375 0.515625q-0.25 0.328125 -0.390625 0.859375q-0.125 0.515625 -0.125 1.234375q0 0.71875 0.109375 1.21875q0.125 0.5 0.328125 0.8125q0.21875 0.3125 0.53125 0.453125q0.3125 0.140625 0.703125 0.140625zm9.06723 1.453125l0 -11.890625l1.96875 0l0 4.578125q0.484375 -0.46875 1.046875 -0.734375q0.578125 -0.28125 1.359375 -0.28125q0.671875 0 1.1875 0.234375q0.53125 0.21875 0.875 0.625q0.34375 0.40625 0.515625 0.984375q0.1875 0.578125 0.1875 1.265625l0 5.21875l-1.96875 0l0 -5.21875q0 -0.75 -0.359375 -1.15625q-0.34375 -0.421875 -1.03125 -0.421875q-0.515625 0 -0.96875 0.234375q-0.4375 0.234375 -0.84375 0.625l0 5.9375l-1.96875 0zm11.924011 -8.359375q0.53125 0 1.0 0.109375q0.46875 0.109375 0.84375 0.328125l2.359375 0l0 0.734375q0 0.171875 -0.09375 0.28125q-0.09375 0.109375 -0.328125 0.140625l-0.734375 0.140625q0.078125 0.203125 0.125 0.4375q0.046875 0.234375 0.046875 0.484375q0 0.609375 -0.25 1.109375q-0.25 0.484375 -0.671875 0.828125q-0.421875 0.34375 -1.015625 0.53125q-0.59375 0.1875 -1.28125 0.1875q-0.453125 0 -0.90625 -0.078125q-0.375 0.234375 -0.375 0.515625q0 0.25 0.21875 0.375q0.234375 0.109375 0.609375 0.15625q0.375 0.046875 0.84375 0.0625q0.46875 0 0.96875 0.046875q0.5 0.046875 0.96875 0.140625q0.46875 0.09375 0.84375 0.3125q0.375 0.21875 0.59375 0.59375q0.234375 0.375 0.234375 0.953125q0 0.546875 -0.265625 1.046875q-0.265625 0.515625 -0.78125 0.921875q-0.515625 0.40625 -1.25 0.640625q-0.734375 0.25 -1.671875 0.25q-0.9375 0 -1.625 -0.1875q-0.6875 -0.171875 -1.140625 -0.484375q-0.453125 -0.296875 -0.6875 -0.6875q-0.21875 -0.390625 -0.21875 -0.8125q0 -0.578125 0.34375 -0.96875q0.359375 -0.390625 0.984375 -0.625q-0.296875 -0.171875 -0.484375 -0.4375q-0.1875 -0.28125 -0.1875 -0.734375q0 -0.1875 0.0625 -0.375q0.078125 -0.203125 0.203125 -0.390625q0.125 -0.203125 0.328125 -0.375q0.203125 -0.171875 0.46875 -0.296875q-0.609375 -0.34375 -0.96875 -0.890625q-0.359375 -0.5625 -0.359375 -1.328125q0 -0.59375 0.234375 -1.078125q0.25 -0.5 0.6875 -0.84375q0.4375 -0.359375 1.03125 -0.546875q0.59375 -0.1875 1.296875 -0.1875zm2.171875 8.734375q0 -0.25 -0.140625 -0.390625q-0.140625 -0.15625 -0.390625 -0.234375q-0.25 -0.09375 -0.59375 -0.125q-0.328125 -0.046875 -0.703125 -0.0625q-0.359375 -0.03125 -0.765625 -0.046875q-0.390625 -0.015625 -0.75 -0.0625q-0.34375 0.171875 -0.546875 0.4375q-0.203125 0.25 -0.203125 0.578125q0 0.21875 0.109375 0.40625q0.109375 0.1875 0.34375 0.3125q0.234375 0.140625 0.609375 0.21875q0.375 0.078125 0.921875 0.078125q0.546875 0 0.9375 -0.09375q0.40625 -0.078125 0.671875 -0.234375q0.265625 -0.140625 0.375 -0.34375q0.125 -0.203125 0.125 -0.4375zm-2.171875 -4.671875q0.375 0 0.640625 -0.09375q0.28125 -0.109375 0.453125 -0.28125q0.1875 -0.1875 0.28125 -0.4375q0.09375 -0.25 0.09375 -0.53125q0 -0.609375 -0.375 -0.96875q-0.359375 -0.359375 -1.09375 -0.359375q-0.71875 0 -1.09375 0.359375q-0.359375 0.359375 -0.359375 0.96875q0 0.28125 0.09375 0.53125q0.09375 0.25 0.265625 0.4375q0.1875 0.171875 0.453125 0.28125q0.28125 0.09375 0.640625 0.09375zm5.451767 4.296875l0 -11.890625l1.96875 0l0 4.578125q0.484375 -0.46875 1.046875 -0.734375q0.578125 -0.28125 1.359375 -0.28125q0.671875 0 1.1875 0.234375q0.53125 0.21875 0.875 0.625q0.34375 0.40625 0.515625 0.984375q0.1875 0.578125 0.1875 1.265625l0 5.21875l-1.96875 0l0 -5.21875q0 -0.75 -0.359375 -1.15625q-0.34375 -0.421875 -1.03125 -0.421875q-0.515625 0 -0.96875 0.234375q-0.4375 0.234375 -0.84375 0.625l0 5.9375l-1.96875 0zm14.861511 0q-0.375 0 -0.5 -0.359375l-0.15625 -0.796875q-0.265625 0.296875 -0.546875 0.53125q-0.265625 0.21875 -0.59375 0.390625q-0.328125 0.171875 -0.703125 0.265625q-0.375 0.09375 -0.796875 0.09375q-0.671875 0 -1.234375 -0.28125q-0.5625 -0.28125 -0.96875 -0.8125q-0.40625 -0.53125 -0.625 -1.3125q-0.21875 -0.796875 -0.21875 -1.796875q0 -0.90625 0.25 -1.6875q0.25 -0.796875 0.703125 -1.375q0.46875 -0.578125 1.109375 -0.890625q0.65625 -0.328125 1.46875 -0.328125q0.6875 0 1.171875 0.21875q0.5 0.21875 0.875 0.59375l0 -4.34375l1.984375 0l0 11.890625l-1.21875 0zm-2.625 -1.453125q0.609375 0 1.046875 -0.25q0.4375 -0.25 0.8125 -0.734375l0 -3.671875q-0.328125 -0.40625 -0.734375 -0.578125q-0.390625 -0.171875 -0.84375 -0.171875q-0.453125 0 -0.828125 0.171875q-0.359375 0.171875 -0.609375 0.515625q-0.25 0.328125 -0.390625 0.859375q-0.125 0.515625 -0.125 1.234375q0 0.71875 0.109375 1.21875q0.125 0.5 0.328125 0.8125q0.21875 0.3125 0.53125 0.453125q0.3125 0.140625 0.703125 0.140625zm9.06723 1.453125l0 -11.890625l1.96875 0l0 4.578125q0.484375 -0.46875 1.046875 -0.734375q0.578125 -0.28125 1.359375 -0.28125q0.671875 0 1.1875 0.234375q0.53125 0.21875 0.875 0.625q0.34375 0.40625 0.515625 0.984375q0.1875 0.578125 0.1875 1.265625l0 5.21875l-1.96875 0l0 -5.21875q0 -0.75 -0.359375 -1.15625q-0.34375 -0.421875 -1.03125 -0.421875q-0.515625 0 -0.96875 0.234375q-0.4375 0.234375 -0.84375 0.625l0 5.9375l-1.96875 0zm15.011978 -8.359375q0.53125 0 1.0 0.109375q0.46875 0.109375 0.84375 0.328125l2.359375 0l0 0.734375q0 0.171875 -0.09375 0.28125q-0.09375 0.109375 -0.328125 0.140625l-0.734375 0.140625q0.078125 0.203125 0.125 0.4375q0.046875 0.234375 0.046875 0.484375q0 0.609375 -0.25 1.109375q-0.25 0.484375 -0.671875 0.828125q-0.421875 0.34375 -1.015625 0.53125q-0.59375 0.1875 -1.28125 0.1875q-0.453125 0 -0.90625 -0.078125q-0.375 0.234375 -0.375 0.515625q0 0.25 0.21875 0.375q0.234375 0.109375 0.609375 0.15625q0.375 0.046875 0.84375 0.0625q0.46875 0 0.96875 0.046875q0.5 0.046875 0.96875 0.140625q0.46875 0.09375 0.84375 0.3125q0.375 0.21875 0.59375 0.59375q0.234375 0.375 0.234375 0.953125q0 0.546875 -0.265625 1.046875q-0.265625 0.515625 -0.78125 0.921875q-0.515625 0.40625 -1.25 0.640625q-0.734375 0.25 -1.671875 0.25q-0.9375 0 -1.625 -0.1875q-0.6875 -0.171875 -1.140625 -0.484375q-0.453125 -0.296875 -0.6875 -0.6875q-0.21875 -0.390625 -0.21875 -0.8125q0 -0.578125 0.34375 -0.96875q0.359375 -0.390625 0.984375 -0.625q-0.296875 -0.171875 -0.484375 -0.4375q-0.1875 -0.28125 -0.1875 -0.734375q0 -0.1875 0.0625 -0.375q0.078125 -0.203125 0.203125 -0.390625q0.125 -0.203125 0.328125 -0.375q0.203125 -0.171875 0.46875 -0.296875q-0.609375 -0.34375 -0.96875 -0.890625q-0.359375 -0.5625 -0.359375 -1.328125q0 -0.59375 0.234375 -1.078125q0.25 -0.5 0.6875 -0.84375q0.4375 -0.359375 1.03125 -0.546875q0.59375 -0.1875 1.296875 -0.1875zm2.171875 8.734375q0 -0.25 -0.140625 -0.390625q-0.140625 -0.15625 -0.390625 -0.234375q-0.25 -0.09375 -0.59375 -0.125q-0.328125 -0.046875 -0.703125 -0.0625q-0.359375 -0.03125 -0.765625 -0.046875q-0.390625 -0.015625 -0.75 -0.0625q-0.34375 0.171875 -0.546875 0.4375q-0.203125 0.25 -0.203125 0.578125q0 0.21875 0.109375 0.40625q0.109375 0.1875 0.34375 0.3125q0.234375 0.140625 0.609375 0.21875q0.375 0.078125 0.921875 0.078125q0.546875 0 0.9375 -0.09375q0.40625 -0.078125 0.671875 -0.234375q0.265625 -0.140625 0.375 -0.34375q0.125 -0.203125 0.125 -0.4375zm-2.171875 -4.671875q0.375 0 0.640625 -0.09375q0.28125 -0.109375 0.453125 -0.28125q0.1875 -0.1875 0.28125 -0.4375q0.09375 -0.25 0.09375 -0.53125q0 -0.609375 -0.375 -0.96875q-0.359375 -0.359375 -1.09375 -0.359375q-0.71875 0 -1.09375 0.359375q-0.359375 0.359375 -0.359375 0.96875q0 0.28125 0.09375 0.53125q0.09375 0.25 0.265625 0.4375q0.1875 0.171875 0.453125 0.28125q0.28125 0.09375 0.640625 0.09375zm10.311127 -2.3125q-0.078125 0.125 -0.171875 0.1875q-0.078125 0.046875 -0.21875 0.046875q-0.140625 0 -0.3125 -0.078125q-0.15625 -0.078125 -0.375 -0.171875q-0.21873474 -0.109375 -0.49998474 -0.1875q-0.265625 -0.078125 -0.640625 -0.078125q-0.578125 0 -0.921875 0.25q-0.328125 0.234375 -0.328125 0.640625q0 0.265625 0.171875 0.453125q0.171875 0.171875 0.453125 0.3125q0.28125 0.125 0.640625 0.234375q0.359375 0.109375 0.734375 0.25q0.37498474 0.125 0.73435974 0.296875q0.359375 0.15625 0.640625 0.40625q0.296875 0.25 0.46875 0.609375q0.171875 0.34375 0.171875 0.84375q0 0.578125 -0.21875 1.078125q-0.21875 0.5 -0.640625 0.875q-0.40625 0.359375 -1.0312347 0.5625q-0.609375 0.203125 -1.390625 0.203125q-0.421875 0 -0.828125 -0.078125q-0.40625 -0.078125 -0.78125 -0.203125q-0.375 -0.140625 -0.6875 -0.3125q-0.3125 -0.1875 -0.546875 -0.40625l0.453125 -0.75q0.078125 -0.140625 0.203125 -0.203125q0.125 -0.078125 0.296875 -0.078125q0.1875 0 0.34375 0.109375q0.171875 0.09375 0.390625 0.21875q0.21875 0.109375 0.5 0.21875q0.296875 0.109375 0.75 0.109375q0.34375 0 0.59375 -0.078125q0.265625 -0.09375 0.421875 -0.234375q0.171875 -0.140625 0.234375 -0.3125q0.078125 -0.1875 0.078125 -0.375q0 -0.28125 -0.171875 -0.46875q-0.171875 -0.1875 -0.453125 -0.3125q-0.28125 -0.140625 -0.65625 -0.25q-0.359375 -0.109375 -0.734375 -0.234375q-0.375 -0.125 -0.75 -0.296875q-0.359375 -0.171875 -0.640625 -0.4375q-0.28125 -0.265625 -0.453125 -0.640625q-0.171875 -0.390625 -0.171875 -0.9375q0 -0.5 0.1875 -0.953125q0.203125 -0.46875 0.59375 -0.796875q0.390625 -0.34375 0.96875 -0.546875q0.578125 -0.203125 1.34375 -0.203125q0.84375 0 1.5312347 0.28125q0.703125 0.265625 1.171875 0.734375l-0.453125 0.703125zm7.898163 6.609375q-0.375 0 -0.5 -0.359375l-0.15625 -0.796875q-0.265625 0.296875 -0.546875 0.53125q-0.265625 0.21875 -0.59375 0.390625q-0.328125 0.171875 -0.703125 0.265625q-0.375 0.09375 -0.796875 0.09375q-0.671875 0 -1.234375 -0.28125q-0.5625 -0.28125 -0.96875 -0.8125q-0.40625 -0.53125 -0.625 -1.3125q-0.21875 -0.796875 -0.21875 -1.796875q0 -0.90625 0.25 -1.6875q0.25 -0.796875 0.703125 -1.375q0.46875 -0.578125 1.109375 -0.890625q0.65625 -0.328125 1.46875 -0.328125q0.6875 0 1.171875 0.21875q0.5 0.21875 0.875 0.59375l0 -4.34375l1.984375 0l0 11.890625l-1.21875 0zm-2.625 -1.453125q0.609375 0 1.046875 -0.25q0.4375 -0.25 0.8125 -0.734375l0 -3.671875q-0.328125 -0.40625 -0.734375 -0.578125q-0.390625 -0.171875 -0.84375 -0.171875q-0.453125 0 -0.828125 0.171875q-0.359375 0.171875 -0.609375 0.515625q-0.25 0.328125 -0.390625 0.859375q-0.125 0.515625 -0.125 1.234375q0 0.71875 0.109375 1.21875q0.125 0.5 0.328125 0.8125q0.21875 0.3125 0.53125 0.453125q0.3125 0.140625 0.703125 0.140625z" fill-rule="nonzero" id="el_bveXEfaeBi"/><path d="m179.3851 95.43218l0 -8.203125l1.203125 0q0.375 0 0.5 0.359375l0.125 0.609375q0.21875 -0.25 0.453125 -0.4375q0.234375 -0.203125 0.5 -0.34375q0.28125 -0.15625 0.578125 -0.234375q0.3125 -0.078125 0.6875 -0.078125q0.765625 0 1.265625 0.421875q0.5 0.40625 0.75 1.109375q0.1875 -0.40625 0.46875 -0.703125q0.296875 -0.296875 0.640625 -0.46875q0.34375 -0.1875 0.734375 -0.265625q0.390625 -0.09375 0.78125 -0.09375q0.6875 0 1.203125 0.203125q0.53125 0.203125 0.890625 0.609375q0.359375 0.390625 0.546875 0.96875q0.1875 0.578125 0.1875 1.328125l0 5.21875l-1.96875 0l0 -5.21875q0 -0.796875 -0.34375 -1.1875q-0.34375 -0.390625 -1.015625 -0.390625q-0.296875 0 -0.5625 0.109375q-0.25 0.09375 -0.453125 0.296875q-0.1875 0.1875 -0.3125 0.484375q-0.109375 0.296875 -0.109375 0.6875l0 5.21875l-1.984375 0l0 -5.21875q0 -0.828125 -0.328125 -1.203125q-0.328125 -0.375 -0.984375 -0.375q-0.421875 0 -0.796875 0.21875q-0.359375 0.203125 -0.6875 0.5625l0 6.015625l-1.96875 0zm15.565582 -8.203125l0 8.484375q0 0.53125 -0.140625 1.0q-0.140625 0.484375 -0.453125 0.828125q-0.296875 0.359375 -0.796875 0.5625q-0.5 0.203125 -1.21875 0.203125q-0.28125 0 -0.53125 -0.03125q-0.234375 -0.03125 -0.484375 -0.109375l0.0625 -1.078125q0.03125 -0.15625 0.140625 -0.203125q0.09375 -0.03125 0.390625 -0.03125q0.296875 0 0.5 -0.0625q0.203125 -0.0625 0.328125 -0.203125q0.125 -0.125 0.171875 -0.34375q0.0625 -0.21875 0.0625 -0.53125l0 -8.484375l1.96875 0zm0.296875 -2.390625q0 0.25 -0.109375 0.484375q-0.09375 0.21875 -0.265625 0.390625q-0.171875 0.15625 -0.40625 0.265625q-0.234375 0.09375 -0.5 0.09375q-0.25 0 -0.484375 -0.09375q-0.21875 -0.109375 -0.390625 -0.265625q-0.171875 -0.171875 -0.28125 -0.390625q-0.09375 -0.234375 -0.09375 -0.484375q0 -0.265625 0.09375 -0.5q0.109375 -0.234375 0.28125 -0.390625q0.171875 -0.171875 0.390625 -0.265625q0.234375 -0.109375 0.484375 -0.109375q0.265625 0 0.5 0.109375q0.234375 0.09375 0.40625 0.265625q0.171875 0.15625 0.265625 0.390625q0.109375 0.234375 0.109375 0.5zm1.9133148 10.59375l0 -8.203125l1.203125 0q0.375 0 0.5 0.359375l0.140625 0.640625q0.25 -0.25 0.515625 -0.453125q0.28125 -0.21875 0.578125 -0.359375q0.3125 -0.15625 0.671875 -0.234375q0.359375 -0.078125 0.765625 -0.078125q0.671875 0 1.1875 0.234375q0.53125 0.21875 0.875 0.625q0.34375 0.40625 0.515625 0.984375q0.1875 0.578125 0.1875 1.265625l0 5.21875l-1.96875 0l0 -5.21875q0 -0.75 -0.359375 -1.15625q-0.34375 -0.421875 -1.03125 -0.421875q-0.515625 0 -0.96875 0.234375q-0.4375 0.234375 -0.84375 0.625l0 5.9375l-1.96875 0zm11.095886 -11.890625l0 6.8125l0.359375 0q0.203125 0 0.3125 -0.046875q0.109375 -0.0625 0.234375 -0.21875l2.046875 -2.515625q0.140625 -0.171875 0.28125 -0.25q0.15625 -0.09375 0.40625 -0.09375l1.8125 0l-2.5625 3.046875q-0.125 0.171875 -0.28125 0.3125q-0.140625 0.125 -0.296875 0.234375q0.15625 0.125 0.28125 0.28125q0.140625 0.15625 0.265625 0.34375l2.734375 3.984375l-1.78125 0q-0.234375 0 -0.40625 -0.078125q-0.15625 -0.078125 -0.28125 -0.28125l-2.078125 -3.109375q-0.125 -0.171875 -0.25 -0.234375q-0.109375 -0.0625 -0.359375 -0.0625l-0.4375 0l0 3.765625l-1.984375 0l0 -11.890625l1.984375 0zm8.917633 3.6875l0 8.484375q0 0.53125 -0.140625 1.0q-0.140625 0.484375 -0.453125 0.828125q-0.296875 0.359375 -0.796875 0.5625q-0.5 0.203125 -1.21875 0.203125q-0.28125 0 -0.53125 -0.03125q-0.234375 -0.03125 -0.484375 -0.109375l0.0625 -1.078125q0.03125 -0.15625 0.140625 -0.203125q0.09375 -0.03125 0.390625 -0.03125q0.296875 0 0.5 -0.0625q0.203125 -0.0625 0.328125 -0.203125q0.125 -0.125 0.171875 -0.34375q0.0625 -0.21875 0.0625 -0.53125l0 -8.484375l1.96875 0zm0.296875 -2.390625q0 0.25 -0.109375 0.484375q-0.09375 0.21875 -0.265625 0.390625q-0.171875 0.15625 -0.40625 0.265625q-0.234375 0.09375 -0.5 0.09375q-0.25 0 -0.484375 -0.09375q-0.21875 -0.109375 -0.390625 -0.265625q-0.171875 -0.171875 -0.28125 -0.390625q-0.09375 -0.234375 -0.09375 -0.484375q0 -0.265625 0.09375 -0.5q0.109375 -0.234375 0.28125 -0.390625q0.171875 -0.171875 0.390625 -0.265625q0.234375 -0.109375 0.484375 -0.109375q0.265625 0 0.5 0.109375q0.234375 0.09375 0.40625 0.265625q0.171875 0.15625 0.265625 0.390625q0.109375 0.234375 0.109375 0.5zm1.9133148 10.59375l0 -8.203125l1.203125 0q0.375 0 0.5 0.359375l0.140625 0.640625q0.25 -0.25 0.515625 -0.453125q0.28125 -0.21875 0.578125 -0.359375q0.3125 -0.15625 0.671875 -0.234375q0.359375 -0.078125 0.765625 -0.078125q0.671875 0 1.1875 0.234375q0.53125 0.21875 0.875 0.625q0.34375 0.40625 0.515625 0.984375q0.1875 0.578125 0.1875 1.265625l0 5.21875l-1.96875 0l0 -5.21875q0 -0.75 -0.359375 -1.15625q-0.34375 -0.421875 -1.03125 -0.421875q-0.515625 0 -0.96875 0.234375q-0.4375 0.234375 -0.84375 0.625l0 5.9375l-1.96875 0zm14.277603 -8.203125l0 8.484375q0 0.53125 -0.140625 1.0q-0.140625 0.484375 -0.453125 0.828125q-0.296875 0.359375 -0.796875 0.5625q-0.5 0.203125 -1.21875 0.203125q-0.28125 0 -0.53125 -0.03125q-0.234375 -0.03125 -0.484375 -0.109375l0.0625 -1.078125q0.03125 -0.15625 0.140625 -0.203125q0.09375 -0.03125 0.390625 -0.03125q0.296875 0 0.5 -0.0625q0.203125 -0.0625 0.328125 -0.203125q0.125 -0.125 0.171875 -0.34375q0.0625 -0.21875 0.0625 -0.53125l0 -8.484375l1.96875 0zm0.296875 -2.390625q0 0.25 -0.109375 0.484375q-0.09375 0.21875 -0.265625 0.390625q-0.171875 0.15625 -0.40625 0.265625q-0.234375 0.09375 -0.5 0.09375q-0.25 0 -0.484375 -0.09375q-0.21875 -0.109375 -0.390625 -0.265625q-0.171875 -0.171875 -0.28125 -0.390625q-0.09375 -0.234375 -0.09375 -0.484375q0 -0.265625 0.09375 -0.5q0.109375 -0.234375 0.28125 -0.390625q0.171875 -0.171875 0.390625 -0.265625q0.234375 -0.109375 0.484375 -0.109375q0.265625 0 0.5 0.109375q0.234375 0.09375 0.40625 0.265625q0.171875 0.15625 0.265625 0.390625q0.109375 0.234375 0.109375 0.5zm7.0012817 -1.296875l0 6.8125l0.359375 0q0.203125 0 0.3125 -0.046875q0.109375 -0.0625 0.234375 -0.21875l2.046875 -2.515625q0.140625 -0.171875 0.28125 -0.25q0.15625 -0.09375 0.40625 -0.09375l1.8125 0l-2.5625 3.046875q-0.125 0.171875 -0.28125 0.3125q-0.140625 0.125 -0.296875 0.234375q0.15625 0.125 0.28125 0.28125q0.140625 0.15625 0.265625 0.34375l2.734375 3.984375l-1.78125 0q-0.234375 0 -0.40625 -0.078125q-0.15625 -0.078125 -0.28125 -0.28125l-2.078125 -3.109375q-0.125 -0.171875 -0.25 -0.234375q-0.109375 -0.0625 -0.359375 -0.0625l-0.4375 0l0 3.765625l-1.984375 0l0 -11.890625l1.984375 0zm6.823883 11.890625l0 -8.203125l1.203125 0q0.375 0 0.5 0.359375l0.140625 0.640625q0.25 -0.25 0.515625 -0.453125q0.28125 -0.21875 0.578125 -0.359375q0.3125 -0.15625 0.671875 -0.234375q0.359375 -0.078125 0.765625 -0.078125q0.671875 0 1.1875 0.234375q0.53125 0.21875 0.875 0.625q0.34375 0.40625 0.515625 0.984375q0.1875 0.578125 0.1875 1.265625l0 5.21875l-1.96875 0l0 -5.21875q0 -0.75 -0.359375 -1.15625q-0.34375 -0.421875 -1.03125 -0.421875q-0.515625 0 -0.96875 0.234375q-0.4375 0.234375 -0.84375 0.625l0 5.9375l-1.96875 0zm11.189621 -8.203125l0 8.484375q0 0.53125 -0.140625 1.0q-0.140625 0.484375 -0.453125 0.828125q-0.296875 0.359375 -0.796875 0.5625q-0.5 0.203125 -1.21875 0.203125q-0.28125 0 -0.53123474 -0.03125q-0.234375 -0.03125 -0.484375 -0.109375l0.0625 -1.078125q0.03125 -0.15625 0.140625 -0.203125q0.09375 -0.03125 0.390625 -0.03125q0.29685974 0 0.49998474 -0.0625q0.203125 -0.0625 0.328125 -0.203125q0.125 -0.125 0.171875 -0.34375q0.0625 -0.21875 0.0625 -0.53125l0 -8.484375l1.96875 0zm0.296875 -2.390625q0 0.25 -0.109375 0.484375q-0.09375 0.21875 -0.265625 0.390625q-0.171875 0.15625 -0.40625 0.265625q-0.234375 0.09375 -0.5 0.09375q-0.25 0 -0.484375 -0.09375q-0.21875 -0.109375 -0.390625 -0.265625q-0.171875 -0.171875 -0.28125 -0.390625q-0.09375 -0.234375 -0.09375 -0.484375q0 -0.265625 0.09375 -0.5q0.109375 -0.234375 0.28125 -0.390625q0.171875 -0.171875 0.390625 -0.265625q0.234375 -0.109375 0.484375 -0.109375q0.265625 0 0.5 0.109375q0.234375 0.09375 0.40625 0.265625q0.171875 0.15625 0.265625 0.390625q0.109375 0.234375 0.109375 0.5zm3.91333 -1.296875l0 6.8125l0.359375 0q0.203125 0 0.3125 -0.046875q0.109375 -0.0625 0.234375 -0.21875l2.046875 -2.515625q0.140625 -0.171875 0.28125 -0.25q0.15625 -0.09375 0.40625 -0.09375l1.8125 0l-2.5625 3.046875q-0.125 0.171875 -0.28125 0.3125q-0.140625 0.125 -0.296875 0.234375q0.15625 0.125 0.28125 0.28125q0.140625 0.15625 0.265625 0.34375l2.734375 3.984375l-1.78125 0q-0.234375 0 -0.40625 -0.078125q-0.15625 -0.078125 -0.28125 -0.28125l-2.078125 -3.109375q-0.125 -0.171875 -0.25 -0.234375q-0.109375 -0.0625 -0.359375 -0.0625l-0.4375 0l0 3.765625l-1.984375 0l0 -11.890625l1.984375 0z" fill-rule="nonzero" id="el_tGKAp4A2V5"/><path d="m207.65689 106.07281q0.53125 0 1.0 0.109375q0.46875 0.109375 0.84375 0.328125l2.359375 0l0 0.734375q0 0.171875 -0.09375 0.28125q-0.09375 0.109375 -0.328125 0.140625l-0.734375 0.140625q0.078125 0.203125 0.125 0.4375q0.046875 0.234375 0.046875 0.484375q0 0.609375 -0.25 1.109375q-0.25 0.484375 -0.671875 0.828125q-0.421875 0.34375 -1.015625 0.53125q-0.59375 0.1875 -1.28125 0.1875q-0.453125 0 -0.90625 -0.078125q-0.375 0.234375 -0.375 0.515625q0 0.25 0.21875 0.375q0.234375 0.109375 0.609375 0.15625q0.375 0.046875 0.84375 0.0625q0.46875 0 0.96875 0.046875q0.5 0.046875 0.96875 0.140625q0.46875 0.09375 0.84375 0.3125q0.375 0.21875 0.59375 0.59375q0.234375 0.375 0.234375 0.953125q0 0.546875 -0.265625 1.046875q-0.265625 0.515625 -0.78125 0.921875q-0.515625 0.40625 -1.25 0.640625q-0.734375 0.25 -1.671875 0.25q-0.9375 0 -1.625 -0.1875q-0.6875 -0.171875 -1.140625 -0.484375q-0.453125 -0.296875 -0.6875 -0.6875q-0.21875 -0.390625 -0.21875 -0.8125q0 -0.578125 0.34375 -0.96875q0.359375 -0.390625 0.984375 -0.625q-0.296875 -0.171875 -0.484375 -0.4375q-0.1875 -0.28125 -0.1875 -0.734375q0 -0.1875 0.0625 -0.375q0.078125 -0.203125 0.203125 -0.390625q0.125 -0.203125 0.328125 -0.375q0.203125 -0.171875 0.46875 -0.296875q-0.609375 -0.34375 -0.96875 -0.890625q-0.359375 -0.5625 -0.359375 -1.328125q0 -0.59375 0.234375 -1.078125q0.25 -0.5 0.6875 -0.84375q0.4375 -0.359375 1.03125 -0.546875q0.59375 -0.1875 1.296875 -0.1875zm2.171875 8.734375q0 -0.25 -0.140625 -0.390625q-0.140625 -0.15625 -0.390625 -0.234375q-0.25 -0.09375 -0.59375 -0.125q-0.328125 -0.046875 -0.703125 -0.0625q-0.359375 -0.03125 -0.765625 -0.046875q-0.390625 -0.015625 -0.75 -0.0625q-0.34375 0.171875 -0.546875 0.4375q-0.203125 0.25 -0.203125 0.578125q0 0.21875 0.109375 0.40625q0.109375 0.1875 0.34375 0.3125q0.234375 0.140625 0.609375 0.21875q0.375 0.078125 0.921875 0.078125q0.546875 0 0.9375 -0.09375q0.40625 -0.078125 0.671875 -0.234375q0.265625 -0.140625 0.375 -0.34375q0.125 -0.203125 0.125 -0.4375zm-2.171875 -4.671875q0.375 0 0.640625 -0.09375q0.28125 -0.109375 0.453125 -0.28125q0.1875 -0.1875 0.28125 -0.4375q0.09375 -0.25 0.09375 -0.53125q0 -0.609375 -0.375 -0.96875q-0.359375 -0.359375 -1.09375 -0.359375q-0.71875 0 -1.09375 0.359375q-0.359375 0.359375 -0.359375 0.96875q0 0.28125 0.09375 0.53125q0.09375 0.25 0.265625 0.4375q0.1875 0.171875 0.453125 0.28125q0.28125 0.09375 0.640625 0.09375zm5.451767 4.296875l0 -8.203125l1.203125 0q0.375 0 0.5 0.359375l0.140625 0.640625q0.25 -0.25 0.515625 -0.453125q0.28125 -0.21875 0.578125 -0.359375q0.3125 -0.15625 0.671875 -0.234375q0.359375 -0.078125 0.765625 -0.078125q0.671875 0 1.1875 0.234375q0.53125 0.21875 0.875 0.625q0.34375 0.40625 0.515625 0.984375q0.1875 0.578125 0.1875 1.265625l0 5.21875l-1.96875 0l0 -5.21875q0 -0.75 -0.359375 -1.15625q-0.34375 -0.421875 -1.03125 -0.421875q-0.515625 0 -0.96875 0.234375q-0.4375 0.234375 -0.84375 0.625l0 5.9375l-1.96875 0zm9.095886 0l0 -8.203125l1.15625 0q0.296875 0 0.421875 0.109375q0.125 0.109375 0.15625 0.375l0.125 1.0q0.4375 -0.765625 1.03125 -1.203125q0.59375 -0.4375 1.328125 -0.4375q0.609375 0 1.0 0.28125l-0.25 1.484375q-0.015625 0.140625 -0.109375 0.203125q-0.078125 0.0625 -0.203125 0.0625q-0.125 0 -0.34375 -0.0625q-0.203125 -0.0625 -0.546875 -0.0625q-0.609375 0 -1.046875 0.34375q-0.4375 0.34375 -0.75 1.0l0 5.109375l-1.96875 0zm6.535919 0l0 -11.890625l1.96875 0l0 4.578125q0.484375 -0.46875 1.046875 -0.734375q0.578125 -0.28125 1.359375 -0.28125q0.671875 0 1.1875 0.234375q0.53125 0.21875 0.875 0.625q0.34375 0.40625 0.515625 0.984375q0.1875 0.578125 0.1875 1.265625l0 5.21875l-1.96875 0l0 -5.21875q0 -0.75 -0.359375 -1.15625q-0.34375 -0.421875 -1.03125 -0.421875q-0.515625 0 -0.96875 0.234375q-0.4375 0.234375 -0.84375 0.625l0 5.9375l-1.96875 0zm8.330261 -10.515625q0.265625 -0.25 0.59375 -0.453125q0.328125 -0.21875 0.703125 -0.375q0.375 -0.171875 0.8125 -0.265625q0.4375 -0.09375 0.953125 -0.09375q0.703125 0 1.265625 0.203125q0.578125 0.1875 0.984375 0.546875q0.40625 0.359375 0.625 0.859375q0.234375 0.5 0.234375 1.125q0 0.609375 -0.1875 1.0625q-0.171875 0.4375 -0.4375 0.765625q-0.265625 0.328125 -0.578125 0.578125q-0.3125 0.234375 -0.59375 0.453125q-0.28125 0.203125 -0.484375 0.40625q-0.203125 0.203125 -0.25 0.453125l-0.171875 1.171875l-1.359375 0l-0.140625 -1.3125q0 -0.03125 0 -0.0625q0 -0.03125 0 -0.0625q0 -0.359375 0.171875 -0.609375q0.171875 -0.265625 0.4375 -0.484375q0.265625 -0.234375 0.5625 -0.453125q0.3125 -0.21875 0.578125 -0.46875q0.265625 -0.25 0.4375 -0.5625q0.171875 -0.328125 0.171875 -0.765625q0 -0.28125 -0.109375 -0.5q-0.09375 -0.234375 -0.296875 -0.390625q-0.1875 -0.171875 -0.453125 -0.265625q-0.265625 -0.09375 -0.578125 -0.09375q-0.453125 0 -0.78125 0.109375q-0.3125 0.09375 -0.53125 0.21875q-0.21875 0.125 -0.375 0.234375q-0.140625 0.09375 -0.265625 0.09375q-0.296875 0 -0.421875 -0.25l-0.515625 -0.8125zm1.515625 9.421875q0 -0.25 0.078125 -0.46875q0.09375 -0.21875 0.25 -0.375q0.171875 -0.171875 0.390625 -0.265625q0.234375 -0.09375 0.5 -0.09375q0.234375 0 0.453125 0.09375q0.234375 0.09375 0.390625 0.265625q0.171875 0.15625 0.265625 0.375q0.09375 0.21875 0.09375 0.46875q0 0.265625 -0.09375 0.484375q-0.09375 0.21875 -0.265625 0.375q-0.15625 0.15625 -0.390625 0.25q-0.21875 0.09375 -0.453125 0.09375q-0.265625 0 -0.5 -0.09375q-0.21875 -0.09375 -0.390625 -0.25q-0.15625 -0.15625 -0.25 -0.375q-0.078125 -0.21875 -0.078125 -0.484375z" fill-rule="nonzero" id="el_g9gYfMd6jhZ"/><path d="m346.34735 207.56653l0 0c0 -30.06047 24.368835 -54.429306 54.42929 -54.429306l0 0c14.435577 0 28.279877 5.734497 38.487366 15.941971c10.2074585 10.207474 15.941956 24.051788 15.941956 38.487335l0 0c0 30.060486 -24.368835 54.42932 -54.42932 54.42932l0 0c-30.060455 0 -54.42929 -24.368835 -54.42929 -54.42932z" fill-rule="evenodd" id="el_CW1n7WTXsrt"/><path d="m346.34735 206.90709l108.85861 0l0 72.3315l-108.85861 0z" fill-rule="evenodd" id="el_SDEUKEJ3Tqi"/><path d="m317.84143 209.00261l23.313599 -0.01852417l0 84.37749l-23.313599 0.01852417z" fill-rule="evenodd" id="el_4NAJmX0nLLd"/><path d="m460.40015 208.99367l23.295105 0l0 84.37749l-23.295105 0z" fill-rule="evenodd" id="el_rupIrB-ApqU"/><defs><linearGradient id="p.2" gradientUnits="userSpaceOnUse" gradientTransform="matrix(6.8514719092412015 0.0 0.0 6.8514719092412015 0.0 0.0)" spreadMethod="pad" x1="50.55079003480052" y1="40.71973441115872" x2="50.55076609220878" y2="47.57120632035809"><stop offset="0.0" stop-color="#434343"/><stop offset="0.99999994" stop-color="#434343" stop-opacity="0.0"/><stop offset="1.0" stop-color="#ffffff" stop-opacity="0.0"/></linearGradient></defs><path d="m346.34735 278.9905l108.85861 0l0 46.94229l-108.85861 0z" fill-rule="evenodd" id="el_hFztB-3VXf-"/><g id="el_ZepVl45Uv-z_GqYjLSizV" data-animator-group="true" data-animator-type="0"><path d="m364.69275 194.73293l0 0c0 -7.8707886 6.380554 -14.2513275 14.251343 -14.2513275l0 0c3.779663 0 7.4045715 1.5014801 10.077209 4.174118c2.672638 2.672638 4.174103 6.297531 4.174103 10.077209l0 0c0 7.8707886 -6.3805237 14.2513275 -14.251312 14.2513275l0 0c-7.8707886 0 -14.251343 -6.380539 -14.251343 -14.2513275z" fill-rule="evenodd" id="el_ZepVl45Uv-z"/></g><g id="el_ngTi0Jx0_x6_upo1HVpo7" data-animator-group="true" data-animator-type="0"><path d="m408.3574 194.73293l0 0c0 -7.8707886 6.380554 -14.2513275 14.251343 -14.2513275l0 0c3.7796936 0 7.4045715 1.5014801 10.077209 4.174118c2.672638 2.672638 4.174103 6.297531 4.174103 10.077209l0 0c0 7.8707886 -6.3805237 14.2513275 -14.251312 14.2513275l0 0c-7.8707886 0 -14.251343 -6.380539 -14.251343 -14.2513275z" fill-rule="evenodd" id="el_ngTi0Jx0_x6"/></g><g id="el_UeaCCRjQb8x_n8DhA4BlE" data-animator-group="true" data-animator-type="0"><path d="m355.0491 182.10109l31.226898 -13.639755l7.765045 17.790985l-31.226898 13.6397705z" fill-rule="evenodd" id="el_UeaCCRjQb8x"/></g><g id="el_12nDQ-Q84DH_YMFeq1pF1" data-animator-group="true" data-animator-type="0"><path d="m446.40863 182.10109l-31.226898 -13.639755l-7.7650146 17.790985l31.226898 13.6397705z" fill-rule="evenodd" id="el_12nDQ-Q84DH"/></g><path d="m370.24658 75.50253l61.039368 0l0 79.779526l-61.039368 0z" fill-rule="evenodd" id="el_SLQS119pcgc"/><path d="m393.09064 96.60566q0.6875 -0.609375 1.5 -1.140625q0.8125 -0.546875 1.75 -0.9375q0.9375 -0.40625 2.03125 -0.625q1.109375 -0.234375 2.390625 -0.234375q1.734375 0 3.15625 0.484375q1.4375 0.46875 2.453125 1.359375q1.03125 0.890625 1.578125 2.15625q0.5625 1.25 0.5625 2.8125q0 1.515625 -0.4375 2.625q-0.4375 1.109375 -1.109375 1.9375q-0.671875 0.8125 -1.453125 1.421875q-0.78125 0.59375 -1.484375 1.125q-0.6875 0.53125 -1.203125 1.046875q-0.515625 0.5 -0.609375 1.140625l-0.453125 2.921875l-3.390625 0l-0.328125 -3.25q-0.03125 -0.109375 -0.03125 -0.171875q0 -0.078125 0 -0.171875q0 -0.890625 0.4375 -1.53125q0.453125 -0.65625 1.109375 -1.21875q0.65625 -0.578125 1.40625 -1.109375q0.765625 -0.546875 1.421875 -1.171875q0.671875 -0.625 1.109375 -1.421875q0.4375 -0.8125 0.4375 -1.890625q0 -0.71875 -0.265625 -1.28125q-0.265625 -0.578125 -0.75 -0.984375q-0.484375 -0.40625 -1.15625 -0.625q-0.671875 -0.234375 -1.453125 -0.234375q-1.140625 0 -1.9375 0.25q-0.78125 0.25 -1.328125 0.5625q-0.546875 0.3125 -0.9375 0.5625q-0.375 0.25 -0.671875 0.25q-0.71875 0 -1.03125 -0.59375l-1.3125 -2.0625zm3.78125 23.578125q0 -0.625 0.234375 -1.171875q0.234375 -0.5625 0.640625 -0.96875q0.40625 -0.40625 0.96875 -0.640625q0.5625 -0.234375 1.203125 -0.234375q0.625 0 1.171875 0.234375q0.5625 0.234375 0.953125 0.640625q0.40625 0.40625 0.640625 0.96875q0.25 0.546875 0.25 1.171875q0 0.640625 -0.25 1.1875q-0.234375 0.546875 -0.640625 0.953125q-0.390625 0.390625 -0.953125 0.625q-0.546875 0.234375 -1.171875 0.234375q-0.640625 0 -1.203125 -0.234375q-0.5625 -0.234375 -0.96875 -0.625q-0.40625 -0.40625 -0.640625 -0.953125q-0.234375 -0.546875 -0.234375 -1.1875z" fill-rule="nonzero" id="el_bPSnL2eQsqt"/><path d="m400.3857 90.18025l55.40158 25.669289l-18.26773 39.433067l-55.40158 -25.669281z" fill-rule="evenodd" id="el_YGpJ45SkcGH"/><path d="m417.0707 115.830086q0.533844 -0.14872742 1.1047058 -0.22865295q0.5774231 -0.09409332 1.1863098 -0.07028198q0.6154785 0.009628296 1.2700195 0.15792084q0.654541 0.14828491 1.3634033 0.47672272q0.93569946 0.43354034 1.5906677 1.0641937q0.661499 0.61647797 0.9911194 1.3546906q0.34378052 0.7447891 0.31967163 1.5774307q-0.0033569336 0.8250351 -0.39743042 1.6756897q-0.38095093 0.8223038 -0.9043884 1.3202667q-0.523407 0.49797058 -1.1022034 0.7808609q-0.5722046 0.26872253 -1.1485901 0.39774323q-0.5763855 0.12902069 -1.0905151 0.23522186q-0.49996948 0.11276245 -0.91485596 0.26493835q-0.414917 0.1521759 -0.6150818 0.47273254l-0.9907837 1.4696503l-1.8430176 -0.85393524l0.6366577 -1.8575897q0.0121154785 -0.0632782 0.025238037 -0.09163666q0.019714355 -0.042533875 0.04598999 -0.099243164q0.22329712 -0.48203278 0.6285095 -0.72480774q0.4052124 -0.24276733 0.8975525 -0.37628174q0.51312256 -0.14112091 1.0621643 -0.24835205q0.54907227 -0.10723877 1.0611267 -0.28327942q0.5262451 -0.16947937 0.9708557 -0.49731445q0.4446106 -0.32783508 0.7138977 -0.909111q0.18389893 -0.39697266 0.17245483 -0.78113556q0.0027160645 -0.377594 -0.16812134 -0.715065q-0.15011597 -0.3450775 -0.46618652 -0.6292877q-0.2953186 -0.2918167 -0.7206116 -0.48887634q-0.6238098 -0.28902435 -1.1289673 -0.35088348q-0.48443604 -0.06945801 -0.8609619 -0.037269592q-0.3765564 0.032180786 -0.6548767 0.075431824q-0.25759888 0.035629272 -0.42773438 -0.043190002q-0.38278198 -0.17736053 -0.41601562 -0.58883667l-0.19000244 -1.4484634zm-3.8806152 13.803917q0.15762329 -0.340271 0.40896606 -0.5854492q0.2720642 -0.2527771 0.5974426 -0.36035156q0.33190918 -0.12173462 0.6887512 -0.11138916q0.3710022 0.016906738 0.7112427 0.17456055q0.340271 0.15765381 0.5788574 0.42318726q0.25280762 0.27211 0.36038208 0.5974884q0.1282959 0.31776428 0.11141968 0.68878174q-0.010345459 0.3568573 -0.16796875 0.69711304q-0.15762329 0.340271 -0.42315674 0.5788727q-0.26550293 0.23861694 -0.5974426 0.36035156q-0.31115723 0.11413574 -0.68218994 0.097213745q-0.35681152 -0.010345459 -0.6970825 -0.16798401q-0.34024048 -0.15765381 -0.5930176 -0.4297638q-0.23861694 -0.2655487 -0.36694336 -0.5832977q-0.12173462 -0.33195496 -0.11141968 -0.688797q0.024505615 -0.35028076 0.18215942 -0.6905365z" fill-rule="nonzero" id="el_YRFOwFnhLrL"/><path d="m398.7373 90.18025l-55.40155 25.669289l18.2677 39.433067l55.40158 -25.669281z" fill-rule="evenodd" id="el_6NoEkEQk9xN"/><path d="m373.95847 119.71798q0.18920898 -0.48373413 0.47555542 -0.9435959q0.27978516 -0.4740448 0.66326904 -0.91004944q0.37695312 -0.45018005 0.87075806 -0.83395386q0.5079651 -0.39035034 1.1601257 -0.6925125q0.8648071 -0.40068817 1.7060547 -0.48049927q0.84887695 -0.10055542 1.6043396 0.11769104q0.74890137 0.20407104 1.3487549 0.71829224q0.6140137 0.5076599 0.9949646 1.329956q0.3809204 0.8223038 0.4081421 1.5501709q0.034851074 0.70713043 -0.13775635 1.3381653q-0.16500854 0.61029816 -0.46102905 1.160759q-0.28845215 0.52970886 -0.5332947 1.0047989q-0.24487305 0.4750824 -0.3904724 0.90418243q-0.15219116 0.41493225 -0.030548096 0.78907776l0.59072876 1.7583466l-1.3326721 0.61746216l-0.96170044 -1.7414398l-0.05911255 -0.127594q-0.21017456 -0.45368195 -0.13336182 -0.9197922q0.076812744 -0.46611023 0.30093384 -0.94879913q0.23828125 -0.48926544 0.519104 -0.99823q0.29501343 -0.5155411 0.4928589 -1.0549393q0.20544434 -0.56015015 0.22970581 -1.139679q0.017700195 -0.59371185 -0.28442383 -1.2458801q-0.21673584 -0.46785736 -0.57836914 -0.7652588q-0.3616333 -0.29740143 -0.7983093 -0.4222641q-0.43670654 -0.12486267 -0.941864 -0.06300354q-0.4909973 0.055282593 -0.97302246 0.2786255q-0.6663208 0.30872345 -1.0695496 0.7021942q-0.39559937 0.3727188 -0.6297302 0.72229004q-0.23410034 0.3495636 -0.36795044 0.6182251q-0.12625122 0.24791718 -0.2538452 0.30703735q-0.26934814 0.124801636 -0.54351807 -0.058135986l-0.8847656 -0.57164764zm8.170074 12.02314q-0.13134766 -0.28355408 -0.15032959 -0.58473206q-0.018981934 -0.30117798 0.07992554 -0.5708771q0.09893799 -0.26971436 0.29397583 -0.48062134q0.20263672 -0.23165894 0.48617554 -0.3630371q0.28353882 -0.13136292 0.5771179 -0.12962341q0.30114746 -0.018981934 0.5708313 0.07992554q0.26968384 0.09892273 0.4871521 0.308136q0.23162842 0.20263672 0.3630066 0.4861908q0.13134766 0.28355408 0.13616943 0.5913086q0.012390137 0.2869873 -0.086517334 0.55670166q-0.09893799 0.2696991 -0.308136 0.48718262q-0.18847656 0.2250824 -0.47201538 0.35646057q-0.28353882 0.13136292 -0.5912781 0.13618469q-0.2869873 0.012420654 -0.55667114 -0.08648682q-0.26968384 -0.09892273 -0.48059082 -0.29396057q-0.21743774 -0.20921326 -0.34881592 -0.49275208z" fill-rule="nonzero" id="el_XMGRcG_8sJt"/></g><script>(function(){var a=document.querySelector('#el_pH1BgVVAz'),b=a.querySelectorAll('style'),c=function(d){b.forEach(function(f){var g=f.textContent;g&amp;&amp;(f.textContent=g.replace(/transform-box:[^;\r\n]*/gi,'transform-box: '+d))})};c('initial'),window.requestAnimationFrame(function(){return c('fill-box')})})();</script></svg>