<?xml version="1.0" encoding="UTF-8" standalone="no"?>
<svg
   xmlns:dc="http://purl.org/dc/elements/1.1/"
   xmlns:cc="http://creativecommons.org/ns#"
   xmlns:rdf="http://www.w3.org/1999/02/22-rdf-syntax-ns#"
   xmlns:svg="http://www.w3.org/2000/svg"
   xmlns="http://www.w3.org/2000/svg"
   xmlns:sodipodi="http://sodipodi.sourceforge.net/DTD/sodipodi-0.dtd"
   xmlns:inkscape="http://www.inkscape.org/namespaces/inkscape"
   version="1.0"
   width="512.000000pt"
   height="512.000000pt"
   viewBox="0 0 512.000000 512.000000"
   preserveAspectRatio="xMidYMid meet"
   id="svg12"
   sodipodi:docname="clippybackup2.svg"
   inkscape:version="0.92.3 (2405546, 2018-03-11)">
  <defs
     id="defs16" />
  <sodipodi:namedview
     pagecolor="#ffffff"
     bordercolor="#666666"
     borderopacity="1"
     objecttolerance="10"
     gridtolerance="10"
     guidetolerance="10"
     inkscape:pageopacity="0"
     inkscape:pageshadow="2"
     inkscape:window-width="1920"
     inkscape:window-height="1017"
     id="namedview14"
     showgrid="false"
     inkscape:zoom="1.0434736"
     inkscape:cx="471.95903"
     inkscape:cy="396.75918"
     inkscape:window-x="-8"
     inkscape:window-y="-8"
     inkscape:window-maximized="1"
     inkscape:current-layer="g10" />
  <metadata
     id="metadata2">
Created by potrace 1.15, written by Peter Selinger 2001-2017
<rdf:RDF>
  <cc:Work
     rdf:about="">
    <dc:format>image/svg+xml</dc:format>
    <dc:type
       rdf:resource="http://purl.org/dc/dcmitype/StillImage" />
    <dc:title></dc:title>
  </cc:Work>
</rdf:RDF>
</metadata>
  <g
     transform="translate(0.000000,512.000000) scale(0.100000,-0.100000)"
     fill="#000000"
     stroke="none"
     id="g10">
    <path
       style="fill:#5b5b5b;fill-opacity:1;stroke-width:3.14124346"
       d="m 3243.4008,164.26157 c -248.7981,-35.1934 -498.136,4.52029 -713.7139,113.67795 -201.2464,101.90071 -371.9585,263.56155 -495.4996,469.22799 -29.8371,49.67157 -40.3477,72.76999 -56.6842,124.57038 -18.5649,58.86593 -98.0217,384.65551 -222.5987,912.70461 l -108.013,457.8375 179.5029,41.4681 179.5029,41.4678 85.0486,-368.0356 c 86.5912,-374.7131 171.7284,-725.6778 200.5136,-826.5695 52.3977,-183.65278 137.8983,-314.52542 274.3022,-419.86379 109.4262,-84.50482 226.7934,-139.92994 345.6984,-163.25103 112.4753,-22.06018 190.0025,-21.36114 310.4672,2.79876 144.0296,28.88612 239.9601,74.74148 347.2557,165.98998 84.477,71.8426 160.6682,169.31843 207.4754,265.4352 45.7206,93.88598 81.2657,231.97448 81.268,315.71828 0,83.752 -18.4944,180.6777 -140.5423,736.4506 -36.1327,164.5384 -69.4255,318.9491 -73.9838,343.1352 l -8.2876,43.9745 17.1757,36.2587 c 32.8983,69.4513 71.6066,103.6435 133.5245,117.9476 30.7472,7.103 55.121,7.0507 84.6935,-0.1817 41.4697,-10.1421 68.9687,-26.3651 110.4859,-65.1813 l 21.4562,-20.0606 86.4808,-388.629 c 47.5644,-213.7461 102.6542,-461.059 122.4219,-549.5847 l 35.9414,-160.9557 -4.5552,-71.9798 C 4229.7068,1112.7351 4203.575,996.20232 4137.8995,851.11626 4013.6387,576.60687 3789.1638,354.94634 3521.8634,242.80316 3444.7989,210.47158 3318.7586,174.92126 3243.4018,164.2619 Z"
       id="path840"
       inkscape:connector-curvature="0" />
    <path
       style="fill:#5b5b5b;fill-opacity:1;stroke-width:3.14124346"
       d="m 3139.6011,1157.8532 c -66.948,-12.345 -129.3102,-16.5997 -176.1541,-12.0184 -224.8284,21.9877 -431.0918,173.015 -508.5197,372.341 -19.2151,49.4663 -84.1645,309.0387 -112.8735,451.1034 -26.0988,129.1494 -27.1553,139.8659 -16.7467,169.8839 7.2595,20.9363 35.6831,66.9576 52.8635,85.5926 23.5029,25.4928 33.3976,30.7767 75.2729,40.1976 93.1243,20.9504 146.9085,3.4552 200.8055,-65.3179 28.3594,-36.1872 27.5498,-33.518 91.9289,-303.0628 l 58.7458,-245.9589 31.115,-31.4996 c 56.6732,-57.3737 88.7878,-78.3889 135.2367,-88.4963 38.8185,-8.4471 60.6412,-7.8085 107.2779,3.1399 48.0142,11.2713 74.6044,23.8906 104.4015,49.5464 54.1472,46.6222 87.6566,126.175 81.1977,192.7676 -3.3524,34.5631 -51.2426,263.0588 -116.4891,555.7976 l -54.4995,244.5218 179.0649,41.3666 179.065,41.3668 85.0997,-376.0836 c 86.9742,-384.3672 110.0627,-496.8186 110.7529,-539.416 1.4957,-92.3484 -34.5025,-208.2224 -95.0438,-305.9336 -66.0408,-106.5873 -153.4696,-187.6313 -249.8599,-231.6126 -27.6769,-12.6285 -103.7406,-37.2965 -130.1777,-42.2176 -6.8002,-1.2661 -21.4091,-3.9695 -32.4639,-6.0079 z"
       id="path842"
       inkscape:connector-curvature="0" />
    <path
       style="fill:#5b5b5b;fill-opacity:1;stroke-width:3.14124346"
       d="m 2686.7339,4256.4917 c -15.0127,32.3894 -37.3495,73.7127 -48.7962,90.2732 -72.705,105.1872 -173.4369,179.2984 -297.9556,219.2136 -94.4362,30.2722 -168.7332,31.7192 -281.7183,5.4865 -123.4221,-28.6558 -190.3096,-65.8207 -272.0041,-151.1344 -98.6105,-102.9794 -155.6554,-243.8801 -153.1259,-378.2207 l 0.4986,-26.4828 -186.6002,-43.1074 -186.6002,-43.1075 -2.7429,21.1282 c -24.5812,189.3457 19.0568,391.6637 121.5972,563.7596 182.9599,307.0659 528.6218,485.1496 881.1077,453.9435 326.8157,-28.9334 617.7214,-226.369 753.3341,-511.2821 18.492,-38.8501 39.1679,-90.783 43.3488,-108.8807 l 2.9142,-12.6148 -185.1102,-42.7634 -185.11,-42.7632 z"
       id="path844"
       inkscape:connector-curvature="0" />
    <path
       style="fill:#ffffff;fill-opacity:1;stroke-width:3.14124346"
       d="m 1557.3906,2359.9679 c -67.439,15.4732 -118.3765,33.7487 -166.1502,59.6119 -95.6552,51.7846 -174.1925,130.5213 -201.5481,202.0604 -10.9692,28.6856 -45.6995,178.6647 -48.2389,208.3146 -2.5615,29.9059 -0.7262,48.2686 9.2358,92.4049 13.5285,59.9376 29.5874,98.1589 65.3779,155.6038 37.0695,59.4978 71.4363,98.1183 125.5971,141.1422 39.6097,31.465 75.0233,53.0912 124.8709,76.2553 29.2793,13.606 47.1496,19.5715 98.66,32.9346 88.4161,22.9373 139.8281,27.5324 221.3324,19.7823 148.9936,-14.1676 279.3353,-82.7986 367.9269,-193.7309 28.3496,-35.4985 38.0261,-51.1794 48.8103,-79.0976 10.7229,-27.7595 45.2958,-177.775 48.0204,-208.3651 5.3006,-59.5126 -15.3538,-137.5557 -56.3358,-212.8647 -37.4095,-68.7445 -82.4491,-120.5855 -157.827,-181.6611 l -52.3342,-42.4041 -182.8446,-42.0723 -182.8447,-42.0722 z m 246.2841,342.2317 c 65.9152,37.2008 111.1622,91.4357 125.0318,149.8686 5.6109,23.6384 5.5851,27.3329 -0.37,53.1101 -5.684,24.6043 -7.9702,29.6867 -20.4304,45.4191 -37.7329,47.6426 -106.0556,78.6188 -179.7609,81.5003 -37.023,1.4475 -110.3425,-15.4764 -143.8556,-33.2061 -90.4852,-47.8674 -141.5822,-136.3709 -120.5047,-208.7224 19.3902,-66.5587 119.7093,-122.5204 219.2491,-122.3055 30.9561,0.07 89.3882,16.697 120.6406,34.3349 z"
       id="path846"
       inkscape:connector-curvature="0" />
    <rect
       transform="matrix(0.97433865,0.22508708,0.22508708,-0.97433865,0,0)"
       y="-2609.9365"
       x="3431.4436"
       height="382.65891"
       width="662.29407"
       id="rect866"
       style="fill:#ffffff;fill-opacity:1;stroke:none;stroke-width:43.43750763;stroke-miterlimit:4;stroke-dasharray:none;stroke-opacity:1" />
    <path
       style="fill:#ffffff;fill-opacity:1;stroke:none;stroke-width:3.14124346"
       d="m 3006.9031,2693.1147 c -32.9422,7.1222 -70.7015,16.7105 -83.9096,21.3068 -133.8167,46.5687 -253.4761,147.3389 -289.8078,244.0593 -6.372,16.9629 -16.5316,57.6163 -29.6044,118.4618 -21.9254,102.0503 -22.6885,111.6872 -12.9512,163.5574 28.8091,153.4632 134.801,291.1855 289.508,376.1767 41.9147,23.0266 63.5359,30.8646 123.6633,44.8298 80.3319,18.6577 173.6825,28.1735 227.3959,23.1794 29.7989,-2.7706 97.5836,-18.7717 131.3773,-31.0126 43.6631,-15.816 80.3798,-34.4733 123.0869,-62.5458 43.7815,-28.7785 78.2778,-59.4009 109.8951,-97.554 27.9314,-33.7051 41.651,-56.2704 52.9825,-87.1435 11.6945,-31.862 44.6115,-174.8956 47.3657,-205.8166 5.3006,-59.5124 -15.354,-137.5557 -56.3359,-212.8646 -37.4094,-68.7444 -82.4488,-120.5856 -157.8271,-181.6611 l -52.334,-42.404 -181.305,-41.7595 -181.3048,-41.7593 z m 242.3649,341.5539 c 51.4116,26.8633 99.146,77.7481 116.9324,124.6502 26.3026,69.3577 4.35,129.0541 -61.799,168.0502 -102.1362,60.2115 -237.7559,45.1363 -333.1291,-37.0295 -59.7183,-51.4487 -84.4479,-119.3576 -62.6806,-172.1252 13.2137,-32.0322 32.0108,-52.2562 71.1324,-76.5324 29.5264,-18.322 39.2082,-22.4258 70.0619,-29.6974 31.7188,-7.4756 66.0947,-10.1388 100.1231,-7.7568 20.638,1.4448 76.7889,18.6479 99.3589,30.4409 z"
       id="path848"
       inkscape:connector-curvature="0" />
    <rect
       style="fill:#ffffff;fill-opacity:1;stroke:none;stroke-width:43.43750763;stroke-miterlimit:4;stroke-dasharray:none;stroke-opacity:1"
       id="rect864"
       width="662.29407"
       height="382.65891"
       x="1977.3396"
       y="-2589.3318"
       transform="matrix(0.97433865,0.22508708,0.22508708,-0.97433865,0,0)" />
    <path
       style="fill:#ffffff;fill-opacity:1;stroke-width:3.14124346"
       d="m 1687.7061,2670.905 c -75.8199,-1.4943 -158.701,32.3436 -199.8935,81.6106 -14.04,16.7919 -15.7469,20.4238 -21.6905,46.1518 -6.1586,26.6583 -6.139,29.2414 0.4333,56.9206 30.6483,129.0731 207.9245,209.2388 346.4962,156.6882 34.5464,-13.1009 71.8512,-38.3811 90.6772,-61.4486 13.7799,-16.8844 15.683,-20.9716 21.5105,-46.1977 5.7758,-25.0016 5.886,-29.8088 1.141,-49.7757 -13.8491,-58.2745 -58.9657,-113.108 -122.9323,-149.4079 -20.2424,-11.4873 -33.3641,-16.521 -63.5267,-24.3696 -20.9079,-5.4407 -44.405,-10.0175 -52.2152,-10.1717 z"
       id="path850"
       inkscape:connector-curvature="0" />
    <ellipse
       style="fill:#000000;fill-opacity:1;stroke-width:8.68750191"
       id="path856"
       cx="2035.4885"
       cy="-2278.8506"
       transform="matrix(0.97433865,0.22508708,0.22508708,-0.97433865,0,0)"
       rx="254.10942"
       ry="195.4688" />
    <ellipse
       ry="195.4688"
       rx="254.10942"
       transform="matrix(0.97433865,0.22508708,0.22508708,-0.97433865,0,0)"
       cy="-2250.7012"
       cx="3500.2458"
       id="ellipse858"
       style="fill:#000000;fill-opacity:1;stroke-width:8.68750191" />
    <ellipse
       style="fill:#000000;fill-opacity:0;stroke:none;stroke-width:35.65947723;stroke-miterlimit:4;stroke-dasharray:none;stroke-opacity:1"
       id="path860"
       cx="2297.2183"
       cy="-2393.6001"
       transform="matrix(0.97433865,0.22508708,0.22508708,-0.97433865,0,0)"
       rx="555.45734"
       ry="493.01566" />
    <ellipse
       ry="493.01566"
       rx="555.45734"
       transform="matrix(0.97433865,0.22508708,0.22508708,-0.97433865,0,0)"
       cy="-2393.6001"
       cx="3766.6797"
       id="ellipse862"
       style="fill:#000000;fill-opacity:0;stroke:none;stroke-width:35.65947723;stroke-miterlimit:4;stroke-dasharray:none;stroke-opacity:1" />
    <path
       style="fill:none;fill-rule:evenodd;stroke:#ff0000;stroke-width:381.68795776;stroke-linecap:round;stroke-linejoin:miter;stroke-miterlimit:4;stroke-dasharray:none;stroke-opacity:1"
       d="m 3822.7532,2419.921 90.8771,-416.0663"
       id="path1010"
       inkscape:connector-curvature="0" />
    <path
       style="fill:#000000;fill-opacity:1;stroke-width:5.84094334"
       d="m 2656.3062,3722.0712 c -26.8192,28.9384 -160.1495,273.1976 -160.1495,293.3916 0,12.2153 55.5266,50.1499 140.7402,96.1509 46.8654,25.2994 64.8187,30.5 269.8482,78.1689 l 219.6427,51.0664 81.4034,-3.8193 c 151.6977,-7.1173 284.6896,-41.6253 424.4291,-110.1281 90.7573,-44.4908 174.187,-97.7846 177.1738,-113.1762 2.342,-12.0703 -39.9432,-69.1046 -141.2391,-190.5037 -41.5484,-49.7942 -77.3131,-92.5433 -79.4773,-94.9983 -2.1641,-2.4548 -32.6934,11.1163 -67.8426,30.1581 -125.9621,68.2391 -208.2895,92.9222 -327.2976,98.1289 -84.7436,3.7076 -141.6269,-2.4476 -231.7299,-25.0743 -93.8679,-23.5722 -109.9603,-30.8706 -228.749,-103.7445 -41.3729,-25.3813 -57.354,-26.5517 -76.7524,-5.6204 z"
       id="path849"
       inkscape:connector-curvature="0" />
    <path
       style="fill:#000000;fill-opacity:1;stroke-width:5.84094334"
       d="m 926.38686,3200.1814 c -144.69467,65.6858 -198.59217,94.3603 -198.59217,105.6542 0,10.7146 58.30532,102.2049 106.38133,166.9294 53.71596,72.3173 162.87235,179.9435 231.03588,227.797 29.7438,20.8812 87.2308,56.0328 127.7485,78.1141 l 73.669,40.1483 187.6365,43.5042 c 180.7599,41.91 190.2053,43.482 257.7279,42.8931 78.85,-0.6875 175.3221,-9.9848 191.0728,-18.4144 9.1963,-4.9216 10.4249,-14.4337 10.3145,-79.8537 -0.1576,-93.4728 -14.7284,-281.2873 -22.4192,-288.978 -3.4302,-3.4302 -20.8501,-4.275 -42.7314,-2.0726 -104.6736,10.5358 -196.953,10.8226 -256.9139,0.7984 -200.2812,-33.4825 -360.9657,-137.6567 -488.961,-317.0004 -23.5007,-32.9283 -43.1376,-59.7145 -43.6379,-59.5248 -0.4997,0.1901 -60.04913,27.1919 -132.33084,60.0052 z"
       id="path851"
       inkscape:connector-curvature="0" />
  </g>
</svg>
