<?xml version="1.0" encoding="UTF-8" standalone="no"?>
<svg
   xmlns:dc="http://purl.org/dc/elements/1.1/"
   xmlns:cc="http://creativecommons.org/ns#"
   xmlns:rdf="http://www.w3.org/1999/02/22-rdf-syntax-ns#"
   xmlns:svg="http://www.w3.org/2000/svg"
   xmlns="http://www.w3.org/2000/svg"
   xmlns:sodipodi="http://sodipodi.sourceforge.net/DTD/sodipodi-0.dtd"
   xmlns:inkscape="http://www.inkscape.org/namespaces/inkscape"
   version="1.0"
   width="512.000000pt"
   height="512.000000pt"
   viewBox="0 0 512.000000 512.000000"
   preserveAspectRatio="xMidYMid meet"
   id="svg12"
   sodipodi:docname="clippybackup.svg"
   inkscape:version="0.92.3 (2405546, 2018-03-11)">
  <defs
     id="defs16" />
  <sodipodi:namedview
     pagecolor="#ffffff"
     bordercolor="#666666"
     borderopacity="1"
     objecttolerance="10"
     gridtolerance="10"
     guidetolerance="10"
     inkscape:pageopacity="0"
     inkscape:pageshadow="2"
     inkscape:window-width="1920"
     inkscape:window-height="1017"
     id="namedview14"
     showgrid="false"
     inkscape:zoom="1.0434736"
     inkscape:cx="610.5425"
     inkscape:cy="345.12183"
     inkscape:window-x="-8"
     inkscape:window-y="-8"
     inkscape:window-maximized="1"
     inkscape:current-layer="svg12" />
  <metadata
     id="metadata2">
Created by potrace 1.15, written by Peter Selinger 2001-2017
<rdf:RDF>
  <cc:Work
     rdf:about="">
    <dc:format>image/svg+xml</dc:format>
    <dc:type
       rdf:resource="http://purl.org/dc/dcmitype/StillImage" />
    <dc:title></dc:title>
  </cc:Work>
</rdf:RDF>
</metadata>
  <g
     transform="translate(0.000000,512.000000) scale(0.100000,-0.100000)"
     fill="#000000"
     stroke="none"
     id="g10">
    <path
       style="stroke-width:0.71268958"
       d="M 3437.3686,4882.4289 C 3200.7495,4779.4899 3060.103,4533.4121 3097.3398,4286.735 l 9.5767,-63.6191 -45.7205,-23.7284 c -64.7354,-33.2413 -119.2128,-72.8905 -170.8028,-125.0388 -45.7688,-45.6834 -125.4423,-159.9104 -122.0735,-174.4929 1.1229,-4.8607 48.4038,-29.0482 104.8196,-54.7827 l 102.5737,-45.0611 33.162,46.4283 c 97.0818,140.1924 263.3029,212.2391 429.4934,186.2632 37.0736,-5.3332 49.3596,-4.6893 52.0823,2.5229 1.6547,5.5024 6.2363,58.4945 9.5345,117.0418 5.2144,88.2483 4.1948,108.4936 -4.5665,111.5898 -17.5228,6.1925 -126.1241,14.0196 -142.0953,10.33 -13.1936,-3.0479 -14.5297,-0.4308 -22.1792,45.347 -14.1234,89.6327 20.6273,195.6762 87.2236,265.189 51.6427,55.0864 94.9593,79.7224 171.3433,97.3683 76.3842,17.6458 126.1174,14.5058 196.6893,-12.3471 89.6438,-33.419 168.2411,-114.0089 194.5428,-199.3653 13.3651,-45.1887 13.3124,-48.1268 0.1186,-51.1747 -15.9712,-3.6896 -110.135,-58.3586 -123.166,-71.6094 -6.5155,-6.6254 2.4635,-26.4949 48.2085,-107.3596 63.6478,-114.0333 53.7108,-109.0142 128.7523,-60.2258 40.752,26.238 58.8591,33.3468 123.9724,49.1204 117.3538,27.1105 217.0356,13.5656 319.3984,-43.2477 l 50.1662,-27.1782 72.4153,85.4863 c 39.4115,47.872 71.4528,89.6527 70.4903,93.8191 -3.5292,15.2767 -103.2748,73.4261 -167.329,97.3959 -75.38,28.6681 -148.9404,43.1273 -226.0234,44.3379 l -53.0448,1.6436 -18.9775,59.9843 c -98.7902,313.6494 -462.2329,474.7278 -768.5559,341.0569 z"
       id="path4"
       inkscape:connector-curvature="0" />
    <path
       style="stroke-width:0.71268958"
       d="m 3216.5008,3894.405 c -93.098,-43.4508 -164.2849,-127.9218 -185.4705,-219.8598 -11.4202,-48.7202 -11.2048,-55.985 5.4786,-128.2027 16.2022,-70.1345 19.8369,-79.5353 47.4086,-113.3961 41.785,-51.0582 113.1085,-93.8296 180.9534,-108.8778 l 55.4511,-12.0595 108.7605,-461.2954 c 108.4927,-456.9687 109.6156,-461.8294 136.7633,-509.686 152.4107,-263.9578 421.1378,-404.4921 718.6712,-375.2562 220.2923,21.6325 418.9258,146.5175 538.2175,339.3856 68.1894,110.1112 103.0455,222.0307 109.9057,353.8153 l 3.9905,68.2161 -75.7193,337.2659 -75.0248,337.4261 -21.5858,20.6145 c -64.2761,59.7601 -157.7544,43.2854 -192.5117,-34.2327 l -14.2022,-30.345 70.5881,-324.5533 c 77.0047,-352.3295 76.8442,-351.6351 55.1796,-450.9983 -30.1489,-138.6276 -125.5783,-263.8091 -253.8731,-332.2145 -65.8034,-34.951 -179.6324,-58.3214 -252.817,-51.8214 -88.1956,8.1523 -156.4162,31.1597 -228.3813,76.7088 -106.3184,67.6027 -165.6305,143.8702 -206.5763,260.9538 -11.8137,35.3068 -61.8068,235.8809 -110.2528,445.5901 l -88.2294,381.9205 44.5426,35.1597 c 55.0642,43.4419 100.5605,112.4691 115.556,177.3758 9.9258,42.5234 9.0688,52.5658 -7.1333,122.7003 -16.6835,72.2178 -19.6764,78.8409 -51.3091,117.6153 -95.9134,117.5513 -275.4603,150.6822 -428.3801,78.0509 z m 217.3987,-168.4841 c 46.0502,-15.6942 76.9336,-48.0585 77.2084,-80.9107 0.8704,-67.0933 -81.9654,-135.9688 -160.224,-132.8355 -65.6517,2.3885 -126.9854,43.079 -129.6665,86.3472 -6.6981,89.1537 113.5299,160.8158 212.6821,127.399 z"
       id="path6"
       inkscape:connector-curvature="0" />
    <path
       style="stroke-width:0.71268958"
       d="m 4114.0933,4106.1513 c -102.1779,-48.4743 -176.1952,-136.525 -196.7919,-234.1785 -8.4843,-39.2645 -7.6799,-52.2449 8.0408,-120.2963 16.2022,-70.1345 19.8368,-79.5353 47.4087,-113.3961 42.6398,-51.5921 113.2689,-94.524 181.6477,-108.7173 l 56.1454,-11.8991 62.8858,-281.7137 c 60.9608,-273.3808 62.3519,-282.5685 54.0257,-313.0188 -16.2787,-59.3516 -53.0753,-96.3792 -110.7107,-109.6938 -54.1632,-12.5126 -97.4886,0.8854 -136.8674,41.5275 l -31.5778,32.2039 -36.2543,156.9346 c -34.3293,148.6018 -37.2695,158.163 -58.5894,183.9591 -32.0064,37.2251 -59.1452,47.0478 -107.8609,39.4509 -34.5069,-5.7772 -44.4417,-10.2666 -61.371,-28.8067 -11.1082,-12.0752 -24.9917,-34.3005 -30.437,-48.7247 -9.9831,-26.4445 -9.5546,-31.4657 29.5872,-200.8995 31.2814,-135.4082 44.1126,-181.4517 61.0002,-213.3921 60.3363,-115.5297 179.2637,-193.3859 312.3844,-202.8632 52.8317,-3.8872 153.6275,15.7409 203.5145,40.4318 117.7207,57.185 207.9639,201.6494 207.7197,332.5243 -0.1647,19.7113 -27.0117,151.7552 -67.7577,328.133 l -68.1772,295.1204 44.5426,35.1597 c 55.0642,43.442 100.5605,112.4691 115.5558,177.3759 9.9259,42.5233 9.0689,52.5658 -7.1333,122.7003 -15.7209,68.0513 -20.6916,80.0692 -45.5385,111.6337 -50.8694,65.0517 -138.54,112.0927 -228.6055,122.0075 -50.2145,5.2233 -154.59,-11.5745 -196.7859,-31.5628 z m 195.391,-171.3738 c 102.9429,-24.495 121.2854,-110.2272 38.6099,-179.7971 -64.4099,-53.6471 -171.8356,-47.7428 -222.1161,11.5933 -66.3639,78.2958 63.5218,196.808 183.5062,168.2038 z"
       id="path8"
       inkscape:connector-curvature="0" />
    <rect
       style="fill:#ffffff;fill-opacity:1;stroke-width:5.34517193"
       id="rect825"
       width="332.77621"
       height="64.231956"
       x="4847.2422"
       y="-2480.5588"
       transform="matrix(0.97433865,0.22508708,0.22508708,-0.97433865,0,0)" />
    <rect
       transform="matrix(0.97433865,0.22508708,0.22508708,-0.97433865,0,0)"
       y="-2480.5588"
       x="3919.5374"
       height="64.231956"
       width="332.77621"
       id="rect830"
       style="fill:#ffffff;fill-opacity:1;stroke-width:5.34517193" />
    <rect
       style="fill:#ffffff;fill-opacity:1;stroke-width:5.34517193"
       id="rect832"
       width="332.77621"
       height="64.231956"
       x="3933.0667"
       y="-3478.8071"
       transform="matrix(0.97433865,0.22508708,0.22508708,-0.97433865,0,0)" />
    <rect
       transform="matrix(0.97433865,0.22508708,0.22508708,-0.97433865,0,0)"
       y="-3473.9756"
       x="4836.6118"
       height="64.231956"
       width="332.77621"
       id="rect834"
       style="fill:#ffffff;fill-opacity:1;stroke-width:5.34517193" />
    <path
       style="fill:#5b5b5b;fill-opacity:1;stroke-width:1.93271744"
       d="m 4318.232,1970.7209 c -153.0784,-21.6535 -306.4889,2.7812 -439.1278,69.9428 -123.8212,62.6966 -228.8555,162.1619 -304.8668,288.7026 -18.3579,30.5615 -24.8248,44.7733 -34.8762,76.6446 -11.4224,36.2185 -60.3099,236.6676 -136.9586,561.5611 l -66.4573,281.6944 110.443,25.5141 110.443,25.514 52.328,-226.4418 c 53.2771,-230.5503 105.6596,-446.4889 123.3703,-508.5647 32.2388,-112.9963 84.8449,-193.5185 168.7703,-258.3302 67.3268,-51.9934 139.5395,-86.0949 212.6984,-100.4437 69.2028,-13.573 116.9031,-13.1429 191.0216,1.722 88.6173,17.7728 147.6406,45.9863 213.6565,102.1289 51.9763,44.2027 98.8546,104.1768 127.6537,163.3147 28.1306,57.7654 50.0005,142.7273 50.0019,194.2525 0,51.5302 -11.3791,111.1658 -86.4717,453.117 -22.2314,101.2358 -42.7155,196.2403 -45.5201,211.1213 l -5.0991,27.0563 10.5677,22.3089 c 20.2414,42.7314 44.0575,63.7689 82.1538,72.5698 18.9179,4.3703 33.9144,4.3381 52.1095,-0.1118 25.5151,-6.2401 42.4345,-16.2217 67.9788,-40.1042 l 13.2014,-12.3427 53.2092,-239.1123 c 29.265,-131.5119 63.1602,-283.6765 75.3227,-338.1438 l 22.1137,-99.0315 -2.8027,-44.2871 c -8.0173,-126.6825 -24.0954,-198.3818 -64.5037,-287.6491 -76.4541,-168.8978 -214.5671,-305.2792 -379.0294,-374.2777 -47.4156,-19.8927 -124.9646,-41.7658 -171.3295,-48.3242 z"
       id="path840"
       inkscape:connector-curvature="0" />
    <path
       style="fill:#5b5b5b;fill-opacity:1;stroke-width:1.93271744"
       d="m 4254.367,2582.0495 c -41.1912,-7.5955 -79.5609,-10.2133 -108.3826,-7.3946 -138.3305,13.5284 -265.2385,106.4512 -312.8777,229.0908 -11.8225,30.4352 -51.784,190.1427 -69.4478,277.5511 -16.0579,79.4619 -16.7079,86.0555 -10.3038,104.5247 4.4666,12.8815 21.9548,41.1971 32.5254,52.6627 14.4607,15.685 20.5486,18.936 46.3133,24.7324 57.2967,12.8902 90.3886,2.1259 123.5499,-40.1882 17.4487,-22.265 16.9506,-20.6227 56.5612,-186.4659 l 36.1446,-151.3315 19.1442,-19.3808 c 34.8694,-35.3004 54.6286,-48.2305 83.2073,-54.4493 23.8839,-5.1972 37.3108,-4.8043 66.005,1.9319 29.5418,6.9349 45.902,14.6992 64.2353,30.4845 33.3152,28.6853 53.9326,77.6319 49.9586,118.6044 -2.0626,21.2657 -31.5281,161.8526 -71.6724,341.9664 l -33.532,150.4473 110.1735,25.4517 110.1736,25.4518 52.3594,-231.3935 c 53.5128,-236.4902 67.7185,-305.6783 68.1431,-331.8873 0.9203,-56.8193 -21.2284,-128.1133 -58.4777,-188.2322 -40.633,-65.5801 -94.4255,-115.4442 -153.7317,-142.5046 -17.0288,-7.77 -63.8286,-22.9475 -80.0946,-25.9753 -4.184,-0.779 -13.1724,-2.4423 -19.9741,-3.6965 z"
       id="path842"
       inkscape:connector-curvature="0" />
    <path
       style="fill:#5b5b5b;fill-opacity:1;stroke-width:1.93271744"
       d="m 3975.7307,4488.5534 c -9.2369,19.9283 -22.9801,45.3533 -30.0229,55.5425 -44.7333,64.7187 -106.7108,110.3172 -183.3236,134.8759 -58.1039,18.6256 -103.8167,19.5159 -173.3332,3.3757 -75.9381,-17.6311 -117.0921,-40.4976 -167.3564,-92.9887 -60.6722,-63.3603 -95.7703,-150.0525 -94.214,-232.7084 l 0.3068,-16.2941 -114.8098,-26.5228 -114.8098,-26.5228 -1.6876,12.9996 c -15.1241,116.499 11.7251,240.9795 74.8153,346.8652 112.57,188.9289 325.2459,298.4987 542.1204,279.2985 201.0804,-17.8019 380.0664,-139.2784 463.505,-314.5773 11.3776,-23.9034 24.0989,-55.8562 26.6713,-66.9912 l 1.793,-7.7615 -113.893,-26.3111 -113.8929,-26.311 z"
       id="path844"
       inkscape:connector-curvature="0" />
    <path
       style="fill:#ffffff;fill-opacity:1;stroke-width:1.93271744"
       d="m 3280.878,3321.6764 c -41.4933,9.5202 -72.8337,20.7646 -102.2275,36.6775 -58.8539,31.8616 -107.1757,80.306 -124.0068,124.322 -6.749,17.6494 -28.1176,109.9273 -29.68,128.17 -1.576,18.4003 -0.4468,29.6983 5.6825,56.8541 8.3237,36.8779 18.2043,60.3944 40.2252,95.7386 22.8078,36.6073 43.9527,60.3694 77.2763,86.8408 24.3707,19.3595 46.1597,32.6655 76.8295,46.9177 18.0147,8.3714 29.0098,12.0418 60.7027,20.2637 54.3999,14.1127 86.0322,16.9399 136.1795,12.1715 91.6715,-8.7169 171.867,-50.9436 226.3749,-119.1971 17.4427,-21.8412 23.3964,-31.4892 30.0316,-48.6665 6.5975,-17.0796 27.8692,-109.3799 29.5456,-128.2011 3.2613,-36.6164 -9.4468,-84.6341 -34.6618,-130.9696 -23.017,-42.2965 -50.7286,-74.1928 -97.1065,-111.7709 l -32.1997,-26.09 -112.4991,-25.8859 -112.4991,-25.8858 z m 151.5316,210.5654 c 40.5557,22.8886 68.3949,56.2578 76.9285,92.2099 3.4522,14.544 3.4363,16.8171 -0.2277,32.6771 -3.4972,15.1383 -4.9038,18.2654 -12.5702,27.9451 -23.216,29.3131 -65.253,48.3719 -110.6018,50.1448 -22.7792,0.8906 -67.8906,-9.5222 -88.5102,-20.4308 -55.673,-29.4514 -87.1115,-83.9051 -74.1431,-128.4209 11.9302,-40.9517 73.6537,-75.3833 134.8977,-75.2511 19.0464,0.043 54.998,10.2732 74.2267,21.1253 z"
       id="path846"
       inkscape:connector-curvature="0" />
    <rect
       transform="matrix(0.97433865,0.22508708,0.22508708,-0.97433865,0,0)"
       y="-2904.6965"
       x="4795.1621"
       height="235.4391"
       width="407.49066"
       id="rect866"
       style="fill:#ffffff;fill-opacity:1;stroke:none;stroke-width:26.72585869;stroke-miterlimit:4;stroke-dasharray:none;stroke-opacity:1" />
    <path
       style="fill:#ffffff;fill-opacity:1;stroke-width:1.93271744"
       d="m 4172.7217,3526.6521 c -20.2684,4.3821 -43.5006,10.2815 -51.6272,13.1095 -82.3336,28.6524 -155.9566,90.6534 -178.3105,150.1627 -3.9205,10.4368 -10.1714,35.4497 -18.2147,72.8862 -13.4901,62.7886 -13.9596,68.7179 -7.9685,100.6322 17.7254,94.4215 82.9392,179.1581 178.126,231.4508 25.7889,14.1676 39.0918,18.9901 76.0865,27.5825 49.4259,11.4795 106.8619,17.3343 139.9102,14.2616 18.3344,-1.7047 60.0404,-11.5497 80.8327,-19.0812 26.8647,-9.7311 49.4554,-21.2104 75.7319,-38.4826 26.9375,-17.7066 48.1621,-36.5477 67.6153,-60.0222 17.1854,-20.7378 25.6267,-34.6216 32.5986,-53.6169 7.1953,-19.6038 27.4482,-107.6083 29.1428,-126.6331 3.2613,-36.6163 -9.4469,-84.6341 -34.6619,-130.9695 -23.0169,-42.2965 -50.7284,-74.1929 -97.1065,-111.7709 l -32.1996,-26.09 -111.5518,-25.6934 -111.5517,-25.6933 z m 149.1202,210.1484 c 31.6321,16.5282 61.0017,47.8362 71.9452,76.6937 16.1832,42.6738 2.6764,79.4033 -38.0232,103.3965 -62.8415,37.0464 -146.2844,27.7711 -204.9648,-22.7832 -36.743,-31.6549 -51.9584,-73.4373 -38.5656,-105.9037 8.13,-19.7085 19.6953,-32.1518 43.7657,-47.0882 18.1668,-11.273 24.1237,-13.798 43.1071,-18.272 19.5157,-4.5995 40.6662,-6.2381 61.6029,-4.7725 12.698,0.8889 47.246,11.4735 61.1327,18.7294 z"
       id="path848"
       inkscape:connector-curvature="0" />
    <rect
       style="fill:#ffffff;fill-opacity:1;stroke:none;stroke-width:26.72585869;stroke-miterlimit:4;stroke-dasharray:none;stroke-opacity:1"
       id="rect864"
       width="407.49066"
       height="235.4391"
       x="3900.4934"
       y="-2892.019"
       transform="matrix(0.97433865,0.22508708,0.22508708,-0.97433865,0,0)" />
    <path
       style="fill:#ffffff;fill-opacity:1;stroke-width:1.93271744"
       d="m 3361.0574,3512.9871 c -46.6498,-0.9194 -97.6442,19.9001 -122.9888,50.2127 -8.6384,10.3316 -9.6886,12.5662 -13.3455,28.3959 -3.7892,16.4021 -3.7772,17.9914 0.2666,35.0216 18.857,79.415 127.93,128.7387 213.1892,96.4058 21.2554,-8.0606 44.208,-23.6148 55.7911,-37.8076 8.4784,-10.3885 9.6493,-12.9032 13.2348,-28.4241 3.5537,-15.3828 3.6215,-18.3405 0.702,-30.6256 -8.5209,-35.8546 -36.2799,-69.5921 -75.6367,-91.9264 -12.4546,-7.0678 -20.528,-10.1649 -39.0862,-14.9939 -12.864,-3.3475 -27.3211,-6.1635 -32.1265,-6.2584 z"
       id="path850"
       inkscape:connector-curvature="0" />
    <ellipse
       style="fill:#000000;fill-opacity:1;stroke-width:5.34517193"
       id="path856"
       cx="3936.2708"
       cy="-2700.9888"
       transform="matrix(0.97433865,0.22508708,0.22508708,-0.97433865,0,0)"
       rx="156.34628"
       ry="120.26637" />
    <ellipse
       ry="120.26637"
       rx="156.34628"
       transform="matrix(0.97433865,0.22508708,0.22508708,-0.97433865,0,0)"
       cy="-2683.6692"
       cx="4837.4941"
       id="ellipse858"
       style="fill:#000000;fill-opacity:1;stroke-width:5.34517193" />
    <ellipse
       style="fill:#000000;fill-opacity:0;stroke:#000000;stroke-width:21.94025993;stroke-miterlimit:4;stroke-dasharray:none;stroke-opacity:1"
       id="path860"
       cx="4097.3057"
       cy="-2771.5908"
       transform="matrix(0.97433865,0.22508708,0.22508708,-0.97433865,0,0)"
       rx="341.75705"
       ry="303.33847" />
    <ellipse
       ry="303.33847"
       rx="341.75705"
       transform="matrix(0.97433865,0.22508708,0.22508708,-0.97433865,0,0)"
       cy="-2771.5908"
       cx="5001.4233"
       id="ellipse862"
       style="fill:#000000;fill-opacity:0;stroke:#000000;stroke-width:21.94025993;stroke-miterlimit:4;stroke-dasharray:none;stroke-opacity:1" />
    <path
       style="fill:none;fill-rule:evenodd;stroke:#000000;stroke-width:183;stroke-linecap:round;stroke-linejoin:miter;stroke-miterlimit:4;stroke-dasharray:none;stroke-opacity:1"
       d="M 3151.0587,2825.7883 228.70585,1032.9883"
       id="path937"
       inkscape:connector-curvature="0"
       sodipodi:nodetypes="cc" />
    <path
       style="fill:none;fill-opacity:1;stroke:#000000;stroke-width:24.39999962;stroke-linecap:round;stroke-miterlimit:4;stroke-dasharray:none;stroke-opacity:1"
       d="M 39.110424 470.59274 L 87.503681 441.19152 C 89.871017 439.75325 92.934736 440.50119 94.373007 442.86853 L 151.10727 536.25084 C 152.54554 538.61818 151.79759 541.6819 149.43026 543.12017 L 101.03726 572.52125 "
       id="rect949"
       transform="matrix(7.4999998,0,0,-7.4999998,0,5120)" />
    <path
       style="fill:none;fill-rule:evenodd;stroke:#ff0000;stroke-width:182.99999455;stroke-linecap:round;stroke-linejoin:miter;stroke-opacity:1;stroke-miterlimit:4;stroke-dasharray:none"
       d="m 228.70585,1032.9883 174.07061,106.7295"
       id="path1004"
       inkscape:connector-curvature="0" />
    <path
       inkscape:connector-curvature="0"
       id="path1006"
       d="M 293.32817,1590.5545 467.39878,1697.284"
       style="fill:none;fill-rule:evenodd;stroke:#ff0000;stroke-width:183;stroke-linecap:round;stroke-linejoin:miter;stroke-miterlimit:4;stroke-dasharray:none;stroke-opacity:1" />
    <path
       style="fill:none;fill-rule:evenodd;stroke:#ff0000;stroke-width:183;stroke-linecap:round;stroke-linejoin:miter;stroke-miterlimit:4;stroke-dasharray:none;stroke-opacity:1"
       d="m 757.77943,826.09074 174.07061,106.7295"
       id="path1008"
       inkscape:connector-curvature="0" />
    <path
       style="fill:none;fill-rule:evenodd;stroke:#ff0000;stroke-width:234.84170532;stroke-linecap:round;stroke-linejoin:miter;stroke-miterlimit:4;stroke-dasharray:none;stroke-opacity:1"
       d="m 4674.691,3358.5638 55.9141,-255.9937"
       id="path1010"
       inkscape:connector-curvature="0" />
  </g>
</svg>
