<?xml version="1.0" encoding="UTF-8" standalone="no"?>
<svg
   xmlns:dc="http://purl.org/dc/elements/1.1/"
   xmlns:cc="http://creativecommons.org/ns#"
   xmlns:rdf="http://www.w3.org/1999/02/22-rdf-syntax-ns#"
   xmlns:svg="http://www.w3.org/2000/svg"
   xmlns="http://www.w3.org/2000/svg"
   xmlns:xlink="http://www.w3.org/1999/xlink"
   xmlns:sodipodi="http://sodipodi.sourceforge.net/DTD/sodipodi-0.dtd"
   xmlns:inkscape="http://www.inkscape.org/namespaces/inkscape"
   version="1.0"
   width="512.000000pt"
   height="512.000000pt"
   viewBox="0 0 512.000000 512.000000"
   preserveAspectRatio="xMidYMid meet"
   id="svg12"
   sodipodi:docname="clippy.svg"
   inkscape:version="0.92.3 (2405546, 2018-03-11)">
  <defs
     id="defs16">
    <clipPath
       clipPathUnits="userSpaceOnUse"
       id="clipPath1237">
      <use
         x="0"
         y="0"
         xlink:href="#g1233"
         id="use1239"
         width="100%"
         height="100%" />
    </clipPath>
  </defs>
  <sodipodi:namedview
     pagecolor="#ffffff"
     bordercolor="#666666"
     borderopacity="1"
     objecttolerance="10"
     gridtolerance="10"
     guidetolerance="10"
     inkscape:pageopacity="0"
     inkscape:pageshadow="2"
     inkscape:window-width="1920"
     inkscape:window-height="1017"
     id="namedview14"
     showgrid="false"
     inkscape:zoom="1.0434736"
     inkscape:cx="610.5425"
     inkscape:cy="345.12183"
     inkscape:window-x="-8"
     inkscape:window-y="-8"
     inkscape:window-maximized="1"
     inkscape:current-layer="g10" />
  <metadata
     id="metadata2">
Created by potrace 1.15, written by Peter Selinger 2001-2017
<rdf:RDF>
  <cc:Work
     rdf:about="">
    <dc:format>image/svg+xml</dc:format>
    <dc:type
       rdf:resource="http://purl.org/dc/dcmitype/StillImage" />
    <dc:title></dc:title>
  </cc:Work>
</rdf:RDF>
</metadata>
  <g
     inkscape:groupmode="layer"
     id="layer2"
     inkscape:label="Base">
    <g
       style="fill:#000000;stroke:none"
       transform="matrix(0.1,0,0,-0.1,6.998962e-8,512)"
       id="g10">
      <g
         id="g1235"
         clip-path="url(#clipPath1237)"
         transform="matrix(1.5962151,0,0,1.5962151,-2069.1279,-2189.5353)">
        <g
           inkscape:label="Clip"
           id="g1233">
          <path
             inkscape:connector-curvature="0"
             id="path840"
             d="m 3377.9967,1498.0621 c -153.0784,-21.6535 -306.4889,2.7812 -439.1278,69.9428 -123.8212,62.6966 -228.8555,162.1619 -304.8668,288.7026 -18.3579,30.5615 -24.8248,44.7733 -34.8762,76.6446 -11.4224,36.2185 -60.3099,236.6676 -136.9586,561.5611 l -66.4573,281.6944 110.443,25.5141 110.443,25.514 52.328,-226.4418 c 53.2771,-230.5503 105.6596,-446.4889 123.3703,-508.5647 32.2388,-112.9963 84.8449,-193.5185 168.7703,-258.3302 67.3268,-51.9934 139.5395,-86.0949 212.6984,-100.4437 69.2028,-13.573 116.9031,-13.1429 191.0216,1.722 88.6173,17.7728 147.6406,45.9863 213.6565,102.1289 51.9763,44.2027 98.8546,104.1768 127.6537,163.3147 28.1306,57.7654 50.0005,142.7273 50.0019,194.2525 0,51.5302 -11.3791,111.1658 -86.4717,453.117 -22.2314,101.2358 -42.7155,196.2403 -45.5201,211.1213 l -5.0991,27.0563 10.5677,22.3089 c 20.2414,42.7314 44.0575,63.7689 82.1538,72.5698 18.9179,4.3703 33.9144,4.3381 52.1095,-0.1118 25.5151,-6.2401 42.4345,-16.2217 67.9788,-40.1042 l 13.2014,-12.3427 53.2092,-239.1123 c 29.265,-131.5119 63.1602,-283.6765 75.3227,-338.1438 l 22.1137,-99.0315 -2.8027,-44.2871 c -8.0173,-126.6825 -24.0954,-198.3818 -64.5037,-287.6491 -76.4541,-168.8978 -214.5671,-305.2792 -379.0294,-374.2777 -47.4156,-19.8927 -124.9646,-41.7658 -171.3295,-48.3242 z"
             style="fill:#5b5b5b;fill-opacity:1;stroke-width:1.93271744" />
          <path
             inkscape:connector-curvature="0"
             id="path842"
             d="m 3314.1317,2109.3907 c -41.1912,-7.5955 -79.5609,-10.2133 -108.3826,-7.3946 -138.3305,13.5284 -265.2385,106.4512 -312.8777,229.0908 -11.8225,30.4352 -51.784,190.1427 -69.4478,277.5511 -16.0579,79.4619 -16.7079,86.0555 -10.3038,104.5247 4.4666,12.8815 21.9548,41.1971 32.5254,52.6627 14.4607,15.685 20.5486,18.936 46.3133,24.7324 57.2967,12.8902 90.3886,2.1259 123.5499,-40.1882 17.4487,-22.265 16.9506,-20.6227 56.5612,-186.4659 l 36.1446,-151.3315 19.1442,-19.3808 c 34.8694,-35.3004 54.6286,-48.2305 83.2073,-54.4493 23.8839,-5.1972 37.3108,-4.8043 66.005,1.9319 29.5418,6.9349 45.902,14.6992 64.2353,30.4845 33.3152,28.6853 53.9326,77.6319 49.9586,118.6044 -2.0626,21.2657 -31.5281,161.8526 -71.6724,341.9664 l -33.532,150.4473 110.1735,25.4517 110.1736,25.4518 52.3594,-231.3935 c 53.5128,-236.4902 67.7185,-305.6783 68.1431,-331.8873 0.9203,-56.8193 -21.2284,-128.1133 -58.4777,-188.2322 -40.633,-65.5801 -94.4255,-115.4442 -153.7317,-142.5046 -17.0288,-7.77 -63.8286,-22.9475 -80.0946,-25.9753 -4.184,-0.779 -13.1724,-2.4423 -19.9741,-3.6965 z"
             style="fill:#5b5b5b;fill-opacity:1;stroke-width:1.93271744" />
          <path
             inkscape:connector-curvature="0"
             id="path844"
             d="m 3035.4954,4015.8946 c -9.2369,19.9283 -22.9801,45.3533 -30.0229,55.5425 -44.7333,64.7187 -106.7108,110.3172 -183.3236,134.8759 -58.1039,18.6256 -103.8167,19.5159 -173.3332,3.3757 -75.9381,-17.6311 -117.0921,-40.4976 -167.3564,-92.9887 -60.6722,-63.3603 -95.7703,-150.0525 -94.214,-232.7084 l 0.3068,-16.2941 -114.8098,-26.5228 -114.8098,-26.5228 -1.6876,12.9996 c -15.1241,116.499 11.7251,240.9795 74.8153,346.8652 112.57,188.9289 325.2459,298.4987 542.1204,279.2985 201.0804,-17.8019 380.0664,-139.2784 463.505,-314.5773 11.3776,-23.9034 24.0989,-55.8562 26.6713,-66.9912 l 1.793,-7.7615 -113.893,-26.3111 -113.8929,-26.311 z"
             style="fill:#5b5b5b;fill-opacity:1;stroke-width:1.93271744" />
          <path
             inkscape:connector-curvature="0"
             id="path846"
             d="m 2340.6427,2849.0176 c -41.4933,9.5202 -72.8337,20.7646 -102.2275,36.6775 -58.8539,31.8616 -107.1757,80.306 -124.0068,124.322 -6.749,17.6494 -28.1176,109.9273 -29.68,128.17 -1.576,18.4003 -0.4468,29.6983 5.6825,56.8541 8.3237,36.8779 18.2043,60.3944 40.2252,95.7386 22.8078,36.6073 43.9527,60.3694 77.2763,86.8408 24.3707,19.3595 46.1597,32.6655 76.8295,46.9177 18.0147,8.3714 29.0098,12.0418 60.7027,20.2637 54.3999,14.1127 86.0322,16.9399 136.1795,12.1715 91.6715,-8.7169 171.867,-50.9436 226.3749,-119.1971 17.4427,-21.8412 23.3964,-31.4892 30.0316,-48.6665 6.5975,-17.0796 27.8692,-109.3799 29.5456,-128.2011 3.2613,-36.6164 -9.4468,-84.6341 -34.6618,-130.9696 -23.017,-42.2965 -50.7286,-74.1928 -97.1065,-111.7709 l -32.1997,-26.09 -112.4991,-25.8859 -112.4991,-25.8858 z m 151.5316,210.5654 c 40.5557,22.8886 68.3949,56.2578 76.9285,92.2099 3.4522,14.544 3.4363,16.8171 -0.2277,32.6771 -3.4972,15.1383 -4.9038,18.2654 -12.5702,27.9451 -23.216,29.3131 -65.253,48.3719 -110.6018,50.1448 -22.7792,0.8906 -67.8906,-9.5222 -88.5102,-20.4308 -55.673,-29.4514 -87.1115,-83.9051 -74.1431,-128.4209 11.9302,-40.9517 73.6537,-75.3833 134.8977,-75.2511 19.0464,0.043 54.998,10.2732 74.2267,21.1253 z"
             style="fill:#ffffff;fill-opacity:1;stroke-width:1.93271744" />
          <rect
             style="fill:#ffffff;fill-opacity:1;stroke:none;stroke-width:26.72585869;stroke-miterlimit:4;stroke-dasharray:none;stroke-opacity:1"
             id="rect866"
             width="407.49066"
             height="235.4391"
             x="3772.6653"
             y="-2655.8015"
             transform="matrix(0.97433865,0.22508708,0.22508708,-0.97433865,0,0)" />
          <path
             inkscape:connector-curvature="0"
             id="path848"
             d="m 3232.4864,3053.9933 c -20.2684,4.3821 -43.5006,10.2815 -51.6272,13.1095 -82.3336,28.6524 -155.9566,90.6534 -178.3105,150.1627 -3.9205,10.4368 -10.1714,35.4497 -18.2147,72.8862 -13.4901,62.7886 -13.9596,68.7179 -7.9685,100.6322 17.7254,94.4215 82.9392,179.1581 178.126,231.4508 25.7889,14.1676 39.0918,18.9901 76.0865,27.5825 49.4259,11.4795 106.8619,17.3343 139.9102,14.2616 18.3344,-1.7047 60.0404,-11.5497 80.8327,-19.0812 26.8647,-9.7311 49.4554,-21.2104 75.7319,-38.4826 26.9375,-17.7066 48.1621,-36.5477 67.6153,-60.0222 17.1854,-20.7378 25.6267,-34.6216 32.5986,-53.6169 7.1953,-19.6038 27.4482,-107.6083 29.1428,-126.6331 3.2613,-36.6163 -9.4469,-84.6341 -34.6619,-130.9695 -23.0169,-42.2965 -50.7284,-74.1929 -97.1065,-111.7709 l -32.1996,-26.09 -111.5518,-25.6934 -111.5517,-25.6933 z m 149.1202,210.1484 c 31.6321,16.5282 61.0017,47.8362 71.9452,76.6937 16.1832,42.6738 2.6764,79.4033 -38.0232,103.3965 -62.8415,37.0464 -146.2844,27.7711 -204.9648,-22.7832 -36.743,-31.6549 -51.9584,-73.4373 -38.5656,-105.9037 8.13,-19.7085 19.6953,-32.1518 43.7657,-47.0882 18.1668,-11.273 24.1237,-13.798 43.1071,-18.272 19.5157,-4.5995 40.6662,-6.2381 61.6029,-4.7725 12.698,0.8889 47.246,11.4735 61.1327,18.7294 z"
             style="fill:#ffffff;fill-opacity:1;stroke-width:1.93271744" />
          <rect
             transform="matrix(0.97433865,0.22508708,0.22508708,-0.97433865,0,0)"
             y="-2643.124"
             x="2877.9966"
             height="235.4391"
             width="407.49066"
             id="rect864"
             style="fill:#ffffff;fill-opacity:1;stroke:none;stroke-width:26.72585869;stroke-miterlimit:4;stroke-dasharray:none;stroke-opacity:1" />
          <path
             inkscape:connector-curvature="0"
             id="path850"
             d="m 2420.8221,3040.3283 c -46.6498,-0.9194 -97.6442,19.9001 -122.9888,50.2127 -8.6384,10.3316 -9.6886,12.5662 -13.3455,28.3959 -3.7892,16.4021 -3.7772,17.9914 0.2666,35.0216 18.857,79.415 127.93,128.7387 213.1892,96.4058 21.2554,-8.0606 44.208,-23.6148 55.7911,-37.8076 8.4784,-10.3885 9.6493,-12.9032 13.2348,-28.4241 3.5537,-15.3828 3.6215,-18.3405 0.702,-30.6256 -8.5209,-35.8546 -36.2799,-69.5921 -75.6367,-91.9264 -12.4546,-7.0678 -20.528,-10.1649 -39.0862,-14.9939 -12.864,-3.3475 -27.3211,-6.1635 -32.1265,-6.2584 z"
             style="fill:#ffffff;fill-opacity:1;stroke-width:1.93271744" />
          <ellipse
             ry="120.26637"
             rx="156.34628"
             transform="matrix(0.97433865,0.22508708,0.22508708,-0.97433865,0,0)"
             cy="-2452.0938"
             cx="2913.7739"
             id="path856"
             style="fill:#000000;fill-opacity:1;stroke-width:5.34517193" />
          <ellipse
             style="fill:#000000;fill-opacity:1;stroke-width:5.34517193"
             id="ellipse858"
             cx="3814.9973"
             cy="-2434.7742"
             transform="matrix(0.97433865,0.22508708,0.22508708,-0.97433865,0,0)"
             rx="156.34628"
             ry="120.26637" />
          <ellipse
             ry="303.33847"
             rx="341.75705"
             transform="matrix(0.97433865,0.22508708,0.22508708,-0.97433865,0,0)"
             cy="-2522.6958"
             cx="3074.8088"
             id="path860"
             style="fill:#000000;fill-opacity:0;stroke:#000000;stroke-width:21.94025993;stroke-miterlimit:4;stroke-dasharray:none;stroke-opacity:1" />
          <ellipse
             style="fill:#000000;fill-opacity:0;stroke:#000000;stroke-width:21.94025993;stroke-miterlimit:4;stroke-dasharray:none;stroke-opacity:1"
             id="ellipse862"
             cx="3978.9265"
             cy="-2522.6958"
             transform="matrix(0.97433865,0.22508708,0.22508708,-0.97433865,0,0)"
             rx="341.75705"
             ry="303.33847" />
          <path
             inkscape:connector-curvature="0"
             id="path1010"
             d="m 3736.6812,2880.8853 57.1341,-261.5794"
             style="fill:none;fill-rule:evenodd;stroke:#ff0000;stroke-width:239.96592712;stroke-linecap:round;stroke-linejoin:miter;stroke-miterlimit:4;stroke-dasharray:none;stroke-opacity:1" />
          <path
             inkscape:connector-curvature="0"
             id="path1214"
             d="m 1937.7764,3374.7205 c -51.0827,23.4849 -96.0455,45.8676 -99.9172,49.7393 -16.243,16.243 85.3272,152.1235 161.4507,215.9887 86.9963,72.987 144.0733,99.9587 278.4001,131.5578 110.2206,25.9283 125.2367,27.8122 193.2183,24.241 40.5405,-2.1297 77.3857,-6.1438 81.8782,-8.9204 5.8562,-3.6192 6.7693,-33.3096 3.2263,-104.8913 -2.7182,-54.9138 -6.8291,-104.7609 -9.1356,-110.7716 -3.5395,-9.2238 -15.5397,-10.1982 -76.9363,-6.2469 -162.7679,10.4752 -294.8002,-49.0555 -394.7324,-177.9769 -23.8184,-30.7278 -43.5915,-55.7676 -43.9403,-55.6441 -0.3487,0.1237 -42.429,19.4395 -93.5118,42.9244 z"
             style="fill:#000000;fill-opacity:1;stroke:none;stroke-width:175.3757782;stroke-linecap:round;stroke-miterlimit:4;stroke-dasharray:none;stroke-opacity:1" />
          <path
             inkscape:connector-curvature="0"
             id="path1216"
             d="m 3017.407,3689.1513 c -6.0216,6.918 -31.297,49.1675 -56.1678,93.8877 -52.4521,94.3149 -53.7238,88.4584 28.9505,133.3246 35.0604,19.0268 81.374,33.4698 185.5898,57.8766 136.5488,31.979 140.034,32.4093 208.4384,25.733 38.2622,-3.7344 92.2084,-13.2681 119.8804,-21.1861 82.1667,-23.511 219.2197,-95.7946 219.2197,-115.6194 0,-3.5339 -26.6837,-39.2318 -59.2972,-79.3286 -32.6133,-40.0969 -62.9054,-77.4243 -67.3155,-82.9499 -6.6869,-8.3782 -17.4293,-5.3009 -64.6878,18.5301 -74.4789,37.5575 -128.0587,50.5916 -207.9679,50.5916 -87.4084,0 -162.6407,-19.7077 -233.2464,-61.101 -30.3368,-17.7852 -56.7982,-32.3369 -58.8029,-32.3369 -2.0047,0 -8.5717,5.6603 -14.5933,12.5783 z"
             style="fill:#000000;fill-opacity:1;stroke:none;stroke-width:175.3757782;stroke-linecap:round;stroke-miterlimit:4;stroke-dasharray:none;stroke-opacity:1" />
        </g>
      </g>
    </g>
    <g
       inkscape:groupmode="layer"
       id="layer3"
       inkscape:label="Pitch"
       style="display:none">
      <path
         style="fill:none;fill-rule:evenodd;stroke:#000000;stroke-width:18.30000114;stroke-linecap:round;stroke-linejoin:miter;stroke-miterlimit:4;stroke-dasharray:none;stroke-opacity:1"
         d="M 315.10588,229.42117 22.870586,408.70118"
         id="path937"
         inkscape:connector-curvature="0"
         sodipodi:nodetypes="cc" />
      <path
         inkscape:connector-curvature="0"
         style="fill:none;fill-opacity:1;stroke:#000000;stroke-width:18.29999924;stroke-linecap:round;stroke-miterlimit:4;stroke-dasharray:none;stroke-opacity:1"
         d="m 29.332817,352.94455 36.294942,-22.05091 c 1.775502,-1.0787 4.073291,-0.51775 5.151994,1.25776 l 42.550697,70.03673 c 1.0787,1.7755 0.51774,4.07329 -1.25776,5.15199 l -36.294747,22.05081"
         id="rect949" />
      <path
         style="fill:none;fill-rule:evenodd;stroke:#ff0000;stroke-width:18.30000114;stroke-linecap:round;stroke-linejoin:miter;stroke-miterlimit:4;stroke-dasharray:none;stroke-opacity:1"
         d="m 22.870586,408.70118 17.40706,-10.67295"
         id="path1004"
         inkscape:connector-curvature="0" />
      <path
         inkscape:connector-curvature="0"
         id="path1006"
         d="M 29.332817,352.94455 46.739879,342.2716"
         style="fill:none;fill-rule:evenodd;stroke:#ff0000;stroke-width:18.30000114;stroke-linecap:round;stroke-linejoin:miter;stroke-miterlimit:4;stroke-dasharray:none;stroke-opacity:1" />
      <path
         style="fill:none;fill-rule:evenodd;stroke:#ff0000;stroke-width:18.30000114;stroke-linecap:round;stroke-linejoin:miter;stroke-miterlimit:4;stroke-dasharray:none;stroke-opacity:1"
         d="M 75.777944,429.39093 93.185002,418.71798"
         id="path1008"
         inkscape:connector-curvature="0" />
    </g>
  </g>
</svg>
